<svg width="16" height="12" viewBox="0 0 16 12" fill="none" xmlns="http://www.w3.org/2000/svg">
<path d="M2.64453 11.1719C2.03125 11.1719 1.57031 11.0195 1.26172 10.7148C0.957031 10.4141 0.804688 9.96094 0.804688 9.35547V3.2207C0.804688 2.61914 0.957031 2.16797 1.26172 1.86719C1.57031 1.5625 2.03125 1.41016 2.64453 1.41016H4.2793C4.50977 1.41016 4.67969 1.38281 4.78906 1.32812C4.89844 1.26953 5.01758 1.16797 5.14648 1.02344L5.61523 0.496094C5.76367 0.335938 5.92383 0.212891 6.0957 0.126953C6.27148 0.0410156 6.50977 -0.00195312 6.81055 -0.00195312H9.14844C9.44922 -0.00195312 9.6875 0.0410156 9.86328 0.126953C10.0391 0.212891 10.1992 0.335938 10.3438 0.496094L10.8125 1.02344C10.9023 1.12109 10.9824 1.19922 11.0527 1.25781C11.127 1.3125 11.2109 1.35156 11.3047 1.375C11.3984 1.39844 11.5234 1.41016 11.6797 1.41016H13.3555C13.9648 1.41016 14.4238 1.5625 14.7324 1.86719C15.041 2.16797 15.1953 2.61914 15.1953 3.2207V9.35547C15.1953 9.96094 15.041 10.4141 14.7324 10.7148C14.4238 11.0195 13.9648 11.1719 13.3555 11.1719H2.64453ZM8 9.44336C8.44141 9.44336 8.85547 9.36133 9.24219 9.19727C9.62891 9.0332 9.96875 8.80469 10.2617 8.51172C10.5547 8.21875 10.7832 7.87891 10.9473 7.49219C11.1113 7.10547 11.1934 6.6875 11.1934 6.23828C11.1934 5.64453 11.0508 5.10547 10.7656 4.62109C10.4805 4.13672 10.0957 3.75195 9.61133 3.4668C9.12695 3.18164 8.58984 3.03906 8 3.03906C7.55469 3.03906 7.13867 3.12109 6.75195 3.28516C6.36523 3.44922 6.02539 3.67773 5.73242 3.9707C5.44336 4.26367 5.21484 4.60352 5.04688 4.99023C4.88281 5.37695 4.80078 5.79297 4.80078 6.23828C4.80078 6.6875 4.88281 7.10547 5.04688 7.49219C5.21484 7.87891 5.44336 8.21875 5.73242 8.51172C6.02539 8.80469 6.36523 9.0332 6.75195 9.19727C7.13867 9.36133 7.55469 9.44336 8 9.44336ZM8 8.55273C7.57422 8.55273 7.18555 8.44922 6.83398 8.24219C6.48633 8.03516 6.20703 7.75781 5.99609 7.41016C5.78906 7.05859 5.68555 6.66797 5.68555 6.23828C5.68555 5.8125 5.78906 5.42578 5.99609 5.07812C6.20703 4.72656 6.48633 4.44727 6.83398 4.24023C7.18555 4.0293 7.57422 3.92383 8 3.92383C8.42578 3.92383 8.8125 4.0293 9.16016 4.24023C9.51172 4.44727 9.79102 4.72656 9.99805 5.07812C10.2051 5.42578 10.3086 5.8125 10.3086 6.23828C10.3086 6.66797 10.2051 7.05859 9.99805 7.41016C9.79102 7.75781 9.51172 8.03516 9.16016 8.24219C8.8125 8.44922 8.42578 8.55273 8 8.55273ZM11.5859 4.08203C11.5859 4.29297 11.6602 4.47266 11.8086 4.62109C11.9609 4.76562 12.1406 4.83594 12.3477 4.83203C12.5469 4.83203 12.7207 4.75977 12.8691 4.61523C13.0215 4.4707 13.0977 4.29297 13.0977 4.08203C13.0977 3.88281 13.0215 3.70898 12.8691 3.56055C12.7207 3.4082 12.5469 3.33203 12.3477 3.33203C12.1406 3.33203 11.9609 3.4082 11.8086 3.56055C11.6602 3.70898 11.5859 3.88281 11.5859 4.08203Z" fill="white"/>
</svg>
