<svg width="347" height="347" viewBox="0 0 347 347" fill="none" xmlns="http://www.w3.org/2000/svg">
<rect width="347" height="347" fill="#C2CCE1"/>
<path d="M207.643 257C209.786 253.289 210.857 249.197 210.857 244.725V222.173H222.429C224.048 222.173 224.857 221.411 224.857 219.889V208.898C224.857 207.328 224.048 206.543 222.429 206.543H210.857V195.481H222.429C224.048 195.481 224.857 194.696 224.857 193.126V182.207C224.857 180.637 224.048 179.852 222.429 179.852H210.857V168.79H222.429C224.048 168.79 224.857 168.005 224.857 166.435V155.444C224.857 153.874 224.048 153.089 222.429 153.089H210.857V124.256H231.786C235.214 124.256 237.929 125.375 239.929 127.611C241.976 129.847 243 132.844 243 136.603V244.725C243 248.436 241.976 251.41 239.929 253.646C237.929 255.882 235.214 257 231.786 257H207.643ZM124.286 135.104C124.286 137.245 125.31 138.316 127.357 138.316H142.071C144.167 138.316 145.214 137.245 145.214 135.104V120.902C145.214 118.761 144.167 117.691 142.071 117.691H127.357C125.31 117.691 124.286 118.761 124.286 120.902V135.104ZM159.929 135.104C159.929 137.245 160.952 138.316 163 138.316H177.714C179.762 138.316 180.786 137.245 180.786 135.104V120.902C180.786 118.761 179.762 117.691 177.714 117.691H163C160.952 117.691 159.929 118.761 159.929 120.902V135.104ZM124.286 165.15C124.286 167.243 125.31 168.29 127.357 168.29H142.071C144.167 168.29 145.214 167.243 145.214 165.15V150.876C145.214 148.783 144.167 147.736 142.071 147.736H127.357C125.31 147.736 124.286 148.783 124.286 150.876V165.15ZM159.929 165.15C159.929 167.243 160.952 168.29 163 168.29H177.714C179.762 168.29 180.786 167.243 180.786 165.15V150.876C180.786 148.783 179.762 147.736 177.714 147.736H163C160.952 147.736 159.929 148.783 159.929 150.876V165.15ZM124.286 195.124C124.286 197.265 125.31 198.336 127.357 198.336H142.071C144.167 198.336 145.214 197.265 145.214 195.124V180.922C145.214 178.781 144.167 177.711 142.071 177.711H127.357C125.31 177.711 124.286 178.781 124.286 180.922V195.124ZM159.929 195.124C159.929 197.265 160.952 198.336 163 198.336H177.714C179.762 198.336 180.786 197.265 180.786 195.124V180.922C180.786 178.781 179.762 177.711 177.714 177.711H163C160.952 177.711 159.929 178.781 159.929 180.922V195.124ZM115.214 257C111.786 257 109.048 255.882 107 253.646C105 251.41 104 248.436 104 244.725V102.275C104 98.5165 105 95.5429 107 93.3543C109.048 91.1181 111.786 90 115.214 90H189.857C193.333 90 196.071 91.1181 198.071 93.3543C200.071 95.5429 201.071 98.5165 201.071 102.275V244.725C201.071 248.436 200.071 251.41 198.071 253.646C196.071 255.882 193.333 257 189.857 257H115.214ZM135.286 246.009H169.786V224.742C169.786 222.886 169.286 221.435 168.286 220.388C167.286 219.342 165.833 218.818 163.929 218.818H141.214C139.357 218.818 137.905 219.342 136.857 220.388C135.81 221.435 135.286 222.886 135.286 224.742V246.009Z" fill="#2466F4"/>
</svg>
