<svg width="128" height="110" viewBox="0 0 128 110" fill="none" xmlns="http://www.w3.org/2000/svg">
<path d="M93.1387 43C93.1387 43 96.9236 59.2319 104.263 65.9803C111.388 72.5308 127.292 75.1385 127.292 75.1385C127.292 75.1385 112.358 77.6357 105.67 83.8011C97.7528 91.1002 95.1533 109.292 95.1533 109.292C95.1533 109.292 91.5414 90.5884 82.8081 83.8011C75.7781 78.3376 61.0002 77.1531 61.0002 77.1531C61.0002 77.1531 76.1825 72.8847 82.8081 65.9803C89.6208 58.8809 93.1387 43 93.1387 43Z" fill="white" fill-opacity="0.59"/>
<path d="M20.1387 0C20.1387 0 22.4904 10.0857 27.051 14.2789C31.4779 18.3491 41.3598 19.9693 41.3598 19.9693C41.3598 19.9693 32.0808 21.521 27.9252 25.3519C23.0057 29.8872 21.3904 41.1905 21.3904 41.1905C21.3904 41.1905 19.1462 29.5692 13.7197 25.3519C9.35159 21.9571 0.169332 21.2211 0.169332 21.2211C0.169332 21.2211 9.60292 18.569 13.7197 14.2789C17.9528 9.86764 20.1387 0 20.1387 0Z" fill="white" fill-opacity="0.59"/>
</svg>
