<svg width="50" height="50" viewBox="0 0 50 50" fill="none" xmlns="http://www.w3.org/2000/svg">
<rect width="50" height="50" rx="25" fill="#2466F4"/>
<path d="M12.6895 14.9351C12.7832 14.5367 12.9785 14.314 13.2754 14.2672C13.5723 14.2125 13.8418 14.3101 14.084 14.5601C14.6465 15.1617 15.248 15.6031 15.8887 15.8844C16.5293 16.1578 17.1816 16.3336 17.8457 16.4117C18.5098 16.482 19.1543 16.5172 19.7793 16.5172C20.3574 16.5172 20.9746 16.4781 21.6309 16.4C22.2871 16.3219 22.9512 16.2476 23.623 16.1773C24.2949 16.0992 24.9434 16.0601 25.5684 16.0601C27.4355 16.0601 29.0879 16.3687 30.5254 16.9859C31.9707 17.6031 33.1035 18.5406 33.9238 19.7984C34.7441 21.0484 35.1543 22.6265 35.1543 24.5328C35.1543 24.7906 35.1465 25.0484 35.1309 25.3062C35.1152 25.5562 35.0918 25.7633 35.0605 25.9273C35.0293 26.1383 34.9121 26.2789 34.709 26.3492C34.5137 26.4117 34.3184 26.357 34.123 26.1851C33.2793 25.4039 32.4316 24.8219 31.5801 24.439C30.7363 24.0562 29.8965 23.7867 29.0605 23.6304C28.2246 23.4742 27.4004 23.3648 26.5879 23.3023C25.7754 23.2398 24.9785 23.15 24.1973 23.0328C23.416 22.9078 22.6582 22.689 21.9238 22.3765C21.1895 22.0562 20.4863 21.5601 19.8145 20.8883C19.6191 20.6929 19.4395 20.6539 19.2754 20.7711C19.1191 20.8804 19.0801 21.0367 19.1582 21.2398C19.4941 22.107 19.9746 22.7828 20.5996 23.2672C21.2246 23.7515 21.9512 24.1226 22.7793 24.3804C23.6152 24.6304 24.5098 24.8375 25.4629 25.0015C26.4238 25.1656 27.4043 25.3609 28.4043 25.5875C29.4121 25.814 30.4004 26.1422 31.3691 26.5719C32.3457 27.0015 33.2637 27.6109 34.123 28.4C34.4199 28.689 34.7676 29.064 35.166 29.525C35.5723 29.9781 35.9629 30.4742 36.3379 31.0133C36.7207 31.5445 37.0332 32.0679 37.2754 32.5836C37.5254 33.0992 37.6504 33.5601 37.6504 33.9664C37.6504 34.482 37.498 34.9078 37.1934 35.2437C36.8887 35.5797 36.5215 35.7476 36.0918 35.7476C35.8887 35.7476 35.6973 35.689 35.5176 35.5719C35.3457 35.4625 35.2129 35.2672 35.1191 34.9859C34.8613 34.1812 34.5996 33.4469 34.334 32.7828C34.0762 32.1109 33.7715 31.4898 33.4199 30.9195C33.0762 30.3414 32.6504 29.7867 32.1426 29.2554L33.6074 29.2906C33.5059 29.4859 33.3223 29.7476 33.0566 30.0758C32.7988 30.3961 32.4512 30.7437 32.0137 31.1187C31.584 31.4859 31.0605 31.8336 30.4434 32.1617C29.8262 32.4898 29.1074 32.7594 28.2871 32.9703C27.4746 33.1812 26.5566 33.2867 25.5332 33.2867C23.541 33.2867 21.7363 32.9429 20.1191 32.2554C18.502 31.5601 17.1113 30.5719 15.9473 29.2906C14.791 28.0094 13.9004 26.4781 13.2754 24.6969C12.6582 22.9156 12.3496 20.9273 12.3496 18.732C12.3496 18.2086 12.373 17.5953 12.4199 16.8922C12.4746 16.189 12.5645 15.5367 12.6895 14.9351Z" fill="white"/>
</svg>
