<svg width="50" height="50" viewBox="0 0 50 50" fill="none" xmlns="http://www.w3.org/2000/svg">
<rect x="0.5" y="0.5" width="49" height="49" rx="24.5" fill="#F5F5F5"/>
<rect x="0.5" y="0.5" width="49" height="49" rx="24.5" stroke="#9B9B9B"/>
<path d="M30.517 18.5173C30.517 21.5644 28.0468 24.0346 24.9997 24.0346C21.9526 24.0346 19.4824 21.5644 19.4824 18.5173C19.4824 15.4702 21.9526 13 24.9997 13C28.0468 13 30.517 15.4702 30.517 18.5173Z" fill="#9B9B9B"/>
<path d="M32.9309 37C35.2163 37 37.1349 35.0557 36.1101 33.013C35.5103 31.8176 34.6407 30.7185 33.5339 29.7825C31.2705 27.8683 28.2007 26.793 24.9998 26.793C21.7989 26.793 18.729 27.8683 16.4656 29.7825C15.3589 30.7185 14.4893 31.8176 13.8895 33.013C12.8646 35.0557 14.7833 37 17.0687 37L32.9309 37Z" fill="#9B9B9B"/>
</svg>
