<svg width="1300" height="891" viewBox="0 0 1300 891" fill="none" xmlns="http://www.w3.org/2000/svg">
<rect width="1300" height="891" fill="white"/>
<path d="M21.5234 43V26.0312H27.5469C30.9336 26.0312 33.1484 27.7656 33.1719 30.3438C33.1602 32.1133 32.1289 33.3789 30.3359 33.9766V34.0703C32.6328 34.6562 33.957 36.1211 33.9688 38.2422C33.957 41.1016 31.5547 43 27.875 43H21.5234ZM27.5469 39.8359C29.2227 39.8359 30.207 39.0625 30.2188 37.7266C30.207 36.4141 29.1875 35.6406 27.4531 35.6406H24.8047V39.8359H27.5469ZM27.1484 32.7344C28.707 32.7344 29.6094 32.0547 29.6328 30.8828C29.6094 29.7344 28.7422 29.0547 27.2422 29.0547H24.8047V32.7344H27.1484ZM47.654 30.9062V43H44.3259V41.2188H44.2556C43.5876 42.5195 42.2517 43.3281 40.529 43.3281C37.7868 43.3281 36.1813 41.3242 36.1931 38.0781V30.9062H39.5212V37.5156C39.5095 39.2734 40.3415 40.2812 41.7712 40.2812C43.072 40.2812 44.1501 39.4258 44.3259 37.4688V30.9062H47.654ZM54.6596 43.3281C52.6908 43.3281 50.9447 42.6367 49.7846 41.3828L51.6596 39.3438C52.6322 40.2461 53.4994 40.6094 54.7064 40.6094C55.9486 40.6094 56.6283 40.1641 56.6283 39.4375C56.6283 38.8164 56.183 38.5352 54.7064 38.1719L54.1205 38.0312C51.5072 37.4219 50.1947 36.2266 50.2064 34.4688C50.1947 32.2188 52.2807 30.5781 55.0814 30.5781C56.7924 30.5781 58.3744 31.2227 59.6283 32.3828L57.8236 34.4453C56.9682 33.6719 56.1127 33.2969 55.058 33.2969C53.9916 33.2969 53.3002 33.7188 53.3002 34.3516C53.3002 34.832 53.6635 35.0664 54.8236 35.3359L55.4564 35.5C58.4096 36.2148 59.7572 37.4219 59.7455 39.3438C59.7572 41.6992 57.6947 43.3281 54.6596 43.3281ZM61.8995 43V30.9062H65.2276V43H61.8995ZM63.5636 29.125C62.4268 29.125 61.5714 28.293 61.5948 27.1797C61.5714 26.0664 62.4268 25.2344 63.5636 25.2344C64.6768 25.2344 65.5323 26.0664 65.5558 27.1797C65.5323 28.293 64.6768 29.125 63.5636 29.125ZM67.9676 43V30.9062H71.2957V32.6875H71.3894C72.034 31.3867 73.3816 30.5781 75.116 30.5781C77.8348 30.5781 79.4402 32.582 79.4519 35.8281V43H76.1238V36.3906C76.1121 34.6328 75.2801 33.625 73.8738 33.625C72.4558 33.625 71.3074 34.6094 71.2957 36.8828V43H67.9676ZM88.145 43.3281C84.2192 43.3281 81.5708 40.6211 81.5591 36.9531C81.5708 33.2148 84.2544 30.5781 87.9106 30.5781C91.5669 30.5781 94.0864 33.2148 94.0747 36.9531C94.0864 37.3164 94.0513 37.6797 94.0044 38.0312H84.9341C85.2036 39.6016 86.4809 40.6094 88.145 40.6094C89.3989 40.6094 90.2895 40.0352 90.7466 39.0859L93.6528 40.1875C92.6684 42.1094 90.7583 43.3281 88.145 43.3281ZM84.9809 35.5H90.6763C90.5122 34.2461 89.4575 33.2969 87.9106 33.2969C86.4458 33.2969 85.3325 34.1523 84.9809 35.5ZM100.424 43.3281C98.4553 43.3281 96.7092 42.6367 95.549 41.3828L97.424 39.3438C98.3967 40.2461 99.2638 40.6094 100.471 40.6094C101.713 40.6094 102.393 40.1641 102.393 39.4375C102.393 38.8164 101.947 38.5352 100.471 38.1719L99.8849 38.0312C97.2717 37.4219 95.9592 36.2266 95.9709 34.4688C95.9592 32.2188 98.0451 30.5781 100.846 30.5781C102.557 30.5781 104.139 31.2227 105.393 32.3828L103.588 34.4453C102.733 33.6719 101.877 33.2969 100.822 33.2969C99.756 33.2969 99.0646 33.7188 99.0646 34.3516C99.0646 34.832 99.4279 35.0664 100.588 35.3359L101.221 35.5C104.174 36.2148 105.522 37.4219 105.51 39.3438C105.522 41.6992 103.459 43.3281 100.424 43.3281ZM112.047 43.3281C110.078 43.3281 108.332 42.6367 107.172 41.3828L109.047 39.3438C110.019 40.2461 110.887 40.6094 112.094 40.6094C113.336 40.6094 114.016 40.1641 114.016 39.4375C114.016 38.8164 113.57 38.5352 112.094 38.1719L111.508 38.0312C108.894 37.4219 107.582 36.2266 107.594 34.4688C107.582 32.2188 109.668 30.5781 112.469 30.5781C114.18 30.5781 115.762 31.2227 117.016 32.3828L115.211 34.4453C114.355 33.6719 113.5 33.2969 112.445 33.2969C111.379 33.2969 110.687 33.7188 110.687 34.3516C110.687 34.832 111.051 35.0664 112.211 35.3359L112.844 35.5C115.797 36.2148 117.144 37.4219 117.133 39.3438C117.144 41.6992 115.082 43.3281 112.047 43.3281ZM133.136 43.3281C128.238 43.3281 124.476 39.4961 124.488 34.5156C124.476 29.5352 128.238 25.7031 133.136 25.7031C136.265 25.7031 138.913 27.2734 140.378 29.6875L137.355 31.3047C136.464 29.8867 134.941 28.9844 133.136 28.9844C130.206 28.9844 127.968 31.3867 127.98 34.5156C127.968 37.6445 130.206 40.0469 133.136 40.0469C134.941 40.0469 136.464 39.1445 137.355 37.7266L140.378 39.3438C138.913 41.7578 136.265 43.3281 133.136 43.3281ZM148.345 40.2812C150.114 40.2812 151.38 38.9102 151.392 36.9531C151.38 34.9961 150.114 33.625 148.345 33.625C146.563 33.625 145.31 35.0078 145.321 36.9531C145.31 38.8984 146.563 40.2812 148.345 40.2812ZM154.626 43H151.298V41.3359H151.204C150.442 42.6719 149.212 43.3281 147.618 43.3281C144.302 43.3281 141.958 40.5859 141.97 36.9531C141.958 33.3203 144.302 30.5781 147.618 30.5781C149.212 30.5781 150.419 31.2227 151.204 32.5469H151.298V30.9062H154.626V43ZM157.366 43V30.9062H160.694V32.6875H160.788C161.432 31.3867 162.78 30.5781 164.514 30.5781C167.233 30.5781 168.839 32.582 168.85 35.8281V43H165.522V36.3906C165.51 34.6328 164.678 33.625 163.272 33.625C161.854 33.625 160.706 34.6094 160.694 36.8828V43H157.366ZM174.848 43L170.02 30.9062H173.536L176.629 39.4141H176.746L179.84 30.9062H183.356L178.528 43H174.848ZM190.291 40.2812C192.061 40.2812 193.326 38.9102 193.338 36.9531C193.326 34.9961 192.061 33.625 190.291 33.625C188.51 33.625 187.256 35.0078 187.268 36.9531C187.256 38.8984 188.51 40.2812 190.291 40.2812ZM196.572 43H193.244V41.3359H193.15C192.389 42.6719 191.158 43.3281 189.564 43.3281C186.248 43.3281 183.904 40.5859 183.916 36.9531C183.904 33.3203 186.248 30.5781 189.564 30.5781C191.158 30.5781 192.365 31.2227 193.15 32.5469H193.244V30.9062H196.572V43ZM203.554 43.3281C201.586 43.3281 199.84 42.6367 198.679 41.3828L200.554 39.3438C201.527 40.2461 202.394 40.6094 203.601 40.6094C204.844 40.6094 205.523 40.1641 205.523 39.4375C205.523 38.8164 205.078 38.5352 203.601 38.1719L203.015 38.0312C200.402 37.4219 199.09 36.2266 199.101 34.4688C199.09 32.2188 201.176 30.5781 203.976 30.5781C205.687 30.5781 207.269 31.2227 208.523 32.3828L206.719 34.4453C205.863 33.6719 205.008 33.2969 203.953 33.2969C202.886 33.2969 202.195 33.7188 202.195 34.3516C202.195 34.832 202.558 35.0664 203.719 35.3359L204.351 35.5C207.304 36.2148 208.652 37.4219 208.64 39.3438C208.652 41.6992 206.59 43.3281 203.554 43.3281ZM216.605 43V26.0312H220.964L225.652 37.6328H225.745L230.433 26.0312H234.792V43H231.394V32.5H231.323L227.128 43H224.269L220.097 32.5H220.003V43H216.605ZM243.391 43.3281C239.747 43.3281 237.005 40.5859 237.016 36.9531C237.005 33.3203 239.747 30.5781 243.391 30.5781C247.013 30.5781 249.755 33.3203 249.766 36.9531C249.755 40.5859 247.013 43.3281 243.391 43.3281ZM243.391 40.2812C245.231 40.2812 246.544 38.9102 246.555 36.9531C246.544 34.9961 245.231 33.625 243.391 33.625C241.528 33.625 240.216 34.9961 240.227 36.9531C240.216 38.9102 241.528 40.2812 243.391 40.2812ZM263.92 43H260.592V41.3359H260.522C259.76 42.6719 258.53 43.3281 256.936 43.3281C253.62 43.3281 251.276 40.5859 251.288 36.9531C251.276 33.3203 253.62 30.5781 256.936 30.5781C258.53 30.5781 259.737 31.2227 260.522 32.5469H260.592V26.0312H263.92V43ZM257.663 40.2812C259.432 40.2812 260.698 38.9102 260.71 36.9531C260.698 34.9961 259.432 33.625 257.663 33.625C255.881 33.625 254.627 35.0078 254.639 36.9531C254.627 38.8984 255.881 40.2812 257.663 40.2812ZM272.637 43.3281C268.711 43.3281 266.063 40.6211 266.051 36.9531C266.063 33.2148 268.746 30.5781 272.403 30.5781C276.059 30.5781 278.578 33.2148 278.567 36.9531C278.578 37.3164 278.543 37.6797 278.496 38.0312H269.426C269.696 39.6016 270.973 40.6094 272.637 40.6094C273.891 40.6094 274.781 40.0352 275.238 39.0859L278.145 40.1875C277.16 42.1094 275.25 43.3281 272.637 43.3281ZM269.473 35.5H275.168C275.004 34.2461 273.949 33.2969 272.403 33.2969C270.938 33.2969 269.824 34.1523 269.473 35.5ZM280.721 43V26.0312H284.049V43H280.721Z" fill="black"/>
<path d="M1159.89 45V37.9453H1161.3V38.9707H1161.35C1161.69 38.2188 1162.4 37.7539 1163.33 37.7539C1164.33 37.7539 1165.04 38.2803 1165.38 39.2031H1165.44C1165.73 38.3145 1166.52 37.7539 1167.59 37.7539C1169.1 37.7539 1169.96 38.8818 1169.96 40.7207V45H1168.54V40.9395C1168.54 39.7363 1168.06 39.0732 1167.23 39.0801C1166.4 39.0732 1165.63 39.7363 1165.63 41.1992V45H1164.22V40.9395C1164.22 39.7363 1163.74 39.0732 1162.9 39.0801C1162.06 39.0732 1161.3 39.7363 1161.3 41.1992V45H1159.89ZM1174.91 43.8652C1176.14 43.8721 1177.03 42.8809 1177.03 41.4727C1177.03 40.0645 1176.14 39.0732 1174.91 39.0801C1173.65 39.0732 1172.78 40.0713 1172.79 41.4727C1172.78 42.874 1173.65 43.8721 1174.91 43.8652ZM1178.39 45H1176.98V43.9336H1176.92C1176.46 44.7607 1175.7 45.1914 1174.69 45.1914C1172.74 45.1914 1171.34 43.5918 1171.36 41.4727C1171.34 39.3535 1172.74 37.7539 1174.69 37.7539C1175.69 37.7539 1176.45 38.1777 1176.92 38.998H1176.98V37.9453H1178.39V45ZM1186.81 45H1185.4V43.9336H1185.34C1184.88 44.7607 1184.12 45.1914 1183.11 45.1914C1181.16 45.1914 1179.76 43.5918 1179.78 41.4727C1179.76 39.3535 1181.16 37.7539 1183.11 37.7539C1184.11 37.7539 1184.87 38.1777 1185.34 38.998H1185.4V35.1016H1186.81V45ZM1183.33 43.8652C1184.56 43.8721 1185.45 42.8809 1185.45 41.4727C1185.45 40.0645 1184.56 39.0732 1183.33 39.0801C1182.08 39.0732 1181.2 40.0713 1181.21 41.4727C1181.2 42.874 1182.08 43.8721 1183.33 43.8652ZM1191.92 45.1914C1189.74 45.1914 1188.19 43.5986 1188.19 41.4727C1188.19 39.333 1189.72 37.7539 1191.78 37.7539C1193.84 37.7539 1195.27 39.333 1195.27 41.4727C1195.27 41.6299 1195.26 41.7939 1195.24 41.9512H1189.63C1189.81 43.1543 1190.71 43.9336 1191.93 43.9336C1192.83 43.9336 1193.46 43.5166 1193.79 42.8262L1195.04 43.332C1194.47 44.4668 1193.39 45.1914 1191.92 45.1914ZM1189.69 40.707H1193.78C1193.68 39.75 1192.9 39.0117 1191.78 39.0117C1190.72 39.0117 1189.93 39.6748 1189.69 40.707ZM1200.08 45V35.1016H1201.49V38.998H1201.54C1202.01 38.1777 1202.76 37.7539 1203.77 37.7539C1205.72 37.7539 1207.11 39.3535 1207.1 41.4727C1207.11 43.5918 1205.72 45.1914 1203.77 45.1914C1202.76 45.1914 1202 44.7607 1201.54 43.9336H1201.49V45H1200.08ZM1203.55 43.8652C1204.8 43.8721 1205.68 42.874 1205.67 41.4727C1205.68 40.0713 1204.8 39.0732 1203.55 39.0801C1202.31 39.0732 1201.43 40.0645 1201.43 41.4727C1201.43 42.8809 1202.31 43.8721 1203.55 43.8652ZM1210.54 45L1207.57 37.9453H1209.07L1211.25 43.3047H1211.31L1213.3 37.9453H1214.79L1210.89 47.9531H1209.39L1210.54 45Z" fill="black"/>
<path d="M1224.17 45.1914C1222.74 45.1914 1221.52 44.6309 1220.56 43.5234L1221.78 42.3613C1222.47 43.1748 1223.22 43.5303 1224.17 43.5371C1225.28 43.5303 1225.97 43.0107 1225.97 42.1426C1225.97 41.4521 1225.52 41.0898 1224.2 40.7207L1223.72 40.5977C1221.84 40.0986 1220.92 39.1895 1220.92 37.8359C1220.92 36.1543 1222.34 34.9102 1224.29 34.9102C1225.59 34.9102 1226.8 35.4912 1227.66 36.5098L1226.45 37.6582C1225.84 36.9404 1225.11 36.5713 1224.29 36.5645C1223.34 36.5713 1222.69 37.0771 1222.69 37.8223C1222.69 38.4033 1223.08 38.7041 1224.17 38.998L1224.63 39.1211C1226.78 39.7021 1227.74 40.625 1227.74 42.1152C1227.74 43.9404 1226.28 45.1914 1224.17 45.1914ZM1228.5 39.2715V37.9453H1229.68V36.1953H1231.36V37.9453H1233.04V39.2715H1231.36V42.5664C1231.36 43.2773 1231.65 43.585 1232.32 43.5918C1232.54 43.585 1232.78 43.5508 1233.04 43.4824V45.0137C1232.75 45.1162 1232.41 45.1914 1232 45.1914C1230.53 45.1914 1229.69 44.2617 1229.68 42.6621V39.2715H1228.5ZM1237.62 43.6465C1238.75 43.6396 1239.56 42.751 1239.56 41.4727C1239.56 40.1943 1238.75 39.3057 1237.62 39.2988C1236.47 39.3057 1235.67 40.208 1235.67 41.4727C1235.67 42.7373 1236.47 43.6396 1237.62 43.6465ZM1241.19 45H1239.51V43.9883H1239.45C1238.99 44.7881 1238.26 45.1914 1237.29 45.1914C1235.36 45.1914 1233.98 43.5918 1233.97 41.4727C1233.98 39.3535 1235.36 37.7539 1237.29 37.7539C1238.26 37.7539 1238.99 38.1572 1239.45 38.957H1239.51V37.9453H1241.19V45ZM1242.86 45V37.9453H1244.52V38.998H1244.58C1244.95 38.2393 1245.62 37.7539 1246.42 37.7539C1246.67 37.7539 1246.9 37.8018 1247.12 37.877V39.4902C1246.85 39.4082 1246.57 39.3672 1246.31 39.3672C1245.17 39.3672 1244.53 40.208 1244.52 41.7051V45H1242.86ZM1248.24 39.2715V37.9453H1249.42V36.1953H1251.1V37.9453H1252.78V39.2715H1251.1V42.5664C1251.1 43.2773 1251.39 43.585 1252.06 43.5918C1252.28 43.585 1252.52 43.5508 1252.78 43.4824V45.0137C1252.49 45.1162 1252.14 45.1914 1251.74 45.1914C1250.27 45.1914 1249.42 44.2617 1249.42 42.6621V39.2715H1248.24ZM1254.2 45V35.1016H1255.95V38.9844H1260.64V35.1016H1262.39V45H1260.64V40.625H1255.95V45H1254.2ZM1270.47 37.9453V45H1268.8V43.9609H1268.76C1268.38 44.7197 1267.6 45.1914 1266.6 45.1914C1265 45.1914 1264.09 44.043 1264.1 42.1699V37.9453H1265.78V41.8965C1265.77 43.0176 1266.27 43.6396 1267.16 43.6465C1268.04 43.6396 1268.79 43.0176 1268.8 41.6094V37.9453H1270.47ZM1272.14 45V35.1016H1273.8V38.957H1273.87C1274.32 38.1572 1275.05 37.7539 1276.02 37.7539C1277.96 37.7539 1279.34 39.3535 1279.34 41.4727C1279.34 43.5918 1277.96 45.1914 1276.02 45.1914C1275.05 45.1914 1274.32 44.7881 1273.87 43.9883H1273.8V45H1272.14ZM1275.69 43.6465C1276.85 43.6396 1277.65 42.7373 1277.65 41.4727C1277.65 40.208 1276.85 39.3057 1275.69 39.2988C1274.57 39.3057 1273.76 40.1943 1273.75 41.4727C1273.76 42.751 1274.57 43.6396 1275.69 43.6465Z" fill="black"/>
<rect x="21" y="60" width="242" height="562" fill="white"/>
<rect x="21" y="60" width="242" height="562" stroke="#3E3E3E" stroke-width="2"/>
<path d="M30.834 84V74.1016H32.8848V78.4902H33.0215L36.6172 74.1016H39.0918L35.4004 78.5312L39.1328 84H36.6719L33.9238 79.9121L32.8848 81.1699V84H30.834ZM42.8366 84.1504C40.567 84.1504 39.1725 82.6738 39.1725 80.3223C39.1725 78.0254 40.5807 76.4805 42.7545 76.4805C44.7096 76.4805 46.2409 77.7109 46.2409 80.2402V80.8145H41.1686C41.1686 81.9355 41.8385 82.6328 42.8776 82.6328C43.5612 82.6328 44.0534 82.332 44.2585 81.8809H46.1862C45.8991 83.248 44.6686 84.1504 42.8366 84.1504ZM41.1686 79.543H44.3268C44.3268 78.6406 43.6979 77.998 42.7956 77.998C41.8659 77.998 41.2028 78.6885 41.1686 79.543ZM48.4407 86.7891C48.0443 86.7891 47.6751 86.7754 47.4153 86.748V85.1758C47.6751 85.1895 47.9759 85.2031 48.2357 85.2031C48.6321 85.2031 48.9603 85.1621 49.2064 84.5195L49.3294 84.2051L46.6634 76.5762H48.7825L50.3411 82.0449H50.4232L51.9954 76.5762H54.1419L51.2435 84.8203C50.8196 86.0098 50.013 86.7891 48.4407 86.7891ZM58.2819 84V74.1016H62.1647C64.4205 74.1016 65.7057 75.4824 65.7057 77.4375C65.7057 79.4199 64.3932 80.7734 62.11 80.7734H60.3326V84H58.2819ZM60.3326 79.1191H61.7819C62.9987 79.1191 63.5865 78.4355 63.5865 77.4375C63.5865 76.4531 62.9987 75.7832 61.7819 75.7832H60.3326V79.1191ZM66.3606 81.9219C66.3606 80.2676 67.7005 79.7207 69.1223 79.6387C69.6555 79.6045 70.6536 79.5566 70.968 79.543V78.9414C70.9544 78.3262 70.5305 77.957 69.7786 77.957C69.095 77.957 68.6575 78.2715 68.5481 78.7773H66.6204C66.7434 77.4922 67.8645 76.4805 69.8333 76.4805C71.4466 76.4805 72.9778 77.2051 72.9778 78.9961V84H71.0638V82.9746H71.0091C70.6399 83.6582 69.9427 84.1367 68.8352 84.1367C67.4134 84.1367 66.3606 83.3984 66.3606 81.9219ZM68.302 81.8672C68.302 82.4414 68.7669 82.7422 69.4095 82.7422C70.3255 82.7422 70.9817 82.127 70.968 81.3477V80.8008C70.6604 80.8145 69.7991 80.8623 69.4505 80.8965C68.7532 80.9648 68.302 81.293 68.302 81.8672ZM74.4667 84V76.5762H76.4218V77.8613H76.5038C76.7773 76.9453 77.4609 76.4668 78.2949 76.4668C78.4999 76.4668 78.7597 76.4941 78.9374 76.5352V78.3398C78.746 78.2852 78.3632 78.2305 78.0761 78.2305C77.1601 78.2305 76.4902 78.873 76.4902 79.7754V84H74.4667ZM84.1451 76.5762V78.0938H82.7506V81.7168C82.7506 82.3047 83.0377 82.4551 83.4478 82.4688C83.6529 82.4688 84.0084 82.4551 84.2545 82.4277V84.0273C84.0357 84.0684 83.6803 84.0957 83.1744 84.0957C81.7115 84.0957 80.7135 83.4395 80.7271 82.0039V78.0938H79.7018V76.5762H80.7271V74.7988H82.7506V76.5762H84.1451ZM87.384 79.707V84H85.3606V76.5762H87.2883V77.875H87.3704C87.7122 77.0137 88.5051 76.4805 89.5989 76.4805C91.1438 76.4805 92.1692 77.5332 92.1555 79.2695V84H90.1457V79.625C90.1457 78.709 89.6399 78.1621 88.8059 78.1621C87.9582 78.1621 87.384 78.7227 87.384 79.707ZM97.0351 84.1504C94.7655 84.1504 93.371 82.6738 93.371 80.3223C93.371 78.0254 94.7792 76.4805 96.953 76.4805C98.9081 76.4805 100.439 77.7109 100.439 80.2402V80.8145H95.3671C95.3671 81.9355 96.037 82.6328 97.0761 82.6328C97.7597 82.6328 98.2519 82.332 98.4569 81.8809H100.385C100.098 83.248 98.8671 84.1504 97.0351 84.1504ZM95.3671 79.543H98.5253C98.5253 78.6406 97.8964 77.998 96.994 77.998C96.0644 77.998 95.4013 78.6885 95.3671 79.543ZM101.655 84V76.5762H103.61V77.8613H103.692C103.965 76.9453 104.649 76.4668 105.483 76.4668C105.688 76.4668 105.948 76.4941 106.126 76.5352V78.3398C105.934 78.2852 105.551 78.2305 105.264 78.2305C104.348 78.2305 103.678 78.873 103.678 79.7754V84H101.655ZM111.292 78.7773C111.21 78.2578 110.745 77.916 110.075 77.916C109.419 77.916 108.913 78.2305 108.927 78.6816C108.913 79.0098 109.187 79.2695 109.884 79.4199L111.21 79.6934C112.646 79.9941 113.343 80.6367 113.357 81.7031C113.343 83.166 112.03 84.1504 110.062 84.1504C108.052 84.1504 106.876 83.248 106.712 81.7988H108.749C108.845 82.3867 109.323 82.6875 110.062 82.6875C110.8 82.6875 111.292 82.3867 111.292 81.9082C111.292 81.5254 110.978 81.293 110.28 81.1426L109.05 80.8965C107.642 80.623 106.904 79.8848 106.917 78.791C106.904 77.3691 108.134 76.4805 110.048 76.4805C111.921 76.4805 113.083 77.3691 113.193 78.7773H111.292Z" fill="black"/>
<g clip-path="url(#clip0_7657_103426)">
<path d="M246.384 81.9485L243.938 84.3947C242.446 85.8472 240.059 85.8148 238.606 84.3225C237.182 82.8591 237.182 80.5276 238.606 79.0637L241.052 76.6152C241.345 76.3222 241.344 75.8473 241.051 75.5545C240.758 75.2616 240.284 75.2618 239.991 75.5548L237.545 78.0033C235.487 80.0621 235.488 83.3992 237.547 85.457C239.606 87.5148 242.943 87.514 245.001 85.4552L247.447 83.009C247.735 82.7111 247.727 82.2363 247.429 81.9486C247.138 81.6679 246.677 81.6679 246.387 81.9486H246.384V81.9485Z" fill="black"/>
<path d="M252.458 70.5456C251.472 69.5531 250.13 68.9965 248.731 69C247.333 68.9963 245.992 69.5517 245.006 70.5426L242.556 72.9895C242.263 73.2824 242.263 73.7573 242.555 74.0503C242.848 74.3433 243.323 74.3435 243.616 74.0507L246.065 71.6045C246.77 70.895 247.73 70.4973 248.73 70.4999C250.812 70.5006 252.5 72.1892 252.499 74.2716C252.499 75.2711 252.102 76.2295 251.395 76.9364L248.949 79.3826C248.656 79.6756 248.656 80.1507 248.949 80.4437C249.242 80.7367 249.717 80.7367 250.01 80.4437L252.456 77.999C254.511 75.9396 254.512 72.6057 252.458 70.5456Z" fill="black"/>
<path d="M246.721 75.2193L242.221 79.7187C241.923 80.0065 241.915 80.4812 242.203 80.7791C242.49 81.077 242.965 81.0852 243.263 80.7975C243.269 80.7915 243.275 80.7854 243.281 80.7791L247.781 76.2796C248.069 75.9817 248.06 75.507 247.762 75.2193C247.472 74.9386 247.011 74.9386 246.721 75.2193Z" fill="black"/>
</g>
<rect x="275" y="60" width="242" height="275" fill="white"/>
<rect x="275" y="60" width="242" height="275" stroke="#3E3E3E" stroke-width="2"/>
<path d="M284.834 84V74.1016H286.885V78.4902H287.021L290.617 74.1016H293.092L289.4 78.5312L293.133 84H290.672L287.924 79.9121L286.885 81.1699V84H284.834ZM296.837 84.1504C294.567 84.1504 293.173 82.6738 293.173 80.3223C293.173 78.0254 294.581 76.4805 296.755 76.4805C298.71 76.4805 300.241 77.7109 300.241 80.2402V80.8145H295.169C295.169 81.9355 295.839 82.6328 296.878 82.6328C297.561 82.6328 298.053 82.332 298.258 81.8809H300.186C299.899 83.248 298.669 84.1504 296.837 84.1504ZM295.169 79.543H298.327C298.327 78.6406 297.698 77.998 296.796 77.998C295.866 77.998 295.203 78.6885 295.169 79.543ZM302.441 86.7891C302.044 86.7891 301.675 86.7754 301.415 86.748V85.1758C301.675 85.1895 301.976 85.2031 302.236 85.2031C302.632 85.2031 302.96 85.1621 303.206 84.5195L303.329 84.2051L300.663 76.5762H302.783L304.341 82.0449H304.423L305.995 76.5762H308.142L305.243 84.8203C304.82 86.0098 304.013 86.7891 302.441 86.7891ZM313.936 84H311.721L315.153 74.1016H317.792L321.21 84H319.008L318.27 81.7168H314.688L313.936 84ZM315.208 80.1172H317.751L316.506 76.3301H316.438L315.208 80.1172ZM325.228 84.1504C322.958 84.1504 321.591 82.5781 321.591 80.3086C321.591 78.0391 322.972 76.4805 325.228 76.4805C327.142 76.4805 328.441 77.6016 328.523 79.2969H326.622C326.499 78.5586 326.021 78.0527 325.255 78.0527C324.284 78.0527 323.642 78.873 323.642 80.2812C323.642 81.7168 324.271 82.5371 325.255 82.5371C325.966 82.5371 326.499 82.0996 326.622 81.3066H328.523C328.427 82.9883 327.197 84.1504 325.228 84.1504ZM333.635 76.5762V78.0938H332.24V81.7168C332.24 82.3047 332.527 82.4551 332.937 82.4688C333.143 82.4688 333.498 82.4551 333.744 82.4277V84.0273C333.525 84.0684 333.17 84.0957 332.664 84.0957C331.201 84.0957 330.203 83.4395 330.217 82.0039V78.0938H329.191V76.5762H330.217V74.7988H332.24V76.5762H333.635ZM334.85 84V76.5762H336.874V84H334.85ZM335.862 75.6055C335.247 75.6055 334.754 75.1406 334.754 74.5801C334.754 74.0059 335.247 73.541 335.862 73.541C336.463 73.541 336.956 74.0059 336.956 74.5801C336.956 75.1406 336.463 75.6055 335.862 75.6055ZM345.281 76.5762L342.669 84H340.4L337.802 76.5762H339.935L341.493 81.9082H341.575L343.134 76.5762H345.281ZM346.209 84V76.5762H348.232V84H346.209ZM347.221 75.6055C346.605 75.6055 346.113 75.1406 346.113 74.5801C346.113 74.0059 346.605 73.541 347.221 73.541C347.822 73.541 348.314 74.0059 348.314 74.5801C348.314 75.1406 347.822 75.6055 347.221 75.6055ZM353.659 76.5762V78.0938H352.264V81.7168C352.264 82.3047 352.551 82.4551 352.961 82.4688C353.167 82.4688 353.522 82.4551 353.768 82.4277V84.0273C353.549 84.0684 353.194 84.0957 352.688 84.0957C351.225 84.0957 350.227 83.4395 350.241 82.0039V78.0938H349.215V76.5762H350.241V74.7988H352.264V76.5762H353.659ZM358.155 84.1504C355.886 84.1504 354.491 82.6738 354.491 80.3223C354.491 78.0254 355.9 76.4805 358.073 76.4805C360.029 76.4805 361.56 77.7109 361.56 80.2402V80.8145H356.488C356.488 81.9355 357.157 82.6328 358.197 82.6328C358.88 82.6328 359.372 82.332 359.577 81.8809H361.505C361.218 83.248 359.988 84.1504 358.155 84.1504ZM356.488 79.543H359.646C359.646 78.6406 359.017 77.998 358.114 77.998C357.185 77.998 356.522 78.6885 356.488 79.543ZM367.014 78.7773C366.932 78.2578 366.467 77.916 365.797 77.916C365.141 77.916 364.635 78.2305 364.648 78.6816C364.635 79.0098 364.908 79.2695 365.605 79.4199L366.932 79.6934C368.367 79.9941 369.064 80.6367 369.078 81.7031C369.064 83.166 367.752 84.1504 365.783 84.1504C363.773 84.1504 362.598 83.248 362.433 81.7988H364.471C364.566 82.3867 365.045 82.6875 365.783 82.6875C366.521 82.6875 367.014 82.3867 367.014 81.9082C367.014 81.5254 366.699 81.293 366.002 81.1426L364.771 80.8965C363.363 80.623 362.625 79.8848 362.639 78.791C362.625 77.3691 363.855 76.4805 365.769 76.4805C367.642 76.4805 368.805 77.3691 368.914 78.7773H367.014Z" fill="black"/>
<g clip-path="url(#clip1_7657_103426)">
<path d="M506.875 71.9824H504.561C504.412 71.9825 504.267 72.0265 504.144 72.1089C504.021 72.1913 503.925 72.3084 503.868 72.4454C503.811 72.5825 503.796 72.7332 503.825 72.8787C503.854 73.0242 503.926 73.1578 504.03 73.2627L504.845 74.0772L502.155 76.7659C502.013 76.9025 501.822 76.9787 501.625 76.9787C501.427 76.9787 501.237 76.9025 501.094 76.7659L500.967 76.6377C500.538 76.2282 499.968 75.9997 499.376 75.9997C498.783 75.9997 498.213 76.2282 497.784 76.6377L493.959 80.4627C493.818 80.604 493.739 80.7955 493.74 80.9951C493.74 81.1947 493.82 81.386 493.961 81.5269C494.102 81.6679 494.294 81.7469 494.493 81.7466C494.693 81.7463 494.884 81.6668 495.025 81.5254L498.85 77.7004C498.993 77.5637 499.183 77.4873 499.381 77.4873C499.579 77.4873 499.769 77.5637 499.911 77.7004L500.039 77.8287C500.468 78.2378 501.037 78.466 501.63 78.466C502.223 78.466 502.792 78.2378 503.221 77.8287L505.911 75.1392L506.725 75.9537C506.83 76.0568 506.964 76.1267 507.108 76.1546C507.253 76.1824 507.403 76.167 507.539 76.1103C507.675 76.0536 507.791 75.958 507.873 75.8356C507.955 75.7132 507.999 75.5693 508 75.4219V73.1074C508 72.8091 507.882 72.5229 507.671 72.3119C507.46 72.1009 507.174 71.9824 506.875 71.9824Z" fill="black"/>
<path d="M507.25 85.482H493.75C493.153 85.482 492.581 85.2449 492.159 84.823C491.737 84.401 491.5 83.8287 491.5 83.232V69.75C491.5 69.5511 491.421 69.3603 491.28 69.2197C491.14 69.079 490.949 69 490.75 69C490.551 69 490.36 69.079 490.22 69.2197C490.079 69.3603 490 69.5511 490 69.75V83.232C490.001 84.2262 490.397 85.1793 491.1 85.8823C491.803 86.5853 492.756 86.9808 493.75 86.982H507.25C507.449 86.982 507.64 86.903 507.78 86.7623C507.921 86.6217 508 86.4309 508 86.232C508 86.0331 507.921 85.8423 507.78 85.7017C507.64 85.561 507.449 85.482 507.25 85.482Z" fill="black"/>
</g>
<rect x="275" y="347" width="242" height="275" fill="white"/>
<rect x="275" y="347" width="242" height="275" stroke="#3E3E3E" stroke-width="2"/>
<path d="M284.834 371V361.102H286.885V365.49H287.021L290.617 361.102H293.092L289.4 365.531L293.133 371H290.672L287.924 366.912L286.885 368.17V371H284.834ZM296.837 371.15C294.567 371.15 293.173 369.674 293.173 367.322C293.173 365.025 294.581 363.48 296.755 363.48C298.71 363.48 300.241 364.711 300.241 367.24V367.814H295.169C295.169 368.936 295.839 369.633 296.878 369.633C297.561 369.633 298.053 369.332 298.258 368.881H300.186C299.899 370.248 298.669 371.15 296.837 371.15ZM295.169 366.543H298.327C298.327 365.641 297.698 364.998 296.796 364.998C295.866 364.998 295.203 365.688 295.169 366.543ZM302.441 373.789C302.044 373.789 301.675 373.775 301.415 373.748V372.176C301.675 372.189 301.976 372.203 302.236 372.203C302.632 372.203 302.96 372.162 303.206 371.52L303.329 371.205L300.663 363.576H302.783L304.341 369.045H304.423L305.995 363.576H308.142L305.243 371.82C304.82 373.01 304.013 373.789 302.441 373.789ZM312.282 371V361.102H316.165C318.421 361.102 319.706 362.373 319.706 364.328C319.706 365.682 319.084 366.666 317.956 367.145L320.061 371H317.792L315.905 367.486H314.333V371H312.282ZM314.333 365.818H315.782C316.999 365.818 317.587 365.312 317.587 364.328C317.587 363.33 316.999 362.783 315.782 362.783H314.333V365.818ZM324.271 371.15C322.001 371.15 320.607 369.674 320.607 367.322C320.607 365.025 322.015 363.48 324.189 363.48C326.144 363.48 327.675 364.711 327.675 367.24V367.814H322.603C322.603 368.936 323.273 369.633 324.312 369.633C324.995 369.633 325.488 369.332 325.693 368.881H327.62C327.333 370.248 326.103 371.15 324.271 371.15ZM322.603 366.543H325.761C325.761 365.641 325.132 364.998 324.23 364.998C323.3 364.998 322.637 365.688 322.603 366.543ZM333.129 365.777C333.047 365.258 332.582 364.916 331.912 364.916C331.256 364.916 330.75 365.23 330.764 365.682C330.75 366.01 331.023 366.27 331.721 366.42L333.047 366.693C334.482 366.994 335.18 367.637 335.193 368.703C335.18 370.166 333.867 371.15 331.898 371.15C329.889 371.15 328.713 370.248 328.549 368.799H330.586C330.682 369.387 331.16 369.688 331.898 369.688C332.637 369.688 333.129 369.387 333.129 368.908C333.129 368.525 332.814 368.293 332.117 368.143L330.887 367.896C329.478 367.623 328.74 366.885 328.754 365.791C328.74 364.369 329.971 363.48 331.885 363.48C333.758 363.48 334.92 364.369 335.029 365.777H333.129ZM339.717 371.15C337.475 371.15 336.081 369.605 336.081 367.309C336.081 365.012 337.475 363.48 339.717 363.48C341.96 363.48 343.368 365.012 343.368 367.309C343.368 369.605 341.96 371.15 339.717 371.15ZM339.731 369.578C340.77 369.578 341.303 368.607 341.303 367.309C341.303 365.996 340.77 365.025 339.731 365.025C338.678 365.025 338.131 365.996 338.131 367.309C338.131 368.607 338.678 369.578 339.731 369.578ZM349.341 367.842V363.576H351.364V371H349.423V369.66H349.341C348.999 370.521 348.206 371.096 347.085 371.096C345.595 371.096 344.583 370.043 344.583 368.307V363.576H346.607V367.951C346.607 368.826 347.113 369.387 347.906 369.387C348.644 369.387 349.341 368.854 349.341 367.842ZM352.881 371V363.576H354.836V364.861H354.918C355.191 363.945 355.875 363.467 356.709 363.467C356.914 363.467 357.174 363.494 357.351 363.535V365.34C357.16 365.285 356.777 365.23 356.49 365.23C355.574 365.23 354.904 365.873 354.904 366.775V371H352.881ZM361.383 371.15C359.114 371.15 357.747 369.578 357.747 367.309C357.747 365.039 359.128 363.48 361.383 363.48C363.297 363.48 364.596 364.602 364.678 366.297H362.778C362.655 365.559 362.176 365.053 361.411 365.053C360.44 365.053 359.797 365.873 359.797 367.281C359.797 368.717 360.426 369.537 361.411 369.537C362.122 369.537 362.655 369.1 362.778 368.307H364.678C364.583 369.988 363.352 371.15 361.383 371.15ZM369.243 371.15C366.974 371.15 365.579 369.674 365.579 367.322C365.579 365.025 366.988 363.48 369.161 363.48C371.116 363.48 372.648 364.711 372.648 367.24V367.814H367.575C367.575 368.936 368.245 369.633 369.284 369.633C369.968 369.633 370.46 369.332 370.665 368.881H372.593C372.306 370.248 371.075 371.15 369.243 371.15ZM367.575 366.543H370.734C370.734 365.641 370.105 364.998 369.202 364.998C368.273 364.998 367.61 365.688 367.575 366.543ZM378.101 365.777C378.019 365.258 377.555 364.916 376.885 364.916C376.228 364.916 375.723 365.23 375.736 365.682C375.723 366.01 375.996 366.27 376.693 366.42L378.019 366.693C379.455 366.994 380.152 367.637 380.166 368.703C380.152 370.166 378.84 371.15 376.871 371.15C374.861 371.15 373.685 370.248 373.521 368.799H375.558C375.654 369.387 376.133 369.688 376.871 369.688C377.609 369.688 378.101 369.387 378.101 368.908C378.101 368.525 377.787 368.293 377.09 368.143L375.859 367.896C374.451 367.623 373.713 366.885 373.726 365.791C373.713 364.369 374.943 363.48 376.857 363.48C378.73 363.48 379.892 364.369 380.002 365.777H378.101Z" fill="black"/>
<g clip-path="url(#clip2_7657_103426)">
<path d="M505.75 368.75H497.5V370.25C497.5 370.449 497.421 370.64 497.28 370.78C497.14 370.921 496.949 371 496.75 371C496.551 371 496.36 370.921 496.22 370.78C496.079 370.64 496 370.449 496 370.25V368.75H494.5V370.25C494.5 370.449 494.421 370.64 494.28 370.78C494.14 370.921 493.949 371 493.75 371C493.551 371 493.36 370.921 493.22 370.78C493.079 370.64 493 370.449 493 370.25V368.75H492.25C491.653 368.75 491.081 368.987 490.659 369.409C490.237 369.831 490 370.403 490 371C490 371.597 490.237 372.169 490.659 372.591C491.081 373.013 491.653 373.25 492.25 373.25H505.75C506.347 373.25 506.919 373.013 507.341 372.591C507.763 372.169 508 371.597 508 371C508 370.403 507.763 369.831 507.341 369.409C506.919 368.987 506.347 368.75 505.75 368.75Z" fill="black"/>
<path d="M505.75 362.75H497.5V364.25C497.5 364.449 497.421 364.64 497.28 364.78C497.14 364.921 496.949 365 496.75 365C496.551 365 496.36 364.921 496.22 364.78C496.079 364.64 496 364.449 496 364.25V362.75H494.5V364.25C494.5 364.449 494.421 364.64 494.28 364.78C494.14 364.921 493.949 365 493.75 365C493.551 365 493.36 364.921 493.22 364.78C493.079 364.64 493 364.449 493 364.25V362.75H492.25C491.653 362.75 491.081 362.987 490.659 363.409C490.237 363.831 490 364.403 490 365C490 365.597 490.237 366.169 490.659 366.591C491.081 367.013 491.653 367.25 492.25 367.25H505.75C506.347 367.25 506.919 367.013 507.341 366.591C507.763 366.169 508 365.597 508 365C508 364.403 507.763 363.831 507.341 363.409C506.919 362.987 506.347 362.75 505.75 362.75Z" fill="black"/>
<path d="M505.75 356.75H497.5V358.25C497.5 358.449 497.421 358.64 497.28 358.78C497.14 358.921 496.949 359 496.75 359C496.551 359 496.36 358.921 496.22 358.78C496.079 358.64 496 358.449 496 358.25V356.75H494.5V358.25C494.5 358.449 494.421 358.64 494.28 358.78C494.14 358.921 493.949 359 493.75 359C493.551 359 493.36 358.921 493.22 358.78C493.079 358.64 493 358.449 493 358.25V356.75H492.25C491.653 356.75 491.081 356.987 490.659 357.409C490.237 357.831 490 358.403 490 359C490 359.597 490.237 360.169 490.659 360.591C491.081 361.013 491.653 361.25 492.25 361.25H505.75C506.347 361.25 506.919 361.013 507.341 360.591C507.763 360.169 508 359.597 508 359C508 358.403 507.763 357.831 507.341 357.409C506.919 356.987 506.347 356.75 505.75 356.75Z" fill="black"/>
</g>
<rect x="529" y="60" width="242" height="562" fill="white"/>
<rect x="529" y="60" width="242" height="562" stroke="#3E3E3E" stroke-width="2"/>
<path d="M540.57 74.1016L542.977 81.6484H543.072L545.492 74.1016H547.762L544.344 84H541.705L538.273 74.1016H540.57ZM547.61 81.9219C547.61 80.2676 548.95 79.7207 550.372 79.6387C550.905 79.6045 551.903 79.5566 552.217 79.543V78.9414C552.204 78.3262 551.78 77.957 551.028 77.957C550.344 77.957 549.907 78.2715 549.798 78.7773H547.87C547.993 77.4922 549.114 76.4805 551.083 76.4805C552.696 76.4805 554.227 77.2051 554.227 78.9961V84H552.313V82.9746H552.258C551.889 83.6582 551.192 84.1367 550.085 84.1367C548.663 84.1367 547.61 83.3984 547.61 81.9219ZM549.551 81.8672C549.551 82.4414 550.016 82.7422 550.659 82.7422C551.575 82.7422 552.231 82.127 552.217 81.3477V80.8008C551.91 80.8145 551.048 80.8623 550.7 80.8965C550.003 80.9648 549.551 81.293 549.551 81.8672ZM557.74 74.1016V84H555.716V74.1016H557.74ZM564.014 80.8418V76.5762H566.037V84H564.096V82.6602H564.014C563.672 83.5215 562.879 84.0957 561.758 84.0957C560.268 84.0957 559.256 83.043 559.256 81.3066V76.5762H561.279V80.9512C561.279 81.8262 561.785 82.3867 562.578 82.3867C563.316 82.3867 564.014 81.8535 564.014 80.8418ZM570.917 84.1504C568.647 84.1504 567.253 82.6738 567.253 80.3223C567.253 78.0254 568.661 76.4805 570.835 76.4805C572.79 76.4805 574.321 77.7109 574.321 80.2402V80.8145H569.249C569.249 81.9355 569.919 82.6328 570.958 82.6328C571.641 82.6328 572.133 82.332 572.338 81.8809H574.266C573.979 83.248 572.749 84.1504 570.917 84.1504ZM569.249 79.543H572.407C572.407 78.6406 571.778 77.998 570.876 77.998C569.946 77.998 569.283 78.6885 569.249 79.543ZM578.748 84V74.1016H582.631C584.887 74.1016 586.172 75.4824 586.172 77.4375C586.172 79.4199 584.859 80.7734 582.576 80.7734H580.799V84H578.748ZM580.799 79.1191H582.248C583.465 79.1191 584.053 78.4355 584.053 77.4375C584.053 76.4531 583.465 75.7832 582.248 75.7832H580.799V79.1191ZM587.374 84V76.5762H589.329V77.8613H589.411C589.684 76.9453 590.368 76.4668 591.202 76.4668C591.407 76.4668 591.667 76.4941 591.844 76.5352V78.3398C591.653 78.2852 591.27 78.2305 590.983 78.2305C590.067 78.2305 589.397 78.873 589.397 79.7754V84H587.374ZM595.876 84.1504C593.634 84.1504 592.239 82.6055 592.239 80.3086C592.239 78.0117 593.634 76.4805 595.876 76.4805C598.118 76.4805 599.527 78.0117 599.527 80.3086C599.527 82.6055 598.118 84.1504 595.876 84.1504ZM595.89 82.5781C596.929 82.5781 597.462 81.6074 597.462 80.3086C597.462 78.9961 596.929 78.0254 595.89 78.0254C594.837 78.0254 594.29 78.9961 594.29 80.3086C594.29 81.6074 594.837 82.5781 595.89 82.5781ZM600.742 86.7891V76.5762H602.738V77.8203H602.82C603.094 77.2188 603.695 76.4805 604.939 76.4805C606.58 76.4805 607.947 77.752 607.947 80.2949C607.947 82.7695 606.635 84.123 604.939 84.123C603.723 84.123 603.107 83.4258 602.82 82.8105H602.766V86.7891H600.742ZM602.725 80.2812C602.725 81.6211 603.299 82.5098 604.297 82.5098C605.336 82.5098 605.883 81.5938 605.883 80.2812C605.883 78.9824 605.336 78.0938 604.297 78.0938C603.285 78.0938 602.725 78.9414 602.725 80.2812ZM612.54 84.1504C610.297 84.1504 608.903 82.6055 608.903 80.3086C608.903 78.0117 610.297 76.4805 612.54 76.4805C614.782 76.4805 616.19 78.0117 616.19 80.3086C616.19 82.6055 614.782 84.1504 612.54 84.1504ZM612.553 82.5781C613.592 82.5781 614.126 81.6074 614.126 80.3086C614.126 78.9961 613.592 78.0254 612.553 78.0254C611.501 78.0254 610.954 78.9961 610.954 80.3086C610.954 81.6074 611.501 82.5781 612.553 82.5781ZM621.644 78.7773C621.562 78.2578 621.097 77.916 620.427 77.916C619.771 77.916 619.265 78.2305 619.279 78.6816C619.265 79.0098 619.538 79.2695 620.236 79.4199L621.562 79.6934C622.997 79.9941 623.695 80.6367 623.708 81.7031C623.695 83.166 622.382 84.1504 620.413 84.1504C618.404 84.1504 617.228 83.248 617.064 81.7988H619.101C619.197 82.3867 619.675 82.6875 620.413 82.6875C621.152 82.6875 621.644 82.3867 621.644 81.9082C621.644 81.5254 621.329 81.293 620.632 81.1426L619.402 80.8965C617.993 80.623 617.255 79.8848 617.269 78.791C617.255 77.3691 618.486 76.4805 620.4 76.4805C622.273 76.4805 623.435 77.3691 623.544 78.7773H621.644ZM624.896 84V76.5762H626.92V84H624.896ZM625.908 75.6055C625.293 75.6055 624.801 75.1406 624.801 74.5801C624.801 74.0059 625.293 73.541 625.908 73.541C626.51 73.541 627.002 74.0059 627.002 74.5801C627.002 75.1406 626.51 75.6055 625.908 75.6055ZM632.346 76.5762V78.0938H630.952V81.7168C630.952 82.3047 631.239 82.4551 631.649 82.4688C631.854 82.4688 632.21 82.4551 632.456 82.4277V84.0273C632.237 84.0684 631.881 84.0957 631.376 84.0957C629.913 84.0957 628.915 83.4395 628.928 82.0039V78.0938H627.903V76.5762H628.928V74.7988H630.952V76.5762H632.346ZM633.562 84V76.5762H635.585V84H633.562ZM634.573 75.6055C633.958 75.6055 633.466 75.1406 633.466 74.5801C633.466 74.0059 633.958 73.541 634.573 73.541C635.175 73.541 635.667 74.0059 635.667 74.5801C635.667 75.1406 635.175 75.6055 634.573 75.6055ZM640.437 84.1504C638.195 84.1504 636.801 82.6055 636.801 80.3086C636.801 78.0117 638.195 76.4805 640.437 76.4805C642.68 76.4805 644.088 78.0117 644.088 80.3086C644.088 82.6055 642.68 84.1504 640.437 84.1504ZM640.451 82.5781C641.49 82.5781 642.023 81.6074 642.023 80.3086C642.023 78.9961 641.49 78.0254 640.451 78.0254C639.398 78.0254 638.851 78.9961 638.851 80.3086C638.851 81.6074 639.398 82.5781 640.451 82.5781ZM647.327 79.707V84H645.303V76.5762H647.231V77.875H647.313C647.655 77.0137 648.448 76.4805 649.541 76.4805C651.086 76.4805 652.112 77.5332 652.098 79.2695V84H650.088V79.625C650.088 78.709 649.583 78.1621 648.749 78.1621C647.901 78.1621 647.327 78.7227 647.327 79.707ZM657.853 78.7773C657.771 78.2578 657.306 77.916 656.636 77.916C655.98 77.916 655.474 78.2305 655.487 78.6816C655.474 79.0098 655.747 79.2695 656.444 79.4199L657.771 79.6934C659.206 79.9941 659.903 80.6367 659.917 81.7031C659.903 83.166 658.591 84.1504 656.622 84.1504C654.612 84.1504 653.437 83.248 653.273 81.7988H655.31C655.405 82.3867 655.884 82.6875 656.622 82.6875C657.36 82.6875 657.853 82.3867 657.853 81.9082C657.853 81.5254 657.538 81.293 656.841 81.1426L655.61 80.8965C654.202 80.623 653.464 79.8848 653.478 78.791C653.464 77.3691 654.694 76.4805 656.609 76.4805C658.482 76.4805 659.644 77.3691 659.753 78.7773H657.853Z" fill="black"/>
<g clip-path="url(#clip3_7657_103426)">
<path d="M762 75.75C761.903 76.2946 761.686 76.8109 761.366 77.262L754.779 86.127C754.57 86.3968 754.303 86.6156 753.997 86.7668C753.691 86.918 753.355 86.9977 753.014 86.9998C752.672 87.0019 752.335 86.9263 752.027 86.7789C751.72 86.6315 751.45 86.416 751.237 86.1488L744.618 77.1C744.337 76.6926 744.138 76.2339 744.034 75.75H748.735L752.299 85.0193C752.354 85.1611 752.45 85.2831 752.575 85.3691C752.7 85.4552 752.848 85.5013 753 85.5013C753.152 85.5013 753.3 85.4552 753.425 85.3691C753.55 85.2831 753.646 85.1611 753.701 85.0193L757.265 75.75H762ZM757.275 74.25H761.968C761.854 73.7426 761.635 73.2646 761.325 72.8468L759.406 70.2563C759.129 69.8679 758.762 69.5514 758.338 69.333C757.913 69.1145 757.443 69.0004 756.965 69H755.315L757.275 74.25ZM752.331 69L750.337 74.25H755.671L753.716 69H752.331ZM748.733 74.25L750.726 69H748.984C748.511 68.9995 748.044 69.1114 747.623 69.3264C747.201 69.5414 746.836 69.8534 746.558 70.2368L744.704 72.6683C744.349 73.1333 744.108 73.675 744 74.25H748.733ZM755.658 75.75H750.342L753 82.6605L755.658 75.75Z" fill="black"/>
</g>
<rect x="783" y="60" width="242" height="275" fill="white"/>
<rect x="783" y="60" width="242" height="275" stroke="#3E3E3E" stroke-width="2"/>
<path d="M799.451 77.5469C799.287 76.4531 798.439 75.7832 797.291 75.7832C795.746 75.7832 794.734 76.9727 794.734 79.0508C794.734 81.1836 795.76 82.3184 797.277 82.3184C798.412 82.3184 799.246 81.6895 799.451 80.623L801.529 80.6367C801.297 82.4688 799.766 84.1367 797.25 84.1367C794.598 84.1367 792.643 82.2773 792.643 79.0508C792.643 75.8242 794.639 73.9648 797.25 73.9648C799.533 73.9648 801.256 75.2773 801.529 77.5469H799.451ZM807.626 80.8418V76.5762H809.649V84H807.708V82.6602H807.626C807.284 83.5215 806.491 84.0957 805.37 84.0957C803.88 84.0957 802.868 83.043 802.868 81.3066V76.5762H804.891V80.9512C804.891 81.8262 805.397 82.3867 806.19 82.3867C806.928 82.3867 807.626 81.8535 807.626 80.8418ZM815.404 78.7773C815.322 78.2578 814.857 77.916 814.187 77.916C813.531 77.916 813.025 78.2305 813.038 78.6816C813.025 79.0098 813.298 79.2695 813.995 79.4199L815.322 79.6934C816.757 79.9941 817.454 80.6367 817.468 81.7031C817.454 83.166 816.142 84.1504 814.173 84.1504C812.163 84.1504 810.988 83.248 810.824 81.7988H812.861C812.956 82.3867 813.435 82.6875 814.173 82.6875C814.911 82.6875 815.404 82.3867 815.404 81.9082C815.404 81.5254 815.089 81.293 814.392 81.1426L813.161 80.8965C811.753 80.623 811.015 79.8848 811.029 78.791C811.015 77.3691 812.245 76.4805 814.159 76.4805C816.033 76.4805 817.195 77.3691 817.304 78.7773H815.404ZM822.566 76.5762V78.0938H821.172V81.7168C821.172 82.3047 821.459 82.4551 821.869 82.4688C822.074 82.4688 822.43 82.4551 822.676 82.4277V84.0273C822.457 84.0684 822.102 84.0957 821.596 84.0957C820.133 84.0957 819.135 83.4395 819.148 82.0039V78.0938H818.123V76.5762H819.148V74.7988H821.172V76.5762H822.566ZM827.036 84.1504C824.794 84.1504 823.399 82.6055 823.399 80.3086C823.399 78.0117 824.794 76.4805 827.036 76.4805C829.278 76.4805 830.686 78.0117 830.686 80.3086C830.686 82.6055 829.278 84.1504 827.036 84.1504ZM827.049 82.5781C828.088 82.5781 828.622 81.6074 828.622 80.3086C828.622 78.9961 828.088 78.0254 827.049 78.0254C825.997 78.0254 825.45 78.9961 825.45 80.3086C825.45 81.6074 825.997 82.5781 827.049 82.5781ZM831.902 84V76.5762H833.829V77.875H833.911C834.226 77.0137 834.978 76.4805 835.976 76.4805C837.001 76.4805 837.753 77.0137 837.999 77.875H838.068C838.382 77.0273 839.216 76.4805 840.31 76.4805C841.691 76.4805 842.648 77.3965 842.648 79.0098V84H840.624V79.4062C840.624 78.5586 840.132 78.1484 839.462 78.1484C838.697 78.1484 838.259 78.6816 838.259 79.4609V84H836.29V79.3516C836.29 78.6133 835.825 78.1484 835.142 78.1484C834.458 78.1484 833.925 78.6953 833.925 79.543V84H831.902ZM847.514 84.1504C845.244 84.1504 843.85 82.6738 843.85 80.3223C843.85 78.0254 845.258 76.4805 847.432 76.4805C849.387 76.4805 850.918 77.7109 850.918 80.2402V80.8145H845.846C845.846 81.9355 846.516 82.6328 847.555 82.6328C848.238 82.6328 848.73 82.332 848.935 81.8809H850.863C850.576 83.248 849.346 84.1504 847.514 84.1504ZM845.846 79.543H849.004C849.004 78.6406 848.375 77.998 847.473 77.998C846.543 77.998 845.88 78.6885 845.846 79.543ZM852.133 84V76.5762H854.088V77.8613H854.171C854.444 76.9453 855.128 76.4668 855.962 76.4668C856.167 76.4668 856.426 76.4941 856.604 76.5352V78.3398C856.413 78.2852 856.03 78.2305 855.743 78.2305C854.827 78.2305 854.157 78.873 854.157 79.7754V84H852.133ZM861.771 78.7773C861.689 78.2578 861.224 77.916 860.554 77.916C859.898 77.916 859.392 78.2305 859.406 78.6816C859.392 79.0098 859.665 79.2695 860.363 79.4199L861.689 79.6934C863.124 79.9941 863.822 80.6367 863.835 81.7031C863.822 83.166 862.509 84.1504 860.54 84.1504C858.531 84.1504 857.355 83.248 857.191 81.7988H859.228C859.323 82.3867 859.802 82.6875 860.54 82.6875C861.279 82.6875 861.771 82.3867 861.771 81.9082C861.771 81.5254 861.456 81.293 860.759 81.1426L859.529 80.8965C858.12 80.623 857.382 79.8848 857.396 78.791C857.382 77.3691 858.613 76.4805 860.527 76.4805C862.4 76.4805 863.562 77.3691 863.671 78.7773H861.771ZM868.235 84V74.1016H872.118C874.374 74.1016 875.659 75.373 875.659 77.3281C875.659 78.6816 875.037 79.666 873.909 80.1445L876.014 84H873.745L871.858 80.4863H870.286V84H868.235ZM870.286 78.8184H871.735C872.952 78.8184 873.54 78.3125 873.54 77.3281C873.54 76.3301 872.952 75.7832 871.735 75.7832H870.286V78.8184ZM880.224 84.1504C877.954 84.1504 876.56 82.6738 876.56 80.3223C876.56 78.0254 877.968 76.4805 880.142 76.4805C882.097 76.4805 883.628 77.7109 883.628 80.2402V80.8145H878.556C878.556 81.9355 879.226 82.6328 880.265 82.6328C880.948 82.6328 881.441 82.332 881.646 81.8809H883.573C883.286 83.248 882.056 84.1504 880.224 84.1504ZM878.556 79.543H881.714C881.714 78.6406 881.085 77.998 880.183 77.998C879.253 77.998 878.59 78.6885 878.556 79.543ZM884.488 81.9219C884.488 80.2676 885.828 79.7207 887.25 79.6387C887.783 79.6045 888.781 79.5566 889.096 79.543V78.9414C889.082 78.3262 888.658 77.957 887.906 77.957C887.223 77.957 886.785 78.2715 886.676 78.7773H884.748C884.871 77.4922 885.992 76.4805 887.961 76.4805C889.574 76.4805 891.105 77.2051 891.105 78.9961V84H889.191V82.9746H889.137C888.767 83.6582 888.07 84.1367 886.963 84.1367C885.541 84.1367 884.488 83.3984 884.488 81.9219ZM886.43 81.8672C886.43 82.4414 886.894 82.7422 887.537 82.7422C888.453 82.7422 889.109 82.127 889.096 81.3477V80.8008C888.788 80.8145 887.927 80.8623 887.578 80.8965C886.881 80.9648 886.43 81.293 886.43 81.8672ZM894.618 74.1016V84H892.594V74.1016H894.618ZM895.779 81.9219C895.779 80.2676 897.118 79.7207 898.54 79.6387C899.073 79.6045 900.071 79.5566 900.386 79.543V78.9414C900.372 78.3262 899.948 77.957 899.196 77.957C898.513 77.957 898.075 78.2715 897.966 78.7773H896.038C896.161 77.4922 897.282 76.4805 899.251 76.4805C900.864 76.4805 902.396 77.2051 902.396 78.9961V84H900.482V82.9746H900.427C900.058 83.6582 899.361 84.1367 898.253 84.1367C896.831 84.1367 895.779 83.3984 895.779 81.9219ZM897.72 81.8672C897.72 82.4414 898.185 82.7422 898.827 82.7422C899.743 82.7422 900.4 82.127 900.386 81.3477V80.8008C900.078 80.8145 899.217 80.8623 898.868 80.8965C898.171 80.9648 897.72 81.293 897.72 81.8672ZM907.795 76.5762V78.0938H906.4V81.7168C906.4 82.3047 906.687 82.4551 907.098 82.4688C907.303 82.4688 907.658 82.4551 907.904 82.4277V84.0273C907.685 84.0684 907.33 84.0957 906.824 84.0957C905.361 84.0957 904.363 83.4395 904.377 82.0039V78.0938H903.351V76.5762H904.377V74.7988H906.4V76.5762H907.795ZM909.01 84V76.5762H911.034V84H909.01ZM910.022 75.6055C909.407 75.6055 908.915 75.1406 908.915 74.5801C908.915 74.0059 909.407 73.541 910.022 73.541C910.624 73.541 911.116 74.0059 911.116 74.5801C911.116 75.1406 910.624 75.6055 910.022 75.6055ZM915.886 84.1504C913.644 84.1504 912.249 82.6055 912.249 80.3086C912.249 78.0117 913.644 76.4805 915.886 76.4805C918.128 76.4805 919.536 78.0117 919.536 80.3086C919.536 82.6055 918.128 84.1504 915.886 84.1504ZM915.9 82.5781C916.939 82.5781 917.472 81.6074 917.472 80.3086C917.472 78.9961 916.939 78.0254 915.9 78.0254C914.847 78.0254 914.3 78.9961 914.3 80.3086C914.3 81.6074 914.847 82.5781 915.9 82.5781ZM922.775 79.707V84H920.752V76.5762H922.679V77.875H922.762C923.103 77.0137 923.896 76.4805 924.99 76.4805C926.535 76.4805 927.56 77.5332 927.547 79.2695V84H925.537V79.625C925.537 78.709 925.031 78.1621 924.197 78.1621C923.349 78.1621 922.775 78.7227 922.775 79.707ZM933.301 78.7773C933.219 78.2578 932.754 77.916 932.084 77.916C931.428 77.916 930.922 78.2305 930.936 78.6816C930.922 79.0098 931.196 79.2695 931.893 79.4199L933.219 79.6934C934.655 79.9941 935.352 80.6367 935.366 81.7031C935.352 83.166 934.04 84.1504 932.071 84.1504C930.061 84.1504 928.885 83.248 928.721 81.7988H930.758C930.854 82.3867 931.332 82.6875 932.071 82.6875C932.809 82.6875 933.301 82.3867 933.301 81.9082C933.301 81.5254 932.987 81.293 932.29 81.1426L931.059 80.8965C929.651 80.623 928.913 79.8848 928.926 78.791C928.913 77.3691 930.143 76.4805 932.057 76.4805C933.93 76.4805 935.092 77.3691 935.202 78.7773H933.301ZM938.577 79.707V84H936.554V74.1016H938.523V77.875H938.605C938.946 77.0137 939.698 76.4805 940.819 76.4805C942.364 76.4805 943.39 77.5195 943.39 79.2695V84H941.366V79.625C941.366 78.709 940.874 78.1621 940.026 78.1621C939.179 78.1621 938.577 78.7227 938.577 79.707ZM944.892 84V76.5762H946.916V84H944.892ZM945.904 75.6055C945.289 75.6055 944.797 75.1406 944.797 74.5801C944.797 74.0059 945.289 73.541 945.904 73.541C946.506 73.541 946.998 74.0059 946.998 74.5801C946.998 75.1406 946.506 75.6055 945.904 75.6055ZM948.432 86.7891V76.5762H950.428V77.8203H950.51C950.784 77.2188 951.385 76.4805 952.629 76.4805C954.27 76.4805 955.637 77.752 955.637 80.2949C955.637 82.7695 954.325 84.123 952.629 84.123C951.413 84.123 950.797 83.4258 950.51 82.8105H950.456V86.7891H948.432ZM950.414 80.2812C950.414 81.6211 950.989 82.5098 951.987 82.5098C953.026 82.5098 953.573 81.5938 953.573 80.2812C953.573 78.9824 953.026 78.0938 951.987 78.0938C950.975 78.0938 950.414 78.9414 950.414 80.2812ZM961.132 78.7773C961.05 78.2578 960.585 77.916 959.915 77.916C959.259 77.916 958.753 78.2305 958.767 78.6816C958.753 79.0098 959.026 79.2695 959.724 79.4199L961.05 79.6934C962.485 79.9941 963.183 80.6367 963.196 81.7031C963.183 83.166 961.87 84.1504 959.901 84.1504C957.892 84.1504 956.716 83.248 956.552 81.7988H958.589C958.685 82.3867 959.163 82.6875 959.901 82.6875C960.64 82.6875 961.132 82.3867 961.132 81.9082C961.132 81.5254 960.817 81.293 960.12 81.1426L958.89 80.8965C957.482 80.623 956.743 79.8848 956.757 78.791C956.743 77.3691 957.974 76.4805 959.888 76.4805C961.761 76.4805 962.923 77.3691 963.032 78.7773H961.132Z" fill="black"/>
<g clip-path="url(#clip4_7657_103426)">
<path d="M1010 71.0625C1010 72.6848 1007.89 74.7008 1006.83 75.546C1006.67 75.6782 1006.46 75.7502 1006.25 75.7502C1006.04 75.7502 1005.83 75.6782 1005.67 75.546C1004.62 74.7 1002.5 72.6848 1002.5 71.0625C1002.48 70.5407 1002.66 70.0307 1003.01 69.6442C1003.36 69.2577 1003.85 69.026 1004.38 69C1004.9 69.026 1005.39 69.2577 1005.74 69.6442C1006.09 70.0307 1006.27 70.5407 1006.25 71.0625C1006.23 70.5407 1006.41 70.0307 1006.76 69.6442C1007.11 69.2577 1007.6 69.026 1008.13 69C1008.65 69.026 1009.14 69.2577 1009.49 69.6442C1009.84 70.0307 1010.02 70.5407 1010 71.0625ZM1015.5 78.2625L1009.73 84.5693C1009.03 85.3359 1008.17 85.9479 1007.22 86.3664C1006.27 86.7849 1005.24 87.0006 1004.2 87H1001C1000.2 87 999.441 86.6839 998.879 86.1213C998.316 85.5587 998 84.7957 998 84V80.25C998 79.4544 998.316 78.6913 998.879 78.1287C999.441 77.5661 1000.2 77.25 1001 77.25H1006.84C1007.09 77.2505 1007.33 77.3064 1007.56 77.4136C1007.78 77.5208 1007.98 77.6766 1008.13 77.8696C1008.29 78.0626 1008.4 78.288 1008.46 78.5292C1008.51 78.7704 1008.52 79.0214 1008.46 79.2638C1008.38 79.6028 1008.2 79.9089 1007.94 80.141C1007.68 80.3732 1007.35 80.5204 1007.01 80.5628L1003.89 81C1003.69 81.0282 1003.51 81.1334 1003.39 81.2925C1003.27 81.4515 1003.22 81.6514 1003.25 81.8483C1003.28 82.0452 1003.38 82.2229 1003.54 82.3423C1003.7 82.4617 1003.9 82.513 1004.1 82.485L1007.29 82.035C1008.04 81.9244 1008.72 81.5483 1009.22 80.975C1009.72 80.4016 1010 79.6689 1010 78.9098C1010 78.7492 1009.98 78.5892 1009.95 78.4313L1012.61 75.6285C1012.96 75.2492 1013.44 75.0239 1013.96 75.0018C1014.48 74.9798 1014.98 75.1627 1015.36 75.5108C1015.74 75.8585 1015.97 76.3415 1015.99 76.8556C1016.02 77.3696 1015.84 77.8736 1015.5 78.2588V78.2625Z" fill="black"/>
</g>
<rect x="783" y="347" width="242" height="275" fill="white"/>
<rect x="783" y="347" width="242" height="275" stroke="#3E3E3E" stroke-width="2"/>
<path d="M799.451 364.547C799.287 363.453 798.439 362.783 797.291 362.783C795.746 362.783 794.734 363.973 794.734 366.051C794.734 368.184 795.76 369.318 797.277 369.318C798.412 369.318 799.246 368.689 799.451 367.623L801.529 367.637C801.297 369.469 799.766 371.137 797.25 371.137C794.598 371.137 792.643 369.277 792.643 366.051C792.643 362.824 794.639 360.965 797.25 360.965C799.533 360.965 801.256 362.277 801.529 364.547H799.451ZM804.891 366.707V371H802.868V361.102H804.837V364.875H804.919C805.26 364.014 806.012 363.48 807.133 363.48C808.678 363.48 809.704 364.52 809.704 366.27V371H807.68V366.625C807.68 365.709 807.188 365.162 806.34 365.162C805.493 365.162 804.891 365.723 804.891 366.707ZM810.851 368.922C810.851 367.268 812.191 366.721 813.613 366.639C814.146 366.604 815.144 366.557 815.458 366.543V365.941C815.445 365.326 815.021 364.957 814.269 364.957C813.585 364.957 813.148 365.271 813.038 365.777H811.111C811.234 364.492 812.355 363.48 814.324 363.48C815.937 363.48 817.468 364.205 817.468 365.996V371H815.554V369.975H815.499C815.13 370.658 814.433 371.137 813.326 371.137C811.904 371.137 810.851 370.398 810.851 368.922ZM812.792 368.867C812.792 369.441 813.257 369.742 813.9 369.742C814.816 369.742 815.472 369.127 815.458 368.348V367.801C815.151 367.814 814.289 367.862 813.941 367.896C813.243 367.965 812.792 368.293 812.792 368.867ZM820.98 366.707V371H818.957V363.576H820.885V364.875H820.967C821.309 364.014 822.102 363.48 823.195 363.48C824.74 363.48 825.766 364.533 825.752 366.27V371H823.742V366.625C823.742 365.709 823.236 365.162 822.402 365.162C821.555 365.162 820.98 365.723 820.98 366.707ZM829.292 366.707V371H827.268V363.576H829.196V364.875H829.278C829.62 364.014 830.413 363.48 831.506 363.48C833.051 363.48 834.077 364.533 834.063 366.27V371H832.053V366.625C832.053 365.709 831.547 365.162 830.714 365.162C829.866 365.162 829.292 365.723 829.292 366.707ZM838.943 371.15C836.673 371.15 835.279 369.674 835.279 367.322C835.279 365.025 836.687 363.48 838.861 363.48C840.816 363.48 842.347 364.711 842.347 367.24V367.814H837.275C837.275 368.936 837.945 369.633 838.984 369.633C839.667 369.633 840.159 369.332 840.365 368.881H842.292C842.005 370.248 840.775 371.15 838.943 371.15ZM837.275 366.543H840.433C840.433 365.641 839.804 364.998 838.902 364.998C837.972 364.998 837.309 365.688 837.275 366.543ZM845.586 361.102V371H843.562V361.102H845.586ZM851.34 365.777C851.258 365.258 850.794 364.916 850.124 364.916C849.467 364.916 848.962 365.23 848.975 365.682C848.962 366.01 849.235 366.27 849.932 366.42L851.258 366.693C852.694 366.994 853.391 367.637 853.405 368.703C853.391 370.166 852.079 371.15 850.11 371.15C848.1 371.15 846.924 370.248 846.76 368.799H848.797C848.893 369.387 849.372 369.688 850.11 369.688C850.848 369.688 851.34 369.387 851.34 368.908C851.34 368.525 851.026 368.293 850.329 368.143L849.098 367.896C847.69 367.623 846.952 366.885 846.965 365.791C846.952 364.369 848.182 363.48 850.096 363.48C851.969 363.48 853.131 364.369 853.241 365.777H851.34Z" fill="black"/>
<g clip-path="url(#clip5_7657_103426)">
<path d="M1009.25 369.5H1001C1000.2 369.5 999.441 369.184 998.879 368.621C998.316 368.059 998 367.296 998 366.5V360.5C998 359.505 998.395 358.552 999.098 357.848C999.802 357.145 1000.76 356.75 1001.75 356.75H1005.5C1005.99 356.75 1006.48 356.847 1006.94 357.035C1007.39 357.224 1007.8 357.5 1008.15 357.848C1008.5 358.197 1008.78 358.61 1008.96 359.065C1009.15 359.52 1009.25 360.008 1009.25 360.5V369.5ZM1016 364.25V363.5C1016 363.008 1015.9 362.52 1015.71 362.065C1015.53 361.61 1015.25 361.197 1014.9 360.848C1014.55 360.5 1014.14 360.224 1013.69 360.035C1013.23 359.847 1012.74 359.75 1012.25 359.75H1010.75V364.25H1016ZM1010.75 365.75V369.5H1013C1013.8 369.5 1014.56 369.184 1015.12 368.621C1015.68 368.059 1016 367.296 1016 366.5V365.75H1010.75ZM1001.04 371C1001.02 371.123 1001 371.249 1001 371.375C1001 371.872 1001.2 372.349 1001.55 372.701C1001.9 373.052 1002.38 373.25 1002.88 373.25C1003.37 373.25 1003.85 373.052 1004.2 372.701C1004.55 372.349 1004.75 371.872 1004.75 371.375C1004.75 371.249 1004.73 371.123 1004.71 371H1001.04ZM1009.29 371C1009.27 371.123 1009.25 371.249 1009.25 371.375C1009.25 371.872 1009.45 372.349 1009.8 372.701C1010.15 373.052 1010.63 373.25 1011.12 373.25C1011.62 373.25 1012.1 373.052 1012.45 372.701C1012.8 372.349 1013 371.872 1013 371.375C1013 371.249 1012.98 371.123 1012.96 371H1009.29Z" fill="black"/>
</g>
<rect x="1037" y="60" width="242" height="562" fill="white"/>
<rect x="1037" y="60" width="242" height="562" stroke="#3E3E3E" stroke-width="2"/>
<path d="M1053.45 77.5469C1053.29 76.4531 1052.44 75.7832 1051.29 75.7832C1049.75 75.7832 1048.73 76.9727 1048.73 79.0508C1048.73 81.1836 1049.76 82.3184 1051.28 82.3184C1052.41 82.3184 1053.25 81.6895 1053.45 80.623L1055.53 80.6367C1055.3 82.4688 1053.77 84.1367 1051.25 84.1367C1048.6 84.1367 1046.64 82.2773 1046.64 79.0508C1046.64 75.8242 1048.64 73.9648 1051.25 73.9648C1053.53 73.9648 1055.26 75.2773 1055.53 77.5469H1053.45ZM1061.63 80.8418V76.5762H1063.65V84H1061.71V82.6602H1061.63C1061.28 83.5215 1060.49 84.0957 1059.37 84.0957C1057.88 84.0957 1056.87 83.043 1056.87 81.3066V76.5762H1058.89V80.9512C1058.89 81.8262 1059.4 82.3867 1060.19 82.3867C1060.93 82.3867 1061.63 81.8535 1061.63 80.8418ZM1069.4 78.7773C1069.32 78.2578 1068.86 77.916 1068.19 77.916C1067.53 77.916 1067.02 78.2305 1067.04 78.6816C1067.02 79.0098 1067.3 79.2695 1068 79.4199L1069.32 79.6934C1070.76 79.9941 1071.45 80.6367 1071.47 81.7031C1071.45 83.166 1070.14 84.1504 1068.17 84.1504C1066.16 84.1504 1064.99 83.248 1064.82 81.7988H1066.86C1066.96 82.3867 1067.43 82.6875 1068.17 82.6875C1068.91 82.6875 1069.4 82.3867 1069.4 81.9082C1069.4 81.5254 1069.09 81.293 1068.39 81.1426L1067.16 80.8965C1065.75 80.623 1065.01 79.8848 1065.03 78.791C1065.01 77.3691 1066.25 76.4805 1068.16 76.4805C1070.03 76.4805 1071.19 77.3691 1071.3 78.7773H1069.4ZM1076.57 76.5762V78.0938H1075.17V81.7168C1075.17 82.3047 1075.46 82.4551 1075.87 82.4688C1076.07 82.4688 1076.43 82.4551 1076.68 82.4277V84.0273C1076.46 84.0684 1076.1 84.0957 1075.6 84.0957C1074.13 84.0957 1073.13 83.4395 1073.15 82.0039V78.0938H1072.12V76.5762H1073.15V74.7988H1075.17V76.5762H1076.57ZM1081.04 84.1504C1078.79 84.1504 1077.4 82.6055 1077.4 80.3086C1077.4 78.0117 1078.79 76.4805 1081.04 76.4805C1083.28 76.4805 1084.69 78.0117 1084.69 80.3086C1084.69 82.6055 1083.28 84.1504 1081.04 84.1504ZM1081.05 82.5781C1082.09 82.5781 1082.62 81.6074 1082.62 80.3086C1082.62 78.9961 1082.09 78.0254 1081.05 78.0254C1080 78.0254 1079.45 78.9961 1079.45 80.3086C1079.45 81.6074 1080 82.5781 1081.05 82.5781ZM1085.9 84V76.5762H1087.83V77.875H1087.91C1088.23 77.0137 1088.98 76.4805 1089.98 76.4805C1091 76.4805 1091.75 77.0137 1092 77.875H1092.07C1092.38 77.0273 1093.22 76.4805 1094.31 76.4805C1095.69 76.4805 1096.65 77.3965 1096.65 79.0098V84H1094.62V79.4062C1094.62 78.5586 1094.13 78.1484 1093.46 78.1484C1092.7 78.1484 1092.26 78.6816 1092.26 79.4609V84H1090.29V79.3516C1090.29 78.6133 1089.83 78.1484 1089.14 78.1484C1088.46 78.1484 1087.93 78.6953 1087.93 79.543V84H1085.9ZM1101.51 84.1504C1099.24 84.1504 1097.85 82.6738 1097.85 80.3223C1097.85 78.0254 1099.26 76.4805 1101.43 76.4805C1103.39 76.4805 1104.92 77.7109 1104.92 80.2402V80.8145H1099.85C1099.85 81.9355 1100.52 82.6328 1101.55 82.6328C1102.24 82.6328 1102.73 82.332 1102.94 81.8809H1104.86C1104.58 83.248 1103.35 84.1504 1101.51 84.1504ZM1099.85 79.543H1103C1103 78.6406 1102.37 77.998 1101.47 77.998C1100.54 77.998 1099.88 78.6885 1099.85 79.543ZM1106.13 84V76.5762H1108.09V77.8613H1108.17C1108.44 76.9453 1109.13 76.4668 1109.96 76.4668C1110.17 76.4668 1110.43 76.4941 1110.6 76.5352V78.3398C1110.41 78.2852 1110.03 78.2305 1109.74 78.2305C1108.83 78.2305 1108.16 78.873 1108.16 79.7754V84H1106.13ZM1115.77 78.7773C1115.69 78.2578 1115.22 77.916 1114.55 77.916C1113.9 77.916 1113.39 78.2305 1113.41 78.6816C1113.39 79.0098 1113.67 79.2695 1114.36 79.4199L1115.69 79.6934C1117.12 79.9941 1117.82 80.6367 1117.84 81.7031C1117.82 83.166 1116.51 84.1504 1114.54 84.1504C1112.53 84.1504 1111.35 83.248 1111.19 81.7988H1113.23C1113.32 82.3867 1113.8 82.6875 1114.54 82.6875C1115.28 82.6875 1115.77 82.3867 1115.77 81.9082C1115.77 81.5254 1115.46 81.293 1114.76 81.1426L1113.53 80.8965C1112.12 80.623 1111.38 79.8848 1111.4 78.791C1111.38 77.3691 1112.61 76.4805 1114.53 76.4805C1116.4 76.4805 1117.56 77.3691 1117.67 78.7773H1115.77ZM1127.61 76.9316C1127.53 76.1523 1126.9 75.6875 1125.9 75.6875C1124.86 75.6875 1124.29 76.166 1124.27 76.8223C1124.26 77.5332 1125.01 77.8613 1125.86 78.0527L1126.75 78.2715C1128.44 78.6543 1129.71 79.5156 1129.71 81.1699C1129.71 82.9883 1128.29 84.1367 1125.89 84.1367C1123.49 84.1367 1121.96 83.0293 1121.91 80.9102H1123.9C1123.97 81.9082 1124.76 82.4141 1125.86 82.4141C1126.94 82.4141 1127.64 81.9082 1127.64 81.1699C1127.64 80.5 1127.02 80.1855 1125.94 79.9121L1124.86 79.6523C1123.19 79.2422 1122.17 78.4082 1122.17 76.959C1122.17 75.1543 1123.75 73.9648 1125.91 73.9648C1128.1 73.9648 1129.55 75.1816 1129.58 76.9316H1127.61ZM1134.32 84.1504C1132.05 84.1504 1130.66 82.6738 1130.66 80.3223C1130.66 78.0254 1132.06 76.4805 1134.24 76.4805C1136.19 76.4805 1137.72 77.7109 1137.72 80.2402V80.8145H1132.65C1132.65 81.9355 1133.32 82.6328 1134.36 82.6328C1135.04 82.6328 1135.54 82.332 1135.74 81.8809H1137.67C1137.38 83.248 1136.15 84.1504 1134.32 84.1504ZM1132.65 79.543H1135.81C1135.81 78.6406 1135.18 77.998 1134.28 77.998C1133.35 77.998 1132.69 78.6885 1132.65 79.543ZM1142.28 86.9395C1140.22 86.9395 1138.97 86.0234 1138.84 84.6152H1140.84C1140.95 85.2031 1141.51 85.4766 1142.32 85.4766C1143.26 85.4766 1143.89 85.0801 1143.89 84.041V82.6875H1143.79C1143.52 83.2891 1142.86 83.8906 1141.67 83.8906C1139.99 83.8906 1138.65 82.7148 1138.65 80.2402C1138.65 77.7246 1140.03 76.4805 1141.67 76.4805C1142.92 76.4805 1143.52 77.2188 1143.79 77.8203H1143.87V76.5762H1145.88V84.082C1145.88 85.9688 1144.38 86.9395 1142.28 86.9395ZM1142.3 82.373C1143.31 82.373 1143.89 81.5801 1143.89 80.2676C1143.89 78.9414 1143.31 78.0938 1142.3 78.0938C1141.28 78.0938 1140.73 78.9824 1140.73 80.2676C1140.73 81.5527 1141.28 82.373 1142.3 82.373ZM1147.4 84V76.5762H1149.33V77.875H1149.41C1149.73 77.0137 1150.48 76.4805 1151.48 76.4805C1152.5 76.4805 1153.25 77.0137 1153.5 77.875H1153.57C1153.88 77.0273 1154.72 76.4805 1155.81 76.4805C1157.19 76.4805 1158.15 77.3965 1158.15 79.0098V84H1156.12V79.4062C1156.12 78.5586 1155.63 78.1484 1154.96 78.1484C1154.2 78.1484 1153.76 78.6816 1153.76 79.4609V84H1151.79V79.3516C1151.79 78.6133 1151.32 78.1484 1150.64 78.1484C1149.96 78.1484 1149.42 78.6953 1149.42 79.543V84H1147.4ZM1163.01 84.1504C1160.74 84.1504 1159.35 82.6738 1159.35 80.3223C1159.35 78.0254 1160.76 76.4805 1162.93 76.4805C1164.89 76.4805 1166.42 77.7109 1166.42 80.2402V80.8145H1161.34C1161.34 81.9355 1162.01 82.6328 1163.05 82.6328C1163.74 82.6328 1164.23 82.332 1164.43 81.8809H1166.36C1166.08 83.248 1164.84 84.1504 1163.01 84.1504ZM1161.34 79.543H1164.5C1164.5 78.6406 1163.87 77.998 1162.97 77.998C1162.04 77.998 1161.38 78.6885 1161.34 79.543ZM1169.66 79.707V84H1167.63V76.5762H1169.56V77.875H1169.64C1169.98 77.0137 1170.78 76.4805 1171.87 76.4805C1173.42 76.4805 1174.44 77.5332 1174.43 79.2695V84H1172.42V79.625C1172.42 78.709 1171.91 78.1621 1171.08 78.1621C1170.23 78.1621 1169.66 78.7227 1169.66 79.707ZM1179.85 76.5762V78.0938H1178.46V81.7168C1178.46 82.3047 1178.75 82.4551 1179.16 82.4688C1179.36 82.4688 1179.72 82.4551 1179.96 82.4277V84.0273C1179.74 84.0684 1179.39 84.0957 1178.88 84.0957C1177.42 84.0957 1176.42 83.4395 1176.44 82.0039V78.0938H1175.41V76.5762H1176.44V74.7988H1178.46V76.5762H1179.85ZM1185.2 78.7773C1185.12 78.2578 1184.65 77.916 1183.98 77.916C1183.33 77.916 1182.82 78.2305 1182.83 78.6816C1182.82 79.0098 1183.09 79.2695 1183.79 79.4199L1185.12 79.6934C1186.55 79.9941 1187.25 80.6367 1187.26 81.7031C1187.25 83.166 1185.94 84.1504 1183.97 84.1504C1181.96 84.1504 1180.78 83.248 1180.62 81.7988H1182.66C1182.75 82.3867 1183.23 82.6875 1183.97 82.6875C1184.71 82.6875 1185.2 82.3867 1185.2 81.9082C1185.2 81.5254 1184.88 81.293 1184.19 81.1426L1182.96 80.8965C1181.55 80.623 1180.81 79.8848 1180.82 78.791C1180.81 77.3691 1182.04 76.4805 1183.95 76.4805C1185.83 76.4805 1186.99 77.3691 1187.1 78.7773H1185.2Z" fill="black"/>
<path d="M1261 78C1263.49 78 1265.5 75.9853 1265.5 73.5C1265.5 71.0147 1263.49 69 1261 69C1258.51 69 1256.5 71.0147 1256.5 73.5C1256.5 75.9853 1258.51 78 1261 78Z" fill="black"/>
<path d="M1261 79.499C1257.27 79.5032 1254.25 82.5228 1254.25 86.249C1254.25 86.6632 1254.59 86.999 1255 86.999H1267C1267.41 86.999 1267.75 86.6632 1267.75 86.249C1267.75 82.5228 1264.73 79.5031 1261 79.499Z" fill="black"/>
<rect x="21" y="634" width="623" height="236" fill="white"/>
<rect x="21" y="634" width="623" height="236" stroke="#3E3E3E" stroke-width="2"/>
<path d="M37.4512 651.547C37.2871 650.453 36.4395 649.783 35.291 649.783C33.7461 649.783 32.7344 650.973 32.7344 653.051C32.7344 655.184 33.7598 656.318 35.2773 656.318C36.4121 656.318 37.2461 655.689 37.4512 654.623L39.5293 654.637C39.2969 656.469 37.7656 658.137 35.25 658.137C32.5977 658.137 30.6426 656.277 30.6426 653.051C30.6426 649.824 32.6387 647.965 35.25 647.965C37.5332 647.965 39.2559 649.277 39.5293 651.547H37.4512ZM44.2038 658.15C41.9616 658.15 40.567 656.605 40.567 654.309C40.567 652.012 41.9616 650.48 44.2038 650.48C46.446 650.48 47.8542 652.012 47.8542 654.309C47.8542 656.605 46.446 658.15 44.2038 658.15ZM44.2174 656.578C45.2565 656.578 45.7897 655.607 45.7897 654.309C45.7897 652.996 45.2565 652.025 44.2174 652.025C43.1647 652.025 42.6178 652.996 42.6178 654.309C42.6178 655.607 43.1647 656.578 44.2174 656.578ZM53.3079 652.777C53.2259 652.258 52.761 651.916 52.0911 651.916C51.4349 651.916 50.929 652.23 50.9427 652.682C50.929 653.01 51.2025 653.27 51.8997 653.42L53.2259 653.693C54.6614 653.994 55.3587 654.637 55.3724 655.703C55.3587 657.166 54.0462 658.15 52.0775 658.15C50.0677 658.15 48.8919 657.248 48.7278 655.799H50.765C50.8607 656.387 51.3392 656.688 52.0775 656.688C52.8157 656.688 53.3079 656.387 53.3079 655.908C53.3079 655.525 52.9935 655.293 52.2962 655.143L51.0657 654.896C49.6575 654.623 48.9193 653.885 48.9329 652.791C48.9193 651.369 50.1497 650.48 52.0638 650.48C53.9368 650.48 55.0989 651.369 55.2083 652.777H53.3079ZM60.4707 650.576V652.094H59.0761V655.717C59.0761 656.305 59.3633 656.455 59.7734 656.469C59.9785 656.469 60.334 656.455 60.58 656.428V658.027C60.3613 658.068 60.0058 658.096 59.5 658.096C58.0371 658.096 57.039 657.439 57.0527 656.004V652.094H56.0273V650.576H57.0527V648.799H59.0761V650.576H60.4707ZM70.2708 650.932C70.1888 650.152 69.5598 649.688 68.5618 649.688C67.5227 649.688 66.9485 650.166 66.9348 650.822C66.9212 651.533 67.6731 651.861 68.5208 652.053L69.4095 652.271C71.1048 652.654 72.3763 653.516 72.3763 655.17C72.3763 656.988 70.9544 658.137 68.5481 658.137C66.1555 658.137 64.6243 657.029 64.5696 654.91H66.5657C66.6341 655.908 67.427 656.414 68.5208 656.414C69.6009 656.414 70.2981 655.908 70.2981 655.17C70.2981 654.5 69.6829 654.186 68.6028 653.912L67.5227 653.652C65.8548 653.242 64.8294 652.408 64.8294 650.959C64.8294 649.154 66.4153 647.965 68.5755 647.965C70.763 647.965 72.2122 649.182 72.2395 650.932H70.2708ZM77.5292 650.576V652.094H76.1347V655.717C76.1347 656.305 76.4218 656.455 76.832 656.469C77.037 656.469 77.3925 656.455 77.6386 656.428V658.027C77.4199 658.068 77.0644 658.096 76.5585 658.096C75.0956 658.096 74.0976 657.439 74.1113 656.004V652.094H73.0859V650.576H74.1113V648.799H76.1347V650.576H77.5292ZM78.7447 658V650.576H80.6998V651.861H80.7818C81.0553 650.945 81.7389 650.467 82.5728 650.467C82.7779 650.467 83.0377 650.494 83.2154 650.535V652.34C83.024 652.285 82.6412 652.23 82.3541 652.23C81.4381 652.23 80.7682 652.873 80.7682 653.775V658H78.7447ZM88.9016 654.842V650.576H90.925V658H88.9836V656.66H88.9016C88.5598 657.521 87.7668 658.096 86.6457 658.096C85.1555 658.096 84.1438 657.043 84.1438 655.307V650.576H86.1672V654.951C86.1672 655.826 86.6731 656.387 87.4661 656.387C88.2043 656.387 88.9016 655.854 88.9016 654.842ZM95.7772 658.15C93.5077 658.15 92.1405 656.578 92.1405 654.309C92.1405 652.039 93.5214 650.48 95.7772 650.48C97.6913 650.48 98.9901 651.602 99.0722 653.297H97.1718C97.0487 652.559 96.5702 652.053 95.8046 652.053C94.8339 652.053 94.1913 652.873 94.1913 654.281C94.1913 655.717 94.8202 656.537 95.8046 656.537C96.5155 656.537 97.0487 656.1 97.1718 655.307H99.0722C98.9765 656.988 97.746 658.15 95.7772 658.15ZM104.184 650.576V652.094H102.79V655.717C102.79 656.305 103.077 656.455 103.487 656.469C103.692 656.469 104.047 656.455 104.294 656.428V658.027C104.075 658.068 103.719 658.096 103.213 658.096C101.751 658.096 100.753 657.439 100.766 656.004V652.094H99.7408V650.576H100.766V648.799H102.79V650.576H104.184ZM110.157 654.842V650.576H112.181V658H110.239V656.66H110.157C109.816 657.521 109.023 658.096 107.902 658.096C106.411 658.096 105.4 657.043 105.4 655.307V650.576H107.423V654.951C107.423 655.826 107.929 656.387 108.722 656.387C109.46 656.387 110.157 655.854 110.157 654.842ZM113.697 658V650.576H115.652V651.861H115.734C116.008 650.945 116.691 650.467 117.525 650.467C117.73 650.467 117.99 650.494 118.168 650.535V652.34C117.976 652.285 117.594 652.23 117.307 652.23C116.391 652.23 115.721 652.873 115.721 653.775V658H113.697ZM122.227 658.15C119.958 658.15 118.563 656.674 118.563 654.322C118.563 652.025 119.971 650.48 122.145 650.48C124.1 650.48 125.631 651.711 125.631 654.24V654.814H120.559C120.559 655.936 121.229 656.633 122.268 656.633C122.952 656.633 123.444 656.332 123.649 655.881H125.577C125.29 657.248 124.059 658.15 122.227 658.15ZM120.559 653.543H123.717C123.717 652.641 123.088 651.998 122.186 651.998C121.256 651.998 120.593 652.688 120.559 653.543Z" fill="black"/>
<path d="M631.25 645.25H620.75C619.756 645.251 618.803 645.647 618.1 646.35C617.397 647.053 617.001 648.006 617 649H635C634.999 648.006 634.603 647.053 633.9 646.35C633.197 645.647 632.244 645.251 631.25 645.25Z" fill="black"/>
<path d="M617 655C617.001 655.994 617.397 656.947 618.1 657.65C618.803 658.353 619.756 658.749 620.75 658.75H631.25C632.244 658.749 633.197 658.353 633.9 657.65C634.603 656.947 634.999 655.994 635 655V650.5H617V655ZM622.25 654.625C622.25 654.847 622.184 655.065 622.06 655.25C621.937 655.435 621.761 655.579 621.556 655.664C621.35 655.75 621.124 655.772 620.906 655.728C620.687 655.685 620.487 655.578 620.33 655.42C620.172 655.263 620.065 655.063 620.022 654.844C619.978 654.626 620 654.4 620.086 654.194C620.171 653.989 620.315 653.813 620.5 653.69C620.685 653.566 620.902 653.5 621.125 653.5C621.423 653.5 621.71 653.619 621.92 653.83C622.131 654.04 622.25 654.327 622.25 654.625Z" fill="black"/>
<rect x="656" y="634" width="623" height="236" fill="white"/>
<rect x="656" y="634" width="623" height="236" stroke="#3E3E3E" stroke-width="2"/>
<path d="M665.834 658V648.102H669.717C671.973 648.102 673.258 649.373 673.258 651.328C673.258 652.682 672.636 653.666 671.508 654.145L673.613 658H671.344L669.457 654.486H667.885V658H665.834ZM667.885 652.818H669.334C670.551 652.818 671.139 652.312 671.139 651.328C671.139 650.33 670.551 649.783 669.334 649.783H667.885V652.818ZM677.823 658.15C675.553 658.15 674.159 656.674 674.159 654.322C674.159 652.025 675.567 650.48 677.741 650.48C679.696 650.48 681.227 651.711 681.227 654.24V654.814H676.155C676.155 655.936 676.825 656.633 677.864 656.633C678.548 656.633 679.04 656.332 679.245 655.881H681.173C680.885 657.248 679.655 658.15 677.823 658.15ZM676.155 653.543H679.313C679.313 652.641 678.684 651.998 677.782 651.998C676.852 651.998 676.189 652.688 676.155 653.543ZM689.128 650.576L686.517 658H684.247L681.65 650.576H683.783L685.341 655.908H685.423L686.982 650.576H689.128ZM693.174 658.15C690.904 658.15 689.51 656.674 689.51 654.322C689.51 652.025 690.918 650.48 693.092 650.48C695.047 650.48 696.578 651.711 696.578 654.24V654.814H691.506C691.506 655.936 692.176 656.633 693.215 656.633C693.898 656.633 694.391 656.332 694.596 655.881H696.523C696.236 657.248 695.006 658.15 693.174 658.15ZM691.506 653.543H694.664C694.664 652.641 694.035 651.998 693.133 651.998C692.203 651.998 691.54 652.688 691.506 653.543ZM699.817 653.707V658H697.794V650.576H699.721V651.875H699.803C700.145 651.014 700.938 650.48 702.032 650.48C703.577 650.48 704.602 651.533 704.589 653.27V658H702.579V653.625C702.579 652.709 702.073 652.162 701.239 652.162C700.391 652.162 699.817 652.723 699.817 653.707ZM710.863 654.842V650.576H712.886V658H710.945V656.66H710.863C710.521 657.521 709.728 658.096 708.607 658.096C707.116 658.096 706.105 657.043 706.105 655.307V650.576H708.128V654.951C708.128 655.826 708.634 656.387 709.427 656.387C710.165 656.387 710.863 655.854 710.863 654.842ZM717.766 658.15C715.496 658.15 714.102 656.674 714.102 654.322C714.102 652.025 715.51 650.48 717.684 650.48C719.639 650.48 721.17 651.711 721.17 654.24V654.814H716.098C716.098 655.936 716.768 656.633 717.807 656.633C718.49 656.633 718.982 656.332 719.187 655.881H721.115C720.828 657.248 719.598 658.15 717.766 658.15ZM716.098 653.543H719.256C719.256 652.641 718.627 651.998 717.725 651.998C716.795 651.998 716.132 652.688 716.098 653.543ZM730.97 650.932C730.888 650.152 730.259 649.688 729.261 649.688C728.222 649.688 727.648 650.166 727.634 650.822C727.62 651.533 728.372 651.861 729.22 652.053L730.109 652.271C731.804 652.654 733.075 653.516 733.075 655.17C733.075 656.988 731.654 658.137 729.247 658.137C726.855 658.137 725.323 657.029 725.269 654.91H727.265C727.333 655.908 728.126 656.414 729.22 656.414C730.3 656.414 730.997 655.908 730.997 655.17C730.997 654.5 730.382 654.186 729.302 653.912L728.222 653.652C726.554 653.242 725.529 652.408 725.529 650.959C725.529 649.154 727.114 647.965 729.275 647.965C731.462 647.965 732.911 649.182 732.939 650.932H730.97ZM738.228 650.576V652.094H736.834V655.717C736.834 656.305 737.121 656.455 737.531 656.469C737.736 656.469 738.092 656.455 738.338 656.428V658.027C738.119 658.068 737.764 658.096 737.258 658.096C735.795 658.096 734.797 657.439 734.81 656.004V652.094H733.785V650.576H734.81V648.799H736.834V650.576H738.228ZM742.725 658.15C740.456 658.15 739.061 656.674 739.061 654.322C739.061 652.025 740.469 650.48 742.643 650.48C744.598 650.48 746.129 651.711 746.129 654.24V654.814H741.057C741.057 655.936 741.727 656.633 742.766 656.633C743.45 656.633 743.942 656.332 744.147 655.881H746.075C745.788 657.248 744.557 658.15 742.725 658.15ZM741.057 653.543H744.215C744.215 652.641 743.586 651.998 742.684 651.998C741.754 651.998 741.091 652.688 741.057 653.543ZM746.989 655.922C746.989 654.268 748.329 653.721 749.751 653.639C750.284 653.604 751.282 653.557 751.597 653.543V652.941C751.583 652.326 751.159 651.957 750.407 651.957C749.724 651.957 749.286 652.271 749.177 652.777H747.249C747.372 651.492 748.493 650.48 750.462 650.48C752.075 650.48 753.607 651.205 753.607 652.996V658H751.693V656.975H751.638C751.269 657.658 750.572 658.137 749.464 658.137C748.042 658.137 746.989 657.398 746.989 655.922ZM748.931 655.867C748.931 656.441 749.396 656.742 750.038 656.742C750.954 656.742 751.611 656.127 751.597 655.348V654.801C751.289 654.814 750.428 654.862 750.079 654.896C749.382 654.965 748.931 655.293 748.931 655.867ZM755.096 658V650.576H757.023V651.875H757.105C757.42 651.014 758.172 650.48 759.17 650.48C760.195 650.48 760.947 651.014 761.193 651.875H761.262C761.576 651.027 762.41 650.48 763.504 650.48C764.885 650.48 765.842 651.396 765.842 653.01V658H763.818V653.406C763.818 652.559 763.326 652.148 762.656 652.148C761.891 652.148 761.453 652.682 761.453 653.461V658H759.484V653.352C759.484 652.613 759.019 652.148 758.336 652.148C757.652 652.148 757.119 652.695 757.119 653.543V658H755.096ZM771.583 652.777C771.501 652.258 771.036 651.916 770.366 651.916C769.71 651.916 769.204 652.23 769.217 652.682C769.204 653.01 769.477 653.27 770.174 653.42L771.501 653.693C772.936 653.994 773.633 654.637 773.647 655.703C773.633 657.166 772.321 658.15 770.352 658.15C768.342 658.15 767.167 657.248 767.002 655.799H769.04C769.135 656.387 769.614 656.688 770.352 656.688C771.09 656.688 771.583 656.387 771.583 655.908C771.583 655.525 771.268 655.293 770.571 655.143L769.34 654.896C767.932 654.623 767.194 653.885 767.208 652.791C767.194 651.369 768.424 650.48 770.338 650.48C772.211 650.48 773.374 651.369 773.483 652.777H771.583Z" fill="black"/>
<path d="M1259.55 658C1258.94 657.999 1258.36 657.757 1257.92 657.325C1257.49 656.894 1257.25 656.309 1257.25 655.699C1257.25 655.5 1257.17 655.309 1257.03 655.169C1256.89 655.028 1256.7 654.949 1256.5 654.949C1256.3 654.949 1256.11 655.028 1255.97 655.169C1255.83 655.309 1255.75 655.5 1255.75 655.699V655.75C1255.75 655.764 1255.75 655.777 1255.75 655.791C1255.78 656.783 1256.19 657.726 1256.9 658.418C1257.61 659.111 1258.56 659.499 1259.55 659.5H1260.25V660.25C1260.25 660.449 1260.33 660.64 1260.47 660.78C1260.61 660.921 1260.8 661 1261 661C1261.2 661 1261.39 660.921 1261.53 660.78C1261.67 660.64 1261.75 660.449 1261.75 660.25V659.5H1262.45C1263.35 659.499 1264.22 659.177 1264.91 658.592C1265.6 658.007 1266.05 657.197 1266.2 656.307C1266.34 655.417 1266.16 654.504 1265.7 653.732C1265.23 652.96 1264.5 652.379 1263.65 652.094L1261.75 651.46V646H1262.45C1263.06 646.001 1263.64 646.243 1264.08 646.675C1264.51 647.106 1264.75 647.691 1264.75 648.301C1264.75 648.5 1264.83 648.691 1264.97 648.831C1265.11 648.972 1265.3 649.051 1265.5 649.051C1265.7 649.051 1265.89 648.972 1266.03 648.831C1266.17 648.691 1266.25 648.5 1266.25 648.301V648.25C1266.25 648.236 1266.25 648.223 1266.25 648.209C1266.22 647.217 1265.81 646.274 1265.1 645.582C1264.39 644.889 1263.44 644.501 1262.45 644.5H1261.75V643.75C1261.75 643.551 1261.67 643.36 1261.53 643.22C1261.39 643.079 1261.2 643 1261 643C1260.8 643 1260.61 643.079 1260.47 643.22C1260.33 643.36 1260.25 643.551 1260.25 643.75V644.5H1259.55C1258.65 644.501 1257.78 644.823 1257.09 645.408C1256.4 645.993 1255.95 646.803 1255.8 647.693C1255.66 648.583 1255.84 649.496 1256.3 650.268C1256.77 651.04 1257.5 651.621 1258.35 651.906L1260.25 652.54V658H1259.55ZM1261.75 653.04L1263.17 653.516C1263.69 653.688 1264.13 654.04 1264.42 654.507C1264.7 654.975 1264.81 655.527 1264.72 656.067C1264.63 656.606 1264.36 657.097 1263.94 657.451C1263.52 657.805 1263 658 1262.45 658H1261.75V653.04ZM1258.83 650.484C1258.31 650.312 1257.87 649.96 1257.58 649.493C1257.3 649.025 1257.19 648.473 1257.28 647.933C1257.37 647.394 1257.64 646.903 1258.06 646.549C1258.48 646.195 1259 646 1259.55 646H1260.25V650.96L1258.83 650.484Z" fill="black"/>
<defs>
<clipPath id="clip0_7657_103426">
<rect width="18" height="18" fill="white" transform="translate(236 69)"/>
</clipPath>
<clipPath id="clip1_7657_103426">
<rect width="18" height="18" fill="white" transform="translate(490 69)"/>
</clipPath>
<clipPath id="clip2_7657_103426">
<rect width="18" height="18" fill="white" transform="translate(490 356)"/>
</clipPath>
<clipPath id="clip3_7657_103426">
<rect width="18" height="18" fill="white" transform="translate(744 69)"/>
</clipPath>
<clipPath id="clip4_7657_103426">
<rect width="18" height="18" fill="white" transform="translate(998 69)"/>
</clipPath>
<clipPath id="clip5_7657_103426">
<rect width="18" height="18" fill="white" transform="translate(998 356)"/>
</clipPath>
</defs>
</svg>
