<svg width="24" height="24" viewBox="0 0 24 24" fill="none" xmlns="http://www.w3.org/2000/svg">
<path d="M2 2L22 22M19.848 14.937C20 14.569 20 14.161 20 13.343V10C20 6.229 20 4.343 18.828 3.172C17.656 2.001 15.771 2 12 2C9.333 2 7.61 2 6.414 2.414M4.414 4.414C4 5.61 4 7.334 4 10V14.544C4 17.789 4 19.412 4.886 20.511C5.06494 20.7329 5.26709 20.9351 5.489 21.114C6.59 22 8.211 22 11.456 22C12.161 22 12.514 22 12.837 21.886C12.9037 21.862 12.9693 21.8347 13.034 21.804C13.344 21.656 13.593 21.407 14.092 20.908L17.5 17.5" stroke="#9B9B9B" stroke-width="1.5" stroke-linecap="round" stroke-linejoin="round"/>
<path d="M13 21.5V20.749C13 17.92 13 16.506 13.879 15.627C14.179 15.327 14.541 15.13 15 15" stroke="#9B9B9B" stroke-width="1.5" stroke-linecap="round" stroke-linejoin="round"/>
</svg>
