<svg width="25" height="25" viewBox="0 0 25 25" fill="none" xmlns="http://www.w3.org/2000/svg">
<path d="M4.92188 8.73047V7.05469C4.92188 5.71875 5.24219 4.51953 5.88281 3.45703C6.53125 2.39453 7.40625 1.55469 8.50781 0.9375C9.60938 0.3125 10.8516 0 12.2344 0C13.6172 0 14.8594 0.3125 15.9609 0.9375C17.0703 1.55469 17.9453 2.39453 18.5859 3.45703C19.2266 4.51953 19.5469 5.71875 19.5469 7.05469V8.73047H17.6602V7.05469C17.6602 6.07812 17.4219 5.19922 16.9453 4.41797C16.4688 3.63672 15.8203 3.01953 15 2.56641C14.1797 2.11328 13.2578 1.88672 12.2344 1.88672C11.2109 1.88672 10.2891 2.11328 9.46875 2.56641C8.65625 3.01953 8.00781 3.63672 7.52344 4.41797C7.04688 5.19922 6.80859 6.07812 6.80859 7.05469V8.73047H4.92188ZM4.04297 24.9141C3.08984 24.9141 2.30469 24.7305 1.6875 24.3633C1.07812 24.0039 0.644531 23.4727 0.386719 22.7695C0.128906 22.0742 0.0625 21.2188 0.1875 20.2031L1.20703 11.5312C1.28516 10.8281 1.47266 10.2383 1.76953 9.76172C2.07422 9.27734 2.47656 8.91406 2.97656 8.67188C3.47656 8.42188 4.06641 8.29688 4.74609 8.29688H19.7227C20.4023 8.29688 20.9922 8.42188 21.4922 8.67188C21.9922 8.91406 22.3945 9.27734 22.6992 9.76172C23.0039 10.2383 23.1953 10.8281 23.2734 11.5312L24.2812 20.2031C24.4062 21.2188 24.3398 22.0742 24.082 22.7695C23.8242 23.4727 23.3867 24.0039 22.7695 24.3633C22.1602 24.7305 21.3789 24.9141 20.4258 24.9141H4.04297ZM4.04297 23.0273H20.4258C21.168 23.0273 21.7109 22.8047 22.0547 22.3594C22.3984 21.9141 22.5195 21.2695 22.418 20.4258L21.4102 11.7539C21.3477 11.2383 21.1719 10.8477 20.8828 10.582C20.6016 10.3164 20.2148 10.1836 19.7227 10.1836H4.74609C4.26172 10.1836 3.875 10.3164 3.58594 10.582C3.29688 10.8477 3.125 11.2383 3.07031 11.7539L2.05078 20.4258C1.94922 21.2695 2.07031 21.9141 2.41406 22.3594C2.75781 22.8047 3.30078 23.0273 4.04297 23.0273ZM11.1562 18.0938C10.7578 18.0938 10.4453 17.9883 10.2188 17.7773C10 17.5586 9.89062 17.25 9.89062 16.8516V16.0078C8.84375 15.8281 7.83984 15.5195 6.87891 15.082C5.91797 14.6367 5.0625 14.043 4.3125 13.3008C3.5625 12.5508 2.97266 11.6367 2.54297 10.5586L4.26562 9.77344C4.67188 10.8672 5.27344 11.7461 6.07031 12.4102C6.875 13.0742 7.80859 13.5586 8.87109 13.8633C9.93359 14.168 11.0547 14.3203 12.2344 14.3203C13.4219 14.3203 14.543 14.168 15.5977 13.8633C16.6602 13.5586 17.5898 13.0742 18.3867 12.4102C19.1914 11.7461 19.7969 10.8672 20.2031 9.77344L21.9375 10.5586C21.5078 11.6367 20.9141 12.5508 20.1562 13.3008C19.4062 14.043 18.5508 14.6367 17.5898 15.082C16.6289 15.5273 15.625 15.8359 14.5781 16.0078V16.8516C14.5781 17.25 14.4648 17.5586 14.2383 17.7773C14.0195 17.9883 13.7109 18.0938 13.3125 18.0938H11.1562Z" fill="#2466F4"/>
</svg>
