<svg width="28" height="23" viewBox="0 0 28 23" fill="none" xmlns="http://www.w3.org/2000/svg">
<path d="M1.30078 10.8984L1.3125 8.90625C3.10938 9.61719 5.03516 10.1484 7.08984 10.5C9.15234 10.8438 11.3086 11.0156 13.5586 11.0156C15.8164 11.0156 17.9727 10.8438 20.0273 10.5C22.0898 10.1484 24.0195 9.62109 25.8164 8.91797L25.8281 10.8984C23.9844 11.5469 22.0312 12.0312 19.9688 12.3516C17.9062 12.6719 15.7695 12.832 13.5586 12.832C11.3555 12.832 9.22266 12.6719 7.16016 12.3516C5.09766 12.0312 3.14453 11.5469 1.30078 10.8984ZM11.7422 14.9531C10.875 14.9531 10.4414 14.5273 10.4414 13.6758V11.8711H16.6875V13.6758C16.6875 14.5273 16.2539 14.9531 15.3867 14.9531H11.7422ZM3.62109 22.7109C2.41797 22.7109 1.51172 22.4141 0.902344 21.8203C0.300781 21.2344 0 20.3398 0 19.1367V7.73438C0 6.53125 0.300781 5.63672 0.902344 5.05078C1.51172 4.45703 2.41797 4.16016 3.62109 4.16016H23.5078C24.7188 4.16016 25.625 4.45703 26.2266 5.05078C26.8281 5.63672 27.1289 6.53125 27.1289 7.73438V19.1367C27.1289 20.3398 26.8281 21.2344 26.2266 21.8203C25.625 22.4141 24.7188 22.7109 23.5078 22.7109H3.62109ZM3.64453 20.8359H23.4844C24.0547 20.8359 24.4883 20.6875 24.7852 20.3906C25.0898 20.0938 25.2422 19.6445 25.2422 19.043V7.82812C25.2422 7.22656 25.0898 6.77734 24.7852 6.48047C24.4883 6.18359 24.0547 6.03516 23.4844 6.03516H3.64453C3.07422 6.03516 2.63672 6.18359 2.33203 6.48047C2.03516 6.77734 1.88672 7.22656 1.88672 7.82812V19.043C1.88672 19.6445 2.03516 20.0938 2.33203 20.3906C2.63672 20.6875 3.07422 20.8359 3.64453 20.8359ZM7.61719 5.17969V3.23438C7.61719 2.13281 7.91406 1.32031 8.50781 0.796875C9.10156 0.265625 9.89844 0 10.8984 0H16.2188C17.2812 0 18.0938 0.265625 18.6562 0.796875C19.2188 1.32031 19.5 2.13281 19.5 3.23438V5.15625H17.6836V3.10547C17.6836 2.66016 17.5586 2.31641 17.3086 2.07422C17.0586 1.83203 16.707 1.71094 16.2539 1.71094H10.875C10.4141 1.71094 10.0586 1.83203 9.80859 2.07422C9.55859 2.31641 9.43359 2.66016 9.43359 3.10547V5.17969H7.61719Z" fill="#2466F4"/>
</svg>
