<svg width="28" height="22" viewBox="0 0 28 22" fill="none" xmlns="http://www.w3.org/2000/svg">
<path d="M3.44531 21.2109C2.30469 21.2109 1.44531 20.9219 0.867188 20.3438C0.289062 19.7734 0 18.9219 0 17.7891V3.42188C0 2.28906 0.289062 1.4375 0.867188 0.867188C1.44531 0.289063 2.30469 0 3.44531 0H23.9883C25.1367 0 26 0.289063 26.5781 0.867188C27.1562 1.4375 27.4453 2.28906 27.4453 3.42188V17.7891C27.4453 18.9141 27.1562 19.7656 26.5781 20.3438C26 20.9219 25.1367 21.2109 23.9883 21.2109H3.44531ZM3.48047 19.7695H23.9648C24.6133 19.7695 25.1133 19.5977 25.4648 19.2539C25.8164 18.9102 25.9922 18.3984 25.9922 17.7188V3.49219C25.9922 2.8125 25.8164 2.30078 25.4648 1.95703C25.1133 1.61328 24.6133 1.44141 23.9648 1.44141H3.48047C2.81641 1.44141 2.30859 1.61328 1.95703 1.95703C1.61328 2.30078 1.44141 2.8125 1.44141 3.49219V17.7188C1.44141 18.3984 1.61328 18.9102 1.95703 19.2539C2.30859 19.5977 2.81641 19.7695 3.48047 19.7695ZM8.71875 20.0508V1.11328H10.1367V20.0508H8.71875ZM6.48047 5.80078H3.70312C3.55469 5.80078 3.42578 5.74609 3.31641 5.63672C3.21484 5.52734 3.16406 5.40625 3.16406 5.27344C3.16406 5.125 3.21484 5 3.31641 4.89844C3.42578 4.78906 3.55469 4.73438 3.70312 4.73438H6.48047C6.62109 4.73438 6.74609 4.78906 6.85547 4.89844C6.96484 5 7.01953 5.125 7.01953 5.27344C7.01953 5.40625 6.96484 5.52734 6.85547 5.63672C6.74609 5.74609 6.62109 5.80078 6.48047 5.80078ZM6.48047 8.90625H3.70312C3.55469 8.90625 3.42578 8.85547 3.31641 8.75391C3.21484 8.64453 3.16406 8.51562 3.16406 8.36719C3.16406 8.22656 3.21484 8.10547 3.31641 8.00391C3.42578 7.89453 3.55469 7.83984 3.70312 7.83984H6.48047C6.62109 7.83984 6.74609 7.89453 6.85547 8.00391C6.96484 8.10547 7.01953 8.22656 7.01953 8.36719C7.01953 8.51562 6.96484 8.64453 6.85547 8.75391C6.74609 8.85547 6.62109 8.90625 6.48047 8.90625ZM6.48047 12H3.70312C3.55469 12 3.42578 11.9492 3.31641 11.8477C3.21484 11.7383 3.16406 11.6133 3.16406 11.4727C3.16406 11.3242 3.21484 11.1992 3.31641 11.0977C3.42578 10.9883 3.55469 10.9336 3.70312 10.9336H6.48047C6.62109 10.9336 6.74609 10.9883 6.85547 11.0977C6.96484 11.1992 7.01953 11.3242 7.01953 11.4727C7.01953 11.6133 6.96484 11.7383 6.85547 11.8477C6.74609 11.9492 6.62109 12 6.48047 12Z" fill="black"/>
</svg>
