<svg width="18" height="22" viewBox="0 0 18 22" fill="none" xmlns="http://www.w3.org/2000/svg">
<path d="M15.0489 11.6262C15.0386 9.82294 15.8343 8.46385 17.4412 7.46173C16.5425 6.13967 15.1828 5.41253 13.3906 5.27239C11.6936 5.1349 9.83691 6.28774 9.15708 6.28774C8.43863 6.28774 6.79571 5.31999 5.503 5.31999C2.83519 5.36229 0 7.50403 0 11.8616C0 13.1492 0.229185 14.4792 0.687554 15.8489C1.30043 17.6522 3.50987 22.0705 5.81459 21.9991C7.01974 21.9701 7.8721 21.1213 9.44034 21.1213C10.9622 21.1213 11.7502 21.9991 13.0944 21.9991C15.4197 21.9648 17.418 17.9483 18 16.1398C14.8815 14.63 15.0489 11.7188 15.0489 11.6262ZM12.3425 3.56164C13.6481 1.96988 13.5296 0.520893 13.491 0C12.3373 0.0687473 11.0034 0.806459 10.2438 1.7134C9.40687 2.68643 8.91502 3.88951 9.0206 5.24595C10.267 5.34378 11.4051 4.68539 12.3425 3.56164Z" fill="white"/>
</svg>
