<svg width="13" height="21" viewBox="0 0 13 21" fill="none" xmlns="http://www.w3.org/2000/svg">
<path d="M12.5117 10.5391C12.5117 10.7422 12.4727 10.9297 12.3945 11.1016C12.3164 11.2734 12.1992 11.4375 12.043 11.5938L2.91406 20.5234C2.65625 20.7891 2.33594 20.9219 1.95312 20.9219C1.70312 20.9219 1.47266 20.8594 1.26172 20.7344C1.05078 20.6172 0.882812 20.4531 0.757812 20.2422C0.640625 20.0391 0.582031 19.8125 0.582031 19.5625C0.582031 19.1875 0.722656 18.8555 1.00391 18.5664L9.23047 10.5391L1.00391 2.51172C0.722656 2.22266 0.582031 1.89453 0.582031 1.52734C0.582031 1.26953 0.640625 1.03906 0.757812 0.835938C0.882812 0.632813 1.05078 0.472656 1.26172 0.355469C1.47266 0.230469 1.70312 0.167969 1.95312 0.167969C2.33594 0.167969 2.65625 0.296875 2.91406 0.554688L12.043 9.48438C12.1992 9.64062 12.3164 9.80469 12.3945 9.97656C12.4727 10.1484 12.5117 10.3359 12.5117 10.5391Z" fill="black"/>
</svg>
