<svg width="10" height="17" viewBox="0 0 10 17" fill="none" xmlns="http://www.w3.org/2000/svg">
<path d="M9.63379 8.6543C9.63379 8.80664 9.60449 8.94727 9.5459 9.07617C9.4873 9.20508 9.39941 9.32812 9.28223 9.44531L2.43555 16.1426C2.24219 16.3418 2.00195 16.4414 1.71484 16.4414C1.52734 16.4414 1.35449 16.3945 1.19629 16.3008C1.03809 16.2129 0.912109 16.0898 0.818359 15.9316C0.730469 15.7793 0.686523 15.6094 0.686523 15.4219C0.686523 15.1406 0.791992 14.8916 1.00293 14.6748L7.17285 8.6543L1.00293 2.63379C0.791992 2.41699 0.686523 2.1709 0.686523 1.89551C0.686523 1.70215 0.730469 1.5293 0.818359 1.37695C0.912109 1.22461 1.03809 1.10449 1.19629 1.0166C1.35449 0.922852 1.52734 0.875977 1.71484 0.875977C2.00195 0.875977 2.24219 0.972656 2.43555 1.16602L9.28223 7.86328C9.39941 7.98047 9.4873 8.10352 9.5459 8.23242C9.60449 8.36133 9.63379 8.50195 9.63379 8.6543Z" fill="black"/>
</svg>
