<svg width="70" height="70" viewBox="0 0 70 70" fill="none" xmlns="http://www.w3.org/2000/svg">
<path d="M55.4163 17.5H14.583C9.75053 17.5 5.83301 21.4175 5.83301 26.25V34.1859L25.7754 40.8333H44.2239L64.1663 34.1859V26.25C64.1663 21.4175 60.2488 17.5 55.4163 17.5Z" fill="#6C98F8"/>
<path d="M29.1663 17.5V14.5833H40.833V17.5H46.6663V14.5833C46.6627 11.3632 44.0532 8.75368 40.833 8.75H29.1663C25.9462 8.75368 23.3367 11.3632 23.333 14.5833V17.5H29.1663ZM25.7754 40.8333L5.83301 34.1858V52.5C5.83829 57.3303 9.75269 61.2447 14.583 61.25H55.4163C60.2467 61.2447 64.1611 57.3303 64.1663 52.5V34.1858L44.2239 40.8333H25.7754Z" fill="#2466F4"/>
</svg>
