<svg width="16" height="14" viewBox="0 0 16 14" fill="none" xmlns="http://www.w3.org/2000/svg">
<path d="M0.758789 6.35742L0.765625 5.19531C1.8138 5.61003 2.93717 5.91992 4.13574 6.125C5.33887 6.32552 6.59668 6.42578 7.90918 6.42578C9.22624 6.42578 10.484 6.32552 11.6826 6.125C12.8857 5.91992 14.0114 5.6123 15.0596 5.20215L15.0664 6.35742C13.9909 6.73568 12.8516 7.01823 11.6484 7.20508C10.4453 7.39193 9.19889 7.48535 7.90918 7.48535C6.62402 7.48535 5.37988 7.39193 4.17676 7.20508C2.97363 7.01823 1.83431 6.73568 0.758789 6.35742ZM6.84961 8.72266C6.34375 8.72266 6.09082 8.47428 6.09082 7.97754V6.9248H9.73438V7.97754C9.73438 8.47428 9.48145 8.72266 8.97559 8.72266H6.84961ZM2.1123 13.248C1.41048 13.248 0.881836 13.0749 0.526367 12.7285C0.175456 12.3867 0 11.8649 0 11.1631V4.51172C0 3.8099 0.175456 3.28809 0.526367 2.94629C0.881836 2.59993 1.41048 2.42676 2.1123 2.42676H13.7129C14.4193 2.42676 14.9479 2.59993 15.2988 2.94629C15.6497 3.28809 15.8252 3.8099 15.8252 4.51172V11.1631C15.8252 11.8649 15.6497 12.3867 15.2988 12.7285C14.9479 13.0749 14.4193 13.248 13.7129 13.248H2.1123ZM2.12598 12.1543H13.6992C14.0319 12.1543 14.2848 12.0677 14.458 11.8945C14.6357 11.7214 14.7246 11.4593 14.7246 11.1084V4.56641C14.7246 4.21549 14.6357 3.95345 14.458 3.78027C14.2848 3.6071 14.0319 3.52051 13.6992 3.52051H2.12598C1.79329 3.52051 1.53809 3.6071 1.36035 3.78027C1.18717 3.95345 1.10059 4.21549 1.10059 4.56641V11.1084C1.10059 11.4593 1.18717 11.7214 1.36035 11.8945C1.53809 12.0677 1.79329 12.1543 2.12598 12.1543ZM4.44336 3.02148V1.88672C4.44336 1.24414 4.61654 0.770182 4.96289 0.464844C5.30924 0.154948 5.77409 0 6.35742 0H9.46094C10.0807 0 10.5547 0.154948 10.8828 0.464844C11.2109 0.770182 11.375 1.24414 11.375 1.88672V3.00781H10.3154V1.81152C10.3154 1.55176 10.2425 1.35124 10.0967 1.20996C9.95085 1.06868 9.74577 0.998047 9.48145 0.998047H6.34375C6.07487 0.998047 5.86751 1.06868 5.72168 1.20996C5.57585 1.35124 5.50293 1.55176 5.50293 1.81152V3.02148H4.44336Z" fill="black"/>
</svg>
