<svg width="71" height="70" viewBox="0 0 71 70" fill="none" xmlns="http://www.w3.org/2000/svg">
<path d="M51.542 18.9588H54.4587V7.29216C54.4588 6.9091 54.3834 6.52979 54.2368 6.17588C54.0903 5.82197 53.8755 5.5004 53.6046 5.22954C53.3338 4.95868 53.0122 4.74384 52.6583 4.5973C52.3044 4.45076 51.925 4.37539 51.542 4.37549H19.4587C19.0756 4.37539 18.6963 4.45076 18.3424 4.5973C17.9885 4.74384 17.6669 4.95868 17.396 5.22954C17.1252 5.5004 16.9103 5.82197 16.7638 6.17588C16.6173 6.52979 16.5419 6.9091 16.542 7.29216V18.9588H19.4587C19.0756 18.9587 18.0003 18.9588 18.0003 18.9588H16.542L16.542 21.8755V42.2922V62.7088C16.5419 63.0919 16.6173 63.4712 16.7638 63.8251C16.9103 64.179 17.1252 64.5006 17.396 64.7714C17.6669 65.0423 17.9885 65.2571 18.3424 65.4037C18.6963 65.5502 19.0756 65.6256 19.4587 65.6255H51.542C51.925 65.6256 52.3044 65.5502 52.6583 65.4037C53.0122 65.2571 53.3338 65.0423 53.6046 64.7714C53.8755 64.5006 54.0903 64.179 54.2368 63.8251C54.3834 63.4712 54.4588 63.0919 54.4587 62.7088V21.8755C54.4588 21.4924 54.4587 20.4172 54.4587 20.4172V18.9588H53.0003C53.0003 18.9588 51.925 18.9587 51.542 18.9588ZM22.3753 53.9588H19.4587C18.6851 53.9588 17.9432 53.6515 17.3963 53.1046C16.8493 52.5576 16.542 51.8157 16.542 51.0422C16.542 50.2686 16.8493 49.5267 17.3963 48.9798C17.9432 48.4328 18.6851 48.1255 19.4587 48.1255H22.3753C23.1489 48.1255 23.8907 48.4328 24.4377 48.9798C24.9847 49.5267 25.292 50.2686 25.292 51.0422C25.292 51.8157 24.9847 52.5576 24.4377 53.1046C23.8907 53.6515 23.1489 53.9588 22.3753 53.9588ZM22.3753 42.2922H19.4587C18.6851 42.2922 17.9432 41.9849 17.3963 41.4379C16.8493 40.8909 16.542 40.149 16.542 39.3755C16.542 38.6019 16.8493 37.8601 17.3963 37.3131C17.9432 36.7661 18.6851 36.4588 19.4587 36.4588H22.3753C23.1489 36.4588 23.8907 36.7661 24.4377 37.3131C24.9847 37.8601 25.292 38.6019 25.292 39.3755C25.292 40.149 24.9847 40.8909 24.4377 41.4379C23.8907 41.9849 23.1489 42.2922 22.3753 42.2922ZM36.9587 53.9588H34.042C33.2684 53.9588 32.5266 53.6515 31.9796 53.1046C31.4326 52.5576 31.1253 51.8157 31.1253 51.0422C31.1253 50.2686 31.4326 49.5267 31.9796 48.9798C32.5266 48.4328 33.2684 48.1255 34.042 48.1255H36.9587C37.7322 48.1255 38.4741 48.4328 39.0211 48.9798C39.568 49.5267 39.8753 50.2686 39.8753 51.0422C39.8753 51.8157 39.568 52.5576 39.0211 53.1046C38.4741 53.6515 37.7322 53.9588 36.9587 53.9588ZM36.9587 42.2922H34.042C33.2684 42.2922 32.5266 41.9849 31.9796 41.4379C31.4326 40.8909 31.1253 40.149 31.1253 39.3755C31.1253 38.6019 31.4326 37.8601 31.9796 37.3131C32.5266 36.7661 33.2684 36.4588 34.042 36.4588H36.9587C37.7322 36.4588 38.4741 36.7661 39.0211 37.3131C39.568 37.8601 39.8753 38.6019 39.8753 39.3755C39.8753 40.149 39.568 40.8909 39.0211 41.4379C38.4741 41.9849 37.7322 42.2922 36.9587 42.2922ZM39.8753 26.2505H38.417V27.7088C38.417 28.4824 38.1097 29.2242 37.5627 29.7712C37.0157 30.3182 36.2739 30.6255 35.5003 30.6255C34.7268 30.6255 33.9849 30.3182 33.4379 29.7712C32.8909 29.2242 32.5837 28.4824 32.5837 27.7088V26.2505H31.1253C30.3518 26.2505 29.6099 25.9432 29.0629 25.3962C28.5159 24.8492 28.2087 24.1074 28.2087 23.3338C28.2087 22.5603 28.5159 21.8184 29.0629 21.2714C29.6099 20.7244 30.3518 20.4172 31.1253 20.4172H32.5837V18.9588C32.5837 18.1853 32.8909 17.4434 33.4379 16.8964C33.9849 16.3494 34.7268 16.0422 35.5003 16.0422C36.2739 16.0422 37.0157 16.3494 37.5627 16.8964C38.1097 17.4434 38.417 18.1853 38.417 18.9588V20.4172H39.8753C40.6489 20.4172 41.3907 20.7244 41.9377 21.2714C42.4847 21.8184 42.792 22.5603 42.792 23.3338C42.792 24.1074 42.4847 24.8492 41.9377 25.3962C41.3907 25.9432 40.6489 26.2505 39.8753 26.2505ZM51.542 53.9588H48.6253C47.8518 53.9588 47.1099 53.6515 46.5629 53.1046C46.0159 52.5576 45.7087 51.8157 45.7087 51.0422C45.7087 50.2686 46.0159 49.5267 46.5629 48.9798C47.1099 48.4328 47.8518 48.1255 48.6253 48.1255H51.542C52.3155 48.1255 53.0574 48.4328 53.6044 48.9798C54.1514 49.5267 54.4587 50.2686 54.4587 51.0422C54.4587 51.8157 54.1514 52.5576 53.6044 53.1046C53.0574 53.6515 52.3155 53.9588 51.542 53.9588ZM51.542 42.2922H48.6253C47.8518 42.2922 47.1099 41.9849 46.5629 41.4379C46.0159 40.8909 45.7087 40.149 45.7087 39.3755C45.7087 38.6019 46.0159 37.8601 46.5629 37.3131C47.1099 36.7661 47.8518 36.4588 48.6253 36.4588H51.542C52.3155 36.4588 53.0574 36.7661 53.6044 37.3131C54.1514 37.8601 54.4587 38.6019 54.4587 39.3755C54.4587 40.149 54.1514 40.8909 53.6044 41.4379C53.0574 41.9849 52.3155 42.2922 51.542 42.2922Z" fill="#BBD0FC"/>
<ellipse cx="34.042" cy="23.3334" rx="13.125" ry="8.75" fill="#BBD0FC"/>
<path d="M16.541 35H54.4577V58.3333H16.541V35Z" fill="#BBD0FC"/>
<rect x="23.833" y="11.6666" width="8.75" height="5.83333" rx="1" fill="#6C98F8"/>
<rect x="38.417" y="11.6666" width="8.75" height="5.83333" rx="1" fill="#6C98F8"/>
<rect x="23.833" y="23.3334" width="8.75" height="5.83333" rx="1" fill="#6C98F8"/>
<rect x="38.417" y="23.3334" width="8.75" height="5.83333" rx="1" fill="#6C98F8"/>
<rect x="23.833" y="35" width="8.75" height="5.83333" rx="1" fill="#6C98F8"/>
<rect x="38.417" y="35" width="8.75" height="5.83333" rx="1" fill="#6C98F8"/>
<rect x="23.833" y="46.6666" width="8.75" height="5.83333" rx="1" fill="#6C98F8"/>
<rect x="38.417" y="46.6666" width="8.75" height="5.83333" rx="1" fill="#6C98F8"/>
</svg>
