<svg width="100" height="100" viewBox="0 0 71 70" fill="none" xmlns="http://www.w3.org/2000/svg">
<path d="M18.0003 67.0833H6.33366C5.95061 67.0834 5.57129 67.008 5.21738 66.8615C4.86347 66.7149 4.5419 66.5001 4.27104 66.2292C4.00018 65.9584 3.78535 65.6368 3.63881 65.2829C3.49227 64.929 3.41689 64.5497 3.41699 64.1666V40.8333C3.41689 40.4502 3.49227 40.0709 3.63881 39.717C3.78535 39.3631 4.00018 39.0415 4.27104 38.7707C4.5419 38.4998 4.86347 38.285 5.21738 38.1384C5.57129 37.9919 5.95061 37.9165 6.33366 37.9166H18.0003C18.3834 37.9165 18.7627 37.9919 19.1166 38.1384C19.4705 38.285 19.7921 38.4998 20.0629 38.7707C20.3338 39.0415 20.5486 39.3631 20.6952 39.717C20.8417 40.0709 20.9171 40.4502 20.917 40.8333V64.1666C20.9171 64.5497 20.8417 64.929 20.6952 65.2829C20.5486 65.6368 20.3338 65.9584 20.0629 66.2292C19.7921 66.5001 19.4705 66.7149 19.1166 66.8615C18.7627 67.008 18.3834 67.0834 18.0003 67.0833V67.0833Z" fill="#BBD0FC"/>
<path d="M41.3333 67.0833H29.6667C29.2836 67.0834 28.9043 67.008 28.5504 66.8615C28.1965 66.7149 27.8749 66.5001 27.6041 66.2293C27.3332 65.9584 27.1184 65.6368 26.9718 65.2829C26.8253 64.929 26.7499 64.5497 26.75 64.1666V5.83329C26.7499 5.45024 26.8253 5.07093 26.9718 4.71702C27.1184 4.3631 27.3332 4.04153 27.6041 3.77068C27.8749 3.49982 28.1965 3.28498 28.5504 3.13844C28.9043 2.9919 29.2836 2.91653 29.6667 2.91663H41.3333C41.7164 2.91653 42.0957 2.9919 42.4496 3.13844C42.8035 3.28498 43.1251 3.49982 43.396 3.77068C43.6668 4.04153 43.8816 4.3631 44.0282 4.71702C44.1747 5.07093 44.2501 5.45024 44.25 5.83329V64.1666C44.2501 64.5497 44.1747 64.929 44.0282 65.2829C43.8816 65.6368 43.6668 65.9584 43.396 66.2293C43.1251 66.5001 42.8035 66.7149 42.4496 66.8615C42.0957 67.008 41.7164 67.0834 41.3333 67.0833V67.0833Z" fill="#2466F4"/>
<path d="M64.6663 67.0833H52.9997C52.6166 67.0834 52.2373 67.0081 51.8834 66.8615C51.5295 66.715 51.2079 66.5001 50.9371 66.2293C50.6662 65.9584 50.4514 65.6369 50.3048 65.2829C50.1583 64.929 50.0829 64.5497 50.083 64.1667V29.1667C50.0829 28.7836 50.1583 28.4043 50.3048 28.0504C50.4514 27.6965 50.6662 27.3749 50.9371 27.1041C51.2079 26.8332 51.5295 26.6184 51.8834 26.4718C52.2373 26.3253 52.6166 26.2499 52.9997 26.25H64.6663C65.0494 26.2499 65.4287 26.3253 65.7826 26.4718C66.1365 26.6184 66.4581 26.8332 66.729 27.1041C66.9998 27.3749 67.2147 27.6965 67.3612 28.0504C67.5077 28.4043 67.5831 28.7836 67.583 29.1667V64.1667C67.5831 64.5497 67.5077 64.929 67.3612 65.2829C67.2147 65.6369 66.9998 65.9584 66.729 66.2293C66.4581 66.5001 66.1365 66.715 65.7826 66.8615C65.4287 67.0081 65.0494 67.0834 64.6663 67.0833Z" fill="#6C98F8"/>
</svg>
