<svg width="18" height="13" viewBox="0 0 18 13" fill="none" xmlns="http://www.w3.org/2000/svg">
<path d="M1.61328 12.8721C1.08008 12.8721 0.676758 12.7445 0.40332 12.4893C0.13444 12.234 0 11.8535 0 11.3477V5.5166C0 5.01074 0.13444 4.63021 0.40332 4.375C0.676758 4.11523 1.08008 3.98535 1.61328 3.98535H3.45215C3.98535 3.98535 4.38867 4.11523 4.66211 4.375C4.93555 4.63021 5.07227 5.01074 5.07227 5.5166V11.3477C5.07227 11.8535 4.93555 12.234 4.66211 12.4893C4.38867 12.7445 3.98535 12.8721 3.45215 12.8721H1.61328ZM1.79102 11.8398H3.27441C3.53874 11.8398 3.72331 11.7874 3.82812 11.6826C3.93294 11.5824 3.98535 11.4046 3.98535 11.1494V5.71484C3.98535 5.45508 3.93294 5.27507 3.82812 5.1748C3.72331 5.06999 3.53874 5.01758 3.27441 5.01758H1.79102C1.53125 5.01758 1.34896 5.06999 1.24414 5.1748C1.13932 5.27507 1.08691 5.45508 1.08691 5.71484V11.1494C1.08691 11.4046 1.13932 11.5824 1.24414 11.6826C1.34896 11.7874 1.53125 11.8398 1.79102 11.8398ZM7.75879 12.8721C7.22559 12.8721 6.82227 12.7445 6.54883 12.4893C6.27995 12.234 6.14551 11.8535 6.14551 11.3477V3.52734C6.14551 3.02148 6.27995 2.64095 6.54883 2.38574C6.82227 2.12598 7.22559 1.99609 7.75879 1.99609H9.60449C10.1377 1.99609 10.5387 2.12598 10.8076 2.38574C11.0811 2.64095 11.2178 3.02148 11.2178 3.52734V11.3477C11.2178 11.8535 11.0811 12.234 10.8076 12.4893C10.5387 12.7445 10.1377 12.8721 9.60449 12.8721H7.75879ZM7.94336 11.8398H9.42676C9.68652 11.8398 9.86882 11.7874 9.97363 11.6826C10.0785 11.5824 10.1309 11.4046 10.1309 11.1494V3.72559C10.1309 3.47038 10.0785 3.29036 9.97363 3.18555C9.86882 3.08073 9.68652 3.02832 9.42676 3.02832H7.94336C7.67904 3.02832 7.49447 3.08073 7.38965 3.18555C7.28483 3.29036 7.23242 3.47038 7.23242 3.72559V11.1494C7.23242 11.4046 7.28483 11.5824 7.38965 11.6826C7.49447 11.7874 7.67904 11.8398 7.94336 11.8398ZM13.9043 12.8721C13.3757 12.8721 12.9746 12.7445 12.7012 12.4893C12.4323 12.234 12.2979 11.8535 12.2979 11.3477V1.53125C12.2979 1.02539 12.4323 0.644857 12.7012 0.389648C12.9746 0.129883 13.3757 0 13.9043 0H15.75C16.2832 0 16.6865 0.129883 16.96 0.389648C17.2334 0.644857 17.3701 1.02539 17.3701 1.53125V11.3477C17.3701 11.8535 17.2334 12.234 16.96 12.4893C16.6865 12.7445 16.2832 12.8721 15.75 12.8721H13.9043ZM14.0889 11.8398H15.5723C15.8366 11.8398 16.0212 11.7874 16.126 11.6826C16.2308 11.5824 16.2832 11.4046 16.2832 11.1494V1.72949C16.2832 1.46973 16.2308 1.28971 16.126 1.18945C16.0212 1.08464 15.8366 1.03223 15.5723 1.03223H14.0889C13.8291 1.03223 13.6468 1.08464 13.542 1.18945C13.4372 1.28971 13.3848 1.46973 13.3848 1.72949V11.1494C13.3848 11.4046 13.4372 11.5824 13.542 11.6826C13.6468 11.7874 13.8291 11.8398 14.0889 11.8398Z" fill="black"/>
</svg>
