<svg width="13" height="15" viewBox="0 0 13 15" fill="none" xmlns="http://www.w3.org/2000/svg">
<path d="M6.04688 14.8359C5.79688 14.8359 5.59115 14.7552 5.42969 14.5938C5.27344 14.4323 5.19531 14.224 5.19531 13.9688V4.27344L5.28906 1.72656L5.80469 1.98438L3.19531 4.88281L1.42969 6.63281C1.35156 6.71094 1.26042 6.77344 1.15625 6.82031C1.05208 6.86198 0.940104 6.88281 0.820312 6.88281C0.585938 6.88281 0.390625 6.80469 0.234375 6.64844C0.078125 6.49219 0 6.29427 0 6.05469C0 5.82031 0.0885417 5.61198 0.265625 5.42969L5.41406 0.273438C5.5026 0.184896 5.60156 0.117188 5.71094 0.0703125C5.82031 0.0234375 5.93229 0 6.04688 0C6.16667 0 6.28125 0.0234375 6.39062 0.0703125C6.50521 0.117188 6.60417 0.184896 6.6875 0.273438L11.8359 5.42969C12.013 5.61198 12.1016 5.82031 12.1016 6.05469C12.1016 6.29427 12.0234 6.49219 11.8672 6.64844C11.7109 6.80469 11.5156 6.88281 11.2812 6.88281C11.1615 6.88281 11.0495 6.86198 10.9453 6.82031C10.8411 6.77344 10.75 6.71094 10.6719 6.63281L8.89844 4.88281L6.28906 1.98438L6.8125 1.72656L6.90625 4.27344V13.9688C6.90625 14.224 6.82552 14.4323 6.66406 14.5938C6.50781 14.7552 6.30208 14.8359 6.04688 14.8359Z" fill="#2466F4"/>
</svg>
