<svg width="13" height="8" viewBox="0 0 13 8" fill="none" xmlns="http://www.w3.org/2000/svg">
<path d="M6.5 7.20801C6.32682 7.20801 6.17188 7.14193 6.03516 7.00977L0.744141 1.5957C0.684896 1.53646 0.639323 1.47038 0.607422 1.39746C0.575521 1.31999 0.55957 1.23796 0.55957 1.15137C0.55957 1.03288 0.586914 0.925781 0.641602 0.830078C0.696289 0.734375 0.769206 0.65918 0.860352 0.604492C0.956055 0.549805 1.06315 0.522461 1.18164 0.522461C1.35482 0.522461 1.50293 0.581706 1.62598 0.700195L6.8623 6.05273H6.13086L11.3672 0.700195C11.4948 0.581706 11.6429 0.522461 11.8115 0.522461C11.93 0.522461 12.0348 0.549805 12.126 0.604492C12.2217 0.65918 12.2969 0.734375 12.3516 0.830078C12.4062 0.925781 12.4336 1.03288 12.4336 1.15137C12.4336 1.31999 12.3721 1.46582 12.249 1.58887L6.95801 7.00977C6.89876 7.07357 6.82812 7.1237 6.74609 7.16016C6.66862 7.19206 6.58659 7.20801 6.5 7.20801Z" fill="#B9B9B9"/>
</svg>
