<svg width="20" height="20" viewBox="0 0 20 20" fill="none" xmlns="http://www.w3.org/2000/svg">
<g clip-path="url(#clip0_8965_9876)">
<path d="M11.5381 14.3875L8.82008 17.1055C7.16195 18.7193 4.50957 18.6834 2.89577 17.0253C1.31311 15.3992 1.31276 12.8086 2.89495 11.1821L5.61295 8.46156C5.93831 8.13597 5.93811 7.6083 5.61252 7.28295C5.28694 6.9576 4.75927 6.95779 4.43391 7.28338L1.71673 10.0039C-0.56968 12.2915 -0.568743 15.9994 1.7188 18.2858C4.00635 20.5723 7.71431 20.5713 10.0008 18.2837L12.7188 15.5658C13.0385 15.2347 13.0293 14.7073 12.6983 14.3876C12.3754 14.0757 11.8635 14.0757 11.5406 14.3876H11.5381V14.3875Z" fill="#3E3E3E"/>
<path d="M18.2864 1.71732C17.1912 0.614597 15.7002 -0.00384604 14.146 2.06967e-05C12.5927 -0.00411944 11.1022 0.613035 10.0065 1.714L7.28433 4.43282C6.95874 4.75817 6.95854 5.28585 7.2839 5.61143C7.60925 5.93702 8.13692 5.93722 8.46251 5.61186L11.183 2.89386C11.9665 2.10559 13.0329 1.66365 14.1443 1.66651C16.4581 1.66729 18.3332 3.54359 18.3324 5.85738C18.3321 6.96788 17.8908 8.03283 17.1056 8.81817L14.3876 11.5362C14.062 11.8618 14.062 12.3896 14.3876 12.7152C14.7132 13.0408 15.2411 13.0408 15.5667 12.7152L18.2847 9.99885C20.5679 7.71068 20.5686 4.00635 18.2864 1.71732Z" fill="#3E3E3E"/>
<path d="M11.9114 6.91064L6.91197 11.91C6.58095 12.2297 6.57181 12.7572 6.8915 13.0882C7.21119 13.4192 7.7387 13.4284 8.06968 13.1087C8.07663 13.102 8.08343 13.0952 8.09015 13.0882L13.0896 8.08882C13.4092 7.7578 13.4001 7.23032 13.069 6.91064C12.7462 6.5988 12.2343 6.5988 11.9114 6.91064Z" fill="#3E3E3E"/>
</g>
<defs>
<clipPath id="clip0_8965_9876">
<rect width="20" height="20" fill="white"/>
</clipPath>
</defs>
</svg>
