<svg width="20" height="20" viewBox="0 0 20 20" fill="none" xmlns="http://www.w3.org/2000/svg">
<g clip-path="url(#clip0_8965_9839)">
<path d="M20 7.5C19.8921 8.10508 19.6516 8.67879 19.2958 9.18L11.9767 19.03C11.7446 19.3298 11.4474 19.5729 11.1076 19.7409C10.7677 19.9089 10.3941 19.9974 10.015 19.9997C9.63595 20.0021 9.26129 19.9181 8.91941 19.7543C8.57753 19.5905 8.27738 19.3511 8.04167 19.0542L0.686667 9C0.374233 8.54728 0.153677 8.03765 0.0375 7.5H5.26083L9.22167 17.7992C9.28194 17.9567 9.38862 18.0923 9.52759 18.1879C9.66657 18.2836 9.8313 18.3348 10 18.3348C10.1687 18.3348 10.3334 18.2836 10.4724 18.1879C10.6114 18.0923 10.7181 17.9567 10.7783 17.7992L14.7392 7.5H20ZM14.75 5.83333H19.9642C19.8374 5.26951 19.5941 4.73842 19.25 4.27417L17.1183 1.39583C16.8096 0.964381 16.4026 0.612709 15.9308 0.369966C15.4591 0.127222 14.9363 0.000397197 14.4058 1.61132e-06H12.5725L14.75 5.83333ZM9.25667 1.61132e-06L7.04083 5.83333H12.9675L10.7958 1.61132e-06H9.25667ZM5.25833 5.83333L7.47333 1.61132e-06H5.53833C5.01232 -0.000516194 4.49369 0.123773 4.02504 0.362657C3.5564 0.601542 3.15112 0.948205 2.8425 1.37417L0.781667 4.07583C0.387338 4.59253 0.11962 5.19446 0 5.83333H5.25833ZM12.9533 7.5H7.04667L10 15.1783L12.9533 7.5Z" fill="#3E3E3E"/>
</g>
<defs>
<clipPath id="clip0_8965_9839">
<rect width="20" height="20" fill="white"/>
</clipPath>
</defs>
</svg>
