<svg width="20" height="20" viewBox="0 0 20 20" fill="none" xmlns="http://www.w3.org/2000/svg">
<g clip-path="url(#clip0_8965_9862)">
<path d="M17.5 14.167H8.33333V15.8337C8.33333 16.0547 8.24554 16.2666 8.08926 16.4229C7.93297 16.5792 7.72101 16.667 7.5 16.667C7.27899 16.667 7.06702 16.5792 6.91074 16.4229C6.75446 16.2666 6.66667 16.0547 6.66667 15.8337V14.167H5V15.8337C5 16.0547 4.9122 16.2666 4.75592 16.4229C4.59964 16.5792 4.38768 16.667 4.16667 16.667C3.94565 16.667 3.73369 16.5792 3.57741 16.4229C3.42113 16.2666 3.33333 16.0547 3.33333 15.8337V14.167H2.5C1.83696 14.167 1.20107 14.4304 0.732233 14.8992C0.263392 15.3681 0 16.004 0 16.667C0 17.33 0.263392 17.9659 0.732233 18.4348C1.20107 18.9036 1.83696 19.167 2.5 19.167H17.5C18.163 19.167 18.7989 18.9036 19.2678 18.4348C19.7366 17.9659 20 17.33 20 16.667C20 16.004 19.7366 15.3681 19.2678 14.8992C18.7989 14.4304 18.163 14.167 17.5 14.167Z" fill="#3E3E3E"/>
<path d="M17.5 7.5H8.33333V9.16667C8.33333 9.38768 8.24554 9.59964 8.08926 9.75592C7.93297 9.9122 7.72101 10 7.5 10C7.27899 10 7.06702 9.9122 6.91074 9.75592C6.75446 9.59964 6.66667 9.38768 6.66667 9.16667V7.5H5V9.16667C5 9.38768 4.9122 9.59964 4.75592 9.75592C4.59964 9.9122 4.38768 10 4.16667 10C3.94565 10 3.73369 9.9122 3.57741 9.75592C3.42113 9.59964 3.33333 9.38768 3.33333 9.16667V7.5H2.5C1.83696 7.5 1.20107 7.76339 0.732233 8.23223C0.263392 8.70107 0 9.33696 0 10C0 10.663 0.263392 11.2989 0.732233 11.7678C1.20107 12.2366 1.83696 12.5 2.5 12.5H17.5C18.163 12.5 18.7989 12.2366 19.2678 11.7678C19.7366 11.2989 20 10.663 20 10C20 9.33696 19.7366 8.70107 19.2678 8.23223C18.7989 7.76339 18.163 7.5 17.5 7.5Z" fill="#3E3E3E"/>
<path d="M17.5 0.833008H8.33333V2.49967C8.33333 2.72069 8.24554 2.93265 8.08926 3.08893C7.93297 3.24521 7.72101 3.33301 7.5 3.33301C7.27899 3.33301 7.06702 3.24521 6.91074 3.08893C6.75446 2.93265 6.66667 2.72069 6.66667 2.49967V0.833008H5V2.49967C5 2.72069 4.9122 2.93265 4.75592 3.08893C4.59964 3.24521 4.38768 3.33301 4.16667 3.33301C3.94565 3.33301 3.73369 3.24521 3.57741 3.08893C3.42113 2.93265 3.33333 2.72069 3.33333 2.49967V0.833008H2.5C1.83696 0.833008 1.20107 1.0964 0.732233 1.56524C0.263392 2.03408 0 2.66997 0 3.33301C0 3.99605 0.263392 4.63193 0.732233 5.10077C1.20107 5.56962 1.83696 5.83301 2.5 5.83301H17.5C18.163 5.83301 18.7989 5.56962 19.2678 5.10077C19.7366 4.63193 20 3.99605 20 3.33301C20 2.66997 19.7366 2.03408 19.2678 1.56524C18.7989 1.0964 18.163 0.833008 17.5 0.833008Z" fill="#3E3E3E"/>
</g>
<defs>
<clipPath id="clip0_8965_9862">
<rect width="20" height="20" fill="white"/>
</clipPath>
</defs>
</svg>
