<svg width="20" height="20" viewBox="0 0 20 20" fill="none" xmlns="http://www.w3.org/2000/svg">
<g clip-path="url(#clip0_8965_9869)">
<path d="M18.7501 3.31348H16.1784C16.0136 3.31351 15.8525 3.36241 15.7155 3.45398C15.5785 3.54555 15.4717 3.67568 15.4087 3.82793C15.3456 3.98018 15.3291 4.14771 15.3612 4.30934C15.3934 4.47096 15.4727 4.61943 15.5892 4.73598L16.4942 5.64098L13.5059 8.62848C13.3471 8.78022 13.1359 8.86491 12.9163 8.86491C12.6967 8.86491 12.4855 8.78022 12.3267 8.62848L12.1851 8.48598C11.7089 8.03104 11.0757 7.77716 10.4171 7.77716C9.75858 7.77716 9.12538 8.03104 8.64922 8.48598L4.39922 12.736C4.24263 12.893 4.15484 13.1058 4.15515 13.3276C4.15546 13.5493 4.24386 13.7619 4.40089 13.9185C4.55792 14.0751 4.77072 14.1629 4.99248 14.1625C5.21425 14.1622 5.4268 14.0738 5.58339 13.9168L9.83339 9.66681C9.99207 9.51487 10.2033 9.43006 10.423 9.43006C10.6427 9.43006 10.8539 9.51487 11.0126 9.66681L11.1542 9.80931C11.6306 10.2639 12.2637 10.5175 12.9221 10.5175C13.5806 10.5175 14.2137 10.2639 14.6901 9.80931L17.6784 6.82098L18.5834 7.72598C18.7003 7.8406 18.8484 7.91823 19.0092 7.94918C19.17 7.98013 19.3364 7.96302 19.4875 7.89999C19.6386 7.83696 19.7678 7.73081 19.859 7.59478C19.9502 7.45875 19.9992 7.29889 20.0001 7.13514V4.56348C20.0001 4.23196 19.8684 3.91401 19.6339 3.67959C19.3995 3.44517 19.0816 3.31348 18.7501 3.31348Z" fill="#3E3E3E"/>
<path d="M19.1667 18.3133H4.16667C3.50363 18.3133 2.86774 18.0499 2.3989 17.5811C1.93006 17.1123 1.66667 16.4764 1.66667 15.8133V0.833333C1.66667 0.61232 1.57887 0.400358 1.42259 0.244078C1.26631 0.0877974 1.05435 0 0.833333 0C0.61232 0 0.400358 0.0877974 0.244078 0.244078C0.0877974 0.400358 0 0.61232 0 0.833333L0 15.8133C0.00132321 16.918 0.440735 17.977 1.22185 18.7582C2.00296 19.5393 3.062 19.9787 4.16667 19.98H19.1667C19.3877 19.98 19.5996 19.8922 19.7559 19.7359C19.9122 19.5796 20 19.3677 20 19.1467C20 18.9257 19.9122 18.7137 19.7559 18.5574C19.5996 18.4011 19.3877 18.3133 19.1667 18.3133Z" fill="#3E3E3E"/>
</g>
<defs>
<clipPath id="clip0_8965_9869">
<rect width="20" height="20" fill="white"/>
</clipPath>
</defs>
</svg>
