<svg width="20" height="20" viewBox="0 0 20 20" fill="none" xmlns="http://www.w3.org/2000/svg">
<g clip-path="url(#clip0_8318_9731)">
<path d="M18.7502 3.31348H16.1785C16.0137 3.31351 15.8526 3.36241 15.7156 3.45398C15.5786 3.54555 15.4718 3.67568 15.4088 3.82793C15.3457 3.98018 15.3292 4.14771 15.3614 4.30934C15.3935 4.47096 15.4728 4.61943 15.5893 4.73598L16.4943 5.64098L13.506 8.62848C13.3472 8.78022 13.1361 8.86491 12.9164 8.86491C12.6968 8.86491 12.4856 8.78022 12.3268 8.62848L12.1852 8.48598C11.709 8.03104 11.0758 7.77716 10.4173 7.77716C9.75871 7.77716 9.1255 8.03104 8.64934 8.48598L4.39934 12.736C4.24276 12.893 4.15496 13.1058 4.15527 13.3276C4.15559 13.5493 4.24398 13.7619 4.40101 13.9185C4.55804 14.0751 4.77084 14.1629 4.99261 14.1625C5.21437 14.1622 5.42692 14.0738 5.58351 13.9168L9.83351 9.66681C9.99219 9.51487 10.2034 9.43006 10.4231 9.43006C10.6428 9.43006 10.854 9.51487 11.0127 9.66681L11.1543 9.80931C11.6307 10.2639 12.2638 10.5175 12.9223 10.5175C13.5807 10.5175 14.2138 10.2639 14.6902 9.80931L17.6785 6.82098L18.5835 7.72598C18.7004 7.8406 18.8486 7.91823 19.0094 7.94918C19.1701 7.98013 19.3365 7.96302 19.4876 7.89999C19.6388 7.83696 19.768 7.73081 19.8591 7.59478C19.9503 7.45875 19.9993 7.29889 20.0002 7.13514V4.56348C20.0002 4.23196 19.8685 3.91401 19.6341 3.67959C19.3996 3.44517 19.0817 3.31348 18.7502 3.31348Z" fill="#2466F4"/>
<path d="M19.1667 18.3133H4.16667C3.50363 18.3133 2.86774 18.0499 2.3989 17.5811C1.93006 17.1123 1.66667 16.4764 1.66667 15.8133V0.833333C1.66667 0.61232 1.57887 0.400358 1.42259 0.244078C1.26631 0.0877974 1.05435 0 0.833333 0C0.61232 0 0.400358 0.0877974 0.244078 0.244078C0.0877974 0.400358 0 0.61232 0 0.833333L0 15.8133C0.00132321 16.918 0.440735 17.977 1.22185 18.7582C2.00296 19.5393 3.062 19.9787 4.16667 19.98H19.1667C19.3877 19.98 19.5996 19.8922 19.7559 19.7359C19.9122 19.5796 20 19.3677 20 19.1467C20 18.9257 19.9122 18.7137 19.7559 18.5574C19.5996 18.4011 19.3877 18.3133 19.1667 18.3133Z" fill="#2466F4"/>
</g>
<defs>
<clipPath id="clip0_8318_9731">
<rect width="20" height="20" fill="white"/>
</clipPath>
</defs>
</svg>
