<svg width="20" height="20" viewBox="0 0 20 20" fill="none" xmlns="http://www.w3.org/2000/svg">
<path d="M8.39033 16.6667C7.71246 16.666 7.06254 16.3964 6.58322 15.9171C6.1039 15.4378 5.83432 14.7879 5.83366 14.11C5.83366 13.889 5.74586 13.677 5.58958 13.5207C5.4333 13.3645 5.22134 13.2767 5.00033 13.2767C4.77931 13.2767 4.56735 13.3645 4.41107 13.5207C4.25479 13.677 4.16699 13.889 4.16699 14.11V14.1667C4.16699 14.1825 4.16699 14.1967 4.16699 14.2125C4.1948 15.3144 4.65188 16.3618 5.4408 17.1316C6.22971 17.9014 7.28808 18.3326 8.39033 18.3333H9.16699V19.1667C9.16699 19.3877 9.25479 19.5996 9.41107 19.7559C9.56735 19.9122 9.77931 20 10.0003 20C10.2213 20 10.4333 19.9122 10.5896 19.7559C10.7459 19.5996 10.8337 19.3877 10.8337 19.1667V18.3333H11.6103C12.6126 18.3323 13.5818 17.9748 14.3447 17.3249C15.1076 16.6749 15.6145 15.7748 15.7748 14.7855C15.9351 13.7961 15.7383 12.7821 15.2197 11.9245C14.701 11.0669 13.8943 10.4216 12.9437 10.1042L10.8337 9.4V3.33333H11.6103C12.2882 3.334 12.9381 3.60357 13.4174 4.08289C13.8968 4.56222 14.1663 5.21213 14.167 5.89C14.167 6.11101 14.2548 6.32298 14.4111 6.47926C14.5674 6.63554 14.7793 6.72333 15.0003 6.72333C15.2213 6.72333 15.4333 6.63554 15.5896 6.47926C15.7459 6.32298 15.8337 6.11101 15.8337 5.89V5.83333C15.8337 5.8175 15.8337 5.80333 15.8337 5.7875C15.8058 4.68561 15.3488 3.63815 14.5599 2.86838C13.7709 2.09861 12.7126 1.6674 11.6103 1.66667H10.8337V0.833333C10.8337 0.61232 10.7459 0.400358 10.5896 0.244078C10.4333 0.0877974 10.2213 0 10.0003 0C9.77931 0 9.56735 0.0877974 9.41107 0.244078C9.25479 0.400358 9.16699 0.61232 9.16699 0.833333V1.66667H8.39033C7.38809 1.66774 6.4189 2.02519 5.65599 2.67515C4.89307 3.3251 4.38617 4.22519 4.22587 5.21452C4.06557 6.20385 4.26233 7.21795 4.78099 8.07555C5.29964 8.93315 6.10637 9.57835 7.05699 9.89583L9.16699 10.6V16.6667H8.39033ZM10.8337 11.1558L12.417 11.6842C12.993 11.8759 13.4821 12.2664 13.7965 12.7857C14.111 13.305 14.2304 13.9193 14.1334 14.5186C14.0364 15.1179 13.7292 15.6631 13.267 16.0567C12.8047 16.4503 12.2174 16.6665 11.6103 16.6667H10.8337V11.1558ZM7.58366 8.31583C7.00761 8.12411 6.51858 7.73364 6.2041 7.21432C5.88962 6.695 5.77021 6.08071 5.86724 5.4814C5.96427 4.88208 6.27141 4.33685 6.73369 3.94329C7.19596 3.54972 7.78321 3.3335 8.39033 3.33333H9.16699V8.84417L7.58366 8.31583Z" fill="#2466F4"/>
</svg>
