<svg width="29" height="26" viewBox="0 0 29 26" fill="none" xmlns="http://www.w3.org/2000/svg">
<path d="M0.923828 8.25977C0.923828 7.04753 1.11523 5.9401 1.49805 4.9375C1.88997 3.92578 2.43685 3.05078 3.13867 2.3125C3.84049 1.57422 4.66081 1.00456 5.59961 0.603516C6.54753 0.202474 7.57292 0.00195312 8.67578 0.00195312C9.94271 0.00195312 11.0775 0.279948 12.0801 0.835938C13.0827 1.39193 13.8893 2.13021 14.5 3.05078C15.1198 2.13021 15.9264 1.39193 16.9199 0.835938C17.9225 0.279948 19.0573 0.00195312 20.3242 0.00195312C21.4362 0.00195312 22.4616 0.202474 23.4004 0.603516C24.3483 1.00456 25.1686 1.57422 25.8613 2.3125C26.5632 3.05078 27.1055 3.92578 27.4883 4.9375C27.8802 5.9401 28.0762 7.04753 28.0762 8.25977C28.0762 10.2012 27.5612 12.1243 26.5312 14.0293C25.5104 15.9251 24.0566 17.7754 22.1699 19.5801C20.2923 21.3757 18.0684 23.0938 15.498 24.7344C15.3522 24.8255 15.1836 24.9076 14.9922 24.9805C14.8099 25.0625 14.6458 25.1035 14.5 25.1035C14.3633 25.1035 14.1992 25.0625 14.0078 24.9805C13.8255 24.9076 13.6615 24.8255 13.5156 24.7344C10.9453 23.0938 8.7168 21.3757 6.83008 19.5801C4.94336 17.7754 3.48503 15.9251 2.45508 14.0293C1.43424 12.1243 0.923828 10.2012 0.923828 8.25977ZM3.125 8.25977C3.125 9.52669 3.43034 10.8118 4.04102 12.1152C4.65169 13.4095 5.48112 14.681 6.5293 15.9297C7.57747 17.1784 8.76237 18.3724 10.084 19.5117C11.4147 20.6419 12.7956 21.681 14.2266 22.6289C14.3724 22.7383 14.4635 22.793 14.5 22.793C14.5365 22.793 14.6322 22.7383 14.7871 22.6289C16.2181 21.681 17.5944 20.6419 18.916 19.5117C20.2467 18.3724 21.4316 17.1784 22.4707 15.9297C23.5189 14.681 24.3483 13.4095 24.959 12.1152C25.5697 10.8118 25.875 9.52669 25.875 8.25977C25.875 7.04753 25.6335 5.99023 25.1504 5.08789C24.6764 4.17643 24.0202 3.47005 23.1816 2.96875C22.3522 2.45833 21.4089 2.20312 20.3516 2.20312C19.4948 2.20312 18.7565 2.35807 18.1367 2.66797C17.526 2.96875 16.9974 3.35156 16.5508 3.81641C16.1133 4.27214 15.7396 4.72331 15.4297 5.16992C15.2292 5.43424 15.0651 5.61654 14.9375 5.7168C14.8099 5.81706 14.6641 5.86719 14.5 5.86719C14.3359 5.86719 14.1855 5.82161 14.0488 5.73047C13.9212 5.63021 13.7617 5.44336 13.5703 5.16992C13.2786 4.71419 12.9141 4.25846 12.4766 3.80273C12.0391 3.34701 11.5059 2.96875 10.877 2.66797C10.248 2.35807 9.50521 2.20312 8.64844 2.20312C7.59115 2.20312 6.64323 2.45833 5.80469 2.96875C4.97526 3.47005 4.31901 4.17643 3.83594 5.08789C3.36198 5.99023 3.125 7.04753 3.125 8.25977Z" fill="black"/>
</svg>
