<svg width="71" height="70" viewBox="0 0 71 70" fill="none" xmlns="http://www.w3.org/2000/svg">
<path d="M54.4581 64.1667H28.2081C27.825 64.1668 27.4457 64.0914 27.0918 63.9449C26.7379 63.7983 26.4163 63.5835 26.1455 63.3126C25.8746 63.0418 25.6598 62.7202 25.5132 62.3663C25.3667 62.0124 25.2913 61.6331 25.2914 61.25V55.4167H22.3748C20.8282 55.4149 19.3455 54.7998 18.2519 53.7062C17.1583 52.6126 16.5432 51.1299 16.5414 49.5833V43.75H13.6248C13.1333 43.7503 12.6497 43.6263 12.2189 43.3896C11.7882 43.1528 11.4243 42.811 11.1611 42.3959C10.898 41.9808 10.744 41.5059 10.7136 41.0153C10.6832 40.5248 10.7773 40.0345 10.9872 39.5901L16.5414 27.7966V27.7083C16.5315 24.7786 17.1148 21.8771 18.2564 19.1789C19.398 16.4807 21.0741 14.0415 23.1837 12.0085C25.2732 9.9492 27.7625 8.33978 30.4979 7.27945C33.2334 6.21912 36.157 5.73037 39.0886 5.84332C44.8602 6.16473 50.2854 8.69972 54.2348 12.9206C58.1843 17.1414 60.3537 22.7229 60.2914 28.503V29.1667C60.2906 29.419 60.2581 29.6702 60.1946 29.9144L54.5663 51.1072L57.2608 60.4411C57.3858 60.8755 57.4082 61.333 57.3262 61.7775C57.2442 62.2221 57.0601 62.6415 56.7883 63.0027C56.5166 63.3639 56.1647 63.6571 55.7603 63.8591C55.3559 64.0611 54.9101 64.1664 54.4581 64.1667Z" fill="#2466F4"/>
</svg>
