<svg width="21" height="19" viewBox="0 0 21 19" fill="none" xmlns="http://www.w3.org/2000/svg">
<path d="M10.5 18.2168C10.4023 18.2168 10.2852 18.1875 10.1484 18.1289C10.0182 18.0768 9.90104 18.0182 9.79688 17.9531C7.96094 16.7812 6.36914 15.554 5.02148 14.2715C3.67383 12.9824 2.63216 11.6608 1.89648 10.3066C1.16732 8.94596 0.802734 7.57227 0.802734 6.18555C0.802734 5.31966 0.939453 4.52865 1.21289 3.8125C1.49284 3.08984 1.88021 2.46484 2.375 1.9375C2.86979 1.41016 3.44596 1.00326 4.10352 0.716797C4.76107 0.430339 5.47396 0.287109 6.24219 0.287109C7.19922 0.287109 8.03906 0.53125 8.76172 1.01953C9.48438 1.50781 10.0638 2.15234 10.5 2.95312C10.9427 2.14583 11.5254 1.5013 12.248 1.01953C12.9707 0.53125 13.8073 0.287109 14.7578 0.287109C15.526 0.287109 16.2389 0.430339 16.8965 0.716797C17.5605 1.00326 18.1367 1.41016 18.625 1.9375C19.1198 2.46484 19.5039 3.08984 19.7773 3.8125C20.0573 4.52865 20.1973 5.31966 20.1973 6.18555C20.1973 7.57227 19.8294 8.94596 19.0938 10.3066C18.3646 11.6608 17.3262 12.9824 15.9785 14.2715C14.6374 15.554 13.0488 16.7812 11.2129 17.9531C11.1087 18.0182 10.9883 18.0768 10.8516 18.1289C10.7214 18.1875 10.6042 18.2168 10.5 18.2168Z" fill="#2466F4"/>
</svg>
