<svg width="70" height="70" viewBox="0 0 70 70" fill="none" xmlns="http://www.w3.org/2000/svg">
<path d="M17.5003 48.125C15.4813 48.125 13.5076 47.5263 11.8289 46.4046C10.1501 45.2829 8.8417 43.6886 8.06906 41.8233C7.29642 39.9579 7.09426 37.9054 7.48815 35.9252C7.88204 33.9449 8.85429 32.126 10.2819 30.6983C11.7096 29.2707 13.5286 28.2984 15.5088 27.9045C17.489 27.5106 19.5416 27.7128 21.4069 28.4854C23.2722 29.2581 24.8665 30.5665 25.9882 32.2453C27.11 33.924 27.7087 35.8977 27.7087 37.9167C27.7054 40.6231 26.6288 43.2178 24.7151 45.1315C22.8014 47.0452 20.2067 48.1218 17.5003 48.125Z" fill="#9AB9FA"/>
<path d="M25.2011 44.5428C24.256 45.6648 23.0771 46.5668 21.7469 47.1856C20.4167 47.8044 18.9674 48.125 17.5003 48.125C16.0333 48.125 14.5839 47.8044 13.2537 47.1856C11.9236 46.5668 10.7447 45.6648 9.79957 44.5428C7.69954 45.8448 5.96571 47.6602 4.76155 49.8178C3.55739 51.9754 2.92259 54.4042 2.91699 56.875C2.91699 57.6486 3.22428 58.3905 3.77126 58.9374C4.31824 59.4844 5.06011 59.7917 5.83366 59.7917H29.167C29.9405 59.7917 30.6824 59.4844 31.2294 58.9374C31.7764 58.3905 32.0837 57.6486 32.0837 56.875C32.0781 54.4042 31.4433 51.9754 30.2391 49.8178C29.0349 47.6602 27.3011 45.8448 25.2011 44.5428ZM52.5003 48.125C50.4813 48.125 48.5076 47.5263 46.8289 46.4046C45.1501 45.2829 43.8417 43.6886 43.0691 41.8233C42.2964 39.9579 42.0942 37.9054 42.4881 35.9252C42.882 33.9449 43.8543 32.126 45.2819 30.6983C46.7096 29.2707 48.5286 28.2984 50.5088 27.9045C52.489 27.5106 54.5416 27.7128 56.4069 28.4854C58.2722 29.2581 59.8665 30.5665 60.9882 32.2453C62.1099 33.924 62.7087 35.8977 62.7087 37.9167C62.7054 40.6231 61.6288 43.2178 59.7151 45.1315C57.8014 47.0452 55.2067 48.1218 52.5003 48.125Z" fill="#6C98F8"/>
<path d="M60.2011 44.5427C59.256 45.6648 58.0771 46.5668 56.7469 47.1856C55.4167 47.8043 53.9674 48.1249 52.5003 48.1249C51.0333 48.1249 49.5839 47.8043 48.2537 47.1856C46.9236 46.5668 45.7447 45.6648 44.7996 44.5427C42.6995 45.8447 40.9657 47.6601 39.7615 49.8177C38.5574 51.9754 37.9226 54.4041 37.917 56.875C37.917 57.6486 38.2243 58.3904 38.7713 58.9374C39.3182 59.4844 40.0601 59.7917 40.8337 59.7917H64.167C64.9405 59.7917 65.6824 59.4844 66.2294 58.9374C66.7764 58.3904 67.0837 57.6486 67.0837 56.875C67.0781 54.4041 66.4433 51.9754 65.2391 49.8177C64.0349 47.6601 62.3011 45.8447 60.2011 44.5427Z" fill="#5085F6"/>
<path d="M50.1867 16.8963L44.3533 11.063C43.8048 10.5242 43.0656 10.2239 42.2967 10.2274C41.5279 10.2309 40.7915 10.5379 40.2478 11.0816C39.7041 11.6252 39.3971 12.3616 39.3936 13.1305C39.3901 13.8994 39.6904 14.6385 40.2292 15.1871L41.0838 16.0417H28.9156L29.7702 15.1871C30.3114 14.639 30.6138 13.8991 30.6114 13.1288C30.6089 12.3585 30.3019 11.6205 29.7572 11.0758C29.2125 10.5312 28.4744 10.2241 27.7042 10.2217C26.9339 10.2193 26.1939 10.5217 25.6458 11.063L19.8125 16.8963C19.5416 17.1671 19.3267 17.4885 19.1801 17.8424C19.0335 18.1962 18.958 18.5755 18.958 18.9585C18.958 19.3415 19.0335 19.7207 19.1801 20.0746C19.3267 20.4284 19.5416 20.7499 19.8125 21.0206L25.6458 26.854C26.1939 27.3952 26.9339 27.6976 27.7042 27.6952C28.4745 27.6927 29.2125 27.3856 29.7572 26.841C30.3018 26.2963 30.6089 25.5582 30.6113 24.7879C30.6137 24.0177 30.3113 23.2777 29.77 22.7296L28.9154 21.875H41.0834L40.2288 22.7296C39.6819 23.2766 39.3747 24.0184 39.3747 24.7918C39.3748 25.5653 39.6821 26.3071 40.229 26.854C40.776 27.4009 41.5177 27.7081 42.2912 27.7081C43.0647 27.708 43.8064 27.4007 44.3533 26.8538L50.1867 21.0205C50.4576 20.7497 50.6724 20.4282 50.819 20.0744C50.9656 19.7206 51.0411 19.3414 51.0411 18.9584C51.0411 18.5754 50.9656 18.1962 50.819 17.8423C50.6724 17.4885 50.4576 17.1671 50.1867 16.8963Z" fill="#2466F4"/>
</svg>