<svg width="16" height="15" viewBox="0 0 16 15" fill="none" xmlns="http://www.w3.org/2000/svg">
<path d="M0 12.5918V6.66504C0 6.25944 0.120768 5.94499 0.362305 5.72168C0.608398 5.49382 0.947917 5.37988 1.38086 5.37988H3.01465V2.11914C3.01465 1.41276 3.19238 0.884115 3.54785 0.533203C3.90788 0.177734 4.44564 0 5.16113 0H13.3984C14.1139 0 14.6494 0.177734 15.0049 0.533203C15.3649 0.884115 15.5449 1.41276 15.5449 2.11914V12.5439C15.5449 13.2458 15.3649 13.7721 15.0049 14.123C14.6494 14.4785 14.1139 14.6562 13.3984 14.6562H2.06445C1.37174 14.6562 0.854492 14.4831 0.512695 14.1367C0.170898 13.7904 0 13.2754 0 12.5918ZM1.10059 12.5918C1.10059 12.8652 1.19173 13.0931 1.37402 13.2754C1.56087 13.4622 1.79102 13.5557 2.06445 13.5557C2.32878 13.5557 2.55208 13.4645 2.73438 13.2822C2.92122 13.1045 3.01465 12.8743 3.01465 12.5918V6.48047H1.50391C1.3763 6.48047 1.27604 6.51693 1.20312 6.58984C1.13477 6.6582 1.10059 6.75391 1.10059 6.87695V12.5918ZM3.88281 13.5557H13.3779C13.7197 13.5557 13.9818 13.4645 14.1641 13.2822C14.3509 13.1045 14.4443 12.8379 14.4443 12.4824V2.18066C14.4443 1.8252 14.3509 1.55632 14.1641 1.37402C13.9818 1.19173 13.7197 1.10059 13.3779 1.10059H5.18164C4.83984 1.10059 4.57552 1.19173 4.38867 1.37402C4.20638 1.55632 4.11523 1.8252 4.11523 2.18066V12.5234C4.11523 12.9108 4.03776 13.2549 3.88281 13.5557ZM5.89258 4.07422C5.76953 4.07422 5.66699 4.0332 5.58496 3.95117C5.50293 3.86458 5.46191 3.76204 5.46191 3.64355C5.46191 3.52962 5.50293 3.43392 5.58496 3.35645C5.66699 3.27441 5.76953 3.2334 5.89258 3.2334H12.6807C12.7992 3.2334 12.8994 3.27441 12.9814 3.35645C13.0635 3.43392 13.1045 3.52962 13.1045 3.64355C13.1045 3.76204 13.0635 3.86458 12.9814 3.95117C12.8994 4.0332 12.7992 4.07422 12.6807 4.07422H5.89258ZM5.89258 6.48047C5.76953 6.48047 5.66699 6.44173 5.58496 6.36426C5.50293 6.28223 5.46191 6.18197 5.46191 6.06348C5.46191 5.94499 5.50293 5.84473 5.58496 5.7627C5.66699 5.68066 5.76953 5.63965 5.89258 5.63965H12.6807C12.7992 5.63965 12.8994 5.68066 12.9814 5.7627C13.0635 5.84473 13.1045 5.94499 13.1045 6.06348C13.1045 6.18197 13.0635 6.28223 12.9814 6.36426C12.8994 6.44173 12.7992 6.48047 12.6807 6.48047H5.89258ZM6.2959 11.3545C6.03158 11.3545 5.82422 11.2816 5.67383 11.1357C5.52799 10.9854 5.45508 10.7803 5.45508 10.5205V8.89355C5.45508 8.62923 5.52799 8.42415 5.67383 8.27832C5.82422 8.12793 6.03158 8.05273 6.2959 8.05273H8.06641C8.32617 8.05273 8.52897 8.12793 8.6748 8.27832C8.8252 8.42415 8.90039 8.62923 8.90039 8.89355V10.5205C8.90039 10.7803 8.8252 10.9854 8.6748 11.1357C8.52897 11.2816 8.32617 11.3545 8.06641 11.3545H6.2959ZM10.1309 8.89355C10.0078 8.89355 9.90527 8.85482 9.82324 8.77734C9.74577 8.69531 9.70703 8.59733 9.70703 8.4834C9.70703 8.36035 9.74577 8.25781 9.82324 8.17578C9.90527 8.09375 10.0078 8.05273 10.1309 8.05273H12.6738C12.7969 8.05273 12.8971 8.09375 12.9746 8.17578C13.0566 8.25781 13.0977 8.36035 13.0977 8.4834C13.0977 8.59733 13.0566 8.69531 12.9746 8.77734C12.8971 8.85482 12.7969 8.89355 12.6738 8.89355H10.1309ZM10.1309 11.3545C10.0078 11.3545 9.90527 11.3158 9.82324 11.2383C9.74577 11.1562 9.70703 11.0583 9.70703 10.9443C9.70703 10.8213 9.74577 10.7188 9.82324 10.6367C9.90527 10.5547 10.0078 10.5137 10.1309 10.5137H12.6738C12.7969 10.5137 12.8971 10.5547 12.9746 10.6367C13.0566 10.7188 13.0977 10.8213 13.0977 10.9443C13.0977 11.0583 13.0566 11.1562 12.9746 11.2383C12.8971 11.3158 12.7969 11.3545 12.6738 11.3545H10.1309Z" fill="black"/>
</svg>
