<svg width="59" height="58" viewBox="0 0 59 58" fill="none" xmlns="http://www.w3.org/2000/svg">
<path d="M0.891602 29.3223C0.891602 28.2741 1.26758 27.374 2.01953 26.6221C2.77148 25.8473 3.67155 25.46 4.71973 25.46H25.6719V4.54199C25.6719 3.49382 26.0479 2.59375 26.7998 1.8418C27.5518 1.08984 28.4518 0.713867 29.5 0.713867C30.571 0.713867 31.4824 1.08984 32.2344 1.8418C32.9863 2.59375 33.3623 3.49382 33.3623 4.54199V25.46H54.2803C55.3285 25.46 56.2285 25.8473 56.9805 26.6221C57.7324 27.374 58.1084 28.2741 58.1084 29.3223C58.1084 30.3932 57.7324 31.3047 56.9805 32.0566C56.2285 32.7858 55.3285 33.1504 54.2803 33.1504H33.3623V54.1367C33.3623 55.1621 32.9863 56.0508 32.2344 56.8027C31.4824 57.5547 30.571 57.9307 29.5 57.9307C28.4518 57.9307 27.5518 57.5547 26.7998 56.8027C26.0479 56.0508 25.6719 55.1621 25.6719 54.1367V33.1504H4.71973C3.67155 33.1504 2.77148 32.7858 2.01953 32.0566C1.26758 31.3047 0.891602 30.3932 0.891602 29.3223Z" fill="#2466F4"/>
</svg>
