<svg width="347" height="347" viewBox="0 0 347 347" fill="none" xmlns="http://www.w3.org/2000/svg">
<rect width="347" height="347" rx="173.5" fill="#2466F4" fill-opacity="0.15"/>
<path d="M213.601 126.5C213.601 148.591 195.692 166.5 173.601 166.5C151.509 166.5 133.601 148.591 133.601 126.5C133.601 104.409 151.509 86.5 173.601 86.5C195.692 86.5 213.601 104.409 213.601 126.5Z" fill="#2466F4"/>
<path d="M231.101 260.5C247.669 260.5 261.58 246.404 254.15 231.595C249.801 222.928 243.497 214.96 235.473 208.174C219.063 194.296 196.807 186.5 173.601 186.5C150.394 186.5 128.138 194.296 111.729 208.174C103.705 214.96 97.4003 222.928 93.0521 231.595C85.622 246.404 99.5323 260.5 116.101 260.5L231.101 260.5Z" fill="#2466F4"/>
</svg>
