<svg width="70" height="70" viewBox="0 0 70 70" fill="none" xmlns="http://www.w3.org/2000/svg">
<path d="M51.7319 42.6472L44.6561 49.1532C41.0178 52.325 36.7431 54.6817 32.1189 56.0654L33.9963 64.8246C34.0922 65.2719 34.292 65.6903 34.5794 66.0461C34.8669 66.402 35.2339 66.6852 35.651 66.873C36.0681 67.0609 36.5235 67.148 36.9804 67.1274C37.4374 67.1067 37.8831 66.979 38.2816 66.7544L49.672 60.33C51.2751 59.3559 52.5274 57.8978 53.2482 56.1659C53.969 54.4341 54.121 52.518 53.6824 50.6942L51.7319 42.6472ZM21.1917 25.5963L27.2837 18.3633L19.6863 16.5303C17.8393 15.8862 15.8217 15.9323 14.006 16.66C12.1903 17.3877 10.6993 18.7479 9.80841 20.4893L3.39119 31.864C3.16634 32.2624 3.03838 32.7082 3.01765 33.1652C2.99691 33.6222 3.08399 34.0777 3.27184 34.4948C3.45969 34.912 3.74305 35.2791 4.09901 35.5665C4.45497 35.8539 4.87355 36.0535 5.32092 36.1492L14.2831 38.0703C15.7689 33.5096 18.1139 29.2754 21.1917 25.5963V25.5963ZM48.807 25.7141C49.6723 25.7141 50.5181 25.4575 51.2376 24.9768C51.9571 24.496 52.5178 23.8128 52.849 23.0133C53.1801 22.2139 53.2667 21.3342 53.0979 20.4856C52.9291 19.6369 52.5124 18.8574 51.9006 18.2455C51.2887 17.6336 50.5092 17.217 49.6605 17.0482C48.8118 16.8793 47.9322 16.966 47.1327 17.2971C46.3333 17.6283 45.65 18.189 45.1693 18.9085C44.6886 19.6279 44.432 20.4738 44.432 21.3391C44.4324 22.4993 44.8935 23.6118 45.7139 24.4322C46.5342 25.2526 47.6468 25.7137 48.807 25.7141V25.7141Z" fill="#2466F4"/>
<path d="M65.9202 6.01416C65.7886 5.5146 65.5268 5.05891 65.1615 4.69361C64.7962 4.32832 64.3405 4.0665 63.841 3.9349C57.8579 2.37963 51.5571 2.54641 45.6646 4.416C39.7721 6.28559 34.5277 9.78193 30.5357 14.5022L21.1918 25.5963C16.524 31.1637 13.5629 37.9604 12.664 45.1699C12.6064 45.6129 12.6513 46.0633 12.7952 46.4863C12.9392 46.9093 13.1783 47.2935 13.4943 47.6094L22.5362 56.6514C22.807 56.9223 23.1284 57.1373 23.4823 57.2839C23.8361 57.4305 24.2153 57.506 24.5983 57.506C24.6824 57.506 24.7664 57.5017 24.8518 57.4946C32.172 56.8897 39.109 53.9679 44.656 49.1533L55.34 39.3295C60.077 35.3479 63.5861 30.1032 65.4591 24.2054C67.3321 18.3076 67.492 11.9993 65.9202 6.01416V6.01416ZM48.8071 25.714C47.9418 25.714 47.0959 25.4574 46.3765 24.9766C45.657 24.4959 45.0962 23.8126 44.7651 23.0132C44.434 22.2138 44.3473 21.3341 44.5161 20.4854C44.6849 19.6368 45.1016 18.8572 45.7135 18.2454C46.3253 17.6335 47.1049 17.2168 47.9536 17.048C48.8022 16.8792 49.6819 16.9659 50.4813 17.297C51.2807 17.6281 51.964 18.1889 52.4448 18.9083C52.9255 19.6278 53.1821 20.4737 53.1821 21.339C53.1817 22.4992 52.7206 23.6117 51.9002 24.4321C51.0798 25.2525 49.9673 25.7136 48.8071 25.714V25.714Z" fill="#BBD0FC"/>
</svg>
