<svg width="15" height="15" viewBox="0 0 15 15" fill="none" xmlns="http://www.w3.org/2000/svg">
<path d="M0.821289 6.2793C0.821289 5.52734 0.962565 4.82324 1.24512 4.16699C1.52767 3.50618 1.9196 2.92513 2.4209 2.42383C2.9222 1.92253 3.50098 1.5306 4.15723 1.24805C4.81803 0.965495 5.52441 0.824219 6.27637 0.824219C7.02832 0.824219 7.73242 0.965495 8.38867 1.24805C9.04948 1.5306 9.63053 1.92253 10.1318 2.42383C10.6331 2.92513 11.0251 3.50618 11.3076 4.16699C11.5902 4.82324 11.7314 5.52734 11.7314 6.2793C11.7314 6.90365 11.6312 7.49609 11.4307 8.05664C11.2347 8.61719 10.9613 9.12533 10.6104 9.58105L13.9531 12.9443C14.026 13.0173 14.0807 13.1016 14.1172 13.1973C14.1582 13.293 14.1787 13.3955 14.1787 13.5049C14.1787 13.6553 14.1445 13.792 14.0762 13.915C14.0124 14.0381 13.9212 14.1338 13.8027 14.2021C13.6842 14.2751 13.5475 14.3115 13.3926 14.3115C13.2832 14.3115 13.1784 14.291 13.0781 14.25C12.9824 14.2135 12.8936 14.1566 12.8115 14.0791L9.44824 10.709C9.00163 11.028 8.50944 11.2786 7.97168 11.4609C7.43392 11.6432 6.86882 11.7344 6.27637 11.7344C5.52441 11.7344 4.81803 11.5931 4.15723 11.3105C3.50098 11.028 2.9222 10.6361 2.4209 10.1348C1.9196 9.63346 1.52767 9.05469 1.24512 8.39844C0.962565 7.73763 0.821289 7.03125 0.821289 6.2793ZM1.99023 6.2793C1.99023 6.87174 2.09961 7.42773 2.31836 7.94727C2.54167 8.46224 2.84928 8.91569 3.24121 9.30762C3.6377 9.69954 4.09342 10.0072 4.6084 10.2305C5.12793 10.4538 5.68392 10.5654 6.27637 10.5654C6.86882 10.5654 7.42253 10.4538 7.9375 10.2305C8.45703 10.0072 8.91276 9.69954 9.30469 9.30762C9.69661 8.91569 10.0042 8.46224 10.2275 7.94727C10.4508 7.42773 10.5625 6.87174 10.5625 6.2793C10.5625 5.68685 10.4508 5.13314 10.2275 4.61816C10.0042 4.09863 9.69661 3.6429 9.30469 3.25098C8.91276 2.85449 8.45703 2.54688 7.9375 2.32812C7.42253 2.10482 6.86882 1.99316 6.27637 1.99316C5.68392 1.99316 5.12793 2.10482 4.6084 2.32812C4.09342 2.54688 3.6377 2.85449 3.24121 3.25098C2.84928 3.6429 2.54167 4.09863 2.31836 4.61816C2.09961 5.13314 1.99023 5.68685 1.99023 6.2793Z" fill="#9B9B9B"/>
</svg>
