<svg width="26" height="31" viewBox="0 0 26 31" fill="none" xmlns="http://www.w3.org/2000/svg">
<path d="M5.15234 30.7988C3.72135 30.7988 2.64583 30.4434 1.92578 29.7324C1.21484 29.0306 0.859375 27.9733 0.859375 26.5605V13.0664C0.859375 11.6536 1.21484 10.5964 1.92578 9.89453C2.64583 9.18359 3.72135 8.82812 5.15234 8.82812H9.33594V11.0293H5.17969C4.49609 11.0293 3.97201 11.2116 3.60742 11.5762C3.24284 11.9316 3.06055 12.4648 3.06055 13.1758V26.4512C3.06055 27.1621 3.24284 27.6953 3.60742 28.0508C3.97201 28.4154 4.49609 28.5977 5.17969 28.5977H20.793C21.4674 28.5977 21.9915 28.4154 22.3652 28.0508C22.7389 27.6953 22.9258 27.1621 22.9258 26.4512V13.1758C22.9258 12.4648 22.7389 11.9316 22.3652 11.5762C21.9915 11.2116 21.4674 11.0293 20.793 11.0293H16.6367V8.82812H20.834C22.265 8.82812 23.3359 9.18359 24.0469 9.89453C24.7669 10.5964 25.127 11.6536 25.127 13.0664V26.5605C25.127 27.9733 24.7669 29.0306 24.0469 29.7324C23.3359 30.4434 22.265 30.7988 20.834 30.7988H5.15234ZM12.9863 20.0801C12.6947 20.0801 12.4395 19.9753 12.2207 19.7656C12.0111 19.556 11.9062 19.3099 11.9062 19.0273V5.10938L11.9883 3.07227L11.2227 3.87891L9.10352 6.13477C8.91211 6.35352 8.66146 6.46289 8.35156 6.46289C8.06901 6.46289 7.83203 6.37174 7.64062 6.18945C7.45833 6.00716 7.36719 5.7793 7.36719 5.50586C7.36719 5.24154 7.47656 5 7.69531 4.78125L12.1934 0.433594C12.3392 0.296875 12.4714 0.205729 12.5898 0.160156C12.7174 0.105469 12.8496 0.078125 12.9863 0.078125C13.1322 0.078125 13.2643 0.105469 13.3828 0.160156C13.5104 0.205729 13.6426 0.296875 13.7793 0.433594L18.291 4.78125C18.5007 5 18.6055 5.24154 18.6055 5.50586C18.6055 5.7793 18.5098 6.00716 18.3184 6.18945C18.127 6.37174 17.89 6.46289 17.6074 6.46289C17.3066 6.46289 17.0605 6.35352 16.8691 6.13477L14.7637 3.87891L13.998 3.07227L14.0801 5.10938V19.0273C14.0801 19.3099 13.9707 19.556 13.752 19.7656C13.5423 19.9753 13.2871 20.0801 12.9863 20.0801Z" fill="black"/>
</svg>
