<svg width="19" height="24" viewBox="0 0 19 24" fill="none" xmlns="http://www.w3.org/2000/svg">
<path d="M10.373 23.1934C10.2493 23.1934 10.1419 23.151 10.0508 23.0664C9.96615 22.9883 9.91406 22.8809 9.89453 22.7441C9.74479 21.6764 9.58203 20.778 9.40625 20.0488C9.23698 19.3262 9.00911 18.7305 8.72266 18.2617C8.4362 17.793 8.05859 17.4186 7.58984 17.1387C7.1276 16.8587 6.53516 16.6341 5.8125 16.4648C5.09635 16.2891 4.21094 16.1328 3.15625 15.9961C3.01302 15.9831 2.89909 15.931 2.81445 15.8398C2.72982 15.7487 2.6875 15.638 2.6875 15.5078C2.6875 15.3841 2.72982 15.2767 2.81445 15.1855C2.89909 15.0944 3.01302 15.0423 3.15625 15.0293C4.21094 14.9121 5.09961 14.7721 5.82227 14.6094C6.54492 14.4466 7.14062 14.222 7.60938 13.9355C8.07812 13.6491 8.45573 13.2682 8.74219 12.793C9.02865 12.3177 9.25651 11.7155 9.42578 10.9863C9.60156 10.2507 9.75781 9.3457 9.89453 8.27148C9.91406 8.14128 9.96615 8.03711 10.0508 7.95898C10.1419 7.87435 10.2493 7.83203 10.373 7.83203C10.5033 7.83203 10.6107 7.87435 10.6953 7.95898C10.7799 8.03711 10.8353 8.14128 10.8613 8.27148C10.998 9.3457 11.151 10.2507 11.3203 10.9863C11.4961 11.7155 11.724 12.3177 12.0039 12.793C12.2904 13.2682 12.668 13.6491 13.1367 13.9355C13.6055 14.222 14.2012 14.4466 14.9238 14.6094C15.6465 14.7721 16.5384 14.9121 17.5996 15.0293C17.7363 15.0423 17.847 15.0944 17.9316 15.1855C18.0163 15.2767 18.0586 15.3841 18.0586 15.5078C18.0586 15.638 18.0163 15.7487 17.9316 15.8398C17.847 15.931 17.7363 15.9831 17.5996 15.9961C16.5384 16.1133 15.6465 16.2533 14.9238 16.416C14.2012 16.5788 13.6055 16.8034 13.1367 17.0898C12.668 17.3698 12.2904 17.7474 12.0039 18.2227C11.724 18.6979 11.4961 19.3034 11.3203 20.0391C11.151 20.7747 10.998 21.6764 10.8613 22.7441C10.8353 22.8809 10.7799 22.9883 10.6953 23.0664C10.6107 23.151 10.5033 23.1934 10.373 23.1934ZM3.75195 12.3926C3.55664 12.3926 3.44596 12.2852 3.41992 12.0703C3.3418 11.4193 3.25716 10.9082 3.16602 10.5371C3.08138 10.166 2.94141 9.88932 2.74609 9.70703C2.55729 9.51823 2.27083 9.375 1.88672 9.27734C1.50911 9.17969 0.988281 9.07552 0.324219 8.96484C0.102865 8.93229 -0.0078125 8.82161 -0.0078125 8.63281C-0.0078125 8.45052 0.0898438 8.3431 0.285156 8.31055C0.955729 8.18034 1.48307 8.06641 1.86719 7.96875C2.2513 7.86458 2.54102 7.72135 2.73633 7.53906C2.93164 7.35677 3.07487 7.08659 3.16602 6.72852C3.25716 6.36393 3.3418 5.85612 3.41992 5.20508C3.44596 4.99023 3.55664 4.88281 3.75195 4.88281C3.94727 4.88281 4.05794 4.98698 4.08398 5.19531C4.16862 5.85286 4.25326 6.37044 4.33789 6.74805C4.42904 7.12565 4.56901 7.41211 4.75781 7.60742C4.95312 7.79622 5.24284 7.9362 5.62695 8.02734C6.01107 8.11849 6.54167 8.21289 7.21875 8.31055C7.30339 8.31706 7.37174 8.34961 7.42383 8.4082C7.48242 8.4668 7.51172 8.54167 7.51172 8.63281C7.51172 8.8151 7.41406 8.92578 7.21875 8.96484C6.54167 9.09505 6.01107 9.21224 5.62695 9.31641C5.24935 9.41406 4.96289 9.55729 4.76758 9.74609C4.57878 9.92839 4.4388 10.2018 4.34766 10.5664C4.25651 10.931 4.16862 11.4388 4.08398 12.0898C4.07096 12.1745 4.03516 12.2461 3.97656 12.3047C3.91797 12.3633 3.8431 12.3926 3.75195 12.3926ZM8.47852 5.67383C8.35482 5.67383 8.2832 5.60872 8.26367 5.47852C8.18555 5.08138 8.11719 4.76888 8.05859 4.54102C8.00651 4.31315 7.92188 4.14062 7.80469 4.02344C7.69401 3.89974 7.52148 3.80208 7.28711 3.73047C7.05273 3.65885 6.72396 3.58724 6.30078 3.51562C6.17057 3.48958 6.10547 3.41471 6.10547 3.29102C6.10547 3.17383 6.17057 3.10221 6.30078 3.07617C6.72396 2.99805 7.05273 2.92643 7.28711 2.86133C7.52148 2.78971 7.69401 2.69531 7.80469 2.57812C7.92188 2.45443 8.00651 2.27865 8.05859 2.05078C8.11719 1.82292 8.18555 1.51042 8.26367 1.11328C8.2832 0.983073 8.35482 0.917969 8.47852 0.917969C8.5957 0.917969 8.66732 0.983073 8.69336 1.11328C8.76497 1.51042 8.83008 1.82292 8.88867 2.05078C8.94727 2.27865 9.0319 2.45443 9.14258 2.57812C9.25977 2.69531 9.43555 2.78971 9.66992 2.86133C9.9043 2.92643 10.2331 2.99805 10.6562 3.07617C10.7865 3.10221 10.8516 3.17383 10.8516 3.29102C10.8516 3.41471 10.7865 3.48958 10.6562 3.51562C10.2331 3.58724 9.9043 3.65885 9.66992 3.73047C9.43555 3.80208 9.25977 3.89974 9.14258 4.02344C9.0319 4.14062 8.94727 4.31315 8.88867 4.54102C8.83008 4.76888 8.76497 5.08138 8.69336 5.47852C8.66732 5.60872 8.5957 5.67383 8.47852 5.67383Z" fill="#2466F4"/>
</svg>
