<svg width="14" height="14" viewBox="0 0 14 14" fill="none" xmlns="http://www.w3.org/2000/svg">
<path d="M2.14648 13.5146C1.43555 13.5146 0.900065 13.3369 0.540039 12.9814C0.180013 12.6305 0 12.1019 0 11.3955V3.52051C0 2.81413 0.180013 2.28548 0.540039 1.93457C0.900065 1.5791 1.43555 1.40137 2.14648 1.40137H9.8916L8.79102 2.50195H2.16699C1.8252 2.50195 1.56087 2.5931 1.37402 2.77539C1.19173 2.95768 1.10059 3.22656 1.10059 3.58203V11.3408C1.10059 11.6963 1.19173 11.9652 1.37402 12.1475C1.56087 12.3252 1.8252 12.4141 2.16699 12.4141H10.1582C10.3952 12.4141 10.5957 12.3252 10.7598 12.1475C10.9284 11.9652 11.0127 11.6963 11.0127 11.3408V4.77832L12.1133 3.67773V11.3955C12.1133 12.1019 11.9424 12.6305 11.6006 12.9814C11.2633 13.3369 10.7871 13.5146 10.1719 13.5146H2.14648ZM4.63477 9.08496C4.57096 9.1123 4.51172 9.09863 4.45703 9.04395C4.4069 8.9847 4.39551 8.92546 4.42285 8.86621L5.03809 7.58105L11.416 1.20312L12.3525 2.12598L5.96777 8.50391L4.63477 9.08496ZM12.8584 1.62695L11.9219 0.683594L12.4209 0.191406C12.5348 0.0820312 12.6647 0.0227865 12.8105 0.0136719C12.9609 0.00455729 13.0885 0.0524089 13.1934 0.157227L13.3506 0.321289C13.4691 0.435221 13.526 0.567383 13.5215 0.717773C13.5215 0.863607 13.4645 0.998047 13.3506 1.12109L12.8584 1.62695Z" fill="black"/>
</svg>
