<svg width="25" height="25" viewBox="0 0 25 25" fill="none" xmlns="http://www.w3.org/2000/svg">
<g clip-path="url(#clip0_4376_6608)">
<path d="M7.29141 24.8895C7.10607 24.8581 6.92276 24.8156 6.74245 24.7625L3.75391 23.825C2.67319 23.5075 1.7241 22.8491 1.04827 21.9479C0.37244 21.0468 0.00609541 19.9514 0.00390625 18.825V6.24997C0.0049894 5.39376 0.217137 4.55103 0.621571 3.79636C1.02601 3.0417 1.61025 2.39838 2.32259 1.92335C3.03494 1.44831 3.8534 1.15622 4.70555 1.07293C5.55769 0.989633 6.41723 1.1177 7.20807 1.4458L7.29141 1.48434V24.8895ZM21.5414 1.21559L21.5195 1.2083L18.6914 0.270801C18.3714 0.16703 18.0421 0.0948113 17.7081 0.0551758V23.2448L19.8477 23.8614C20.4607 24.0106 21.0997 24.0187 21.7163 23.8849C22.3329 23.7512 22.9111 23.4791 23.4073 23.0893C23.9034 22.6995 24.3046 22.2021 24.5804 21.6346C24.8563 21.0672 24.9997 20.4445 24.9997 19.8135V6.1208C24.9982 5.04667 24.6652 3.9992 24.0463 3.12132C23.4273 2.24344 22.5526 1.57792 21.5414 1.21559V1.21559ZM15.6247 0.197884C15.6247 0.197884 9.53828 1.94059 9.37474 1.9583V24.875C9.47891 24.8531 15.6247 23.1708 15.6247 23.1708V0.197884Z" fill="#9B9B9B"/>
</g>
<defs>
<clipPath id="clip0_4376_6608">
<rect width="25" height="25" fill="white"/>
</clipPath>
</defs>
</svg>
