<svg width="25" height="25" viewBox="0 0 25 25" fill="none" xmlns="http://www.w3.org/2000/svg">
<path d="M21.875 17.7085H10.4167V19.7918C10.4167 20.0681 10.3069 20.333 10.1116 20.5284C9.91622 20.7238 9.65127 20.8335 9.375 20.8335C9.09873 20.8335 8.83378 20.7238 8.63843 20.5284C8.44308 20.333 8.33333 20.0681 8.33333 19.7918V17.7085H6.25V19.7918C6.25 20.0681 6.14025 20.333 5.9449 20.5284C5.74955 20.7238 5.4846 20.8335 5.20833 20.8335C4.93207 20.8335 4.66711 20.7238 4.47176 20.5284C4.27641 20.333 4.16667 20.0681 4.16667 19.7918V17.7085H3.125C2.2962 17.7085 1.50134 18.0377 0.915291 18.6238C0.32924 19.2098 0 20.0047 0 20.8335C0 21.6623 0.32924 22.4572 0.915291 23.0432C1.50134 23.6293 2.2962 23.9585 3.125 23.9585H21.875C22.7038 23.9585 23.4987 23.6293 24.0847 23.0432C24.6708 22.4572 25 21.6623 25 20.8335C25 20.0047 24.6708 19.2098 24.0847 18.6238C23.4987 18.0377 22.7038 17.7085 21.875 17.7085Z" fill="#9B9B9B"/>
<path d="M21.875 9.375H10.4167V11.4583C10.4167 11.7346 10.3069 11.9996 10.1116 12.1949C9.91622 12.3903 9.65127 12.5 9.375 12.5C9.09873 12.5 8.83378 12.3903 8.63843 12.1949C8.44308 11.9996 8.33333 11.7346 8.33333 11.4583V9.375H6.25V11.4583C6.25 11.7346 6.14025 11.9996 5.9449 12.1949C5.74955 12.3903 5.4846 12.5 5.20833 12.5C4.93207 12.5 4.66711 12.3903 4.47176 12.1949C4.27641 11.9996 4.16667 11.7346 4.16667 11.4583V9.375H3.125C2.2962 9.375 1.50134 9.70424 0.915291 10.2903C0.32924 10.8763 0 11.6712 0 12.5C0 13.3288 0.32924 14.1237 0.915291 14.7097C1.50134 15.2958 2.2962 15.625 3.125 15.625H21.875C22.7038 15.625 23.4987 15.2958 24.0847 14.7097C24.6708 14.1237 25 13.3288 25 12.5C25 11.6712 24.6708 10.8763 24.0847 10.2903C23.4987 9.70424 22.7038 9.375 21.875 9.375Z" fill="#9B9B9B"/>
<path d="M21.875 1.0415H10.4167V3.12484C10.4167 3.4011 10.3069 3.66606 10.1116 3.86141C9.91622 4.05676 9.65127 4.1665 9.375 4.1665C9.09873 4.1665 8.83378 4.05676 8.63843 3.86141C8.44308 3.66606 8.33333 3.4011 8.33333 3.12484V1.0415H6.25V3.12484C6.25 3.4011 6.14025 3.66606 5.9449 3.86141C5.74955 4.05676 5.4846 4.1665 5.20833 4.1665C4.93207 4.1665 4.66711 4.05676 4.47176 3.86141C4.27641 3.66606 4.16667 3.4011 4.16667 3.12484V1.0415H3.125C2.2962 1.0415 1.50134 1.37074 0.915291 1.9568C0.32924 2.54285 0 3.3377 0 4.1665C0 4.99531 0.32924 5.79016 0.915291 6.37621C1.50134 6.96226 2.2962 7.2915 3.125 7.2915H21.875C22.7038 7.2915 23.4987 6.96226 24.0847 6.37621C24.6708 5.79016 25 4.99531 25 4.1665C25 3.3377 24.6708 2.54285 24.0847 1.9568C23.4987 1.37074 22.7038 1.0415 21.875 1.0415V1.0415Z" fill="#9B9B9B"/>
</svg>
