<svg width="8" height="15" viewBox="0 0 8 15" fill="none" xmlns="http://www.w3.org/2000/svg">
<path d="M8.00781 7.35938C8.00781 7.49479 7.98177 7.61979 7.92969 7.73438C7.8776 7.84896 7.79948 7.95833 7.69531 8.0625L1.60938 14.0156C1.4375 14.1927 1.22396 14.2812 0.96875 14.2812C0.802083 14.2812 0.648438 14.2396 0.507812 14.1562C0.367188 14.0781 0.255208 13.9688 0.171875 13.8281C0.09375 13.6927 0.0546875 13.5417 0.0546875 13.375C0.0546875 13.125 0.148438 12.9036 0.335938 12.7109L5.82031 7.35938L0.335938 2.00781C0.148438 1.8151 0.0546875 1.59635 0.0546875 1.35156C0.0546875 1.17969 0.09375 1.02604 0.171875 0.890625C0.255208 0.755208 0.367188 0.648438 0.507812 0.570312C0.648438 0.486979 0.802083 0.445312 0.96875 0.445312C1.22396 0.445312 1.4375 0.53125 1.60938 0.703125L7.69531 6.65625C7.79948 6.76042 7.8776 6.86979 7.92969 6.98438C7.98177 7.09896 8.00781 7.22396 8.00781 7.35938Z" fill="#CFCFCF"/>
</svg>
