<svg width="23" height="14" viewBox="0 0 23 14" fill="none" xmlns="http://www.w3.org/2000/svg">
<path d="M11.5 13.5625C10.4583 13.5625 9.47135 13.4349 8.53906 13.1797C7.61198 12.9297 6.75 12.599 5.95312 12.1875C5.16146 11.7708 4.45052 11.3125 3.82031 10.8125C3.1901 10.3125 2.65104 9.8125 2.20312 9.3125C1.75521 8.80729 1.41146 8.34115 1.17188 7.91406C0.9375 7.48177 0.820312 7.13281 0.820312 6.86719C0.820312 6.60156 0.9375 6.25521 1.17188 5.82812C1.41146 5.39583 1.75521 4.92969 2.20312 4.42969C2.65104 3.92448 3.1901 3.42188 3.82031 2.92188C4.45573 2.42188 5.16927 1.96615 5.96094 1.55469C6.75781 1.13802 7.61979 0.804688 8.54688 0.554688C9.47917 0.299479 10.4635 0.171875 11.5 0.171875C12.5469 0.171875 13.5365 0.299479 14.4688 0.554688C15.4062 0.804688 16.2708 1.13802 17.0625 1.55469C17.8594 1.96615 18.5703 2.42188 19.1953 2.92188C19.8255 3.42188 20.362 3.92448 20.8047 4.42969C21.2474 4.92969 21.5859 5.39583 21.8203 5.82812C22.0547 6.25521 22.1719 6.60156 22.1719 6.86719C22.1719 7.13281 22.0547 7.48177 21.8203 7.91406C21.5859 8.34115 21.2474 8.80729 20.8047 9.3125C20.362 9.8125 19.8255 10.3125 19.1953 10.8125C18.5703 11.3125 17.862 11.7708 17.0703 12.1875C16.2786 12.599 15.4141 12.9297 14.4766 13.1797C13.5443 13.4349 12.5521 13.5625 11.5 13.5625ZM11.5 12.3281C12.3542 12.3281 13.1745 12.2214 13.9609 12.0078C14.7526 11.7943 15.4948 11.513 16.1875 11.1641C16.8802 10.8099 17.5078 10.4245 18.0703 10.0078C18.638 9.59115 19.125 9.17969 19.5312 8.77344C19.9375 8.36198 20.25 7.98698 20.4688 7.64844C20.6927 7.3099 20.8047 7.04948 20.8047 6.86719C20.8047 6.71094 20.6927 6.47135 20.4688 6.14844C20.25 5.82552 19.9375 5.45833 19.5312 5.04688C19.125 4.63021 18.638 4.21094 18.0703 3.78906C17.5078 3.36719 16.8802 2.97656 16.1875 2.61719C15.4948 2.2526 14.7526 1.96094 13.9609 1.74219C13.1745 1.51823 12.3542 1.40625 11.5 1.40625C10.6406 1.40625 9.8151 1.51823 9.02344 1.74219C8.23177 1.96094 7.48958 2.2526 6.79688 2.61719C6.10417 2.97656 5.47656 3.36719 4.91406 3.78906C4.35156 4.21094 3.86458 4.63021 3.45312 5.04688C3.04688 5.45833 2.73438 5.82552 2.51562 6.14844C2.29688 6.47135 2.1875 6.71094 2.1875 6.86719C2.1875 7.04948 2.29688 7.3099 2.51562 7.64844C2.73438 7.98698 3.04688 8.36198 3.45312 8.77344C3.86458 9.17969 4.35156 9.59115 4.91406 10.0078C5.47656 10.4245 6.10417 10.8099 6.79688 11.1641C7.48958 11.513 8.23177 11.7943 9.02344 12.0078C9.8151 12.2214 10.6406 12.3281 11.5 12.3281ZM11.5 11.2344C10.8958 11.2344 10.3281 11.1224 9.79688 10.8984C9.26562 10.6693 8.79948 10.3542 8.39844 9.95312C7.9974 9.55208 7.68229 9.08594 7.45312 8.55469C7.22396 8.02344 7.10938 7.45573 7.10938 6.85156C7.10938 6.2474 7.22396 5.67969 7.45312 5.14844C7.68229 4.61719 7.9974 4.15104 8.39844 3.75C8.79948 3.34896 9.26562 3.03646 9.79688 2.8125C10.3281 2.58333 10.8958 2.46875 11.5 2.46875C12.1042 2.46875 12.6693 2.58333 13.1953 2.8125C13.7266 3.03646 14.1927 3.34896 14.5938 3.75C15 4.15104 15.3151 4.61719 15.5391 5.14844C15.7682 5.67969 15.8828 6.2474 15.8828 6.85156C15.8828 7.45573 15.7682 8.02344 15.5391 8.55469C15.3151 9.08594 15 9.55208 14.5938 9.95312C14.1927 10.3542 13.7266 10.6693 13.1953 10.8984C12.6693 11.1224 12.1042 11.2344 11.5 11.2344ZM11.5 8.3125C11.901 8.3125 12.2422 8.17188 12.5234 7.89062C12.8099 7.60417 12.9531 7.26042 12.9531 6.85938C12.9531 6.45833 12.8099 6.11719 12.5234 5.83594C12.2422 5.54948 11.901 5.40625 11.5 5.40625C11.099 5.40625 10.7552 5.54948 10.4688 5.83594C10.1875 6.11719 10.0469 6.45833 10.0469 6.85938C10.0469 7.26042 10.1875 7.60417 10.4688 7.89062C10.7552 8.17188 11.099 8.3125 11.5 8.3125Z" fill="#CFCFCF"/>
</svg>
