<svg width="23" height="15" viewBox="0 0 23 15" fill="none" xmlns="http://www.w3.org/2000/svg">
<path d="M11.5 0.671875C12.5469 0.671875 13.5365 0.799479 14.4688 1.05469C15.4062 1.30469 16.2708 1.63802 17.0625 2.05469C17.8594 2.46615 18.5703 2.92188 19.1953 3.42188C19.8255 3.92188 20.362 4.42448 20.8047 4.92969C21.2474 5.42969 21.5859 5.89583 21.8203 6.32812C22.0547 6.75521 22.1719 7.10156 22.1719 7.36719C22.1719 7.66406 22.026 8.0625 21.7344 8.5625C21.4427 9.0625 21.0208 9.60156 20.4688 10.1797C19.9219 10.7526 19.2656 11.2995 18.5 11.8203L17.5547 10.8828C18.0495 10.5547 18.4974 10.2161 18.8984 9.86719C19.2995 9.51823 19.6406 9.18229 19.9219 8.85938C20.2083 8.53646 20.4271 8.24479 20.5781 7.98438C20.7292 7.72396 20.8047 7.51823 20.8047 7.36719C20.8047 7.21094 20.6927 6.97135 20.4688 6.64844C20.25 6.32552 19.9375 5.95833 19.5312 5.54688C19.125 5.13021 18.638 4.71094 18.0703 4.28906C17.5078 3.86719 16.8802 3.47656 16.1875 3.11719C15.4948 2.7526 14.7526 2.46094 13.9609 2.24219C13.1745 2.01823 12.3542 1.90625 11.5 1.90625C11.0521 1.90625 10.6146 1.94271 10.1875 2.01562C9.76562 2.08333 9.35938 2.17708 8.96875 2.29688L7.92969 1.25781C8.47656 1.08073 9.04688 0.940104 9.64062 0.835938C10.2396 0.726562 10.8594 0.671875 11.5 0.671875ZM11.5 14.0625C10.4583 14.0625 9.47135 13.9349 8.53906 13.6797C7.61198 13.4297 6.75 13.099 5.95312 12.6875C5.16146 12.2708 4.45052 11.8125 3.82031 11.3125C3.1901 10.8125 2.65104 10.3125 2.20312 9.8125C1.75521 9.30729 1.41146 8.84115 1.17188 8.41406C0.9375 7.98177 0.820312 7.63281 0.820312 7.36719C0.820312 7.13802 0.908854 6.84896 1.08594 6.5C1.26302 6.14583 1.52083 5.75781 1.85938 5.33594C2.19792 4.91406 2.60677 4.48438 3.08594 4.04688C3.57031 3.60417 4.11719 3.18229 4.72656 2.78125L5.69531 3.75C5.15885 4.09375 4.67448 4.44792 4.24219 4.8125C3.8151 5.17708 3.44792 5.53125 3.14062 5.875C2.83333 6.21354 2.59635 6.51562 2.42969 6.78125C2.26823 7.04167 2.1875 7.23698 2.1875 7.36719C2.1875 7.54948 2.29688 7.8099 2.51562 8.14844C2.73438 8.48698 3.04688 8.86198 3.45312 9.27344C3.86458 9.67969 4.35156 10.0911 4.91406 10.5078C5.47656 10.9245 6.10417 11.3099 6.79688 11.6641C7.48958 12.013 8.23177 12.2943 9.02344 12.5078C9.8151 12.7214 10.6406 12.8281 11.5 12.8281C11.9948 12.8281 12.4792 12.7891 12.9531 12.7109C13.4323 12.6328 13.8932 12.5234 14.3359 12.3828L15.3516 13.4062C14.7682 13.6094 14.1536 13.7682 13.5078 13.8828C12.862 14.0026 12.1927 14.0625 11.5 14.0625ZM11.5 2.99219C12.1042 2.99219 12.6719 3.10417 13.2031 3.32812C13.7344 3.55208 14.2005 3.86458 14.6016 4.26562C15.0026 4.66146 15.3151 5.125 15.5391 5.65625C15.7682 6.1875 15.8828 6.75781 15.8828 7.36719C15.8828 7.63802 15.8542 7.90104 15.7969 8.15625C15.7448 8.41146 15.6693 8.65885 15.5703 8.89844L9.96875 3.29688C10.2031 3.20312 10.4479 3.13021 10.7031 3.07812C10.9635 3.02083 11.2292 2.99219 11.5 2.99219ZM11.5 11.7422C10.8854 11.7422 10.3125 11.6276 9.78125 11.3984C9.25 11.1693 8.78385 10.8542 8.38281 10.4531C7.98177 10.0469 7.66667 9.58073 7.4375 9.05469C7.21354 8.52344 7.10156 7.96094 7.10156 7.36719C7.10156 7.04427 7.13542 6.73177 7.20312 6.42969C7.27604 6.1224 7.3776 5.83333 7.50781 5.5625L13.2891 11.3359C13.0182 11.4661 12.7318 11.5677 12.4297 11.6406C12.1276 11.7083 11.8177 11.7422 11.5 11.7422ZM17.6016 14.1328L4.53125 1.07812C4.41667 0.963542 4.35938 0.822917 4.35938 0.65625C4.35938 0.484375 4.41667 0.341146 4.53125 0.226562C4.65104 0.106771 4.79427 0.0494792 4.96094 0.0546875C5.13281 0.0546875 5.27604 0.111979 5.39062 0.226562L18.4531 13.2812C18.5729 13.401 18.6354 13.5391 18.6406 13.6953C18.6458 13.8568 18.5833 14.0026 18.4531 14.1328C18.3333 14.263 18.1901 14.3255 18.0234 14.3203C17.862 14.3151 17.7214 14.2526 17.6016 14.1328Z" fill="#CFCFCF"/>
</svg>
