<svg width="581" height="495" viewBox="0 0 581 495" fill="none" xmlns="http://www.w3.org/2000/svg">
<path d="M8.24902 18.0088C10.3975 8.87793 14.8734 3.77539 21.6768 2.70117C28.4801 1.44792 34.6569 3.68587 40.207 9.41504C53.0977 23.2008 66.8835 33.3164 81.5645 39.7617C96.2454 46.028 111.195 50.0563 126.413 51.8467C141.631 53.458 156.402 54.2637 170.725 54.2637C183.973 54.2637 198.117 53.3685 213.156 51.5781C228.195 49.7878 243.413 48.0869 258.811 46.4756C274.208 44.6852 289.068 43.79 303.391 43.79C346.18 43.79 384.047 50.862 416.989 65.0059C450.111 79.1497 476.071 100.634 494.87 129.459C513.669 158.105 523.068 194.27 523.068 237.955C523.068 243.863 522.889 249.771 522.531 255.68C522.173 261.409 521.636 266.153 520.92 269.913C520.204 274.747 517.518 277.97 512.863 279.581C508.387 281.013 503.911 279.76 499.436 275.821C480.1 257.918 460.674 244.579 441.159 235.807C421.823 227.034 402.577 220.857 383.42 217.276C364.263 213.696 345.375 211.189 326.755 209.757C308.135 208.325 289.873 206.266 271.97 203.58C254.066 200.715 236.7 195.702 219.87 188.541C203.041 181.201 186.927 169.832 171.53 154.435C167.054 149.959 162.937 149.063 159.177 151.749C155.596 154.256 154.701 157.836 156.491 162.491C164.19 182.364 175.201 197.851 189.523 208.951C203.846 220.051 220.497 228.556 239.475 234.464C258.632 240.193 279.131 244.938 300.974 248.697C322.995 252.457 345.464 256.933 368.381 262.125C391.477 267.317 414.125 274.837 436.325 284.684C458.705 294.531 479.742 308.495 499.436 326.578C506.239 333.202 514.206 341.796 523.337 352.359C532.647 362.743 541.599 374.112 550.192 386.466C558.965 398.64 566.127 410.636 571.677 422.452C577.406 434.269 580.271 444.832 580.271 454.142C580.271 465.958 576.779 475.715 569.797 483.414C562.814 491.113 554.4 494.962 544.553 494.962C539.898 494.962 535.511 493.619 531.394 490.934C527.455 488.427 524.411 483.951 522.263 477.506C516.354 459.065 510.357 442.236 504.27 427.018C498.361 411.62 491.379 397.387 483.322 384.317C475.445 371.069 465.687 358.357 454.05 346.183L487.619 346.988C485.292 351.464 481.084 357.462 474.997 364.981C469.089 372.322 461.122 380.289 451.096 388.883C441.249 397.298 429.253 405.265 415.109 412.784C400.965 420.304 384.494 426.48 365.695 431.314C347.076 436.148 326.039 438.565 302.585 438.565C256.931 438.565 215.573 430.688 178.513 414.933C141.452 398.998 109.584 376.35 82.9072 346.988C56.4098 317.626 35.9997 282.535 21.6768 241.715C7.53288 200.895 0.460938 155.33 0.460938 105.021C0.460938 93.0251 0.998047 78.9707 2.07227 62.8574C3.32552 46.7441 5.38444 31.7946 8.24902 18.0088Z" fill="#2466F4"/>
</svg>
