<svg width="14" height="13" viewBox="0 0 14 13" fill="none" xmlns="http://www.w3.org/2000/svg">
<path d="M1.01367 4.01953C0.853516 4.01953 0.728516 3.9707 0.638672 3.87305C0.548828 3.77539 0.503906 3.66602 0.503906 3.54492C0.503906 3.36133 0.609375 3.21094 0.820312 3.09375L5.82422 0.205078C6.05469 0.0683594 6.29297 0 6.53906 0C6.78516 0 7.02539 0.0683594 7.25977 0.205078L12.2637 3.09375C12.4746 3.21484 12.5801 3.36523 12.5801 3.54492C12.5801 3.66602 12.5352 3.77539 12.4453 3.87305C12.3555 3.9707 12.2305 4.01953 12.0703 4.01953H1.01367ZM1.33594 5.23242C1.22656 5.23242 1.14062 5.20312 1.07812 5.14453C1.01953 5.08594 0.990234 5.00195 0.990234 4.89258V4.81055C0.990234 4.70117 1.01953 4.61719 1.07812 4.55859C1.14062 4.49609 1.22656 4.46484 1.33594 4.46484H2.90039C3.00977 4.46484 3.09375 4.49609 3.15234 4.55859C3.21484 4.61719 3.24609 4.70117 3.24609 4.81055V4.89258C3.24609 5.00195 3.21484 5.08594 3.15234 5.14453C3.09375 5.20312 3.00977 5.23242 2.90039 5.23242H1.33594ZM1.67578 10.5059V5.06836H2.56055V10.5059H1.67578ZM1.33594 11.1094C1.22656 11.1094 1.14062 11.0781 1.07812 11.0156C1.01953 10.957 0.990234 10.873 0.990234 10.7637V10.6816C0.990234 10.5723 1.01953 10.4883 1.07812 10.4297C1.14062 10.3711 1.22656 10.3418 1.33594 10.3418H2.90039C3.00977 10.3418 3.09375 10.3711 3.15234 10.4297C3.21484 10.4883 3.24609 10.5723 3.24609 10.6816V10.7637C3.24609 10.873 3.21484 10.957 3.15234 11.0156C3.09375 11.0781 3.00977 11.1094 2.90039 11.1094H1.33594ZM4.28906 5.23242C4.17969 5.23242 4.09375 5.20312 4.03125 5.14453C3.97266 5.08594 3.94336 5.00195 3.94336 4.89258V4.81055C3.94336 4.70117 3.97266 4.61719 4.03125 4.55859C4.09375 4.49609 4.17969 4.46484 4.28906 4.46484H5.84766C5.95703 4.46484 6.04102 4.49609 6.09961 4.55859C6.16211 4.61719 6.19336 4.70117 6.19336 4.81055V4.89258C6.19336 5.00195 6.16211 5.08594 6.09961 5.14453C6.04102 5.20312 5.95703 5.23242 5.84766 5.23242H4.28906ZM4.62305 10.5059V5.06836H5.50781V10.5059H4.62305ZM4.28906 11.1094C4.17969 11.1094 4.09375 11.0781 4.03125 11.0156C3.97266 10.957 3.94336 10.873 3.94336 10.7637V10.6816C3.94336 10.5723 3.97266 10.4883 4.03125 10.4297C4.09375 10.3711 4.17969 10.3418 4.28906 10.3418H5.84766C5.95703 10.3418 6.04102 10.3711 6.09961 10.4297C6.16211 10.4883 6.19336 10.5723 6.19336 10.6816V10.7637C6.19336 10.873 6.16211 10.957 6.09961 11.0156C6.04102 11.0781 5.95703 11.1094 5.84766 11.1094H4.28906ZM7.23633 5.23242C7.12695 5.23242 7.04102 5.20312 6.97852 5.14453C6.91992 5.08594 6.89062 5.00195 6.89062 4.89258V4.81055C6.89062 4.70117 6.91992 4.61719 6.97852 4.55859C7.04102 4.49609 7.12695 4.46484 7.23633 4.46484H8.79492C8.9082 4.46484 8.99414 4.49609 9.05273 4.55859C9.11523 4.61719 9.14648 4.70117 9.14648 4.81055V4.89258C9.14648 5.00195 9.11523 5.08594 9.05273 5.14453C8.99414 5.20312 8.9082 5.23242 8.79492 5.23242H7.23633ZM7.57617 10.5059V5.06836H8.46094V10.5059H7.57617ZM7.23633 11.1094C7.00586 11.1094 6.89062 10.9941 6.89062 10.7637V10.6816C6.89062 10.5723 6.91992 10.4883 6.97852 10.4297C7.04102 10.3711 7.12695 10.3418 7.23633 10.3418H8.79492C8.9082 10.3418 8.99414 10.3711 9.05273 10.4297C9.11523 10.4883 9.14648 10.5723 9.14648 10.6816V10.7637C9.14648 10.873 9.11523 10.957 9.05273 11.0156C8.99414 11.0781 8.9082 11.1094 8.79492 11.1094H7.23633ZM10.1836 5.23242C10.0742 5.23242 9.98828 5.20312 9.92578 5.14453C9.86719 5.08594 9.83789 5.00195 9.83789 4.89258V4.81055C9.83789 4.70117 9.86719 4.61719 9.92578 4.55859C9.98828 4.49609 10.0742 4.46484 10.1836 4.46484H11.748C11.8574 4.46484 11.9414 4.49609 12 4.55859C12.0625 4.61719 12.0938 4.70117 12.0938 4.81055V4.89258C12.0938 5.00195 12.0625 5.08594 12 5.14453C11.9414 5.20312 11.8574 5.23242 11.748 5.23242H10.1836ZM10.5293 10.5059V5.06836H11.4141V10.5059H10.5293ZM10.1836 11.1094C9.95312 11.1094 9.83789 10.9941 9.83789 10.7637V10.6816C9.83789 10.5723 9.86719 10.4883 9.92578 10.4297C9.98828 10.3711 10.0742 10.3418 10.1836 10.3418H11.748C11.8574 10.3418 11.9414 10.3711 12 10.4297C12.0625 10.4883 12.0938 10.5723 12.0938 10.6816V10.7637C12.0938 10.873 12.0625 10.957 12 11.0156C11.9414 11.0781 11.8574 11.1094 11.748 11.1094H10.1836ZM0.46875 12.5039C0.339844 12.5039 0.228516 12.457 0.134766 12.3633C0.0449219 12.2695 0 12.1582 0 12.0293C0 11.9004 0.0449219 11.7891 0.134766 11.6953C0.228516 11.6055 0.339844 11.5605 0.46875 11.5605H12.6094C12.7383 11.5605 12.8496 11.6055 12.9434 11.6953C13.0371 11.7891 13.084 11.9004 13.084 12.0293C13.084 12.1582 13.0371 12.2695 12.9434 12.3633C12.8496 12.457 12.7383 12.5039 12.6094 12.5039H0.46875Z" fill="#E3A15E"/>
</svg>
