<svg width="11" height="10" viewBox="0 0 11 10" fill="none" xmlns="http://www.w3.org/2000/svg">
<path d="M2.16504 9.97656C1.65397 9.97656 1.26986 9.84961 1.0127 9.5957C0.758789 9.34505 0.631836 8.96745 0.631836 8.46289V2.50098C0.631836 1.99642 0.758789 1.61882 1.0127 1.36816C1.26986 1.11426 1.65397 0.987305 2.16504 0.987305H8.83496C9.34603 0.987305 9.72852 1.11426 9.98242 1.36816C10.2363 1.61882 10.3633 1.99642 10.3633 2.50098V8.46289C10.3633 8.96745 10.2363 9.34505 9.98242 9.5957C9.72852 9.84961 9.34603 9.97656 8.83496 9.97656H2.16504ZM2.0918 9.19043H8.89844C9.11654 9.19043 9.28418 9.13184 9.40137 9.01465C9.51855 8.90072 9.57715 8.73145 9.57715 8.50684V3.90234C9.57715 3.67773 9.51855 3.50846 9.40137 3.39453C9.28418 3.27734 9.11654 3.21875 8.89844 3.21875H2.0918C1.87695 3.21875 1.71094 3.27734 1.59375 3.39453C1.47656 3.50846 1.41797 3.67773 1.41797 3.90234V8.50684C1.41797 8.73145 1.47656 8.90072 1.59375 9.01465C1.71094 9.13184 1.87695 9.19043 2.0918 9.19043ZM4.54785 4.97656C4.46322 4.97656 4.40299 4.96029 4.36719 4.92773C4.33464 4.89518 4.31836 4.83659 4.31836 4.75195V4.46387C4.31836 4.37923 4.33464 4.32227 4.36719 4.29297C4.40299 4.26042 4.46322 4.24414 4.54785 4.24414H4.83594C4.92057 4.24414 4.97917 4.26042 5.01172 4.29297C5.04753 4.32227 5.06543 4.37923 5.06543 4.46387V4.75195C5.06543 4.83659 5.04753 4.89518 5.01172 4.92773C4.97917 4.96029 4.92057 4.97656 4.83594 4.97656H4.54785ZM6.16895 4.97656C6.08431 4.97656 6.02572 4.96029 5.99316 4.92773C5.96061 4.89518 5.94434 4.83659 5.94434 4.75195V4.46387C5.94434 4.37923 5.96061 4.32227 5.99316 4.29297C6.02572 4.26042 6.08431 4.24414 6.16895 4.24414H6.45703C6.54492 4.24414 6.60514 4.26042 6.6377 4.29297C6.67025 4.32227 6.68652 4.37923 6.68652 4.46387V4.75195C6.68652 4.83659 6.67025 4.89518 6.6377 4.92773C6.60514 4.96029 6.54492 4.97656 6.45703 4.97656H6.16895ZM7.79492 4.97656C7.70703 4.97656 7.64681 4.96029 7.61426 4.92773C7.58171 4.89518 7.56543 4.83659 7.56543 4.75195V4.46387C7.56543 4.37923 7.58171 4.32227 7.61426 4.29297C7.64681 4.26042 7.70703 4.24414 7.79492 4.24414H8.07812C8.16602 4.24414 8.22624 4.26042 8.25879 4.29297C8.29134 4.32227 8.30762 4.37923 8.30762 4.46387V4.75195C8.30762 4.83659 8.29134 4.89518 8.25879 4.92773C8.22624 4.96029 8.16602 4.97656 8.07812 4.97656H7.79492ZM2.92676 6.57324C2.83887 6.57324 2.77865 6.55697 2.74609 6.52441C2.71354 6.49186 2.69727 6.43327 2.69727 6.34863V6.06543C2.69727 5.97754 2.71354 5.91895 2.74609 5.88965C2.77865 5.8571 2.83887 5.84082 2.92676 5.84082H3.21484C3.29948 5.84082 3.35807 5.8571 3.39062 5.88965C3.42318 5.91895 3.43945 5.97754 3.43945 6.06543V6.34863C3.43945 6.43327 3.42318 6.49186 3.39062 6.52441C3.35807 6.55697 3.29948 6.57324 3.21484 6.57324H2.92676ZM4.54785 6.57324C4.46322 6.57324 4.40299 6.55697 4.36719 6.52441C4.33464 6.49186 4.31836 6.43327 4.31836 6.34863V6.06543C4.31836 5.97754 4.33464 5.91895 4.36719 5.88965C4.40299 5.8571 4.46322 5.84082 4.54785 5.84082H4.83594C4.92057 5.84082 4.97917 5.8571 5.01172 5.88965C5.04753 5.91895 5.06543 5.97754 5.06543 6.06543V6.34863C5.06543 6.43327 5.04753 6.49186 5.01172 6.52441C4.97917 6.55697 4.92057 6.57324 4.83594 6.57324H4.54785ZM6.16895 6.57324C6.08431 6.57324 6.02572 6.55697 5.99316 6.52441C5.96061 6.49186 5.94434 6.43327 5.94434 6.34863V6.06543C5.94434 5.97754 5.96061 5.91895 5.99316 5.88965C6.02572 5.8571 6.08431 5.84082 6.16895 5.84082H6.45703C6.54492 5.84082 6.60514 5.8571 6.6377 5.88965C6.67025 5.91895 6.68652 5.97754 6.68652 6.06543V6.34863C6.68652 6.43327 6.67025 6.49186 6.6377 6.52441C6.60514 6.55697 6.54492 6.57324 6.45703 6.57324H6.16895ZM7.79492 6.57324C7.70703 6.57324 7.64681 6.55697 7.61426 6.52441C7.58171 6.49186 7.56543 6.43327 7.56543 6.34863V6.06543C7.56543 5.97754 7.58171 5.91895 7.61426 5.88965C7.64681 5.8571 7.70703 5.84082 7.79492 5.84082H8.07812C8.16602 5.84082 8.22624 5.8571 8.25879 5.88965C8.29134 5.91895 8.30762 5.97754 8.30762 6.06543V6.34863C8.30762 6.43327 8.29134 6.49186 8.25879 6.52441C8.22624 6.55697 8.16602 6.57324 8.07812 6.57324H7.79492ZM2.92676 8.16992C2.83887 8.16992 2.77865 8.15527 2.74609 8.12598C2.71354 8.09342 2.69727 8.0332 2.69727 7.94531V7.66211C2.69727 7.57422 2.71354 7.51562 2.74609 7.48633C2.77865 7.45378 2.83887 7.4375 2.92676 7.4375H3.21484C3.29948 7.4375 3.35807 7.45378 3.39062 7.48633C3.42318 7.51562 3.43945 7.57422 3.43945 7.66211V7.94531C3.43945 8.0332 3.42318 8.09342 3.39062 8.12598C3.35807 8.15527 3.29948 8.16992 3.21484 8.16992H2.92676ZM4.54785 8.16992C4.46322 8.16992 4.40299 8.15527 4.36719 8.12598C4.33464 8.09342 4.31836 8.0332 4.31836 7.94531V7.66211C4.31836 7.57422 4.33464 7.51562 4.36719 7.48633C4.40299 7.45378 4.46322 7.4375 4.54785 7.4375H4.83594C4.92057 7.4375 4.97917 7.45378 5.01172 7.48633C5.04753 7.51562 5.06543 7.57422 5.06543 7.66211V7.94531C5.06543 8.0332 5.04753 8.09342 5.01172 8.12598C4.97917 8.15527 4.92057 8.16992 4.83594 8.16992H4.54785ZM6.16895 8.16992C6.08431 8.16992 6.02572 8.15527 5.99316 8.12598C5.96061 8.09342 5.94434 8.0332 5.94434 7.94531V7.66211C5.94434 7.57422 5.96061 7.51562 5.99316 7.48633C6.02572 7.45378 6.08431 7.4375 6.16895 7.4375H6.45703C6.54492 7.4375 6.60514 7.45378 6.6377 7.48633C6.67025 7.51562 6.68652 7.57422 6.68652 7.66211V7.94531C6.68652 8.0332 6.67025 8.09342 6.6377 8.12598C6.60514 8.15527 6.54492 8.16992 6.45703 8.16992H6.16895Z" fill="#2466F4"/>
</svg>