<svg width="18" height="17" viewBox="0 0 18 17" fill="none" xmlns="http://www.w3.org/2000/svg">
<path d="M9.00098 8.26196C9.7019 8.26217 10.2851 8.83772 10.2852 9.56665C10.2852 10.2961 9.70212 10.8711 9.00098 10.8713C8.29944 10.8713 7.71582 10.296 7.71582 9.56665C7.71587 8.83782 8.29964 8.26196 9.00098 8.26196Z" stroke="#ED5555" stroke-width="2"/>
<path d="M16.9356 4.50037C16.6277 4.1861 16.1938 3.98829 15.7199 3.98829H13.8609C13.7111 3.98889 13.5714 3.89854 13.5071 3.75268L12.9501 2.4962C12.6746 1.87367 12.0623 1.46875 11.3827 1.46875H6.61725C5.93793 1.46875 5.32533 1.87367 5.04923 2.4962L4.49288 3.75268C4.42855 3.89854 4.28857 3.98889 4.13904 3.98829H2.28006C1.8065 3.98829 1.37171 4.18607 1.06315 4.50037C0.754585 4.81374 0.5625 5.25168 0.5625 5.72865V13.7915C0.5625 14.2688 0.754585 14.7064 1.06315 15.0198C1.37167 15.3341 1.8065 15.5318 2.28006 15.5312H9.68098H15.7199C16.1938 15.5318 16.6277 15.334 16.9357 15.0198C17.2457 14.7064 17.4375 14.2688 17.4375 13.7915V5.72865C17.4375 5.25168 17.2457 4.81315 16.9356 4.50037ZM11.7508 12.2979C11.0495 13.0126 10.0735 13.4569 9.00015 13.4569C7.92618 13.4569 6.95053 13.0126 6.24913 12.2979C5.54658 11.5851 5.11113 10.5951 5.11175 9.50793C5.11116 8.42076 5.54658 7.43171 6.24913 6.71767C6.9505 6.00356 7.92589 5.55875 9.00015 5.55964C10.0735 5.55875 11.0495 6.00356 11.7508 6.71767C12.4534 7.43174 12.8888 8.42076 12.8879 9.50793C12.8888 10.5951 12.4534 11.5851 11.7508 12.2979Z" stroke="#ED5555"/>
</svg>
