<svg width="32" height="28" viewBox="0 0 32 28" fill="none" xmlns="http://www.w3.org/2000/svg">
<path d="M16 12.7991C17.6825 12.7991 19.0615 14.1775 19.0615 15.8967C19.0614 17.6167 17.6826 18.9934 16 18.9934C14.3173 18.9933 12.9386 17.6164 12.9385 15.8967C12.9385 14.1779 14.3173 12.7992 16 12.7991Z" stroke="#F06666" stroke-width="2"/>
<path d="M30.1078 6.88931C29.5603 6.3306 28.7889 5.97894 27.9465 5.97894H24.6416C24.3752 5.98001 24.1269 5.81938 24.0125 5.56008L23.0224 3.32633C22.5327 2.21961 21.4441 1.49976 20.2359 1.49976H11.764C10.5563 1.49976 9.46725 2.21961 8.97641 3.32633L7.98735 5.56008C7.87298 5.81938 7.62413 5.98001 7.35829 5.97894H4.05343C3.21156 5.97894 2.43859 6.33054 1.89004 6.88931C1.34148 7.44641 1 8.22497 1 9.07292V23.4069C1 24.2554 1.34148 25.0334 1.89004 25.5905C2.43853 26.1492 3.21156 26.5008 4.05343 26.4998H17.2106H27.9466C28.789 26.5008 29.5604 26.1492 30.1079 25.5905C30.659 25.0334 31 24.2554 31 23.4069V9.07292C30.9999 8.22497 30.659 7.44535 30.1078 6.88931ZM20.8904 20.7516C19.6435 22.0221 17.9084 22.8119 16.0003 22.8119C14.091 22.8119 12.3565 22.0222 11.1096 20.7516C9.86059 19.4843 9.08645 17.7244 9.08756 15.7916C9.08651 13.8589 9.86059 12.1006 11.1096 10.8312C12.3564 9.56164 14.0905 8.77086 16.0003 8.77245C17.9084 8.77086 19.6435 9.56164 20.8904 10.8312C22.1394 12.1006 22.9135 13.8589 22.9119 15.7916C22.9134 17.7244 22.1394 19.4843 20.8904 20.7516Z" stroke="#F06666" stroke-width="2"/>
</svg>
