<svg width="32" height="32" viewBox="0 0 32 32" fill="none" xmlns="http://www.w3.org/2000/svg">
<g clip-path="url(#clip0_3712_6620)">
<path d="M16 0C7.17731 0 0 7.17769 0 16C0 24.8223 7.17731 32 16 32C24.8227 32 32 24.8223 32 16C32 7.17769 24.8227 0 16 0ZM16 29.9131C8.32812 29.9131 2.08694 23.6715 2.08694 16C2.08694 8.3285 8.32812 2.08694 16 2.08694C23.6719 2.08694 29.9131 8.3285 29.9131 16C29.9131 23.6715 23.6719 29.9131 16 29.9131Z" fill="white"/>
<path d="M15.9999 4.17383C9.47883 4.17383 4.17383 9.47883 4.17383 15.9999C4.17383 22.521 9.47883 27.826 15.9999 27.826C22.521 27.826 27.826 22.521 27.826 15.9999C27.826 9.47883 22.521 4.17383 15.9999 4.17383ZM16.4877 15.0776C17.9748 15.8636 19.826 16.8422 19.826 18.7825C19.826 20.53 18.6467 22.0044 17.0434 22.4601V22.9563C17.0434 23.5328 16.576 23.9998 15.9999 23.9998C15.4238 23.9998 14.9564 23.5328 14.9564 22.9563V22.4601C13.3531 22.0043 12.1738 20.53 12.1738 18.7825C12.1738 18.206 12.6412 17.739 13.2173 17.739C13.7933 17.739 14.2608 18.206 14.2608 18.7825C14.2608 19.7413 15.0406 20.5216 15.9999 20.5216C16.9591 20.5216 17.739 19.7413 17.739 18.7825C17.739 18.0998 16.6072 17.5012 15.5121 16.9228C14.025 16.1364 12.1738 15.1578 12.1738 13.2173C12.1738 11.4697 13.3531 9.99533 14.9564 9.53958V9.04339C14.9564 8.46695 15.4238 7.99989 15.9999 7.99989C16.576 7.99989 17.0434 8.46695 17.0434 9.04339V9.53958C18.6466 9.99539 19.826 11.4698 19.826 13.2173C19.826 13.7937 19.3586 14.2608 18.7825 14.2608C18.2065 14.2608 17.739 13.7937 17.739 13.2173C17.739 12.2584 16.9591 11.4781 15.9999 11.4781C15.0406 11.4781 14.2608 12.2584 14.2608 13.2173C14.2608 13.9003 15.3926 14.4989 16.4877 15.0776Z" fill="#FFCD43"/>
</g>
<defs>
<clipPath id="clip0_3712_6620">
<rect width="32" height="32" fill="white"/>
</clipPath>
</defs>
</svg>
