<svg width="18" height="19" viewBox="0 0 18 19" fill="none" xmlns="http://www.w3.org/2000/svg">
<g clip-path="url(#clip0_3714_6790)">
<path d="M9 0.5C4.03724 0.5 0 4.53745 0 9.5C0 14.4626 4.03724 18.5 9 18.5C13.9628 18.5 18 14.4626 18 9.5C18 4.53745 13.9628 0.5 9 0.5ZM9 17.3261C4.68457 17.3261 1.1739 13.8152 1.1739 9.5C1.1739 5.18478 4.68457 1.6739 9 1.6739C13.3154 1.6739 16.8261 5.18478 16.8261 9.5C16.8261 13.8152 13.3154 17.3261 9 17.3261Z" fill="#FFC015"/>
<path d="M8.99982 2.8479C5.33172 2.8479 2.34766 5.83196 2.34766 9.50006C2.34766 13.1682 5.33172 16.1522 8.99982 16.1522C12.6679 16.1522 15.652 13.1682 15.652 9.50006C15.652 5.83196 12.6679 2.8479 8.99982 2.8479ZM9.27421 8.98129C10.1107 9.42342 11.152 9.97386 11.152 11.0653C11.152 12.0483 10.4886 12.8776 9.58679 13.134V13.4131C9.58679 13.7373 9.32385 14 8.99982 14C8.67578 14 8.41285 13.7373 8.41285 13.4131V13.134C7.51102 12.8776 6.84762 12.0482 6.84762 11.0653C6.84762 10.741 7.11055 10.4783 7.43459 10.4783C7.75862 10.4783 8.02156 10.741 8.02156 11.0653C8.02156 11.6046 8.46024 12.0435 8.99982 12.0435C9.53939 12.0435 9.97807 11.6046 9.97807 11.0653C9.97807 10.6812 9.34143 10.3445 8.72542 10.0192C7.88891 9.57684 6.84762 9.0264 6.84762 7.93483C6.84762 6.95183 7.51098 6.12249 8.41285 5.86613V5.58703C8.41285 5.26278 8.67578 5.00006 8.99982 5.00006C9.32385 5.00006 9.58679 5.26278 9.58679 5.58703V5.86613C10.4886 6.12253 11.152 6.95187 11.152 7.93483C11.152 8.25908 10.8891 8.5218 10.565 8.5218C10.241 8.5218 9.97807 8.25908 9.97807 7.93483C9.97807 7.39547 9.53939 6.95658 8.99982 6.95658C8.46024 6.95658 8.02156 7.39547 8.02156 7.93483C8.02156 8.31906 8.6582 8.65575 9.27421 8.98129Z" fill="#FFC015"/>
</g>
<defs>
<clipPath id="clip0_3714_6790">
<rect width="18" height="18" fill="white" transform="translate(0 0.5)"/>
</clipPath>
</defs>
</svg>
