<svg width="12" height="11" viewBox="0 0 12 11" fill="none" xmlns="http://www.w3.org/2000/svg">
<path d="M0.887695 5.28418L0.892578 4.4541C1.64128 4.75033 2.44368 4.97168 3.2998 5.11816C4.15918 5.26139 5.05762 5.33301 5.99512 5.33301C6.93587 5.33301 7.83431 5.26139 8.69043 5.11816C9.5498 4.97168 10.3538 4.75195 11.1025 4.45898L11.1074 5.28418C10.3392 5.55436 9.52539 5.75618 8.66602 5.88965C7.80664 6.02311 6.91634 6.08984 5.99512 6.08984C5.07715 6.08984 4.18848 6.02311 3.3291 5.88965C2.46973 5.75618 1.65592 5.55436 0.887695 5.28418ZM5.23828 6.97363C4.87695 6.97363 4.69629 6.79622 4.69629 6.44141V5.68945H7.29883V6.44141C7.29883 6.79622 7.11816 6.97363 6.75684 6.97363H5.23828ZM1.85449 10.2061C1.35319 10.2061 0.975586 10.0824 0.72168 9.83496C0.471029 9.59082 0.345703 9.2181 0.345703 8.7168V3.96582C0.345703 3.46452 0.471029 3.0918 0.72168 2.84766C0.975586 2.60026 1.35319 2.47656 1.85449 2.47656H10.1406C10.6452 2.47656 11.0228 2.60026 11.2734 2.84766C11.5241 3.0918 11.6494 3.46452 11.6494 3.96582V8.7168C11.6494 9.2181 11.5241 9.59082 11.2734 9.83496C11.0228 10.0824 10.6452 10.2061 10.1406 10.2061H1.85449ZM1.86426 9.4248H10.1309C10.3685 9.4248 10.5492 9.36296 10.6729 9.23926C10.7998 9.11556 10.8633 8.92839 10.8633 8.67773V4.00488C10.8633 3.75423 10.7998 3.56706 10.6729 3.44336C10.5492 3.31966 10.3685 3.25781 10.1309 3.25781H1.86426C1.62663 3.25781 1.44434 3.31966 1.31738 3.44336C1.19368 3.56706 1.13184 3.75423 1.13184 4.00488V8.67773C1.13184 8.92839 1.19368 9.11556 1.31738 9.23926C1.44434 9.36296 1.62663 9.4248 1.86426 9.4248ZM3.51953 2.90137V2.09082C3.51953 1.63184 3.64323 1.29329 3.89062 1.0752C4.13802 0.853841 4.47005 0.743164 4.88672 0.743164H7.10352C7.54622 0.743164 7.88477 0.853841 8.11914 1.0752C8.35352 1.29329 8.4707 1.63184 8.4707 2.09082V2.8916H7.71387V2.03711C7.71387 1.85156 7.66178 1.70833 7.55762 1.60742C7.45345 1.50651 7.30697 1.45605 7.11816 1.45605H4.87695C4.6849 1.45605 4.53678 1.50651 4.43262 1.60742C4.32845 1.70833 4.27637 1.85156 4.27637 2.03711V2.90137H3.51953Z" fill="#2466F4"/>
</svg>