<svg width="12" height="10" viewBox="0 0 12 10" fill="none" xmlns="http://www.w3.org/2000/svg">
<path d="M4.20801 7.24805C3.85319 7.24805 3.58138 7.14714 3.39258 6.94531C3.20378 6.74349 3.08333 6.46842 3.03125 6.12012L2.25 0.758789H0.599609C0.501953 0.758789 0.417318 0.722982 0.345703 0.651367C0.274089 0.576497 0.238281 0.488607 0.238281 0.387695C0.238281 0.290039 0.274089 0.205404 0.345703 0.133789C0.417318 0.0589193 0.501953 0.0214844 0.599609 0.0214844H2.31348C2.56413 0.0214844 2.7334 0.0686849 2.82129 0.163086C2.91243 0.257487 2.97103 0.399089 2.99707 0.587891L3.79785 6.02246C3.81738 6.1722 3.86947 6.29264 3.9541 6.38379C4.04199 6.47168 4.1543 6.51562 4.29102 6.51562H9.90625C10.0007 6.51562 10.0837 6.55143 10.1553 6.62305C10.2269 6.69141 10.2627 6.77767 10.2627 6.88184C10.2627 6.986 10.2269 7.07389 10.1553 7.14551C10.0837 7.21387 10.0007 7.24805 9.90625 7.24805H4.20801ZM3.30957 5.50977L3.2998 4.77734H9.84277C9.986 4.77734 10.0983 4.7334 10.1797 4.64551C10.2611 4.55436 10.3115 4.43392 10.3311 4.28418L10.6777 1.94531H2.88965L2.88477 1.20801H11.0635C11.1969 1.20801 11.3044 1.24544 11.3857 1.32031C11.4671 1.39193 11.5078 1.48633 11.5078 1.60352C11.5078 1.6263 11.5062 1.6556 11.5029 1.69141C11.4997 1.72396 11.4948 1.75651 11.4883 1.78906L11.0977 4.37207C11.0456 4.72363 10.9251 5.00195 10.7363 5.20703C10.5475 5.40885 10.2741 5.50977 9.91602 5.50977H3.30957ZM4.59375 9.62109C4.44401 9.62109 4.30892 9.58529 4.18848 9.51367C4.07129 9.44531 3.97689 9.35091 3.90527 9.23047C3.83366 9.11003 3.79785 8.97656 3.79785 8.83008C3.79785 8.68359 3.83366 8.55013 3.90527 8.42969C3.97689 8.30924 4.07129 8.21322 4.18848 8.1416C4.30892 8.07324 4.44401 8.03906 4.59375 8.03906C4.81185 8.03906 4.9974 8.11556 5.15039 8.26855C5.30664 8.42155 5.38477 8.60872 5.38477 8.83008C5.38477 9.05143 5.30664 9.23861 5.15039 9.3916C4.9974 9.5446 4.81185 9.62109 4.59375 9.62109ZM9.15918 9.62109C8.94108 9.62109 8.75391 9.5446 8.59766 9.3916C8.44141 9.23861 8.36328 9.05143 8.36328 8.83008C8.36328 8.68359 8.39909 8.55013 8.4707 8.42969C8.54232 8.30924 8.63835 8.21322 8.75879 8.1416C8.87923 8.07324 9.0127 8.03906 9.15918 8.03906C9.38053 8.03906 9.56771 8.11556 9.7207 8.26855C9.87695 8.42155 9.95508 8.60872 9.95508 8.83008C9.95508 9.05143 9.87695 9.23861 9.7207 9.3916C9.56771 9.5446 9.38053 9.62109 9.15918 9.62109Z" fill="#E46AC2"/>
</svg>
