<svg width="18" height="19" viewBox="0 0 18 19" fill="none" xmlns="http://www.w3.org/2000/svg">
<path fill-rule="evenodd" clip-rule="evenodd" d="M1.5 1.25C1.08579 1.25 0.75 1.58579 0.75 2C0.75 2.41421 1.08579 2.75 1.5 2.75H2.41442L5.08759 13.4427C4.29957 13.7927 3.75 14.5822 3.75 15.5C3.75 16.7427 4.75736 17.75 6 17.75C7.24264 17.75 8.25 16.7427 8.25 15.5C8.25 15.2371 8.20485 14.9846 8.12198 14.75H11.378C11.2952 14.9846 11.25 15.2371 11.25 15.5C11.25 16.7427 12.2573 17.75 13.5 17.75C14.7427 17.75 15.75 16.7427 15.75 15.5C15.75 14.2573 14.7427 13.25 13.5 13.25H6.58559L6.21059 11.75H13.5C15.0482 11.75 15.9764 10.7719 16.4915 9.69193C16.9949 8.63653 17.1701 7.37519 17.2313 6.45776C17.3163 5.18011 16.2602 4.25 15.0908 4.25H4.33559L3.86963 2.3862C3.70269 1.71844 3.10272 1.25 2.41442 1.25H1.5ZM13.5 10.25H5.83559L4.71059 5.75H15.0908C15.5057 5.75 15.7547 6.05506 15.7346 6.35809C15.6776 7.21415 15.518 8.24885 15.1377 9.04618C14.7692 9.81883 14.2651 10.25 13.5 10.25ZM13.5 16.2453C13.0883 16.2453 12.7547 15.9117 12.7547 15.5C12.7547 15.0883 13.0883 14.7547 13.5 14.7547C13.9117 14.7547 14.2454 15.0883 14.2454 15.5C14.2454 15.9117 13.9117 16.2453 13.5 16.2453ZM5.25463 15.5C5.25463 15.9117 5.58834 16.2453 6 16.2453C6.41166 16.2453 6.74537 15.9117 6.74537 15.5C6.74537 15.0883 6.41166 14.7547 6 14.7547C5.58834 14.7547 5.25463 15.0883 5.25463 15.5Z" fill="#E159BA"/>
</svg>
