<svg width="10" height="13" viewBox="0 0 10 13" fill="none" xmlns="http://www.w3.org/2000/svg">
<path d="M0.585938 10.3906V3.12012C0.585938 2.67741 0.704753 2.34212 0.942383 2.11426C1.18327 1.88639 1.50228 1.76107 1.89941 1.73828C2.48535 1.70247 3.04036 1.65365 3.56445 1.5918C4.08854 1.52669 4.58984 1.45182 5.06836 1.36719C5.55013 1.28255 6.01888 1.18815 6.47461 1.08398C6.94336 0.973307 7.30306 1.02865 7.55371 1.25C7.80436 1.47135 7.92969 1.82454 7.92969 2.30957V9.45801C7.92969 9.88444 7.85645 10.2018 7.70996 10.4102C7.56348 10.6217 7.31608 10.7764 6.96777 10.874C6.34928 11.0433 5.7666 11.1768 5.21973 11.2744C4.67285 11.3753 4.139 11.4518 3.61816 11.5039C3.09733 11.556 2.56348 11.5967 2.0166 11.626C1.56413 11.652 1.21257 11.5576 0.961914 11.3428C0.711263 11.1312 0.585938 10.8138 0.585938 10.3906ZM1.37207 10.249C1.37207 10.4476 1.43229 10.5973 1.55273 10.6982C1.67318 10.8024 1.83919 10.8496 2.05078 10.8398C2.59115 10.8138 3.11361 10.7747 3.61816 10.7227C4.12272 10.6738 4.62077 10.6055 5.1123 10.5176C5.6071 10.4297 6.11003 10.3158 6.62109 10.1758C6.8099 10.127 6.94336 10.0472 7.02148 9.93652C7.10286 9.82259 7.14355 9.65332 7.14355 9.42871V2.44629C7.14355 2.22819 7.08008 2.06543 6.95312 1.95801C6.82943 1.85059 6.65527 1.82292 6.43066 1.875C5.9847 1.97591 5.52572 2.06868 5.05371 2.15332C4.58496 2.23796 4.09668 2.3112 3.58887 2.37305C3.08431 2.4349 2.55046 2.48047 1.9873 2.50977C1.80827 2.51953 1.66016 2.56999 1.54297 2.66113C1.42904 2.74902 1.37207 2.89551 1.37207 3.10059V10.249ZM2.44141 4.23828C2.36003 4.24479 2.29167 4.22201 2.23633 4.16992C2.18424 4.11784 2.1582 4.05273 2.1582 3.97461C2.1582 3.89974 2.18099 3.83626 2.22656 3.78418C2.27539 3.72884 2.34701 3.69792 2.44141 3.69141C3.13477 3.64909 3.76953 3.58236 4.3457 3.49121C4.92188 3.39681 5.48177 3.28939 6.02539 3.16895C6.13281 3.14616 6.21419 3.16243 6.26953 3.21777C6.32812 3.26986 6.35742 3.33333 6.35742 3.4082C6.35742 3.47656 6.33789 3.53841 6.29883 3.59375C6.26302 3.64583 6.18978 3.68327 6.0791 3.70605C5.50944 3.83301 4.93327 3.94368 4.35059 4.03809C3.77116 4.12923 3.13477 4.19596 2.44141 4.23828ZM2.44141 5.81055C2.36003 5.8138 2.29167 5.78939 2.23633 5.7373C2.18424 5.68522 2.1582 5.62012 2.1582 5.54199C2.1582 5.47038 2.18099 5.40853 2.22656 5.35645C2.27539 5.30111 2.34701 5.27018 2.44141 5.26367C3.13477 5.2181 3.76953 5.14974 4.3457 5.05859C4.92188 4.96745 5.48177 4.86165 6.02539 4.74121C6.13281 4.71842 6.21419 4.7347 6.26953 4.79004C6.32812 4.84212 6.35742 4.9056 6.35742 4.98047C6.35742 5.04883 6.33789 5.10905 6.29883 5.16113C6.26302 5.21322 6.18978 5.25228 6.0791 5.27832C5.50944 5.40527 4.93327 5.51432 4.35059 5.60547C3.77116 5.69661 3.13477 5.76497 2.44141 5.81055ZM2.44141 7.38281C2.36003 7.38607 2.29167 7.36165 2.23633 7.30957C2.18424 7.25749 2.1582 7.19238 2.1582 7.11426C2.1582 7.04264 2.18099 6.98079 2.22656 6.92871C2.27539 6.87337 2.34701 6.84245 2.44141 6.83594C3.13477 6.79036 3.76953 6.72201 4.3457 6.63086C4.92188 6.53971 5.48177 6.43392 6.02539 6.31348C6.13281 6.29069 6.21419 6.30534 6.26953 6.35742C6.32812 6.40951 6.35742 6.47461 6.35742 6.55273C6.35742 6.62109 6.33789 6.68132 6.29883 6.7334C6.26302 6.78548 6.18978 6.82454 6.0791 6.85059C5.50944 6.97428 4.93327 7.08333 4.35059 7.17773C3.77116 7.26888 3.13477 7.33724 2.44141 7.38281ZM2.44141 8.9502C2.36003 8.95345 2.29167 8.92904 2.23633 8.87695C2.18424 8.82487 2.1582 8.75977 2.1582 8.68164C2.1582 8.61003 2.18099 8.54818 2.22656 8.49609C2.27539 8.44076 2.34701 8.40983 2.44141 8.40332C2.83529 8.38053 3.17057 8.35286 3.44727 8.32031C3.72721 8.28451 3.98438 8.2487 4.21875 8.21289C4.32943 8.19336 4.41243 8.21126 4.46777 8.2666C4.52637 8.32194 4.55566 8.38704 4.55566 8.46191C4.55566 8.52376 4.53451 8.58236 4.49219 8.6377C4.44987 8.69303 4.38802 8.72884 4.30664 8.74512C4.04297 8.78743 3.76628 8.8265 3.47656 8.8623C3.18685 8.89811 2.8418 8.92741 2.44141 8.9502ZM4.4873 12.0703C4.89746 12.0085 5.32389 11.932 5.7666 11.8408C6.20931 11.7497 6.67155 11.6406 7.15332 11.5137C7.4821 11.4193 7.75228 11.2842 7.96387 11.1084C8.17871 10.9326 8.33822 10.708 8.44238 10.4346C8.54655 10.1644 8.59863 9.83887 8.59863 9.45801V2.30957C8.59863 2.2347 8.59538 2.16309 8.58887 2.09473C8.58561 2.02637 8.58073 1.95964 8.57422 1.89453C8.85091 1.97591 9.05924 2.13379 9.19922 2.36816C9.34245 2.59928 9.41406 2.90365 9.41406 3.28125V10.542C9.41406 11.0531 9.28874 11.4355 9.03809 11.6895C8.78743 11.9434 8.40983 12.0703 7.90527 12.0703H4.4873Z" fill="#6DABE5"/>
</svg>
