<svg width="14" height="19" viewBox="0 0 14 19" fill="none" xmlns="http://www.w3.org/2000/svg">
<path d="M13.8906 1.62507C13.8906 1.23695 13.5756 0.921949 13.1875 0.921949H2.05C2.03425 0.921387 2.01569 0.921387 1.99769 0.921387C0.975625 0.921387 0.143125 1.73307 0.109375 2.74726V2.75007V16.4689C0.1735 17.3723 0.922188 18.0816 1.83625 18.0816C1.87169 18.0816 1.90712 18.0804 1.942 18.0782H1.93694H13.1869C13.5751 18.0782 13.8901 17.7632 13.8901 17.3751C13.8901 16.9869 13.5751 16.6719 13.1869 16.6719H2.04944C2.03594 16.6731 2.02075 16.6742 2.005 16.6742C1.75694 16.6742 1.55106 16.4914 1.51506 16.2529L1.5145 16.2501V15.5621C1.5145 15.5115 1.66412 15.3591 1.93412 15.3591L13.1864 15.3911H13.1869C13.4766 15.3911 13.7247 15.2162 13.8327 14.9659L13.8344 14.9614L13.8383 14.9423C13.8698 14.868 13.8884 14.7814 13.8901 14.6908V14.6903V14.6891V14.688L13.8906 1.62507ZM12.4844 13.9826L4.32812 13.9596V2.3282H12.4844V13.9826ZM1.51562 14.0001V2.75007C1.55163 2.50876 1.7575 2.32595 2.00556 2.32595C2.02131 2.32595 2.0365 2.32651 2.05169 2.3282H2.05H2.92188V13.9556L1.9375 13.9528C1.78731 13.9539 1.64219 13.9714 1.50212 14.0029L1.51562 14.0001ZM5.875 5.1407H10.9375C11.3256 5.1407 11.6406 4.8257 11.6406 4.43757C11.6406 4.04945 11.3256 3.73445 10.9375 3.73445H5.875C5.48688 3.73445 5.17188 4.04945 5.17188 4.43757C5.17188 4.8257 5.48688 5.1407 5.875 5.1407ZM10.9375 5.98445H5.875C5.48688 5.98445 5.17188 6.29945 5.17188 6.68757C5.17188 7.0757 5.48688 7.3907 5.875 7.3907H10.9375C11.3256 7.3907 11.6406 7.0757 11.6406 6.68757C11.6406 6.29945 11.3256 5.98445 10.9375 5.98445Z" fill="#5CA1E2"/>
</svg>
