<svg width="12" height="12" viewBox="0 0 12 12" fill="none" xmlns="http://www.w3.org/2000/svg">
<path d="M5.20021 5.41512e-08C5.11625 -4.35962e-05 5.03441 0.0263031 4.96628 0.075368C4.89815 0.124433 4.84719 0.193693 4.82062 0.273336L4.41448 1.49177C4.2505 1.5495 4.0901 1.6157 3.93335 1.69093L2.78443 1.11687C2.70935 1.07935 2.62438 1.06642 2.54153 1.07987C2.45869 1.09333 2.38218 1.13251 2.32283 1.19186L1.19188 2.3228C1.13252 2.38214 1.09334 2.45868 1.07989 2.54152C1.06643 2.62437 1.07938 2.70934 1.1169 2.78442L1.69019 3.93099C1.61477 4.08852 1.54804 4.24965 1.49024 4.41447L0.273366 4.82059C0.193724 4.84717 0.124463 4.89813 0.0753984 4.96626C0.0263342 5.03439 -4.46503e-05 5.1162 5.67336e-08 5.20016V6.79976C-4.46503e-05 6.88372 0.0263342 6.96558 0.0753984 7.03371C0.124463 7.10184 0.193724 7.1528 0.273366 7.17937L1.49414 7.58628C1.55168 7.74927 1.61775 7.90843 1.69253 8.06427L1.1169 9.21555C1.07938 9.29063 1.06644 9.3756 1.07989 9.45844C1.09335 9.54128 1.13253 9.61778 1.19188 9.67712L2.32283 10.8089C2.38218 10.8682 2.45869 10.9074 2.54153 10.9208C2.62438 10.9343 2.70935 10.9214 2.78443 10.8838L3.93335 10.309C4.08994 10.3838 4.24992 10.4499 4.41369 10.5074L4.82062 11.7274C4.84719 11.807 4.89815 11.8763 4.96628 11.9253C5.03441 11.9744 5.11625 12.0008 5.20021 12.0007H6.79979C6.88375 12.0008 6.96559 11.9744 7.03372 11.9253C7.10185 11.8763 7.15281 11.807 7.17938 11.7274L7.58631 10.505C7.74886 10.4477 7.90808 10.3818 8.06353 10.3074L9.21557 10.8838C9.29065 10.9214 9.37562 10.9343 9.45847 10.9208C9.54131 10.9074 9.61782 10.8682 9.67717 10.8089L10.8081 9.67712C10.8675 9.61778 10.9067 9.54128 10.9201 9.45844C10.9336 9.3756 10.9206 9.29063 10.8831 9.21555L10.309 8.06741C10.3843 7.91042 10.4504 7.74973 10.5082 7.5855L11.7266 7.17937C11.8063 7.1528 11.8755 7.10184 11.9246 7.03371C11.9737 6.96558 12 6.88372 12 6.79976V5.2002C12 5.11624 11.9737 5.03439 11.9246 4.96626C11.8755 4.89813 11.8063 4.84717 11.7266 4.82059L10.5074 4.41447C10.4497 4.25075 10.3834 4.09061 10.3083 3.93412L10.8831 2.78442C10.9206 2.70934 10.9336 2.62437 10.9201 2.54152C10.9067 2.45868 10.8675 2.38214 10.8081 2.3228L9.67717 1.19186C9.61782 1.13251 9.54131 1.09333 9.45847 1.07987C9.37562 1.06642 9.29065 1.07939 9.21557 1.11691L8.06977 1.68941C7.91172 1.61384 7.75011 1.54733 7.58474 1.48946L7.17938 0.273382C7.15281 0.193736 7.10185 0.124436 7.03372 0.075368C6.96559 0.0263002 6.88375 -4.26976e-05 6.79979 5.41512e-08H5.20021ZM5.48841 0.799758H6.51159L6.88258 1.91353C6.90292 1.97456 6.93767 2.02982 6.9839 2.07456C7.03013 2.11929 7.08647 2.15218 7.14814 2.17049C7.40841 2.24788 7.66026 2.35138 7.89951 2.47981C7.95586 2.51019 8.01869 2.52659 8.08271 2.52764C8.14672 2.52869 8.21005 2.51436 8.26738 2.48585L9.31554 1.96178L10.0388 2.68502L9.51237 3.73786C9.48364 3.79524 9.46914 3.8587 9.47009 3.92287C9.47104 3.98703 9.48742 4.05003 9.51784 4.10654C9.64596 4.34421 9.75018 4.59386 9.82791 4.85242C9.84626 4.91386 9.87911 4.96999 9.9237 5.01607C9.96828 5.06215 10.0233 5.09686 10.0841 5.11722L11.2002 5.48899V6.51213L10.0849 6.88394C10.0241 6.90431 9.96907 6.93897 9.92448 6.98505C9.8799 7.03113 9.84704 7.08726 9.82869 7.1487C9.75105 7.40775 9.64683 7.65804 9.51862 7.89615C9.4882 7.95265 9.47182 8.01565 9.47086 8.07982C9.46991 8.14399 9.48442 8.20744 9.51315 8.26483L10.0388 9.3161L9.31554 10.0401L8.26035 9.51213C8.20292 9.48349 8.13945 9.46911 8.07528 9.47016C8.01112 9.47121 7.94815 9.48766 7.8917 9.51817C7.65488 9.64559 7.40646 9.74924 7.14892 9.8267C7.08748 9.84505 7.03136 9.87792 6.98528 9.9225C6.9392 9.96709 6.90451 10.0221 6.88414 10.0829L6.51159 11.2021H5.48841L5.11586 10.0844C5.0956 10.0235 5.06096 9.96834 5.01487 9.92361C4.96878 9.87889 4.9126 9.84591 4.85108 9.82749C4.59257 9.75025 4.34212 9.64738 4.1044 9.51974C4.04804 9.48936 3.98522 9.47296 3.9212 9.47191C3.85718 9.47086 3.79385 9.48519 3.73653 9.5137L2.68446 10.0401L1.96121 9.3161L2.48841 8.26169C2.51714 8.20431 2.53165 8.14085 2.53069 8.07668C2.52974 8.01252 2.51336 7.94956 2.48294 7.89306C2.3552 7.65604 2.25129 7.4065 2.17365 7.1487C2.15519 7.0874 2.12229 7.03145 2.07771 6.98551C2.03313 6.93957 1.97818 6.90497 1.91747 6.88468L0.799787 6.51213V5.48899L1.91434 5.11722C1.97529 5.09696 2.03046 5.0623 2.07518 5.01621C2.11991 4.97012 2.15288 4.91395 2.17131 4.85242C2.24886 4.59288 2.3523 4.34196 2.4806 4.1034C2.51102 4.0469 2.5274 3.9839 2.52835 3.91973C2.52931 3.85557 2.5148 3.79211 2.48607 3.73472L1.96121 2.68502L2.68446 1.96178L3.73653 2.48742C3.79395 2.51606 3.85743 2.53044 3.92159 2.52939C3.98576 2.52834 4.04873 2.51189 4.10518 2.48138C4.34307 2.35321 4.59305 2.24897 4.85186 2.17128C4.9133 2.15293 4.96942 2.12011 5.01551 2.07552C5.06159 2.03094 5.09627 1.9759 5.11664 1.9151L5.48841 0.799758Z" fill="#9B9B9B"/>
<path d="M5.99868 3.19824C4.45742 3.19824 3.2002 4.45841 3.2002 5.99968C3.2002 7.54093 4.45742 8.79816 5.99868 8.79816C7.53994 8.79816 8.80011 7.54093 8.80011 5.99968C8.80011 4.45841 7.53994 3.19824 5.99868 3.19824ZM5.99868 3.99823C7.1077 3.99823 8.00013 4.89066 8.00013 5.99968C8.00013 7.1087 7.1077 7.99817 5.99868 7.99817C4.88966 7.99817 4.00018 7.1087 4.00018 5.99968C4.00018 4.89066 4.88966 3.99823 5.99868 3.99823Z" fill="#9B9B9B"/>
</svg>
