<svg width="18" height="19" viewBox="0 0 18 19" fill="none" xmlns="http://www.w3.org/2000/svg">
<path d="M7.87524 1.0625C7.75715 1.06244 7.64203 1.0995 7.54619 1.16851C7.45036 1.23753 7.37868 1.33495 7.34131 1.44698L6.77002 3.16085C6.53936 3.24206 6.31375 3.33517 6.09326 3.441L4.47717 2.6335C4.37157 2.58073 4.25204 2.56254 4.13551 2.58147C4.01898 2.60039 3.91135 2.65551 3.82788 2.739L2.23706 4.32979C2.15357 4.41326 2.09846 4.52092 2.07953 4.63745C2.0606 4.75398 2.07882 4.8735 2.13159 4.9791L2.93799 6.59189C2.83191 6.81348 2.73804 7.04012 2.65674 7.27196L0.945068 7.84323C0.833042 7.8806 0.735618 7.95229 0.666603 8.04812C0.597589 8.14395 0.560484 8.25903 0.560547 8.37712V10.6272C0.560484 10.7453 0.597589 10.8604 0.666603 10.9562C0.735618 11.0521 0.833042 11.1237 0.945068 11.1611L2.66223 11.7335C2.74317 11.9628 2.8361 12.1866 2.94128 12.4058L2.13159 14.0252C2.07882 14.1308 2.06061 14.2504 2.07954 14.3669C2.09847 14.4834 2.15358 14.591 2.23706 14.6745L3.82788 16.2665C3.91135 16.3499 4.01898 16.405 4.13551 16.4239C4.25204 16.4428 4.37157 16.4247 4.47717 16.3719L6.09326 15.5633C6.31352 15.6685 6.53856 15.7614 6.76892 15.8423L7.34131 17.5584C7.37868 17.6704 7.45036 17.7679 7.54619 17.8369C7.64203 17.9059 7.75715 17.943 7.87524 17.9429H10.1252C10.2433 17.943 10.3585 17.9059 10.4543 17.8369C10.5501 17.7679 10.6218 17.6704 10.6592 17.5584L11.2316 15.839C11.4602 15.7584 11.6842 15.6658 11.9028 15.5611L13.5233 16.3719C13.6289 16.4247 13.7484 16.4428 13.865 16.4239C13.9815 16.405 14.0891 16.3499 14.1726 16.2665L15.7634 14.6745C15.8469 14.591 15.902 14.4834 15.9209 14.3669C15.9399 14.2504 15.9217 14.1308 15.8689 14.0252L15.0614 12.4103C15.1672 12.1894 15.2603 11.9634 15.3415 11.7324L17.0554 11.1611C17.1674 11.1237 17.2649 11.0521 17.3339 10.9562C17.4029 10.8604 17.44 10.7453 17.4399 10.6272V8.37719C17.44 8.25909 17.4029 8.14395 17.3339 8.04812C17.2649 7.95229 17.1674 7.8806 17.0554 7.84323L15.3405 7.27196C15.2593 7.04167 15.166 6.81642 15.0603 6.5963L15.8689 4.9791C15.9217 4.8735 15.9399 4.75398 15.921 4.63745C15.902 4.52092 15.8469 4.41326 15.7634 4.32979L14.1726 2.739C14.0891 2.65551 13.9815 2.60039 13.865 2.58147C13.7484 2.56254 13.6289 2.58079 13.5233 2.63357L11.9116 3.43886C11.6893 3.33256 11.462 3.23901 11.2294 3.1576L10.6592 1.44704C10.6218 1.33501 10.5501 1.23753 10.4543 1.16851C10.3585 1.09949 10.2433 1.06244 10.1252 1.0625H7.87524ZM8.28064 2.18745H9.71985L10.2417 3.75411C10.2703 3.83995 10.3192 3.91768 10.3842 3.9806C10.4492 4.04352 10.5285 4.08979 10.6152 4.11555C10.9813 4.2244 11.3356 4.36999 11.6721 4.55064C11.7514 4.59337 11.8398 4.61644 11.9298 4.61792C12.0199 4.6194 12.1089 4.59924 12.1896 4.55914L13.6639 3.82197L14.6813 4.83929L13.9408 6.32024C13.9004 6.40095 13.88 6.49022 13.8813 6.58047C13.8827 6.67072 13.9057 6.75935 13.9485 6.83882C14.1287 7.17313 14.2753 7.5243 14.3846 7.88799C14.4105 7.97442 14.4567 8.05337 14.5194 8.11819C14.5821 8.18301 14.6595 8.23182 14.745 8.26047L16.3149 8.7834V10.2226L14.7461 10.7456C14.6606 10.7742 14.5832 10.823 14.5205 10.8878C14.4578 10.9526 14.4116 11.0316 14.3857 11.118C14.2765 11.4824 14.1299 11.8344 13.9496 12.1694C13.9068 12.2488 13.8838 12.3374 13.8824 12.4277C13.8811 12.518 13.9015 12.6072 13.9419 12.6879L14.6813 14.1667L13.6639 15.1851L12.1797 14.4424C12.0989 14.4021 12.0096 14.3819 11.9194 14.3834C11.8291 14.3849 11.7405 14.408 11.6611 14.4509C11.328 14.6301 10.9786 14.7759 10.6163 14.8849C10.5299 14.9107 10.451 14.9569 10.3861 15.0197C10.3213 15.0824 10.2725 15.1597 10.2439 15.2452L9.71985 16.8196H8.28064L7.75659 15.2474C7.72809 15.1617 7.67937 15.0841 7.61454 15.0212C7.54972 14.9583 7.47069 14.9119 7.38415 14.886C7.02053 14.7774 6.66824 14.6327 6.33386 14.4531C6.25459 14.4104 6.16621 14.3873 6.07617 14.3858C5.98612 14.3844 5.89704 14.4045 5.81641 14.4446L4.33655 15.1851L3.31921 14.1667L4.06079 12.6835C4.1012 12.6028 4.1216 12.5135 4.12026 12.4233C4.11892 12.333 4.09588 12.2445 4.05309 12.165C3.87341 11.8316 3.72725 11.4806 3.61804 11.118C3.59207 11.0318 3.5458 10.953 3.48309 10.8884C3.42038 10.8238 3.34308 10.7751 3.25768 10.7466L1.68554 10.2226V8.7834L3.25329 8.26047C3.33902 8.23197 3.41662 8.18321 3.47953 8.11838C3.54245 8.05355 3.58882 7.97454 3.61474 7.88799C3.72383 7.52292 3.86933 7.16997 4.0498 6.83441C4.09259 6.75493 4.11563 6.66632 4.11697 6.57606C4.11831 6.4858 4.09791 6.39654 4.05749 6.31582L3.31921 4.83929L4.33655 3.82197L5.81641 4.56134C5.89718 4.60163 5.98647 4.62186 6.07672 4.62038C6.16698 4.6189 6.25555 4.59576 6.33496 4.55284C6.66958 4.37256 7.02121 4.22593 7.38525 4.11666C7.47167 4.09084 7.55062 4.04468 7.61544 3.98197C7.68026 3.91925 7.72904 3.84183 7.75769 3.75631L8.28064 2.18745Z" fill="#9B9B9B"/>
<path d="M8.99792 5.56152C6.82996 5.56152 5.06152 7.3341 5.06152 9.50207C5.06152 11.67 6.82996 13.4385 8.99792 13.4385C11.1659 13.4385 12.9385 11.67 12.9385 9.50207C12.9385 7.3341 11.1659 5.56152 8.99792 5.56152ZM8.99792 6.6868C10.5579 6.6868 11.8132 7.94211 11.8132 9.50207C11.8132 11.062 10.5579 12.3132 8.99792 12.3132C7.43795 12.3132 6.1868 11.062 6.1868 9.50207C6.1868 7.94211 7.43795 6.6868 8.99792 6.6868Z" fill="#9B9B9B"/>
</svg>
