<svg width="10" height="13" viewBox="0 0 10 13" fill="none" xmlns="http://www.w3.org/2000/svg">
<path d="M6.05469 12.1875L6.47949 11.4404H8.74023C8.83138 11.4404 8.89811 11.4193 8.94043 11.377C8.986 11.3346 9.00879 11.2679 9.00879 11.1768V4.11621C9.00879 4.02507 8.986 3.95833 8.94043 3.91602C8.89811 3.87044 8.83138 3.84766 8.74023 3.84766H6.88965V3.10547H8.98438C9.21875 3.10547 9.4043 3.18197 9.54102 3.33496C9.68099 3.48796 9.75098 3.69303 9.75098 3.9502V11.3477C9.75098 11.6016 9.68099 11.805 9.54102 11.958C9.4043 12.111 9.21875 12.1875 8.98438 12.1875H6.05469ZM6.88965 6.19141V5.15137H7.98828C8.0957 5.15137 8.14941 5.20345 8.14941 5.30762V6.03516C8.14941 6.13932 8.0957 6.19141 7.98828 6.19141H6.88965ZM6.88965 7.96387V6.92383H7.98828C8.0957 6.92383 8.14941 6.97591 8.14941 7.08008V7.80762C8.14941 7.91178 8.0957 7.96387 7.98828 7.96387H6.88965ZM6.88965 9.73145V8.69629H7.98828C8.0957 8.69629 8.14941 8.74837 8.14941 8.85254V9.58008C8.14941 9.68099 8.0957 9.73145 7.98828 9.73145H6.88965ZM1.01562 12.1875C0.78125 12.1875 0.594076 12.111 0.454102 11.958C0.317383 11.805 0.249023 11.6016 0.249023 11.3477V1.60156C0.249023 1.3444 0.317383 1.14095 0.454102 0.991211C0.594076 0.838216 0.78125 0.761719 1.01562 0.761719H6.50879C6.74642 0.761719 6.93359 0.838216 7.07031 0.991211C7.20703 1.14095 7.27539 1.3444 7.27539 1.60156V11.3477C7.27539 11.6016 7.20703 11.805 7.07031 11.958C6.93359 12.111 6.74642 12.1875 6.50879 12.1875H1.01562ZM1.25977 11.4404H6.26465C6.35579 11.4404 6.42253 11.4193 6.46484 11.377C6.51042 11.3346 6.5332 11.2679 6.5332 11.1768V1.77246C6.5332 1.68132 6.51042 1.61458 6.46484 1.57227C6.42253 1.52669 6.35579 1.50391 6.26465 1.50391H1.25977C1.17188 1.50391 1.10514 1.52669 1.05957 1.57227C1.014 1.61458 0.991211 1.68132 0.991211 1.77246V11.1768C0.991211 11.2679 1.014 11.3346 1.05957 11.377C1.10514 11.4193 1.17188 11.4404 1.25977 11.4404ZM2.24121 4.19434C2.111 4.19434 2.0459 4.1276 2.0459 3.99414V3.07129C2.0459 2.93783 2.111 2.87109 2.24121 2.87109H3.18848C3.32194 2.87109 3.38867 2.93783 3.38867 3.07129V3.99414C3.38867 4.1276 3.32194 4.19434 3.18848 4.19434H2.24121ZM4.33105 4.19434C4.20085 4.19434 4.13574 4.1276 4.13574 3.99414V3.07129C4.13574 2.93783 4.20085 2.87109 4.33105 2.87109H5.27832C5.41178 2.87109 5.47852 2.93783 5.47852 3.07129V3.99414C5.47852 4.1276 5.41178 4.19434 5.27832 4.19434H4.33105ZM2.24121 6.12793C2.111 6.12793 2.0459 6.0612 2.0459 5.92773V5.00488C2.0459 4.87142 2.111 4.80469 2.24121 4.80469H3.18848C3.32194 4.80469 3.38867 4.87142 3.38867 5.00488V5.92773C3.38867 6.0612 3.32194 6.12793 3.18848 6.12793H2.24121ZM4.33105 6.12793C4.20085 6.12793 4.13574 6.0612 4.13574 5.92773V5.00488C4.13574 4.87142 4.20085 4.80469 4.33105 4.80469H5.27832C5.41178 4.80469 5.47852 4.87142 5.47852 5.00488V5.92773C5.47852 6.0612 5.41178 6.12793 5.27832 6.12793H4.33105ZM2.24121 8.06152C2.111 8.06152 2.0459 7.99479 2.0459 7.86133V6.93848C2.0459 6.80501 2.111 6.73828 2.24121 6.73828H3.18848C3.32194 6.73828 3.38867 6.80501 3.38867 6.93848V7.86133C3.38867 7.99479 3.32194 8.06152 3.18848 8.06152H2.24121ZM4.33105 8.06152C4.20085 8.06152 4.13574 7.99479 4.13574 7.86133V6.93848C4.13574 6.80501 4.20085 6.73828 4.33105 6.73828H5.27832C5.41178 6.73828 5.47852 6.80501 5.47852 6.93848V7.86133C5.47852 7.99479 5.41178 8.06152 5.27832 8.06152H4.33105ZM2.3291 11.7969V10.0684C2.3291 9.86979 2.37305 9.72331 2.46094 9.62891C2.55208 9.53125 2.69368 9.48242 2.88574 9.48242H4.64355C4.83561 9.48242 4.97559 9.53125 5.06348 9.62891C5.15462 9.72331 5.2002 9.86979 5.2002 10.0684V11.7969H4.59473V10.2393C4.59473 10.1416 4.54427 10.0928 4.44336 10.0928H3.08594C2.98503 10.0928 2.93457 10.1416 2.93457 10.2393V11.7969H2.3291Z" fill="#2466F4"/>
</svg>
