<svg width="12" height="9" viewBox="0 0 12 9" fill="none" xmlns="http://www.w3.org/2000/svg">
<path d="M2.45508 6.94043C2.31185 6.94043 2.19629 6.89648 2.1084 6.80859C2.02051 6.7207 1.97656 6.6084 1.97656 6.47168V5.56836C1.97656 5.42839 2.02051 5.31608 2.1084 5.23145C2.19629 5.14355 2.31185 5.09961 2.45508 5.09961H3.65137C3.7946 5.09961 3.91016 5.14355 3.99805 5.23145C4.08594 5.31608 4.12988 5.42839 4.12988 5.56836V6.47168C4.12988 6.6084 4.08594 6.7207 3.99805 6.80859C3.91016 6.89648 3.7946 6.94043 3.65137 6.94043H2.45508ZM0.658203 3.36133V2.25293H11.3467V3.36133H0.658203ZM1.7959 8.64941C1.28483 8.64941 0.900716 8.52246 0.643555 8.26855C0.389648 8.0179 0.262695 7.64193 0.262695 7.14062V1.82324C0.262695 1.31868 0.389648 0.941081 0.643555 0.69043C0.900716 0.436523 1.28483 0.30957 1.7959 0.30957H10.2041C10.7152 0.30957 11.0977 0.436523 11.3516 0.69043C11.6087 0.944336 11.7373 1.32194 11.7373 1.82324V7.14062C11.7373 7.64193 11.6087 8.0179 11.3516 8.26855C11.0977 8.52246 10.7152 8.64941 10.2041 8.64941H1.7959ZM1.80566 7.86328H10.1943C10.4352 7.86328 10.6208 7.7998 10.751 7.67285C10.8844 7.54264 10.9512 7.35059 10.9512 7.09668V1.86719C10.9512 1.61328 10.8844 1.42122 10.751 1.29102C10.6208 1.16081 10.4352 1.0957 10.1943 1.0957H1.80566C1.56152 1.0957 1.37435 1.16081 1.24414 1.29102C1.11393 1.42122 1.04883 1.61328 1.04883 1.86719V7.09668C1.04883 7.35059 1.11393 7.54264 1.24414 7.67285C1.37435 7.7998 1.56152 7.86328 1.80566 7.86328Z" fill="#2466F4"/>
</svg>
