<svg width="10" height="11" viewBox="0 0 10 11" fill="none" xmlns="http://www.w3.org/2000/svg">
<path d="M5 10.1816C4.66146 10.1816 4.34245 10.0645 4.04297 9.83008C3.74674 9.5957 3.4847 9.26693 3.25684 8.84375C3.03223 8.42057 2.85482 7.92415 2.72461 7.35449C2.59766 6.78158 2.53418 6.1582 2.53418 5.48438C2.53418 4.81055 2.59766 4.18717 2.72461 3.61426C2.85482 3.03809 3.03223 2.53841 3.25684 2.11523C3.48145 1.6888 3.74186 1.3584 4.03809 1.12402C4.33757 0.889648 4.6582 0.772461 5 0.772461C5.3418 0.772461 5.66081 0.889648 5.95703 1.12402C6.25651 1.3584 6.51855 1.6888 6.74316 2.11523C6.97103 2.53841 7.14844 3.03809 7.27539 3.61426C7.40234 4.18717 7.46582 4.81055 7.46582 5.48438C7.46582 6.1582 7.40072 6.78158 7.27051 7.35449C7.14355 7.92415 6.96615 8.42057 6.73828 8.84375C6.51367 9.26693 6.25163 9.5957 5.95215 9.83008C5.65592 10.0645 5.33854 10.1816 5 10.1816ZM5 1.36328C4.76237 1.36328 4.53451 1.47396 4.31641 1.69531C4.09831 1.91341 3.90462 2.21289 3.73535 2.59375C3.56608 2.97461 3.43262 3.41406 3.33496 3.91211C3.2373 4.4069 3.18848 4.93099 3.18848 5.48438C3.18848 6.03125 3.2373 6.55046 3.33496 7.04199C3.43262 7.53353 3.56608 7.97135 3.73535 8.35547C3.90462 8.73633 4.09831 9.03581 4.31641 9.25391C4.53451 9.47526 4.76237 9.58594 5 9.58594C5.23763 9.58594 5.46549 9.47526 5.68359 9.25391C5.90169 9.03581 6.09538 8.73633 6.26465 8.35547C6.43392 7.97135 6.56738 7.53353 6.66504 7.04199C6.7627 6.55046 6.81152 6.03125 6.81152 5.48438C6.81152 4.93099 6.7627 4.4069 6.66504 3.91211C6.56738 3.41406 6.43392 2.97461 6.26465 2.59375C6.09538 2.21289 5.90169 1.91341 5.68359 1.69531C5.46549 1.47396 5.23763 1.36328 5 1.36328ZM4.68262 0.84082H5.32227V10.0889H4.68262V0.84082ZM5 7.31055C5.5013 7.31055 5.97656 7.35286 6.42578 7.4375C6.875 7.51888 7.27865 7.6377 7.63672 7.79395C7.99805 7.94694 8.29264 8.1276 8.52051 8.33594L8.02734 8.74121C7.8125 8.57194 7.55371 8.42871 7.25098 8.31152C6.9515 8.19108 6.61133 8.10156 6.23047 8.04297C5.85286 7.98112 5.44271 7.9502 5 7.9502C4.55729 7.9502 4.14551 7.98112 3.76465 8.04297C3.38704 8.10156 3.04688 8.19108 2.74414 8.31152C2.44466 8.42871 2.1875 8.57194 1.97266 8.74121L1.47949 8.33594C1.70736 8.1276 2.00033 7.94694 2.3584 7.79395C2.71973 7.6377 3.125 7.51888 3.57422 7.4375C4.02344 7.35286 4.4987 7.31055 5 7.31055ZM9.50684 5.15234V5.79199H0.493164V5.15234H9.50684ZM5 3.66309C4.4987 3.66309 4.02344 3.6224 3.57422 3.54102C3.125 3.45638 2.71973 3.33757 2.3584 3.18457C2.00033 3.02832 1.70736 2.84603 1.47949 2.6377L1.97266 2.23242C2.1875 2.40169 2.44466 2.54655 2.74414 2.66699C3.04688 2.78418 3.38704 2.8737 3.76465 2.93555C4.14551 2.99414 4.55729 3.02344 5 3.02344C5.44271 3.02344 5.85286 2.99414 6.23047 2.93555C6.61133 2.8737 6.9515 2.78418 7.25098 2.66699C7.55371 2.54655 7.8125 2.40169 8.02734 2.23242L8.52051 2.6377C8.29264 2.84603 7.99805 3.02832 7.63672 3.18457C7.27865 3.33757 6.875 3.45638 6.42578 3.54102C5.97656 3.6224 5.5013 3.66309 5 3.66309ZM5 10.4551C4.31315 10.4551 3.66862 10.3249 3.06641 10.0645C2.46419 9.80729 1.93522 9.45085 1.47949 8.99512C1.02376 8.53939 0.66569 8.01042 0.405273 7.4082C0.148112 6.80599 0.0195312 6.16146 0.0195312 5.47461C0.0195312 4.78776 0.148112 4.14323 0.405273 3.54102C0.66569 2.9388 1.02376 2.40983 1.47949 1.9541C1.93522 1.49512 2.46419 1.13704 3.06641 0.879883C3.66862 0.622721 4.31315 0.494141 5 0.494141C5.68685 0.494141 6.33138 0.622721 6.93359 0.879883C7.53581 1.13704 8.06478 1.49512 8.52051 1.9541C8.97624 2.40983 9.33268 2.9388 9.58984 3.54102C9.85026 4.14323 9.98047 4.78776 9.98047 5.47461C9.98047 6.16146 9.85026 6.80599 9.58984 7.4082C9.33268 8.01042 8.97624 8.53939 8.52051 8.99512C8.06478 9.45085 7.53581 9.80729 6.93359 10.0645C6.33138 10.3249 5.68685 10.4551 5 10.4551ZM5 9.79102C5.5957 9.79102 6.15397 9.67871 6.6748 9.4541C7.19564 9.22949 7.65462 8.92025 8.05176 8.52637C8.44889 8.12923 8.75814 7.67025 8.97949 7.14941C9.2041 6.62858 9.31641 6.07031 9.31641 5.47461C9.31641 4.87891 9.2041 4.32064 8.97949 3.7998C8.75814 3.27572 8.44889 2.81673 8.05176 2.42285C7.65462 2.02572 7.19564 1.71647 6.6748 1.49512C6.15397 1.27051 5.5957 1.1582 5 1.1582C4.4043 1.1582 3.84603 1.27051 3.3252 1.49512C2.80436 1.71647 2.34538 2.02572 1.94824 2.42285C1.55111 2.81673 1.24023 3.27572 1.01562 3.7998C0.794271 4.32064 0.683594 4.87891 0.683594 5.47461C0.683594 6.07031 0.794271 6.62858 1.01562 7.14941C1.24023 7.67025 1.55111 8.12923 1.94824 8.52637C2.34538 8.92025 2.80436 9.22949 3.3252 9.4541C3.84603 9.67871 4.4043 9.79102 5 9.79102Z" fill="#2466F4"/>
</svg>