<svg width="13" height="9" viewBox="0 0 13 9" fill="none" xmlns="http://www.w3.org/2000/svg">
<path d="M1.24121 7.00391C1.06868 7.00391 0.912435 6.96322 0.772461 6.88184C0.635742 6.80046 0.526693 6.69141 0.445312 6.55469C0.363932 6.41797 0.323242 6.26335 0.323242 6.09082V2.84863C0.323242 2.67611 0.363932 2.52148 0.445312 2.38477C0.526693 2.24479 0.635742 2.13411 0.772461 2.05273C0.912435 1.97135 1.06868 1.93066 1.24121 1.93066H1.86621V2.61914H1.24609C1.17773 2.61914 1.12077 2.64355 1.0752 2.69238C1.03288 2.73796 1.01172 2.79492 1.01172 2.86328V6.08105C1.01172 6.14616 1.03288 6.2015 1.0752 6.24707C1.12077 6.29264 1.17773 6.31543 1.24609 6.31543H1.86621V7.00391H1.24121ZM2.82324 8.08301C2.42611 8.08301 2.11849 7.96582 1.90039 7.73145C1.68555 7.49707 1.57812 7.16667 1.57812 6.74023V2.20898C1.57812 1.7793 1.68066 1.44727 1.88574 1.21289C2.09408 0.97526 2.38704 0.856445 2.76465 0.856445H3.17969C3.58659 0.856445 3.90072 0.97526 4.12207 1.21289C4.34668 1.44727 4.45898 1.7793 4.45898 2.20898V6.74023C4.45898 7.16667 4.34505 7.49707 4.11719 7.73145C3.89258 7.96582 3.57682 8.08301 3.16992 8.08301H2.82324ZM2.83301 7.3457H3.15527C3.33105 7.3457 3.4694 7.29362 3.57031 7.18945C3.67122 7.08203 3.72168 6.93229 3.72168 6.74023V2.20898C3.72168 2.01693 3.67285 1.86719 3.5752 1.75977C3.47754 1.64909 3.34082 1.59375 3.16504 1.59375H2.7793C2.63607 1.59375 2.52214 1.64909 2.4375 1.75977C2.35612 1.86719 2.31543 2.01693 2.31543 2.20898V6.74023C2.31543 6.93229 2.361 7.08203 2.45215 7.18945C2.54329 7.29362 2.67025 7.3457 2.83301 7.3457ZM4.33203 4.06934V3.33203H8.66797V4.06934H4.33203ZM4.33203 5.60254V4.86523H8.66797V5.60254H4.33203ZM9.83008 8.08301C9.41992 8.08301 9.10254 7.96582 8.87793 7.73145C8.65332 7.49707 8.54102 7.16667 8.54102 6.74023V2.20898C8.54102 1.7793 8.65169 1.44727 8.87305 1.21289C9.09766 0.97526 9.41341 0.856445 9.82031 0.856445H10.2305C10.6081 0.856445 10.901 0.97526 11.1094 1.21289C11.3177 1.44727 11.4219 1.7793 11.4219 2.20898V6.74023C11.4219 7.16667 11.3128 7.49707 11.0947 7.73145C10.8766 7.96582 10.5706 8.08301 10.1768 8.08301H9.83008ZM9.84473 7.3457H10.167C10.3265 7.3457 10.4518 7.29362 10.543 7.18945C10.6374 7.08203 10.6846 6.93229 10.6846 6.74023V2.20898C10.6846 2.01693 10.6423 1.86719 10.5576 1.75977C10.4762 1.64909 10.3639 1.59375 10.2207 1.59375H9.83496C9.65918 1.59375 9.52246 1.64909 9.4248 1.75977C9.32715 1.86719 9.27832 2.01693 9.27832 2.20898V6.74023C9.27832 6.93229 9.32715 7.08203 9.4248 7.18945C9.52572 7.29362 9.66569 7.3457 9.84473 7.3457ZM11.1338 7.00391V6.31543H11.7539C11.819 6.31543 11.8743 6.29264 11.9199 6.24707C11.9655 6.2015 11.9883 6.14616 11.9883 6.08105V2.86328C11.9883 2.79492 11.9655 2.73796 11.9199 2.69238C11.8743 2.64355 11.819 2.61914 11.7539 2.61914H11.1338V1.93066H11.7588C11.9313 1.93066 12.0859 1.97135 12.2227 2.05273C12.3626 2.13411 12.4733 2.24479 12.5547 2.38477C12.6361 2.52148 12.6768 2.67611 12.6768 2.84863V6.09082C12.6768 6.26335 12.6361 6.41797 12.5547 6.55469C12.4733 6.69141 12.3626 6.80046 12.2227 6.88184C12.0859 6.96322 11.9313 7.00391 11.7588 7.00391H11.1338Z" fill="#76CB5D"/>
</svg>
