<svg width="18" height="19" viewBox="0 0 18 19" fill="none" xmlns="http://www.w3.org/2000/svg">
<path d="M8.97266 2.03931L8.8433 1.55633L8.84326 1.55634L8.97266 2.03931ZM9.57715 2.03931L9.70655 1.55634L9.70653 1.55634L9.57715 2.03931ZM10.6514 2.89282L10.2978 3.24637L10.2978 3.24638L10.6514 2.89282ZM11.4785 3.71997L11.125 4.07352L11.4804 4.42896L11.8339 4.07164L11.4785 3.71997ZM11.7529 3.44263L11.3994 3.08908L11.3975 3.09096L11.7529 3.44263ZM12.8545 2.66431L12.8549 2.16431H12.8545V2.66431ZM13.9551 3.44263L13.6015 3.79616L13.6015 3.79618L13.9551 3.44263ZM15.1504 4.63794L15.5044 4.28483L15.5039 4.28439L15.1504 4.63794ZM15.835 5.64478H16.335V5.64446L15.835 5.64478ZM15.0566 6.74634L15.4077 7.10237L15.4102 7.0999L15.0566 6.74634ZM14.7764 7.02271L14.4253 6.66668L14.0668 7.02022L14.4228 7.37626L14.7764 7.02271ZM14.7783 7.02466L14.4247 7.37823L14.4285 7.38195L14.7783 7.02466ZM15.0566 7.29712L15.4105 6.94386L15.4064 6.93982L15.0566 7.29712ZM15.6064 7.8479L15.2526 8.20114L15.2529 8.20147L15.6064 7.8479ZM16.46 8.92212L15.977 9.05161L15.977 9.05163L16.46 8.92212ZM16.46 9.52661L16.9429 9.65601L16.9429 9.65596L16.46 9.52661ZM15.6064 10.6008L15.96 10.9544L15.6064 10.6008ZM14.5322 11.4543L14.6615 11.9373L14.6616 11.9373L14.5322 11.4543ZM13.9277 11.4543L13.7982 11.9373L13.7982 11.9373L13.9277 11.4543ZM12.0273 9.77466L12.3809 9.4211L12.0276 9.0678L11.674 9.42085L12.0273 9.77466ZM9.27246 12.5256L8.91916 12.1718L8.5651 12.5254L8.91891 12.8792L9.27246 12.5256ZM10.9541 14.428L11.437 14.2985L11.437 14.2984L10.9541 14.428ZM10.9541 15.0325L11.4371 15.1619L11.4371 15.1618L10.9541 15.0325ZM10.1006 16.1067L10.4541 16.4602L10.1006 16.1067ZM9.02637 16.9602L9.15571 17.4432L9.15577 17.4432L9.02637 16.9602ZM8.42188 16.9602L8.55139 16.4773L8.55136 16.4773L8.42188 16.9602ZM7.34766 16.1067L7.70123 15.7532L7.7009 15.7528L7.34766 16.1067ZM6.79688 15.5569L6.44332 15.9104L6.44364 15.9108L6.79688 15.5569ZM6.51953 15.2795L6.87308 14.926L6.51701 14.5699L6.16348 14.9285L6.51953 15.2795ZM6.24609 15.5569L6.59967 15.9104L6.60215 15.9079L6.24609 15.5569ZM5.14551 16.3352V16.8352H5.14576L5.14551 16.3352ZM4.04395 15.5569L4.39751 15.2033L4.3975 15.2033L4.04395 15.5569ZM2.94238 14.4553L2.58882 14.8089L2.58883 14.8089L2.94238 14.4553ZM2.16406 13.3538L1.66406 13.3535V13.3538H2.16406ZM2.94238 12.2532L2.59071 11.8977L2.58884 11.8996L2.94238 12.2532ZM3.21973 11.9788L3.5714 12.3342L3.92872 11.9806L3.57328 11.6252L3.21973 11.9788ZM2.39258 11.1516L2.74613 10.7981L2.74612 10.798L2.39258 11.1516ZM1.53906 10.0774L1.05609 10.2068L1.0561 10.2068L1.53906 10.0774ZM1.53906 9.4729L1.0561 9.34349L1.05608 9.34356L1.53906 9.4729ZM2.39258 8.39868L2.03903 8.04513L2.03901 8.04514L2.39258 8.39868ZM3.4668 7.54614L3.33742 7.06317L3.33739 7.06318L3.4668 7.54614ZM4.07129 7.54614L4.20082 7.06321L4.20071 7.06318L4.07129 7.54614ZM5.14551 8.39868L5.49906 8.04513L5.49906 8.04513L5.14551 8.39868ZM5.97266 9.22583L5.6191 9.57938L5.97291 9.93319L6.32646 9.57913L5.97266 9.22583ZM8.72363 6.47095L9.07744 6.82425L9.43049 6.4707L9.07719 6.11739L8.72363 6.47095ZM7.89844 5.64575L7.54488 5.9993L7.54488 5.99931L7.89844 5.64575ZM7.0459 4.57153L6.56294 4.70095L6.56297 4.70107L7.0459 4.57153ZM7.0459 3.96704L6.56293 3.83764L6.56293 3.83767L7.0459 3.96704ZM7.89844 2.89282L7.5449 2.53925L7.54488 2.53927L7.89844 2.89282ZM8.97266 2.03931L9.10201 2.52228C9.21526 2.49195 9.33461 2.49197 9.44777 2.52228L9.57715 2.03931L9.70653 1.55634C9.42385 1.48061 9.12603 1.48061 8.8433 1.55633L8.97266 2.03931ZM9.57715 2.03931L9.44775 2.52227C9.49964 2.53618 9.57444 2.57061 9.71426 2.68732C9.85936 2.80842 10.0339 2.98246 10.2978 3.24637L10.6514 2.89282L11.0049 2.53928C10.7542 2.28858 10.5429 2.07636 10.3551 1.91961C10.162 1.75846 9.95698 1.62344 9.70655 1.55634L9.57715 2.03931ZM10.6514 2.89282L10.2978 3.24638L11.125 4.07352L11.4785 3.71997L11.8321 3.36642L11.0049 2.53927L10.6514 2.89282ZM11.4785 3.71997L11.8339 4.07164L12.1084 3.7943L11.7529 3.44263L11.3975 3.09096L11.1231 3.3683L11.4785 3.71997ZM11.7529 3.44263L12.1065 3.79616C12.3759 3.52678 12.5433 3.36101 12.6805 3.25651C12.8061 3.16076 12.8463 3.16431 12.8545 3.16431V2.66431V2.16431C12.5402 2.16431 12.2891 2.29748 12.0744 2.46112C11.8711 2.61601 11.649 2.8394 11.3994 3.08909L11.7529 3.44263ZM12.8545 2.66431L12.8541 3.16431C12.8622 3.16431 12.9023 3.16075 13.0279 3.25654C13.1649 3.36111 13.3322 3.52683 13.6015 3.79616L13.9551 3.44263L14.3086 3.08909C14.0592 2.83964 13.8374 2.61632 13.6344 2.46149C13.4199 2.29787 13.1691 2.16454 12.8549 2.16431L12.8545 2.66431ZM13.9551 3.44263L13.6015 3.79618L14.7968 4.99149L15.1504 4.63794L15.5039 4.28439L14.3086 3.08907L13.9551 3.44263ZM15.1504 4.63794L14.7964 4.99105C15.0308 5.22608 15.1724 5.37422 15.2594 5.49373C15.3377 5.60138 15.335 5.63704 15.335 5.64509L15.835 5.64478L16.335 5.64446C16.3348 5.3503 16.2178 5.11117 16.0679 4.90527C15.9267 4.71123 15.7261 4.50705 15.5044 4.28483L15.1504 4.63794ZM15.835 5.64478H15.335C15.335 5.65298 15.3385 5.69316 15.2428 5.8188C15.1383 5.95593 14.9725 6.12339 14.7031 6.39277L15.0566 6.74634L15.4102 7.0999C15.6599 6.85023 15.8833 6.62816 16.0381 6.42491C16.2018 6.21016 16.335 5.95909 16.335 5.64478H15.835ZM15.0566 6.74634L14.7056 6.39031L14.4253 6.66668L14.7764 7.02271L15.1274 7.37873L15.4077 7.10236L15.0566 6.74634ZM14.7764 7.02271L14.4228 7.37626L14.4248 7.37821L14.7783 7.02466L15.1319 6.6711L15.1299 6.66915L14.7764 7.02271ZM14.7783 7.02466L14.4285 7.38195L14.7069 7.65441L15.0566 7.29712L15.4064 6.93982L15.1281 6.66736L14.7783 7.02466ZM15.0566 7.29712L14.7028 7.65036L15.2526 8.20114L15.6064 7.8479L15.9603 7.49466L15.4105 6.94388L15.0566 7.29712ZM15.6064 7.8479L15.2529 8.20147C15.5168 8.46531 15.6908 8.63989 15.8119 8.78499C15.9286 8.92483 15.9631 8.99968 15.977 9.05161L16.46 8.92212L16.9429 8.79263C16.8758 8.54229 16.7408 8.33729 16.5796 8.14422C16.4229 7.95641 16.2107 7.74501 15.96 7.49433L15.6064 7.8479ZM16.46 8.92212L15.977 9.05163C16.0073 9.16459 16.0073 9.28391 15.977 9.39727L16.46 9.52661L16.9429 9.65596C17.0186 9.37333 17.0188 9.07545 16.9429 8.7926L16.46 8.92212ZM16.46 9.52661L15.977 9.39721C15.9631 9.44911 15.9287 9.52389 15.812 9.6637C15.6909 9.80878 15.5168 9.98334 15.2529 10.2473L15.6064 10.6008L15.96 10.9544C16.2107 10.7037 16.4229 10.4923 16.5797 10.3045C16.7408 10.1114 16.8758 9.90644 16.9429 9.65601L16.46 9.52661ZM15.6064 10.6008L15.2529 10.2473C14.989 10.5111 14.8145 10.6852 14.6694 10.8063C14.5295 10.923 14.4547 10.9575 14.4028 10.9714L14.5322 11.4543L14.6616 11.9373C14.9121 11.8702 15.1171 11.7351 15.3102 11.574C15.498 11.4173 15.7094 11.205 15.96 10.9544L15.6064 10.6008ZM14.5322 11.4543L14.4029 10.9714C14.2896 11.0017 14.1701 11.0017 14.0572 10.9714L13.9277 11.4543L13.7982 11.9373C14.081 12.0131 14.3791 12.0129 14.6615 11.9373L14.5322 11.4543ZM13.9277 11.4543L14.0573 10.9714C14.0054 10.9575 13.9305 10.923 13.7906 10.8062C13.6455 10.6851 13.4708 10.5111 13.2071 10.2473L12.8535 10.6008L12.5 10.9544C12.7506 11.205 12.962 11.4172 13.1498 11.574C13.3429 11.7351 13.5479 11.8701 13.7982 11.9373L13.9277 11.4543ZM12.8535 10.6008L13.2071 10.2473L12.3809 9.4211L12.0273 9.77466L11.6738 10.1282L12.5 10.9544L12.8535 10.6008ZM12.0273 9.77466L11.674 9.42085L8.91916 12.1718L9.27246 12.5256L9.62576 12.8794L12.3806 10.1285L12.0273 9.77466ZM9.27246 12.5256L8.91891 12.8792L9.74703 13.7073L10.1006 13.3538L10.4541 13.0002L9.62601 12.1721L9.27246 12.5256ZM10.1006 13.3538L9.74703 13.7073C10.0108 13.9711 10.1848 14.1457 10.306 14.2908C10.4227 14.4307 10.4573 14.5056 10.4712 14.5575L10.9541 14.428L11.437 14.2984C11.3699 14.0481 11.2348 13.8431 11.0737 13.6501C10.917 13.4622 10.7048 13.2508 10.4541 13.0002L10.1006 13.3538ZM10.9541 14.428L10.4712 14.5575C10.5014 14.6703 10.5014 14.7899 10.4711 14.9032L10.9541 15.0325L11.4371 15.1618C11.5127 14.8794 11.5129 14.5813 11.437 14.2985L10.9541 14.428ZM10.9541 15.0325L10.4711 14.9031C10.4572 14.9549 10.4228 15.0297 10.3061 15.1696C10.1849 15.3147 10.0109 15.4893 9.74703 15.7531L10.1006 16.1067L10.4541 16.4602C10.7048 16.2096 10.917 15.9982 11.0738 15.8104C11.2349 15.6174 11.37 15.4123 11.4371 15.1619L10.9541 15.0325ZM10.1006 16.1067L9.74703 15.7531C9.48309 16.0171 9.30854 16.1911 9.16345 16.3122C9.02364 16.4289 8.94886 16.4633 8.89697 16.4772L9.02637 16.9602L9.15577 17.4432C9.4062 17.3761 9.6112 17.2411 9.80426 17.0799C9.99203 16.9232 10.2034 16.711 10.4541 16.4602L10.1006 16.1067ZM9.02637 16.9602L8.89702 16.4772C8.78367 16.5076 8.66434 16.5076 8.55139 16.4773L8.42188 16.9602L8.29236 17.4431C8.57521 17.519 8.87309 17.5189 9.15571 17.4432L9.02637 16.9602ZM8.42188 16.9602L8.55136 16.4773C8.49944 16.4633 8.42459 16.4289 8.28474 16.3122C8.13964 16.191 7.96506 16.017 7.70123 15.7532L7.34766 16.1067L6.99408 16.4602C7.24477 16.7109 7.45616 16.9231 7.64398 17.0799C7.83705 17.241 8.04205 17.376 8.29239 17.4431L8.42188 16.9602ZM7.34766 16.1067L7.7009 15.7528L7.15011 15.203L6.79688 15.5569L6.44364 15.9108L6.99442 16.4606L7.34766 16.1067ZM6.79688 15.5569L7.15043 15.2033L6.87308 14.926L6.51953 15.2795L6.16598 15.6331L6.44332 15.9104L6.79688 15.5569ZM6.51953 15.2795L6.16348 14.9285L5.89004 15.2058L6.24609 15.5569L6.60215 15.9079L6.87558 15.6306L6.51953 15.2795ZM6.24609 15.5569L5.89253 15.2033C5.62322 15.4727 5.45595 15.6384 5.31887 15.743C5.19328 15.8388 5.15325 15.8352 5.14525 15.8352L5.14551 16.3352L5.14576 16.8352C5.46008 16.835 5.711 16.7016 5.92544 16.538C6.1284 16.3832 6.35026 16.1598 6.59966 15.9104L6.24609 15.5569ZM5.14551 16.3352V15.8352C5.13733 15.8352 5.09714 15.8388 4.97147 15.743C4.83432 15.6385 4.66685 15.4727 4.39751 15.2033L4.04395 15.5569L3.69038 15.9104C3.94003 16.1601 4.1621 16.3835 4.36536 16.5384C4.58009 16.702 4.83119 16.8352 5.14551 16.8352V16.3352ZM4.04395 15.5569L4.3975 15.2033L3.29594 14.1018L2.94238 14.4553L2.58883 14.8089L3.69039 15.9104L4.04395 15.5569ZM2.94238 14.4553L3.29595 14.1018C3.02659 13.8324 2.86081 13.6649 2.75629 13.5278C2.6605 13.4021 2.66406 13.3619 2.66406 13.3538H2.16406H1.66406C1.66406 13.6681 1.79729 13.9192 1.96091 14.1339C2.1158 14.3371 2.33918 14.5592 2.58882 14.8089L2.94238 14.4553ZM2.16406 13.3538L2.66406 13.354C2.66407 13.346 2.66046 13.306 2.75628 13.1804C2.86087 13.0433 3.0266 12.876 3.29592 12.6067L2.94238 12.2532L2.58884 11.8996C2.33945 12.149 2.11611 12.3708 1.96126 12.5738C1.79763 12.7882 1.66423 13.0392 1.66406 13.3535L2.16406 13.3538ZM2.94238 12.2532L3.29405 12.6086L3.5714 12.3342L3.21973 11.9788L2.86806 11.6233L2.59071 11.8977L2.94238 12.2532ZM3.21973 11.9788L3.57328 11.6252L2.74613 10.7981L2.39258 11.1516L2.03902 11.5052L2.86617 12.3323L3.21973 11.9788ZM2.39258 11.1516L2.74612 10.798C2.48221 10.5342 2.30818 10.3596 2.18708 10.2145C2.07037 10.0747 2.03593 9.99988 2.02203 9.94798L1.53906 10.0774L1.0561 10.2068C1.1232 10.4572 1.25822 10.6622 1.41937 10.8553C1.57611 11.0431 1.78834 11.2545 2.03904 11.5052L2.39258 11.1516ZM1.53906 10.0774L2.02204 9.94803C1.99173 9.83486 1.99171 9.7155 2.02204 9.60224L1.53906 9.4729L1.05608 9.34356C0.980371 9.62628 0.980376 9.92409 1.05609 10.2068L1.53906 10.0774ZM1.53906 9.4729L2.02203 9.60231C2.03593 9.55042 2.07035 9.47564 2.18707 9.33582C2.30819 9.19072 2.48222 9.01617 2.74615 8.75222L2.39258 8.39868L2.03901 8.04514C1.78833 8.29584 1.57611 8.50724 1.41938 8.695C1.25824 8.88805 1.1232 9.09305 1.0561 9.34349L1.53906 9.4729ZM2.39258 8.39868L2.74613 8.75224C3.00984 8.48853 3.1844 8.31474 3.32935 8.19396C3.46899 8.07761 3.54395 8.04311 3.5962 8.02911L3.4668 7.54614L3.33739 7.06318C3.08736 7.13017 2.88247 7.26468 2.68921 7.42571C2.50126 7.58232 2.28985 7.7943 2.03903 8.04513L2.39258 8.39868ZM3.4668 7.54614L3.59617 8.02912C3.70945 7.99877 3.82869 7.99877 3.94187 8.0291L4.07129 7.54614L4.20071 7.06318C3.91789 6.98739 3.62015 6.98744 3.33742 7.06317L3.4668 7.54614ZM4.07129 7.54614L3.94176 8.02907C3.99406 8.0431 4.06907 8.07765 4.20875 8.19402C4.35371 8.3148 4.5283 8.48858 4.79196 8.75224L5.14551 8.39868L5.49906 8.04513C5.24823 7.7943 5.03682 7.58234 4.84885 7.42573C4.65559 7.26472 4.45074 7.13024 4.20082 7.06321L4.07129 7.54614ZM5.14551 8.39868L4.79195 8.75223L5.6191 9.57938L5.97266 9.22583L6.32621 8.87228L5.49906 8.04513L5.14551 8.39868ZM5.97266 9.22583L6.32646 9.57913L9.07744 6.82425L8.72363 6.47095L8.36983 6.11764L5.61885 8.87253L5.97266 9.22583ZM8.72363 6.47095L9.07719 6.11739L8.25199 5.2922L7.89844 5.64575L7.54488 5.99931L8.37008 6.8245L8.72363 6.47095ZM7.89844 5.64575L8.25199 5.2922C7.98834 5.02855 7.81455 4.85395 7.69378 4.70899C7.57741 4.56931 7.54286 4.4943 7.52883 4.442L7.0459 4.57153L6.56297 4.70107C6.63 4.95098 6.76448 5.15583 6.92549 5.34909C7.0821 5.53706 7.29405 5.74847 7.54488 5.9993L7.89844 5.64575ZM7.0459 4.57153L7.52886 4.44211C7.49853 4.32893 7.49853 4.2097 7.52887 4.09641L7.0459 3.96704L6.56293 3.83767C6.48719 4.12039 6.48715 4.41813 6.56294 4.70095L7.0459 4.57153ZM7.0459 3.96704L7.52886 4.09645C7.54286 4.04419 7.57736 3.96924 7.69372 3.8296C7.8145 3.68465 7.98829 3.51008 8.25199 3.24637L7.89844 2.89282L7.54488 2.53927C7.29406 2.7901 7.08208 3.0015 6.92547 3.18945C6.76443 3.38271 6.62993 3.5876 6.56293 3.83764L7.0459 3.96704ZM7.89844 2.89282L8.25198 3.24639C8.51593 2.98246 8.69048 2.80843 8.83558 2.68731C8.9754 2.57059 9.05018 2.53617 9.10205 2.52227L8.97266 2.03931L8.84326 1.55634C8.59281 1.62344 8.3878 1.75848 8.19476 1.91962C8.00699 2.07635 7.7956 2.28858 7.5449 2.53925L7.89844 2.89282Z" fill="#67C54A"/>
</svg>
