<svg width="7" height="9" viewBox="0 0 7 9" fill="none" xmlns="http://www.w3.org/2000/svg">
<path d="M0.533203 8.66016C0.369141 8.66016 0.238281 8.61133 0.140625 8.51367C0.046875 8.41602 0 8.2832 0 8.11523V0.539062C0 0.375 0.046875 0.244141 0.140625 0.146484C0.238281 0.0488281 0.369141 0 0.533203 0C0.701172 0 0.833984 0.0488281 0.931641 0.146484C1.0332 0.244141 1.08398 0.375 1.08398 0.539062V4.29492H1.13672L5.03906 0.205078C5.17578 0.0683594 5.32031 0 5.47266 0C5.60938 0 5.72461 0.0449219 5.81836 0.134766C5.91211 0.224609 5.95898 0.335937 5.95898 0.46875C5.95898 0.535156 5.94531 0.597656 5.91797 0.65625C5.89062 0.714844 5.84766 0.773438 5.78906 0.832031L2.84766 3.85547L6.10547 7.70508C6.17578 7.78711 6.22852 7.86523 6.26367 7.93945C6.29883 8.01367 6.31641 8.08789 6.31641 8.16211C6.31641 8.30664 6.26562 8.42578 6.16406 8.51953C6.06641 8.61328 5.93945 8.66016 5.7832 8.66016C5.68555 8.66016 5.59766 8.63867 5.51953 8.5957C5.44531 8.55273 5.36133 8.47656 5.26758 8.36719L2.08008 4.62305L1.08398 5.68359V8.11523C1.08398 8.2832 1.0332 8.41602 0.931641 8.51367C0.833984 8.61133 0.701172 8.66016 0.533203 8.66016Z" fill="#E35E5E"/>
</svg>
