<svg width="8" height="12" viewBox="0 0 8 12" fill="none" xmlns="http://www.w3.org/2000/svg">
<path d="M0.733398 3.65234C0.733398 3.23242 0.816406 2.84017 0.982422 2.47559C1.15169 2.111 1.38444 1.79199 1.68066 1.51855C1.98014 1.24186 2.32682 1.02702 2.7207 0.874023C3.11784 0.721029 3.54427 0.644531 4 0.644531C4.45573 0.644531 4.88216 0.721029 5.2793 0.874023C5.67643 1.02702 6.02311 1.24186 6.31934 1.51855C6.61882 1.79199 6.85156 2.111 7.01758 2.47559C7.18359 2.84017 7.2666 3.23242 7.2666 3.65234C7.2666 4.02995 7.22754 4.36361 7.14941 4.65332C7.07454 4.93978 6.97689 5.22135 6.85645 5.49805C6.736 5.77474 6.60742 6.0791 6.4707 6.41113C6.33724 6.74316 6.21354 7.13704 6.09961 7.59277C5.98568 8.04525 5.89779 8.59701 5.83594 9.24805C5.82617 9.33594 5.79525 9.40592 5.74316 9.45801C5.69434 9.51009 5.62272 9.53613 5.52832 9.53613H2.47168C2.37728 9.53613 2.30566 9.51009 2.25684 9.45801C2.20801 9.40592 2.17871 9.33594 2.16895 9.24805C2.1071 8.59701 2.01758 8.04525 1.90039 7.59277C1.78646 7.13704 1.66276 6.74316 1.5293 6.41113C1.39583 6.0791 1.26888 5.77474 1.14844 5.49805C1.02799 5.22135 0.928711 4.93978 0.850586 4.65332C0.772461 4.36361 0.733398 4.02995 0.733398 3.65234ZM1.4707 3.65234C1.4707 3.93229 1.50326 4.18294 1.56836 4.4043C1.63346 4.62565 1.7181 4.85352 1.82227 5.08789C1.92969 5.32227 2.04525 5.59733 2.16895 5.91309C2.29264 6.22884 2.41309 6.61784 2.53027 7.08008C2.65072 7.54232 2.75488 8.11523 2.84277 8.79883H5.16211C5.25 8.11523 5.35254 7.54232 5.46973 7.08008C5.58691 6.61784 5.70736 6.22884 5.83105 5.91309C5.95475 5.59733 6.06868 5.32227 6.17285 5.08789C6.28027 4.85352 6.36654 4.62565 6.43164 4.4043C6.49674 4.18294 6.5293 3.93229 6.5293 3.65234C6.5293 3.32357 6.46257 3.02083 6.3291 2.74414C6.19889 2.46745 6.0166 2.22819 5.78223 2.02637C5.54785 1.82129 5.27767 1.66341 4.97168 1.55273C4.66895 1.4388 4.34505 1.38184 4 1.38184C3.6582 1.38184 3.33431 1.4388 3.02832 1.55273C2.72559 1.66341 2.45703 1.82129 2.22266 2.02637C1.98828 2.22819 1.80436 2.46745 1.6709 2.74414C1.53743 3.02083 1.4707 3.32357 1.4707 3.65234ZM2.45703 10.5908C2.37565 10.5908 2.30729 10.5632 2.25195 10.5078C2.19661 10.4525 2.16895 10.3841 2.16895 10.3027C2.16895 10.2246 2.19661 10.1579 2.25195 10.1025C2.30729 10.0472 2.37565 10.0195 2.45703 10.0195H5.54785C5.62598 10.0195 5.69271 10.0472 5.74805 10.1025C5.80339 10.1579 5.83105 10.2246 5.83105 10.3027C5.83105 10.3841 5.80339 10.4525 5.74805 10.5078C5.69271 10.5632 5.62598 10.5908 5.54785 10.5908H2.45703ZM4 12.0068C3.61914 12.0068 3.28874 11.9206 3.00879 11.748C2.7321 11.5788 2.58561 11.3542 2.56934 11.0742H5.43555C5.41276 11.3542 5.26139 11.5788 4.98145 11.748C4.70475 11.9206 4.3776 12.0068 4 12.0068Z" fill="#2466F4"/>
</svg>
