<svg width="15" height="10" viewBox="0 0 15 10" fill="none" xmlns="http://www.w3.org/2000/svg">
<path d="M6.96289 9.99609C6.16536 9.99609 5.7666 9.73568 5.7666 9.21484C5.7666 8.89583 5.86426 8.55566 6.05957 8.19434C6.25488 7.83301 6.53646 7.49284 6.9043 7.17383C7.27539 6.85156 7.72298 6.58952 8.24707 6.3877C8.77441 6.18587 9.36849 6.08496 10.0293 6.08496C10.6934 6.08496 11.2874 6.18587 11.8115 6.3877C12.3389 6.58952 12.7865 6.85156 13.1543 7.17383C13.5254 7.49284 13.8086 7.83301 14.0039 8.19434C14.1992 8.55566 14.2969 8.89583 14.2969 9.21484C14.2969 9.73568 13.8965 9.99609 13.0957 9.99609H6.96289ZM6.72852 9.25879H13.3301C13.3952 9.25879 13.4408 9.24902 13.4668 9.22949C13.4961 9.20996 13.5107 9.17415 13.5107 9.12207C13.5107 8.92025 13.4342 8.68913 13.2812 8.42871C13.1315 8.16829 12.9085 7.91602 12.6123 7.67188C12.3161 7.42773 11.9515 7.22591 11.5186 7.06641C11.0856 6.90365 10.5892 6.82227 10.0293 6.82227C9.4694 6.82227 8.97298 6.90365 8.54004 7.06641C8.11035 7.22591 7.7474 7.42773 7.45117 7.67188C7.15495 7.91602 6.93034 8.16829 6.77734 8.42871C6.6276 8.68913 6.55273 8.92025 6.55273 9.12207C6.55273 9.17415 6.56576 9.20996 6.5918 9.22949C6.62109 9.24902 6.66667 9.25879 6.72852 9.25879ZM10.0342 5.47461C9.64681 5.47461 9.29362 5.37207 8.97461 5.16699C8.6556 4.96191 8.40007 4.68685 8.20801 4.3418C8.01921 3.99349 7.9248 3.611 7.9248 3.19434C7.9248 2.78092 8.01921 2.40495 8.20801 2.06641C8.40007 1.72786 8.6556 1.45768 8.97461 1.25586C9.29362 1.05404 9.64681 0.953125 10.0342 0.953125C10.4248 0.953125 10.7796 1.05241 11.0986 1.25098C11.4176 1.44954 11.6715 1.7181 11.8604 2.05664C12.0492 2.39193 12.1436 2.7679 12.1436 3.18457C12.1436 3.60449 12.0475 3.98861 11.8555 4.33691C11.6667 4.68197 11.4128 4.95866 11.0938 5.16699C10.7747 5.37207 10.4215 5.47461 10.0342 5.47461ZM10.0342 4.7373C10.2751 4.7373 10.4948 4.66895 10.6934 4.53223C10.8952 4.39225 11.0563 4.20508 11.1768 3.9707C11.2972 3.73307 11.3574 3.47103 11.3574 3.18457C11.3574 2.90137 11.2972 2.64746 11.1768 2.42285C11.0596 2.19499 10.9001 2.01595 10.6982 1.88574C10.4997 1.75553 10.2783 1.69043 10.0342 1.69043C9.79329 1.69043 9.57194 1.75716 9.37012 1.89062C9.17155 2.02083 9.01204 2.19987 8.8916 2.42773C8.77116 2.6556 8.71094 2.91113 8.71094 3.19434C8.71094 3.48079 8.77116 3.74121 8.8916 3.97559C9.0153 4.20996 9.17643 4.39551 9.375 4.53223C9.57682 4.66895 9.79655 4.7373 10.0342 4.7373ZM1.68945 9.99609C1.36068 9.99609 1.11328 9.92773 0.947266 9.79102C0.78125 9.65755 0.698242 9.4541 0.698242 9.18066C0.698242 8.77702 0.794271 8.38965 0.986328 8.01855C1.17839 7.64421 1.44368 7.31217 1.78223 7.02246C2.12402 6.72949 2.5179 6.49837 2.96387 6.3291C3.41309 6.15983 3.89323 6.0752 4.4043 6.0752C4.67448 6.0752 4.93652 6.09961 5.19043 6.14844C5.44434 6.19401 5.68848 6.264 5.92285 6.3584C6.16048 6.44954 6.38509 6.56348 6.59668 6.7002C6.486 6.77832 6.38509 6.86133 6.29395 6.94922C6.2028 7.03385 6.11979 7.125 6.04492 7.22266C5.88542 7.12826 5.71777 7.05013 5.54199 6.98828C5.36947 6.92643 5.18717 6.87923 4.99512 6.84668C4.80632 6.81413 4.60938 6.79785 4.4043 6.79785C4.00391 6.79785 3.62467 6.86296 3.2666 6.99316C2.90853 7.12012 2.59115 7.29427 2.31445 7.51562C2.03776 7.73372 1.81966 7.98275 1.66016 8.2627C1.50391 8.54264 1.42578 8.83398 1.42578 9.13672C1.42578 9.18555 1.43717 9.21973 1.45996 9.23926C1.48275 9.26204 1.52018 9.27344 1.57227 9.27344H5.14648C5.13021 9.42318 5.15951 9.56478 5.23438 9.69824C5.30924 9.83171 5.40527 9.93099 5.52246 9.99609H1.68945ZM4.40918 5.51855C4.07389 5.51855 3.7679 5.42904 3.49121 5.25C3.21452 5.06771 2.99316 4.8252 2.82715 4.52246C2.66113 4.21973 2.57812 3.88444 2.57812 3.5166C2.57812 3.15527 2.66113 2.8265 2.82715 2.53027C2.99316 2.23079 3.21452 1.99316 3.49121 1.81738C3.7679 1.63835 4.07389 1.54883 4.40918 1.54883C4.74772 1.54883 5.05534 1.63672 5.33203 1.8125C5.60872 1.98828 5.82845 2.22428 5.99121 2.52051C6.15723 2.81673 6.24023 3.14551 6.24023 3.50684C6.24023 3.87467 6.15723 4.21159 5.99121 4.51758C5.8252 4.82357 5.60384 5.06771 5.32715 5.25C5.05046 5.42904 4.74447 5.51855 4.40918 5.51855ZM4.40918 4.79102C4.60775 4.79102 4.79167 4.73405 4.96094 4.62012C5.13021 4.50293 5.2653 4.34831 5.36621 4.15625C5.46712 3.96094 5.51758 3.74447 5.51758 3.50684C5.51758 3.27572 5.46712 3.06738 5.36621 2.88184C5.26855 2.69629 5.13509 2.5498 4.96582 2.44238C4.7998 2.33171 4.61426 2.27637 4.40918 2.27637C4.20736 2.27637 4.02181 2.33171 3.85254 2.44238C3.68652 2.55306 3.55306 2.7028 3.45215 2.8916C3.35449 3.07715 3.30566 3.28548 3.30566 3.5166C3.30566 3.75098 3.35612 3.96582 3.45703 4.16113C3.55794 4.35319 3.69141 4.50618 3.85742 4.62012C4.02669 4.73405 4.21061 4.79102 4.40918 4.79102Z" fill="#2466F4"/>
</svg>
