<svg width="14" height="12" viewBox="0 0 14 12" fill="none" xmlns="http://www.w3.org/2000/svg">
<path d="M0.90625 10.6445V2.75781C0.90625 2.5625 0.947266 2.39453 1.0293 2.25391C1.11523 2.10937 1.24609 1.98828 1.42188 1.89062L4.19922 0.296875C4.25 0.265625 4.30469 0.236328 4.36328 0.208984C4.42188 0.177734 4.47656 0.150391 4.52734 0.126953V9.83594L2.06641 11.166C1.88281 11.2676 1.71875 11.3184 1.57422 11.3184C1.36328 11.3184 1.19922 11.2598 1.08203 11.1426C0.964844 11.0254 0.90625 10.8594 0.90625 10.6445ZM5.33008 9.72461V0.0273438C5.38477 0.0390625 5.43945 0.0566406 5.49414 0.0800781C5.55273 0.103516 5.60742 0.130859 5.6582 0.162109L8.55273 1.93164V11.4941C8.50977 11.4824 8.46484 11.4668 8.41797 11.4473C8.375 11.4277 8.33008 11.4062 8.2832 11.3828L5.33008 9.72461ZM9.34961 11.4766V1.82031L11.9336 0.384766C12.1172 0.283203 12.2812 0.232422 12.4258 0.232422C12.6367 0.232422 12.8008 0.291016 12.918 0.408203C13.0352 0.525391 13.0938 0.691406 13.0938 0.90625V8.79883C13.0938 8.99414 13.0508 9.16406 12.9648 9.30859C12.8828 9.44922 12.7539 9.56836 12.5781 9.66602L9.52539 11.4004C9.49805 11.416 9.46875 11.4297 9.4375 11.4414C9.41016 11.457 9.38086 11.4688 9.34961 11.4766Z" fill="#0FAF4F"/>
</svg>
