<svg width="11" height="12" viewBox="0 0 11 12" fill="none" xmlns="http://www.w3.org/2000/svg">
<path d="M1.56836 11.0371C1.25586 11.0371 1.00977 10.9668 0.830078 10.8262C0.654297 10.6895 0.566406 10.5 0.566406 10.2578C0.566406 9.87891 0.679688 9.48242 0.90625 9.06836C1.13281 8.65039 1.46094 8.25977 1.89062 7.89648C2.32031 7.5293 2.83789 7.23242 3.44336 7.00586C4.05273 6.77539 4.73633 6.66016 5.49414 6.66016C6.25586 6.66016 6.93945 6.77539 7.54492 7.00586C8.1543 7.23242 8.67188 7.5293 9.09766 7.89648C9.52734 8.25977 9.85547 8.65039 10.082 9.06836C10.3125 9.48242 10.4277 9.87891 10.4277 10.2578C10.4277 10.5 10.3379 10.6895 10.1582 10.8262C9.98242 10.9668 9.73828 11.0371 9.42578 11.0371H1.56836ZM5.5 5.61133C5.08203 5.61133 4.69531 5.49805 4.33984 5.27148C3.98438 5.04102 3.69727 4.73242 3.47852 4.3457C3.26367 3.95508 3.15625 3.51758 3.15625 3.0332C3.15625 2.55664 3.26367 2.12695 3.47852 1.74414C3.69727 1.36133 3.98438 1.05859 4.33984 0.835938C4.69531 0.613281 5.08203 0.501953 5.5 0.501953C5.91797 0.501953 6.30469 0.611328 6.66016 0.830078C7.01562 1.04883 7.30078 1.34961 7.51562 1.73242C7.73438 2.11133 7.84375 2.54102 7.84375 3.02148C7.84375 3.50977 7.73438 3.94922 7.51562 4.33984C7.30078 4.73047 7.01562 5.04102 6.66016 5.27148C6.30469 5.49805 5.91797 5.61133 5.5 5.61133Z" fill="#5E79E3"/>
</svg>