<svg width="14" height="13" viewBox="0 0 14 13" fill="none" xmlns="http://www.w3.org/2000/svg">
<path d="M6.99512 7.1543C6.78678 7.15755 6.57357 7.13151 6.35547 7.07617C6.14062 7.02083 5.90299 6.93457 5.64258 6.81738L0.837891 4.62012C0.678385 4.5485 0.557943 4.44759 0.476562 4.31738C0.398438 4.18392 0.359375 4.04395 0.359375 3.89746C0.359375 3.75423 0.398438 3.61751 0.476562 3.4873C0.557943 3.35384 0.678385 3.2513 0.837891 3.17969L5.64258 0.982422C5.90299 0.865234 6.14062 0.778971 6.35547 0.723633C6.57357 0.668294 6.78678 0.642253 6.99512 0.645508C7.20345 0.642253 7.41504 0.668294 7.62988 0.723633C7.84798 0.778971 8.08724 0.865234 8.34766 0.982422L13.1572 3.17969C13.3167 3.2513 13.4355 3.35384 13.5137 3.4873C13.5951 3.61751 13.6357 3.75423 13.6357 3.89746C13.6357 4.04395 13.5951 4.18392 13.5137 4.31738C13.4355 4.44759 13.3167 4.5485 13.1572 4.62012L8.34766 6.81738C8.08724 6.93457 7.84798 7.02083 7.62988 7.07617C7.41504 7.13151 7.20345 7.15755 6.99512 7.1543ZM6.99512 6.38281C7.15788 6.38281 7.32227 6.36165 7.48828 6.31934C7.65755 6.27376 7.84635 6.20378 8.05469 6.10938L12.5518 4.06348C12.6364 4.02441 12.6787 3.96908 12.6787 3.89746C12.6787 3.8291 12.6364 3.77539 12.5518 3.73633L8.05469 1.69043C7.84635 1.59603 7.65755 1.52767 7.48828 1.48535C7.32227 1.43978 7.15788 1.41699 6.99512 1.41699C6.83236 1.41699 6.66797 1.43978 6.50195 1.48535C6.33594 1.52767 6.14876 1.59603 5.94043 1.69043L1.44336 3.73633C1.35872 3.77539 1.31641 3.8291 1.31641 3.89746C1.31641 3.96908 1.35872 4.02441 1.44336 4.06348L5.94043 6.10938C6.14876 6.20378 6.33594 6.27376 6.50195 6.31934C6.66797 6.36165 6.83236 6.38281 6.99512 6.38281ZM2.26367 7.56934V4.99121H3.0498V7.56934C3.0498 7.82324 3.14095 8.06738 3.32324 8.30176C3.50879 8.53613 3.77409 8.74609 4.11914 8.93164C4.46419 9.11393 4.87923 9.25879 5.36426 9.36621C5.85254 9.47363 6.39616 9.52734 6.99512 9.52734C7.59733 9.52734 8.14095 9.47363 8.62598 9.36621C9.111 9.25879 9.52604 9.11393 9.87109 8.93164C10.2161 8.74609 10.4814 8.53613 10.667 8.30176C10.8525 8.06738 10.9453 7.82324 10.9453 7.56934V4.99121H11.7314V7.56934C11.7314 7.93392 11.6191 8.27897 11.3945 8.60449C11.1732 8.93001 10.8558 9.21647 10.4424 9.46387C10.029 9.71452 9.53092 9.90983 8.94824 10.0498C8.36556 10.193 7.71452 10.2646 6.99512 10.2646C6.27572 10.2646 5.62467 10.193 5.04199 10.0498C4.46257 9.90983 3.96452 9.71452 3.54785 9.46387C3.13444 9.21647 2.81706 8.93001 2.5957 8.60449C2.37435 8.27897 2.26367 7.93392 2.26367 7.56934ZM7.01465 4.4541C6.84212 4.4541 6.67611 4.42969 6.5166 4.38086C6.3571 4.33203 6.22689 4.26693 6.12598 4.18555C6.02507 4.10091 5.97461 4.00488 5.97461 3.89746C5.97461 3.79329 6.02507 3.70052 6.12598 3.61914C6.22689 3.53776 6.3571 3.47428 6.5166 3.42871C6.67611 3.37988 6.84212 3.35547 7.01465 3.35547C7.19043 3.35547 7.35645 3.37988 7.5127 3.42871C7.6722 3.47428 7.80078 3.53776 7.89844 3.61914C7.99935 3.70052 8.0498 3.79329 8.0498 3.89746C8.0498 4.00488 7.99935 4.10091 7.89844 4.18555C7.80078 4.26693 7.6722 4.33203 7.5127 4.38086C7.35645 4.42969 7.19043 4.4541 7.01465 4.4541ZM4.0459 5.74316L3.41113 5.40625L6.67285 3.70703L6.94141 4.20996L4.0459 5.74316ZM3.41113 10.5332V5.43066L4.0459 5.74316V10.5332H3.41113ZM3.02539 10.6309C3.02539 10.4388 3.08236 10.2842 3.19629 10.167C3.31348 10.0531 3.4681 9.99609 3.66016 9.99609H3.79199C3.98405 9.99609 4.13704 10.0531 4.25098 10.167C4.36816 10.2842 4.42676 10.4388 4.42676 10.6309V11.915C4.42676 12.1071 4.36816 12.2601 4.25098 12.374C4.13704 12.4912 3.98405 12.5498 3.79199 12.5498H3.66016C3.4681 12.5498 3.31348 12.4912 3.19629 12.374C3.08236 12.2601 3.02539 12.1071 3.02539 11.915V10.6309Z" fill="#2466F4"/>
</svg>