<svg width="14" height="12" viewBox="0 0 14 12" fill="none" xmlns="http://www.w3.org/2000/svg">
<path d="M1.83301 9.81738C1.44987 9.81738 1.1473 9.70817 0.925293 9.48975C0.706868 9.26774 0.597656 8.96338 0.597656 8.57666V2.13672C0.597656 1.75 0.706868 1.44743 0.925293 1.229C1.1473 1.01058 1.44987 0.901367 1.83301 0.901367H12.1616C12.5483 0.901367 12.8509 1.01058 13.0693 1.229C13.2913 1.44743 13.4023 1.75 13.4023 2.13672V8.57666C13.4023 8.96338 13.2913 9.26774 13.0693 9.48975C12.8509 9.70817 12.5483 9.81738 12.1616 9.81738H1.83301ZM1.69336 7.44873H12.3013C12.4588 7.44873 12.5376 7.37174 12.5376 7.21777V2.15283C12.5376 2.03109 12.5018 1.9362 12.4302 1.86816C12.3621 1.80013 12.269 1.76611 12.1509 1.76611H1.84912C1.73096 1.76611 1.63607 1.80013 1.56445 1.86816C1.49642 1.9362 1.4624 2.03109 1.4624 2.15283V7.21777C1.4624 7.37174 1.53939 7.44873 1.69336 7.44873ZM5.30273 11.0957V9.74756H8.69727V11.0957H5.30273ZM5.27051 11.7241C5.15234 11.7241 5.05029 11.6812 4.96436 11.5952C4.87842 11.5129 4.83545 11.4108 4.83545 11.2891C4.83545 11.1673 4.87842 11.0635 4.96436 10.9775C5.05029 10.8952 5.15234 10.854 5.27051 10.854H8.72949C8.84766 10.854 8.94792 10.8952 9.03027 10.9775C9.11621 11.0635 9.15918 11.1673 9.15918 11.2891C9.15918 11.4108 9.11621 11.5129 9.03027 11.5952C8.94792 11.6812 8.84766 11.7241 8.72949 11.7241H5.27051Z" fill="#363FB5"/>
</svg>
