<svg width="25" height="25" viewBox="0 0 25 25" fill="none" xmlns="http://www.w3.org/2000/svg">
<path d="M15.625 18.7493H4.16667C3.0616 18.7493 2.00179 18.3104 1.22039 17.529C0.438987 16.7476 0 15.6878 0 14.5827V6.24935C0 4.86801 0.548734 3.54325 1.52549 2.5665C2.50224 1.58975 3.827 1.04102 5.20833 1.04102H10.4167C11.1006 1.04102 11.7779 1.17573 12.4098 1.43748C13.0417 1.69922 13.6159 2.08286 14.0995 2.5665C14.5832 3.05014 14.9668 3.6243 15.2285 4.25621C15.4903 4.88811 15.625 5.56538 15.625 6.24935V18.7493ZM25 11.4577V10.416C25 9.73205 24.8653 9.05478 24.6035 8.42287C24.3418 7.79097 23.9582 7.21681 23.4745 6.73317C22.9909 6.24953 22.4167 5.86589 21.7848 5.60414C21.1529 5.3424 20.4756 5.20768 19.7917 5.20768H17.7083V11.4577H25ZM17.7083 13.541V18.7493H20.8333C21.9384 18.7493 22.9982 18.3104 23.7796 17.529C24.561 16.7476 25 15.6878 25 14.5827V13.541H17.7083ZM4.22708 20.8327C4.18892 21.0037 4.16868 21.1783 4.16667 21.3535C4.16667 22.0442 4.44103 22.7066 4.92941 23.1949C5.41779 23.6833 6.08017 23.9577 6.77083 23.9577C7.4615 23.9577 8.12388 23.6833 8.61226 23.1949C9.10063 22.7066 9.375 22.0442 9.375 21.3535C9.37299 21.1783 9.35274 21.0037 9.31458 20.8327H4.22708ZM15.6854 20.8327C15.6473 21.0037 15.627 21.1783 15.625 21.3535C15.625 22.0442 15.8994 22.7066 16.3877 23.1949C16.8761 23.6833 17.5385 23.9577 18.2292 23.9577C18.9198 23.9577 19.5822 23.6833 20.0706 23.1949C20.559 22.7066 20.8333 22.0442 20.8333 21.3535C20.8313 21.1783 20.8111 21.0037 20.7729 20.8327H15.6854Z" fill="#9B9B9B"/>
</svg>
