<svg width="25" height="25" viewBox="0 0 25 25" fill="none" xmlns="http://www.w3.org/2000/svg">
<path d="M19.7917 3.125H5.20833C3.82751 3.12665 2.50371 3.67592 1.52731 4.65231C0.550919 5.62871 0.00165402 6.95251 0 8.33333H25C24.9983 6.95251 24.4491 5.62871 23.4727 4.65231C22.4963 3.67592 21.1725 3.12665 19.7917 3.125V3.125Z" fill="#9B9B9B"/>
<path d="M0 16.6665C0.00165402 18.0473 0.550919 19.3711 1.52731 20.3475C2.50371 21.3239 3.82751 21.8732 5.20833 21.8748H19.7917C21.1725 21.8732 22.4963 21.3239 23.4727 20.3475C24.4491 19.3711 24.9983 18.0473 25 16.6665V10.4165H0V16.6665ZM7.29167 16.1457C7.29167 16.4547 7.20003 16.7568 7.02834 17.0137C6.85665 17.2707 6.61262 17.471 6.32711 17.5892C6.0416 17.7075 5.72743 17.7384 5.42434 17.6781C5.12124 17.6178 4.84283 17.469 4.62431 17.2505C4.40579 17.032 4.25698 16.7536 4.19669 16.4505C4.1364 16.1474 4.16734 15.8332 4.2856 15.5477C4.40387 15.2622 4.60414 15.0182 4.86109 14.8465C5.11804 14.6748 5.42013 14.5832 5.72917 14.5832C6.14357 14.5832 6.541 14.7478 6.83402 15.0408C7.12705 15.3338 7.29167 15.7313 7.29167 16.1457" fill="#9B9B9B"/>
</svg>
