<svg width="25" height="25" viewBox="0 0 25 25" fill="none" xmlns="http://www.w3.org/2000/svg">
<g clip-path="url(#clip0_4280_6980)">
<path d="M16.6667 2.86458C16.6667 5.11771 13.7292 7.91771 12.2656 9.09167C12.0366 9.27527 11.7519 9.37532 11.4583 9.37532C11.1648 9.37532 10.8801 9.27527 10.651 9.09167C9.1875 7.91667 6.25 5.11771 6.25 2.86458C6.21715 2.13981 6.47269 1.43153 6.96073 0.894693C7.44876 0.357855 8.12955 0.0361651 8.85417 0C9.57878 0.0361651 10.2596 0.357855 10.7476 0.894693C11.2356 1.43153 11.4912 2.13981 11.4583 2.86458C11.4255 2.13981 11.681 1.43153 12.1691 0.894693C12.6571 0.357855 13.3379 0.0361651 14.0625 0C14.7871 0.0361651 15.4679 0.357855 15.9559 0.894693C16.444 1.43153 16.6995 2.13981 16.6667 2.86458V2.86458ZM24.3104 12.8646L16.2896 21.624C15.313 22.6888 14.1257 23.5388 12.803 24.12C11.4802 24.7012 10.051 25.0009 8.60625 25H4.16667C3.0616 25 2.00179 24.561 1.22039 23.7796C0.438987 22.9982 0 21.9384 0 20.8333V15.625C0 14.5199 0.438987 13.4601 1.22039 12.6787C2.00179 11.8973 3.0616 11.4583 4.16667 11.4583H12.2781C12.6225 11.459 12.9623 11.5366 13.2728 11.6855C13.5832 11.8344 13.8565 12.0508 14.0726 12.3189C14.2886 12.587 14.4421 12.9 14.5216 13.235C14.6011 13.57 14.6048 13.9186 14.5323 14.2552C14.4195 14.7261 14.1655 15.1512 13.8043 15.4737C13.4432 15.7961 12.992 16.0005 12.5115 16.0594L8.175 16.6667C7.90169 16.7059 7.65512 16.852 7.48949 17.0729C7.32385 17.2938 7.2527 17.5714 7.29167 17.8448C7.33062 18.1183 7.47663 18.3651 7.69757 18.531C7.91851 18.6968 8.19629 18.7681 8.46979 18.7292L12.899 18.1042C13.9422 17.9505 14.8958 17.4282 15.587 16.6319C16.2782 15.8356 16.6612 14.818 16.6667 13.7635C16.6616 13.5406 16.6389 13.3184 16.599 13.099L20.2885 9.20625C20.7751 8.67942 21.4503 8.36652 22.1668 8.33587C22.8833 8.30523 23.5828 8.55934 24.1125 9.04271C24.6396 9.52575 24.9557 10.1966 24.9927 10.9105C25.0297 11.6245 24.7847 12.3244 24.3104 12.8594V12.8646Z" fill="#9B9B9B"/>
</g>
<defs>
<clipPath id="clip0_4280_6980">
<rect width="25" height="25" fill="white"/>
</clipPath>
</defs>
</svg>
