<svg width="25" height="25" viewBox="0 0 25 25" fill="none" xmlns="http://www.w3.org/2000/svg">
<g clip-path="url(#clip0_4280_6989)">
<path d="M14.4224 17.9849L11.0249 21.3824C8.9522 23.3996 5.63672 23.3547 3.61948 21.2821C1.64115 19.2495 1.64071 16.0113 3.61845 13.9781L7.01596 10.5774C7.42265 10.1705 7.4224 9.51087 7.01542 9.10418C6.60844 8.69749 5.94885 8.69773 5.54215 9.10471L2.14568 12.5053C-0.712337 15.3648 -0.711165 19.9997 2.14827 22.8578C5.0077 25.7158 9.64265 25.7146 12.5007 22.8552L15.8982 19.4577C16.2978 19.0439 16.2864 18.3846 15.8726 17.985C15.469 17.5951 14.8291 17.5951 14.4255 17.985H14.4224V17.9849Z" fill="#9B9B9B"/>
<path d="M22.8578 2.14714C21.4888 0.768735 19.625 -0.00431927 17.6823 0.000514152C15.7407 -0.00466102 13.8776 0.766782 12.5079 2.14299L9.1052 5.54152C8.69822 5.94821 8.69797 6.6078 9.10466 7.01478C9.51135 7.42176 10.1709 7.42201 10.5779 7.01532L13.9786 3.61782C14.958 2.63248 16.2909 2.08006 17.6802 2.08362C20.5725 2.0846 22.9163 4.42998 22.9153 7.32221C22.9149 8.71033 22.3633 10.0415 21.3818 11.0232L17.9843 14.4207C17.5774 14.8277 17.5774 15.4875 17.9843 15.8945C18.3913 16.3015 19.0512 16.3015 19.4581 15.8945L22.8556 12.4991C25.7097 9.63884 25.7106 5.00842 22.8578 2.14714Z" fill="#9B9B9B"/>
<path d="M14.8895 8.63854L8.64023 14.8878C8.22646 15.2874 8.21504 15.9468 8.61465 16.3605C9.01426 16.7742 9.67365 16.7857 10.0874 16.3861C10.0961 16.3777 10.1046 16.3692 10.113 16.3605L16.3622 10.1113C16.7618 9.6975 16.7504 9.03815 16.3366 8.63854C15.933 8.24874 15.2932 8.24874 14.8895 8.63854Z" fill="#9B9B9B"/>
</g>
<defs>
<clipPath id="clip0_4280_6989">
<rect width="25" height="25" fill="white"/>
</clipPath>
</defs>
</svg>
