<svg width="25" height="25" viewBox="0 0 25 25" fill="none" xmlns="http://www.w3.org/2000/svg">
<g clip-path="url(#clip0_4280_6986)">
<path d="M23.438 4.1416H20.2234C20.0174 4.14165 19.816 4.20276 19.6448 4.31722C19.4735 4.43169 19.34 4.59436 19.2612 4.78467C19.1824 4.97498 19.1618 5.18439 19.2019 5.38643C19.2421 5.58846 19.3413 5.77405 19.4869 5.91973L20.6182 7.05098L16.8828 10.7854C16.6843 10.975 16.4203 11.0809 16.1458 11.0809C15.8712 11.0809 15.6073 10.975 15.4088 10.7854L15.2317 10.6072C14.6365 10.0386 13.845 9.72121 13.0218 9.72121C12.1986 9.72121 11.4071 10.0386 10.8119 10.6072L5.49942 15.9197C5.30369 16.116 5.19395 16.382 5.19434 16.6592C5.19473 16.9364 5.30522 17.2021 5.50151 17.3979C5.6978 17.5936 5.9638 17.7033 6.241 17.7029C6.5182 17.7026 6.7839 17.5921 6.97963 17.3958L12.2921 12.0833C12.4905 11.8933 12.7545 11.7873 13.0291 11.7873C13.3037 11.7873 13.5677 11.8933 13.7661 12.0833L13.9432 12.2614C14.5386 12.8296 15.33 13.1466 16.1531 13.1466C16.9761 13.1466 17.7675 12.8296 18.363 12.2614L22.0984 8.52598L23.2296 9.65723C23.3758 9.80051 23.5609 9.89755 23.7619 9.93623C23.9629 9.97492 24.1709 9.95353 24.3598 9.87475C24.5487 9.79596 24.7102 9.66326 24.8241 9.49323C24.9381 9.3232 24.9994 9.12336 25.0005 8.91869V5.7041C25.0005 5.2897 24.8358 4.89227 24.5428 4.59925C24.2498 4.30622 23.8524 4.1416 23.438 4.1416Z" fill="#9B9B9B"/>
<path d="M23.9583 22.8917H5.20833C4.37953 22.8917 3.58468 22.5624 2.99862 21.9764C2.41257 21.3903 2.08333 20.5955 2.08333 19.7667V1.04167C2.08333 0.7654 1.97359 0.500448 1.77824 0.305097C1.58289 0.109747 1.31793 0 1.04167 0C0.765399 0 0.500447 0.109747 0.305097 0.305097C0.109747 0.500448 0 0.7654 0 1.04167L0 19.7667C0.00165402 21.1475 0.550919 22.4713 1.52731 23.4477C2.50371 24.4241 3.82751 24.9733 5.20833 24.975H23.9583C24.2346 24.975 24.4996 24.8653 24.6949 24.6699C24.8903 24.4746 25 24.2096 25 23.9333C25 23.6571 24.8903 23.3921 24.6949 23.1968C24.4996 23.0014 24.2346 22.8917 23.9583 22.8917Z" fill="#9B9B9B"/>
</g>
<defs>
<clipPath id="clip0_4280_6986">
<rect width="25" height="25" fill="white"/>
</clipPath>
</defs>
</svg>
