<svg width="25" height="25" viewBox="0 0 25 25" fill="none" xmlns="http://www.w3.org/2000/svg">
<path d="M10.4872 20.8333C9.63984 20.8325 8.82745 20.4955 8.22829 19.8964C7.62914 19.2972 7.29217 18.4848 7.29134 17.6375C7.29134 17.3612 7.18159 17.0963 6.98624 16.9009C6.79089 16.7056 6.52594 16.5958 6.24967 16.5958C5.97341 16.5958 5.70846 16.7056 5.51311 16.9009C5.31775 17.0963 5.20801 17.3612 5.20801 17.6375V17.7083C5.20801 17.7281 5.20801 17.7458 5.20801 17.7656C5.24277 19.143 5.81411 20.4523 6.80026 21.4145C7.78641 22.3767 9.10937 22.9157 10.4872 22.9167H11.458V23.9583C11.458 24.2346 11.5678 24.4996 11.7631 24.6949C11.9585 24.8903 12.2234 25 12.4997 25C12.7759 25 13.0409 24.8903 13.2362 24.6949C13.4316 24.4996 13.5413 24.2346 13.5413 23.9583V22.9167H14.5122C15.765 22.9153 16.9765 22.4685 17.9301 21.6561C18.8837 20.8436 19.5174 19.7185 19.7177 18.4818C19.9181 17.2452 19.6722 15.9776 19.0239 14.9056C18.3755 13.8336 17.3671 13.0271 16.1788 12.6302L13.5413 11.75V4.16667H14.5122C15.3595 4.16749 16.1719 4.50446 16.7711 5.10362C17.3702 5.70277 17.7072 6.51517 17.708 7.3625C17.708 7.63877 17.8178 7.90372 18.0131 8.09907C18.2085 8.29442 18.4734 8.40417 18.7497 8.40417C19.0259 8.40417 19.2909 8.29442 19.4862 8.09907C19.6816 7.90372 19.7913 7.63877 19.7913 7.3625V7.29167C19.7913 7.27187 19.7913 7.25417 19.7913 7.23437C19.7566 5.85701 19.1852 4.54769 18.1991 3.58547C17.2129 2.62326 15.89 2.08425 14.5122 2.08333H13.5413V1.04167C13.5413 0.765399 13.4316 0.500447 13.2362 0.305097C13.0409 0.109747 12.7759 0 12.4997 0C12.2234 0 11.9585 0.109747 11.7631 0.305097C11.5678 0.500447 11.458 0.765399 11.458 1.04167V2.08333H10.4872C9.23438 2.08467 8.02289 2.53149 7.06925 3.34394C6.11561 4.15638 5.48198 5.28148 5.2816 6.51815C5.08123 7.75482 5.32719 9.02244 5.9755 10.0944C6.62381 11.1664 7.63223 11.9729 8.82051 12.3698L11.458 13.25V20.8333H10.4872ZM13.5413 13.9448L15.5205 14.6052C16.2406 14.8449 16.8519 15.3329 17.245 15.9821C17.6381 16.6313 17.7873 17.3991 17.666 18.1483C17.5447 18.8974 17.1608 19.5789 16.583 20.0709C16.0051 20.5628 15.2711 20.8331 14.5122 20.8333H13.5413V13.9448ZM9.47884 10.3948C8.75878 10.1551 8.1475 9.66705 7.7544 9.0179C7.3613 8.36875 7.21204 7.60089 7.33332 6.85174C7.45461 6.1026 7.83853 5.42107 8.41637 4.92911C8.99422 4.43715 9.72828 4.16688 10.4872 4.16667H11.458V11.0552L9.47884 10.3948Z" fill="#9B9B9B"/>
</svg>
