<svg width="25" height="25" viewBox="0 0 25 25" fill="none" xmlns="http://www.w3.org/2000/svg">
<g clip-path="url(#clip0_4280_6974)">
<path d="M25 9.375C24.8651 10.1314 24.5645 10.8485 24.1198 11.475L14.9708 23.7875C14.6808 24.1622 14.3093 24.4661 13.8845 24.6761C13.4597 24.8861 12.9927 24.9968 12.5188 24.9997C12.0449 25.0026 11.5766 24.8977 11.1493 24.6929C10.7219 24.4881 10.3467 24.1889 10.0521 23.8177L0.858333 11.25C0.467792 10.6841 0.192097 10.0471 0.046875 9.375H6.57604L11.5271 22.249C11.6024 22.4459 11.7358 22.6154 11.9095 22.7349C12.0832 22.8545 12.2891 22.9185 12.5 22.9185C12.7109 22.9185 12.9168 22.8545 13.0905 22.7349C13.2642 22.6154 13.3976 22.4459 13.4729 22.249L18.424 9.375H25ZM18.4375 7.29167H24.9552C24.7968 6.58689 24.4927 5.92303 24.0625 5.34271L21.3979 1.74479C21.012 1.20548 20.5032 0.765887 19.9136 0.462457C19.3239 0.159028 18.6704 0.000496496 18.0073 2.01414e-06H15.7156L18.4375 7.29167ZM11.5708 2.01414e-06L8.80104 7.29167H16.2094L13.4948 2.01414e-06H11.5708ZM6.57292 7.29167L9.34167 2.01414e-06H6.92292C6.2654 -0.000645242 5.61711 0.154716 5.0313 0.453321C4.4455 0.751927 3.9389 1.18526 3.55312 1.71771L0.977083 5.09479C0.484172 5.74066 0.149526 6.49308 0 7.29167H6.57292ZM16.1917 9.375H8.80833L12.5 18.9729L16.1917 9.375Z" fill="#9B9B9B"/>
</g>
<defs>
<clipPath id="clip0_4280_6974">
<rect width="25" height="25" fill="white"/>
</clipPath>
</defs>
</svg>
