<svg width="32" height="32" viewBox="0 0 32 32" fill="none" xmlns="http://www.w3.org/2000/svg">
<path d="M0 10C0 4.47715 4.47715 0 10 0H22C27.5228 0 32 4.47715 32 10V22C32 27.5228 27.5228 32 22 32H10C4.47715 32 0 27.5228 0 22V10Z" fill="#2466F4"/>
<path d="M8.81543 9.91113C8.87012 9.67871 8.98405 9.54883 9.15723 9.52148C9.3304 9.48958 9.48763 9.54655 9.62891 9.69238C9.95703 10.0433 10.3079 10.3008 10.6816 10.4648C11.0553 10.6243 11.4359 10.7269 11.8232 10.7725C12.2106 10.8135 12.5866 10.834 12.9512 10.834C13.2884 10.834 13.6484 10.8112 14.0312 10.7656C14.4141 10.7201 14.8014 10.6768 15.1934 10.6357C15.5853 10.5902 15.9635 10.5674 16.3281 10.5674C17.4173 10.5674 18.3812 10.7474 19.2197 11.1074C20.0628 11.4674 20.7236 12.0143 21.2021 12.748C21.6807 13.4772 21.9199 14.3978 21.9199 15.5098C21.9199 15.6602 21.9154 15.8105 21.9062 15.9609C21.8971 16.1068 21.8835 16.2275 21.8652 16.3232C21.847 16.4463 21.7786 16.5283 21.6602 16.5693C21.5462 16.6058 21.4323 16.5739 21.3184 16.4736C20.8262 16.0179 20.3317 15.6784 19.835 15.4551C19.3428 15.2318 18.8529 15.0745 18.3652 14.9834C17.8776 14.8923 17.3968 14.8285 16.9229 14.792C16.4489 14.7555 15.984 14.7031 15.5283 14.6348C15.0726 14.5618 14.6305 14.4342 14.2021 14.252C13.7738 14.0651 13.3636 13.7757 12.9717 13.3838C12.8577 13.2699 12.7529 13.2471 12.6572 13.3154C12.5661 13.3792 12.5433 13.4704 12.5889 13.5889C12.7848 14.0947 13.0651 14.4889 13.4297 14.7715C13.7943 15.054 14.2181 15.2705 14.7012 15.4209C15.1888 15.5667 15.7106 15.6875 16.2666 15.7832C16.8271 15.8789 17.3991 15.9928 17.9824 16.125C18.5703 16.2572 19.1468 16.4486 19.7119 16.6992C20.2816 16.9499 20.8171 17.3053 21.3184 17.7656C21.4915 17.9342 21.6943 18.153 21.9268 18.4219C22.1637 18.6862 22.3916 18.9756 22.6104 19.29C22.8337 19.5999 23.016 19.9053 23.1572 20.2061C23.3031 20.5068 23.376 20.7757 23.376 21.0127C23.376 21.3135 23.2871 21.5618 23.1094 21.7578C22.9316 21.9538 22.7174 22.0518 22.4668 22.0518C22.3483 22.0518 22.2367 22.0176 22.1318 21.9492C22.0316 21.8854 21.9541 21.7715 21.8994 21.6074C21.749 21.138 21.5964 20.7096 21.4414 20.3223C21.291 19.9303 21.1133 19.568 20.9082 19.2354C20.7077 18.8981 20.4593 18.5745 20.1631 18.2646L21.0176 18.2852C20.9583 18.3991 20.8512 18.5518 20.6963 18.7432C20.5459 18.93 20.3431 19.1328 20.0879 19.3516C19.8372 19.5658 19.5319 19.7686 19.1719 19.96C18.8118 20.1514 18.3926 20.3086 17.9141 20.4316C17.4401 20.5547 16.9046 20.6162 16.3076 20.6162C15.1455 20.6162 14.0928 20.4157 13.1494 20.0146C12.2061 19.609 11.3949 19.0326 10.7158 18.2852C10.0413 17.5378 9.52181 16.6445 9.15723 15.6055C8.7972 14.5664 8.61719 13.4066 8.61719 12.126C8.61719 11.8206 8.63086 11.4629 8.6582 11.0527C8.6901 10.6426 8.74251 10.262 8.81543 9.91113Z" fill="white"/>
</svg>
