<svg width="104" height="18" viewBox="0 0 104 18" fill="none" xmlns="http://www.w3.org/2000/svg">
<path d="M6.32812 17.625C3.92578 17.625 1.69922 16.6992 0 14.9297L2.22656 12.4922C3.44531 13.7578 4.76953 14.3438 6.32812 14.3438C8.03906 14.3438 9.08203 13.582 9.09375 12.3281C9.08203 11.3203 8.40234 10.793 6.32812 10.2188L5.53125 10.0078C2.25 9.16406 0.597656 7.52344 0.609375 5.13281C0.597656 2.19141 3.15234 0 6.65625 0C8.83594 0 10.9219 0.914062 12.4922 2.50781L10.2891 4.96875C9.17578 3.84375 7.96875 3.28125 6.65625 3.28125C5.14453 3.28125 4.08984 4.03125 4.10156 5.10938C4.08984 5.95312 4.69922 6.41016 6.39844 6.84375L7.19531 7.05469C10.8867 8.05078 12.5742 9.66797 12.5859 12.2578C12.5742 15.4219 10.0078 17.625 6.32812 17.625Z" fill="black"/>
<path d="M13.8984 7.80469V5.20312H15.9141V2.20312H19.2422V5.20312H22.0547V7.80469H19.2422V12.7969C19.2305 13.9688 19.6992 14.4609 20.8125 14.4609C21.1875 14.4609 21.5977 14.4023 22.0547 14.2734V17.2969C21.5039 17.4961 20.8594 17.625 20.1328 17.625C17.4141 17.625 15.9023 15.9609 15.9141 12.9844V7.80469H13.8984Z" fill="black"/>
<path d="M30.0703 14.5781C31.8398 14.5781 33.1055 13.207 33.1172 11.25C33.1055 9.29297 31.8398 7.92188 30.0703 7.92188C28.2891 7.92188 27.0352 9.30469 27.0469 11.25C27.0352 13.1953 28.2891 14.5781 30.0703 14.5781ZM36.3516 17.2969H33.0234V15.6328H32.9297C32.168 16.9688 30.9375 17.625 29.3438 17.625C26.0273 17.625 23.6836 14.8828 23.6953 11.25C23.6836 7.61719 26.0273 4.875 29.3438 4.875C30.9375 4.875 32.1445 5.51953 32.9297 6.84375H33.0234V5.20312H36.3516V17.2969Z" fill="black"/>
<path d="M39.1875 17.2969V5.20312H42.5156V6.96094H42.6094C43.2305 5.68359 44.3906 4.875 45.7734 4.875C46.1602 4.875 46.5352 4.94531 46.9453 5.0625V8.22656C46.4414 8.09766 45.9375 8.02734 45.5156 8.01562C43.582 8.02734 42.5273 9.33984 42.5156 11.7422V17.2969H39.1875Z" fill="black"/>
<path d="M48.9375 7.80469V5.20312H50.9531V2.20312H54.2812V5.20312H57.0938V7.80469H54.2812V12.7969C54.2695 13.9688 54.7383 14.4609 55.8516 14.4609C56.2266 14.4609 56.6367 14.4023 57.0938 14.2734V17.2969C56.543 17.4961 55.8984 17.625 55.1719 17.625C52.4531 17.625 50.9414 15.9609 50.9531 12.9844V7.80469H48.9375Z" fill="black"/>
<path d="M59.5312 17.2969V0.328125H63V6.75H70.5469V0.328125H74.0156V17.2969H70.5469V10.0078H63V17.2969H59.5312Z" fill="#2466F4"/>
<path d="M88.4062 5.20312V17.2969H85.0781V15.5156H85.0078C84.3398 16.8164 83.0039 17.625 81.2812 17.625C78.5391 17.625 76.9336 15.6211 76.9453 12.375V5.20312H80.2734V11.8125C80.2617 13.5703 81.0938 14.5781 82.5234 14.5781C83.8242 14.5781 84.9023 13.7227 85.0781 11.7656V5.20312H88.4062Z" fill="#2466F4"/>
<path d="M91.2656 17.2969V0.328125H94.5938V6.84375H94.6875C95.4492 5.51953 96.668 4.875 98.2734 4.875C101.566 4.875 103.91 7.61719 103.922 11.25C103.91 14.8828 101.566 17.625 98.2734 17.625C96.668 17.625 95.4375 16.9688 94.6875 15.6328H94.5938V17.2969H91.2656ZM97.5469 14.5781C99.3047 14.5781 100.559 13.1953 100.57 11.25C100.559 9.30469 99.3047 7.92188 97.5469 7.92188C95.7539 7.92188 94.4883 9.29297 94.5 11.25C94.4883 13.207 95.7539 14.5781 97.5469 14.5781Z" fill="#2466F4"/>
</svg>
