<svg width="180" height="73" viewBox="0 0 180 73" fill="none" xmlns="http://www.w3.org/2000/svg">
<path d="M11.3999 73C7.26195 73 3.42682 71.4077 0.5 68.3642L4.33514 64.1719C6.43437 66.3487 8.71527 67.3565 11.3999 67.3565C14.3469 67.3565 16.1433 66.0464 16.1635 63.8897C16.1433 62.1563 14.9726 61.2493 11.3999 60.2617L10.0273 59.8989C4.37551 58.4477 1.52943 55.626 1.54962 51.5142C1.52943 46.4552 5.92975 42.6861 11.965 42.6861C15.7194 42.6861 19.3124 44.2583 22.0171 46.9994L18.2224 51.2321C16.3048 49.2971 14.2258 48.3297 11.965 48.3297C9.36119 48.3297 7.54454 49.6196 7.56473 51.4739C7.54454 52.9251 8.59416 53.7112 11.521 54.4569L12.8936 54.8197C19.2518 56.533 22.1584 59.3144 22.1786 63.7688C22.1584 69.2108 17.7379 73 11.3999 73Z" fill="#1F1F1F"/>
<path d="M24.4393 56.1097V51.6352H27.9111V46.4754H33.6437V51.6352H38.488V56.1097H33.6437V64.6959C33.6235 66.7115 34.4309 67.558 36.3484 67.558C36.9944 67.558 37.7008 67.4572 38.488 67.2355V72.4356C37.5394 72.7783 36.4292 73 35.1777 73C30.4948 73 27.891 70.1379 27.9111 65.0184V56.1097H24.4393Z" fill="#1F1F1F"/>
<path d="M52.2945 67.7596C55.3425 67.7596 57.5224 65.4014 57.5426 62.0354C57.5224 58.6694 55.3425 56.3113 52.2945 56.3113C49.2264 56.3113 47.0666 58.6896 47.0868 62.0354C47.0666 65.3812 49.2264 67.7596 52.2945 67.7596ZM63.1137 72.4356H57.3812V69.5736H57.2197C55.9076 71.8713 53.7882 73 51.0431 73C45.3307 73 41.2938 68.2836 41.3139 62.0354C41.2938 55.7872 45.3307 51.0708 51.0431 51.0708C53.7882 51.0708 55.8673 52.1794 57.2197 54.4569H57.3812V51.6352H63.1137V72.4356Z" fill="#1F1F1F"/>
<path d="M67.9984 72.4356V51.6352H73.7309V54.6585H73.8924C74.9622 52.4616 76.9605 51.0708 79.3424 51.0708C80.0085 51.0708 80.6544 51.1918 81.3609 51.3933V56.8353C80.4929 56.6136 79.6249 56.4926 78.8983 56.4725C75.5678 56.4926 73.7511 58.7501 73.7309 62.8819V72.4356H67.9984Z" fill="#1F1F1F"/>
<path d="M84.7923 56.1097V51.6352H88.2641V46.4754H93.9966V51.6352H98.841V56.1097H93.9966V64.6959C93.9764 66.7115 94.7838 67.558 96.7014 67.558C97.3473 67.558 98.0538 67.4572 98.841 67.2355V72.4356C97.8923 72.7783 96.7821 73 95.5307 73C90.8478 73 88.2439 70.1379 88.2641 65.0184V56.1097H84.7923Z" fill="#1F1F1F"/>
<path d="M103.039 72.4356V43.2505H109.014V54.2957H122.013V43.2505H127.988V72.4356H122.013V59.8989H109.014V72.4356H103.039Z" fill="#2466F4"/>
<path d="M152.775 51.6352V72.4356H147.043V69.372H146.922C145.771 71.6093 143.47 73 140.503 73C135.779 73 133.014 69.5534 133.034 63.9703V51.6352H138.767V63.0029C138.747 66.0262 140.18 67.7596 142.642 67.7596C144.883 67.7596 146.74 66.2882 147.043 62.9223V51.6352H152.775Z" fill="#2466F4"/>
<path d="M157.7 72.4356L157.551 43.0053L163.433 42.325V54.4569H163.594C164.906 52.1794 167.006 51.0708 169.771 51.0708C175.443 51.0708 179.48 55.7872 179.5 62.0354C179.48 68.2836 175.443 73 169.771 73C167.006 73 164.886 71.8713 163.594 69.5736H163.433V72.4356H157.7ZM168.519 67.7596C171.547 67.7596 173.707 65.3812 173.727 62.0354C173.707 58.6896 171.547 56.3113 168.519 56.3113C165.431 56.3113 163.251 58.6694 163.271 62.0354C163.251 65.4014 165.431 67.7596 168.519 67.7596Z" fill="#2466F4"/>
<path d="M109.931 1.46427C110.132 0.609683 110.551 0.13212 111.188 0.0315798C111.826 -0.0857166 112.404 0.123741 112.924 0.659953C114.132 1.95021 115.423 2.89696 116.799 3.5002C118.174 4.08668 119.575 4.46371 121 4.63127C122.426 4.78208 123.81 4.85749 125.151 4.85749C126.393 4.85749 127.718 4.77371 129.126 4.60614C130.535 4.43857 131.961 4.27939 133.403 4.12858C134.846 3.96101 136.238 3.87723 137.58 3.87723C141.588 3.87723 145.136 4.53911 148.222 5.86289C151.325 7.18666 153.757 9.19746 155.518 11.8953C157.279 14.5763 158.159 17.9612 158.159 22.0498C158.159 22.6028 158.143 23.1557 158.109 23.7087C158.075 24.2449 158.025 24.689 157.958 25.0408C157.891 25.4933 157.639 25.7949 157.203 25.9457C156.784 26.0798 156.365 25.9625 155.945 25.5938C154.134 23.9182 152.314 22.6698 150.486 21.8487C148.675 21.0276 146.872 20.4495 145.077 20.1144C143.282 19.7793 141.513 19.5447 139.768 19.4106C138.024 19.2766 136.313 19.0839 134.636 18.8325C132.959 18.5644 131.332 18.0952 129.755 17.425C128.179 16.7379 126.669 15.6739 125.227 14.2328C124.808 13.8139 124.422 13.7301 124.07 13.9815C123.734 14.2161 123.65 14.5512 123.818 14.9869C124.539 16.8469 125.571 18.2963 126.912 19.3352C128.254 20.3741 129.814 21.1701 131.592 21.723C133.387 22.2593 135.307 22.7033 137.353 23.0552C139.416 23.4071 141.521 23.826 143.668 24.3119C145.832 24.7979 147.953 25.5017 150.033 26.4233C152.13 27.3449 154.1 28.6519 155.945 30.3443C156.583 30.9643 157.329 31.7686 158.184 32.7573C159.057 33.7292 159.176 33.8409 160.035 34.9849C160.894 36.1288 161.528 37.247 162.048 38.3529C162.585 39.4589 163.385 41.5087 163.433 42.325C163.433 43.431 163.191 44.3026 162.537 45.0231C161.883 45.7437 161.094 46.1039 160.172 46.1039C159.736 46.1039 159.325 45.9783 158.939 45.7269C158.57 45.4923 158.137 45.1208 157.936 44.5175C157.554 42.9923 157.075 41.0802 156.505 39.6559C155.951 38.2148 155.191 36.9716 154.436 35.7483C153.698 34.5083 152.784 33.3186 151.694 32.1792L154.838 32.2546C154.62 32.6735 154.226 33.2348 153.656 33.9386C153.102 34.6256 152.356 35.3713 151.417 36.1756C150.494 36.9632 149.371 37.7089 148.046 38.4126C146.721 39.1164 145.178 39.6945 143.416 40.1469C141.672 40.5994 139.701 40.8256 137.504 40.8256C133.227 40.8256 129.353 40.0883 125.881 38.6137C122.409 37.1224 119.424 35.0027 116.925 32.2546C114.442 29.5065 112.53 26.2222 111.188 22.4017C109.863 18.5812 109.201 14.3166 109.201 9.60799C109.201 8.4853 109.251 7.1699 109.352 5.66181C109.469 4.15371 109.662 2.75453 109.931 1.46427Z" fill="#2466F4"/>
</svg>
