<svg width="134" height="55" viewBox="0 0 134 55" fill="none" xmlns="http://www.w3.org/2000/svg">
<path d="M8.15968 55C5.06202 55 2.19102 53.8003 0 51.5073L2.871 48.3487C4.44249 49.9887 6.14998 50.748 8.15968 50.748C10.3658 50.748 11.7106 49.761 11.7258 48.1361C11.7106 46.8301 10.8342 46.1468 8.15968 45.4027L7.13216 45.1293C2.90122 44.036 0.770636 41.91 0.785746 38.8121C0.770636 35.0005 4.06473 32.1608 8.58277 32.1608C11.3933 32.1608 14.083 33.3453 16.1078 35.4105L13.267 38.5995C11.8315 37.1417 10.2751 36.4128 8.58277 36.4128C6.63351 36.4128 5.27357 37.3847 5.28868 38.7817C5.27357 39.8751 6.05931 40.4673 8.25034 41.0292L9.27785 41.3025C14.0377 42.5933 16.2136 44.6889 16.2287 48.045C16.2136 52.1451 12.9044 55 8.15968 55Z" fill="#1F1F1F"/>
<path d="M17.9211 42.2744V38.9032H20.5201V35.0157H24.8115V38.9032H28.438V42.2744H24.8115V48.7435C24.7963 50.2621 25.4008 50.8999 26.8363 50.8999C27.3198 50.8999 27.8487 50.8239 28.438 50.6569V54.5748C27.7278 54.833 26.8967 55 25.9599 55C22.4542 55 20.505 52.8436 20.5201 48.9865V42.2744H17.9211Z" fill="#1F1F1F"/>
<path d="M38.7736 51.0517C41.0553 51.0517 42.6872 49.275 42.7023 46.739C42.6872 44.203 41.0553 42.4263 38.7736 42.4263C36.4768 42.4263 34.8599 44.2182 34.8751 46.739C34.8599 49.2598 36.4768 51.0517 38.7736 51.0517ZM46.8728 54.5748H42.5814V52.4184H42.4605C41.4783 54.1496 39.8917 55 37.8367 55C33.5604 55 30.5383 51.4466 30.5534 46.739C30.5383 42.0315 33.5604 38.478 37.8367 38.478C39.8917 38.478 41.4481 39.3132 42.4605 41.0292H42.5814V38.9032H46.8728V54.5748Z" fill="#1F1F1F"/>
<path d="M50.5295 54.5748V38.9032H54.8209V41.1811H54.9418C55.7427 39.5258 57.2386 38.478 59.0217 38.478C59.5203 38.478 60.0038 38.5691 60.5327 38.721V42.8211C59.883 42.6541 59.2332 42.563 58.6892 42.5478C56.196 42.563 54.836 44.2637 54.8209 47.3768V54.5748H50.5295Z" fill="#1F1F1F"/>
<path d="M63.1015 42.2744V38.9032H65.7005V35.0157H69.9919V38.9032H73.6184V42.2744H69.9919V48.7435C69.9768 50.2621 70.5812 50.8999 72.0167 50.8999C72.5002 50.8999 73.0291 50.8239 73.6184 50.6569V54.5748C72.9082 54.833 72.0771 55 71.1403 55C67.6346 55 65.6854 52.8436 65.7005 48.9865V42.2744H63.1015Z" fill="#1F1F1F"/>
<path d="M76.7614 54.5748V32.586H81.2341V40.9077H90.9653V32.586H95.438V54.5748H90.9653V45.1293H81.2341V54.5748H76.7614Z" fill="#2466F4"/>
<path d="M113.994 38.9032V54.5748H109.702V52.2666H109.612C108.75 53.9522 107.028 55 104.807 55C101.271 55 99.2005 52.4033 99.2156 48.1968V38.9032H103.507V47.4679C103.492 49.7458 104.565 51.0517 106.408 51.0517C108.085 51.0517 109.476 49.9432 109.702 47.4072V38.9032H113.994Z" fill="#2466F4"/>
<path d="M117.681 54.5748L117.569 32.4012L121.972 31.8887V41.0292H122.093C123.075 39.3132 124.647 38.478 126.717 38.478C130.963 38.478 133.985 42.0315 134 46.739C133.985 51.4466 130.963 55 126.717 55C124.647 55 123.06 54.1496 122.093 52.4184H121.972V54.5748H117.681ZM125.78 51.0517C128.046 51.0517 129.663 49.2598 129.678 46.739C129.663 44.2182 128.046 42.4263 125.78 42.4263C123.468 42.4263 121.836 44.203 121.851 46.739C121.836 49.275 123.468 51.0517 125.78 51.0517Z" fill="#2466F4"/>
<path d="M81.9201 1.10322C82.0707 0.459351 82.3846 0.0995421 82.8617 0.023793C83.3389 -0.064581 83.772 0.0932297 84.1613 0.497225C85.0653 1.46934 86.0321 2.18264 87.0617 2.63714C88.0912 3.07901 89.1396 3.36307 90.2069 3.48932C91.2741 3.60294 92.31 3.65975 93.3145 3.65975C94.2436 3.65975 95.2355 3.59663 96.2902 3.47038C97.3449 3.34413 98.4121 3.22419 99.4919 3.11057C100.572 2.98432 101.614 2.9212 102.618 2.9212C105.619 2.9212 108.275 3.41988 110.585 4.41724C112.908 5.41461 114.728 6.92959 116.047 8.96219C117.365 10.9822 118.024 13.5324 118.024 16.6129C118.024 17.0295 118.012 17.4461 117.987 17.8627C117.961 18.2667 117.924 18.6013 117.874 18.8664C117.823 19.2073 117.635 19.4345 117.309 19.5481C116.995 19.6491 116.681 19.5608 116.367 19.283C115.011 18.0205 113.649 17.08 112.28 16.4614C110.924 15.8427 109.574 15.4072 108.231 15.1547C106.887 14.9022 105.563 14.7254 104.257 14.6244C102.951 14.5234 101.67 14.3783 100.415 14.1889C99.1592 13.9869 97.9413 13.6334 96.761 13.1284C95.5808 12.6108 94.4508 11.8091 93.371 10.7234C93.0571 10.4077 92.7683 10.3446 92.5046 10.534C92.2535 10.7107 92.1907 10.9632 92.3163 11.2915C92.8562 12.6928 93.6283 13.7849 94.6328 14.5676C95.6373 15.3504 96.805 15.9501 98.1359 16.3667C99.4794 16.7707 100.917 17.1052 102.449 17.3703C103.993 17.6355 105.569 17.9511 107.176 18.3172C108.796 18.6833 110.384 19.2136 111.941 19.9079C113.51 20.6023 114.986 21.587 116.367 22.8622C116.844 23.3293 117.403 23.9353 118.043 24.6801C118.696 25.4124 118.786 25.4966 119.429 26.3585C120.071 27.2203 120.546 28.0628 120.935 28.8961C121.337 29.7293 121.936 31.2737 121.972 31.8887C121.972 32.7219 121.791 33.3787 121.301 33.9215C120.812 34.4644 120.222 34.7358 119.531 34.7358C119.205 34.7358 118.897 34.6412 118.608 34.4518C118.332 34.275 118.008 33.9951 117.857 33.5406C117.571 32.3915 117.213 30.9508 116.786 29.8777C116.371 28.792 115.802 27.8553 115.237 26.9337C114.684 25.9994 114 25.1031 113.184 24.2446L115.538 24.3014C115.375 24.617 115.08 25.0399 114.653 25.5702C114.239 26.0878 113.68 26.6496 112.977 27.2556C112.286 27.849 111.445 28.4108 110.453 28.941C109.461 29.4713 108.306 29.9068 106.988 30.2477C105.682 30.5886 104.207 30.759 102.562 30.759C99.3601 30.759 96.4597 30.2035 93.8606 29.0925C91.2616 27.9689 89.0266 26.3719 87.1558 24.3014C85.2976 22.2309 83.8662 19.7564 82.8617 16.878C81.8698 13.9995 81.3739 10.7865 81.3739 7.2389C81.3739 6.39303 81.4116 5.40198 81.4869 4.26575C81.5748 3.12951 81.7192 2.07533 81.9201 1.10322Z" fill="#2466F4"/>
</svg>
