<svg width="7" height="11" viewBox="0 0 7 11" fill="none" xmlns="http://www.w3.org/2000/svg">
<path d="M1.75977 3.46289C1.75977 3.59473 1.82275 3.66064 1.94873 3.66064H2.854C2.98291 3.66064 3.04736 3.59473 3.04736 3.46289V2.58838C3.04736 2.45654 2.98291 2.39062 2.854 2.39062H1.94873C1.82275 2.39062 1.75977 2.45654 1.75977 2.58838V3.46289ZM3.95264 3.46289C3.95264 3.59473 4.01562 3.66064 4.1416 3.66064H5.04688C5.17285 3.66064 5.23584 3.59473 5.23584 3.46289V2.58838C5.23584 2.45654 5.17285 2.39062 5.04688 2.39062H4.1416C4.01562 2.39062 3.95264 2.45654 3.95264 2.58838V3.46289ZM1.75977 5.31299C1.75977 5.44189 1.82275 5.50635 1.94873 5.50635H2.854C2.98291 5.50635 3.04736 5.44189 3.04736 5.31299V4.43408C3.04736 4.30518 2.98291 4.24072 2.854 4.24072H1.94873C1.82275 4.24072 1.75977 4.30518 1.75977 4.43408V5.31299ZM3.95264 5.31299C3.95264 5.44189 4.01562 5.50635 4.1416 5.50635H5.04688C5.17285 5.50635 5.23584 5.44189 5.23584 5.31299V4.43408C5.23584 4.30518 5.17285 4.24072 5.04688 4.24072H4.1416C4.01562 4.24072 3.95264 4.30518 3.95264 4.43408V5.31299ZM1.75977 7.15869C1.75977 7.29053 1.82275 7.35645 1.94873 7.35645H2.854C2.98291 7.35645 3.04736 7.29053 3.04736 7.15869V6.28418C3.04736 6.15234 2.98291 6.08643 2.854 6.08643H1.94873C1.82275 6.08643 1.75977 6.15234 1.75977 6.28418V7.15869ZM3.95264 7.15869C3.95264 7.29053 4.01562 7.35645 4.1416 7.35645H5.04688C5.17285 7.35645 5.23584 7.29053 5.23584 7.15869V6.28418C5.23584 6.15234 5.17285 6.08643 5.04688 6.08643H4.1416C4.01562 6.08643 3.95264 6.15234 3.95264 6.28418V7.15869ZM1.20166 10.9688C0.990723 10.9688 0.822266 10.8999 0.696289 10.7622C0.573242 10.6245 0.511719 10.4414 0.511719 10.2129V1.44141C0.511719 1.20996 0.573242 1.02686 0.696289 0.89209C0.822266 0.754395 0.990723 0.685547 1.20166 0.685547H5.79395C6.00781 0.685547 6.17627 0.754395 6.29932 0.89209C6.42236 1.02686 6.48389 1.20996 6.48389 1.44141V10.2129C6.48389 10.4414 6.42236 10.6245 6.29932 10.7622C6.17627 10.8999 6.00781 10.9688 5.79395 10.9688H1.20166ZM2.43652 10.292H4.55908V8.98242C4.55908 8.86816 4.52832 8.77881 4.4668 8.71436C4.40527 8.6499 4.31592 8.61768 4.19873 8.61768H2.80127C2.68701 8.61768 2.59766 8.6499 2.5332 8.71436C2.46875 8.77881 2.43652 8.86816 2.43652 8.98242V10.292Z" fill="#F59E3B"/>
</svg>
