<svg width="10" height="14" viewBox="0 0 10 14" fill="none" xmlns="http://www.w3.org/2000/svg">
<path d="M0.869141 7.44922C0.869141 7.33203 0.919922 7.20703 1.02148 7.07422L6.34766 0.423828C6.44531 0.298828 6.55078 0.222656 6.66406 0.195312C6.78125 0.167969 6.88477 0.179687 6.97461 0.230469C7.06836 0.277344 7.13281 0.355469 7.16797 0.464844C7.20703 0.574219 7.19727 0.703125 7.13867 0.851562L5.39258 5.59766H8.70312C8.82812 5.59766 8.92969 5.63672 9.00781 5.71484C9.08594 5.78906 9.125 5.88281 9.125 5.99609C9.125 6.11719 9.07422 6.24219 8.97266 6.37109L3.64648 13.0273C3.54883 13.1484 3.44141 13.2227 3.32422 13.25C3.21094 13.2812 3.10742 13.2715 3.01367 13.2207C2.92383 13.1738 2.85938 13.0957 2.82031 12.9863C2.78516 12.877 2.79688 12.7461 2.85547 12.5938L4.60156 7.84766H1.29102C1.16602 7.84766 1.06445 7.81055 0.986328 7.73633C0.908203 7.6582 0.869141 7.5625 0.869141 7.44922Z" fill="#FF6565"/>
</svg>