<svg width="17" height="12" viewBox="0 0 17 12" fill="none" xmlns="http://www.w3.org/2000/svg">
<path d="M7.87305 11.0371C7.41211 11.0371 7.08789 10.9707 6.90039 10.8379C6.7168 10.709 6.625 10.5156 6.625 10.2578C6.625 9.87891 6.73828 9.48242 6.96484 9.06836C7.19141 8.65039 7.51953 8.25977 7.94922 7.89648C8.37891 7.5293 8.89648 7.23242 9.50195 7.00586C10.1113 6.77539 10.7949 6.66016 11.5527 6.66016C12.3145 6.66016 12.998 6.77539 13.6035 7.00586C14.2129 7.23242 14.7305 7.5293 15.1562 7.89648C15.5859 8.25977 15.9141 8.65039 16.1406 9.06836C16.3711 9.48242 16.4863 9.87891 16.4863 10.2578C16.4863 10.5156 16.3926 10.709 16.2051 10.8379C16.0176 10.9707 15.6934 11.0371 15.2324 11.0371H7.87305ZM11.5586 5.61133C11.1367 5.61133 10.748 5.49805 10.3926 5.27148C10.0371 5.04102 9.75195 4.73242 9.53711 4.3457C9.32227 3.95508 9.21484 3.51758 9.21484 3.0332C9.21484 2.55664 9.32227 2.12695 9.53711 1.74414C9.75586 1.36133 10.043 1.05859 10.3984 0.835938C10.7539 0.613281 11.1406 0.501953 11.5586 0.501953C11.9766 0.501953 12.3633 0.611328 12.7188 0.830078C13.0742 1.04883 13.3594 1.34961 13.5742 1.73242C13.7891 2.11133 13.8965 2.54102 13.8965 3.02148C13.8965 3.50977 13.7891 3.94922 13.5742 4.33984C13.3594 4.73047 13.0742 5.04102 12.7188 5.27148C12.3633 5.49805 11.9766 5.61133 11.5586 5.61133ZM1.54492 11.0371C1.17383 11.0371 0.908203 10.9648 0.748047 10.8203C0.591797 10.6797 0.513672 10.4766 0.513672 10.2109C0.513672 9.80859 0.613281 9.39844 0.8125 8.98047C1.01172 8.55859 1.29688 8.17188 1.66797 7.82031C2.04297 7.46875 2.49414 7.18555 3.02148 6.9707C3.55273 6.75195 4.14844 6.64258 4.80859 6.64258C5.35547 6.64258 5.83984 6.71484 6.26172 6.85938C6.6875 7 7.06445 7.17969 7.39258 7.39844C7.07617 7.64453 6.79688 7.92969 6.55469 8.25391C6.31641 8.57422 6.12891 8.90625 5.99219 9.25C5.85547 9.59375 5.7832 9.92188 5.77539 10.2344C5.76758 10.5469 5.83984 10.8145 5.99219 11.0371H1.54492ZM4.80859 5.74609C4.44531 5.74609 4.10742 5.64648 3.79492 5.44727C3.48633 5.24805 3.23828 4.97852 3.05078 4.63867C2.86328 4.29883 2.76953 3.91992 2.76953 3.50195C2.76953 3.08398 2.86328 2.70898 3.05078 2.37695C3.24219 2.04492 3.49219 1.7832 3.80078 1.5918C4.11328 1.39648 4.44922 1.29883 4.80859 1.29883C5.17188 1.29883 5.50781 1.39453 5.81641 1.58594C6.12891 1.77344 6.37891 2.0332 6.56641 2.36523C6.75391 2.69336 6.84766 3.06836 6.84766 3.49023C6.84766 3.91211 6.75391 4.29492 6.56641 4.63867C6.37891 4.97852 6.13086 5.24805 5.82227 5.44727C5.51367 5.64648 5.17578 5.74609 4.80859 5.74609Z" fill="#1A8DFF"/>
</svg>
